<svg id="Layer_1" data-name="Layer 1" xmlns="http://www.w3.org/2000/svg" viewBox="0 0 956.6 472.6"><defs><style>.cls-1{fill:#fafbfb;}</style></defs><path class="cls-1" d="M263.7,180.7v87.9h.1V180.7Zm0-31.8v21.3h.1V148.9Z" transform="translate(-240.4 -148.8)"/><path class="cls-1" d="M332.7,182.1a27.6,27.6,0,0,1,10.1,9.7v-42h23.3V268.6H343.8V256.5c-3.3,5.2-7.1,9-11.3,11.3s-9.4,3.6-15.6,3.6c-10.3,0-18.9-4.2-26-12.5s-10.5-19-10.5-32c0-15,3.5-26.8,10.4-35.4s16.1-12.9,27.7-12.9A27.7,27.7,0,0,1,332.7,182.1Zm5.7,62.7c3.3-4.9,5-11.2,5-18.9,0-10.7-2.7-18.4-8.1-23a17.4,17.4,0,0,0-11.6-4.2c-6.8,0-11.7,2.5-14.8,7.6s-4.8,11.4-4.8,18.9,1.6,14.6,4.8,19.5,8.1,7.3,14.6,7.3S335,249.6,338.4,244.8Z" transform="translate(-240.4 -148.8)"/><path class="cls-1" d="M444.4,182.4a36.1,36.1,0,0,1,15.2,13.1,43.7,43.7,0,0,1,7,18.1,106.6,106.6,0,0,1,.7,17.5h-64c.3,8.8,3.4,15,9.2,18.6a23.2,23.2,0,0,0,12.6,3.3c5.3,0,9.5-1.4,12.8-4.1a18.6,18.6,0,0,0,4.8-6h23.4c-.6,5.2-3.4,10.5-8.5,15.9-7.9,8.6-18.9,12.8-33.1,12.8a48.2,48.2,0,0,1-31-10.8c-8.9-7.2-13.4-18.9-13.4-35.2s4-26.9,12.1-35.1,18.6-12.2,31.5-12.2A51.3,51.3,0,0,1,444.4,182.4ZM410,202.3c-3.3,3.4-5.3,7.9-6.2,13.6h39.7c-.5-6.1-2.5-10.7-6.2-13.9a20.3,20.3,0,0,0-13.6-4.7C417.8,197.3,413.2,199,410,202.3Z" transform="translate(-240.4 -148.8)"/><path class="cls-1" d="M513.8,215.1a34.7,34.7,0,0,0,9.2-2c3.3-1.4,5-3.6,5-6.5s-1.3-6.1-3.8-7.5S517.9,197,513,197s-9.4,1.4-11.7,4.1a17.7,17.7,0,0,0-3.3,8.1H475.8c.5-7.7,2.7-14.1,6.5-19,6.1-7.8,16.6-11.6,31.5-11.6a56.2,56.2,0,0,1,25.7,5.7c7.6,3.8,11.3,11,11.3,21.6v40.4c0,2.8.1,6.2.2,10.2s.6,5,1.3,6.1a8.5,8.5,0,0,0,3.4,2.7v3.3h-25a19.8,19.8,0,0,1-1.4-5c-.3-1.5-.5-3.3-.7-5.3a46.8,46.8,0,0,1-11,8.8,32.9,32.9,0,0,1-16.9,4.3c-8,0-14.6-2.3-19.9-6.8s-7.8-11-7.8-19.4c0-10.8,4.2-18.6,12.6-23.5,4.6-2.6,11.4-4.5,20.3-5.6Zm14.1,10.8a31.1,31.1,0,0,1-4.5,2.2,46.8,46.8,0,0,1-6.1,1.6l-5.3.9c-4.9.9-8.4,1.9-10.6,3.2a10.4,10.4,0,0,0-5.4,9.7c0,4,1.1,6.8,3.3,8.6a12.9,12.9,0,0,0,8.1,2.6,24.1,24.1,0,0,0,13.9-4.4q6.3-4.4,6.6-15.9Z" transform="translate(-240.4 -148.8)"/><path class="cls-1" d="M588.8,240.6c.4,4,1.5,7,3.1,8.7s8.2,4.6,15.9,4.6c4.6,0,8.2-.7,10.8-2s4.1-3.4,4.1-6.1a6.5,6.5,0,0,0-3.3-5.9c-2.1-1.3-10.2-3.7-24-6.9-10-2.5-17.1-5.6-21.2-9.3s-6.1-8.9-6.1-15.8,3.2-15.1,9.6-21,15.4-8.7,27-8.7,19.9,2.2,26.8,6.5,11,12,12,22.8h-23a14.2,14.2,0,0,0-2.5-7.1c-2.6-3.1-6.9-4.6-13-4.6s-8.6.7-10.7,2.3-3.2,3.4-3.2,5.5a6,6,0,0,0,3.4,5.7c2.3,1.3,10.3,3.4,24,6.4,9.2,2.1,16,5.4,20.6,9.8a22.2,22.2,0,0,1,6.8,16.5,26.9,26.9,0,0,1-9.7,21.4c-6.5,5.5-16.6,8.2-30.2,8.2s-24.1-2.9-30.7-8.7a28.6,28.6,0,0,1-9.9-22.3Z" transform="translate(-240.4 -148.8)"/><path class="cls-1" d="M999.8,415.2c-7.5,9.1-18.7,13.7-33.9,13.7s-26.4-4.6-33.8-13.7S921,395,921,382.1s3.7-23.7,11.1-33,18.7-14,33.8-14,26.4,4.7,33.9,14,11.1,20.3,11.1,33S1007.2,406,999.8,415.2Zm-18.5-12.7c3.7-4.8,5.5-11.6,5.5-20.4s-1.8-15.6-5.5-20.4-8.7-7.1-15.4-7.1-12,2.4-15.6,7.1-5.4,11.6-5.4,20.4,1.8,15.6,5.4,20.4,8.8,7.1,15.6,7.1S977.7,407.2,981.3,402.5Z" transform="translate(-240.4 -148.8)"/><path class="cls-1" d="M263.7,467v21.2h0V467Zm-23.3,21.2h0V467h0Z" transform="translate(-240.4 -148.8)"/><path class="cls-1" d="M395.8,499.1A24.4,24.4,0,0,1,406,507a23.9,23.9,0,0,1,5,11.3,69.8,69.8,0,0,1,.9,13l-.2,55.4H388.1v-56a17.9,17.9,0,0,0-1.6-8.2c-2-4.1-5.8-6.2-11.3-6.2s-10.7,2.7-13.1,7.9a24,24,0,0,0-1.9,10.1v52.4H337V534.3c0-5.2-.5-9-1.6-11.4q-2.8-6.3-11.4-6.3t-13.2,6.3c-1.2,2.5-1.9,6.1-1.9,10.9v52.9H285.6V498.9H308v12.8c2.8-4.6,5.5-7.8,8-9.7,4.5-3.5,10.3-5.2,17.4-5.2s12.2,1.5,16.3,4.4a26.5,26.5,0,0,1,7.6,10.6,28.6,28.6,0,0,1,11.2-11.4,34.3,34.3,0,0,1,15.8-3.6A29.2,29.2,0,0,1,395.8,499.1Z" transform="translate(-240.4 -148.8)"/><path class="cls-1" d="M507,508.2c7.2,7.6,10.8,18.7,10.8,33.4s-3.5,27.3-10.6,35.4-16,12.2-27.1,12.2c-7,0-12.8-1.7-17.5-5.2a38,38,0,0,1-7.5-8.5v45.8H432.4V498.7h22v13a35.6,35.6,0,0,1,8-9,29.3,29.3,0,0,1,18.3-5.9A34.8,34.8,0,0,1,507,508.2Zm-17.7,16.5c-3.1-5.2-8.2-7.8-15.2-7.8s-14.2,3.9-17.3,11.9c-1.7,4.2-2.5,9.5-2.5,15.9,0,10.3,2.8,17.4,8.2,21.6a19.3,19.3,0,0,0,11.6,3.6c6.5,0,11.4-2.5,14.8-7.4S494,551,494,542.7A33.6,33.6,0,0,0,489.3,524.7Z" transform="translate(-240.4 -148.8)"/><path class="cls-1" d="M582.9,496.7h1.9v23.6L581,520h-2.8q-13.8,0-18.6,9c-1.8,3.4-2.7,8.6-2.7,15.7v42H533.7v-88h22v15.4c3.6-5.9,6.6-9.9,9.3-12.1q6.4-5.4,16.8-5.4Z" transform="translate(-240.4 -148.8)"/><path class="cls-1" d="M655.7,500.5a36.5,36.5,0,0,1,15.2,13,44.1,44.1,0,0,1,7,18.2,119.3,119.3,0,0,1,.7,17.5H614.5c.4,8.8,3.5,15,9.2,18.5a23.8,23.8,0,0,0,12.7,3.4c5.3,0,9.5-1.4,12.8-4.1a18.2,18.2,0,0,0,4.7-6h23.5c-.6,5.2-3.4,10.5-8.5,15.9-7.9,8.5-18.9,12.8-33.1,12.8a48.2,48.2,0,0,1-31-10.8c-8.9-7.2-13.4-19-13.4-35.3s4-26.9,12.1-35,18.6-12.2,31.5-12.2A51.3,51.3,0,0,1,655.7,500.5Zm-34.5,19.9c-3.2,3.3-5.3,7.9-6.1,13.6h39.6c-.4-6.1-2.4-10.7-6.1-13.9a19.9,19.9,0,0,0-13.6-4.7C629.1,515.4,624.5,517,621.2,520.4Z" transform="translate(-240.4 -148.8)"/><path class="cls-1" d="M708.1,558.6c.5,4.1,1.5,7,3.2,8.7s8.1,4.6,15.9,4.6c4.5,0,8.1-.6,10.8-2a6.3,6.3,0,0,0,4-6,6.6,6.6,0,0,0-3.2-5.9c-2.2-1.4-10.2-3.7-24.1-7-10-2.4-17-5.5-21.1-9.2s-6.2-9-6.2-15.9,3.2-15.1,9.6-20.9,15.4-8.8,27-8.8,20,2.2,26.9,6.6,10.9,12,11.9,22.7h-23a13,13,0,0,0-2.5-7c-2.5-3.1-6.8-4.7-12.9-4.7s-8.6.8-10.8,2.4a6.8,6.8,0,0,0-3.2,5.5,6.1,6.1,0,0,0,3.4,5.7c2.3,1.2,10.3,3.3,24.1,6.4,9.1,2.1,16,5.4,20.6,9.7a22.4,22.4,0,0,1,6.8,16.6,26.7,26.7,0,0,1-9.8,21.3c-6.5,5.5-16.5,8.3-30.1,8.3s-24.1-2.9-30.7-8.8-9.9-13.2-9.9-22.3Z" transform="translate(-240.4 -148.8)"/><path class="cls-1" d="M800,558.6c.5,4.1,1.6,7,3.2,8.7s8.2,4.6,15.9,4.6c4.5,0,8.2-.6,10.8-2a6.3,6.3,0,0,0,4-6,6.4,6.4,0,0,0-3.2-5.9c-2.1-1.4-10.2-3.7-24.1-7-10-2.4-17-5.5-21.1-9.2s-6.1-9-6.1-15.9,3.2-15.1,9.6-20.9,15.3-8.8,26.9-8.8,20,2.2,26.9,6.6,10.9,12,12,22.7h-23a14.9,14.9,0,0,0-2.5-7c-2.6-3.1-6.9-4.7-13-4.7s-8.6.8-10.7,2.4a6.5,6.5,0,0,0-3.2,5.5,6,6,0,0,0,3.4,5.7c2.3,1.2,10.3,3.3,24,6.4,9.2,2.1,16,5.4,20.6,9.7a22.4,22.4,0,0,1,6.8,16.6,26.7,26.7,0,0,1-9.8,21.3c-6.5,5.5-16.5,8.3-30.1,8.3s-24.1-2.9-30.7-8.8-9.9-13.2-9.9-22.3Z" transform="translate(-240.4 -148.8)"/><path class="cls-1" d="M874.5,498.7v88h23.3v-88Z" transform="translate(-240.4 -148.8)"/><rect class="cls-1" x="634.1" y="318.2" width="23.3" height="21.23"/><path class="cls-1" d="M993.5,576c-7.5,9.1-18.7,13.7-33.9,13.7s-26.4-4.6-33.8-13.7-11.1-20.3-11.1-33.2,3.7-23.6,11.1-32.9,18.7-14,33.8-14,26.4,4.7,33.9,14,11.1,20.3,11.1,32.9S1000.9,566.8,993.5,576ZM975,563.2c3.7-4.7,5.5-11.5,5.5-20.4s-1.8-15.6-5.5-20.3-8.7-7.1-15.5-7.1-11.9,2.3-15.5,7.1-5.4,11.5-5.4,20.3,1.8,15.7,5.4,20.4,8.8,7.2,15.5,7.2S971.4,568,975,563.2Z" transform="translate(-240.4 -148.8)"/><path class="cls-1" d="M1092,503.8c5.8,4.7,8.6,12.6,8.6,23.7v59.2h-23.5V533.2c0-4.6-.6-8.2-1.9-10.7-2.2-4.5-6.5-6.7-12.8-6.7s-13,3.3-15.9,9.9a34.3,34.3,0,0,0-2.3,13.4v47.6h-23V498.9h22.3v12.8c2.9-4.5,5.7-7.8,8.4-9.7,4.7-3.6,10.6-5.4,17.9-5.4Q1083.3,496.6,1092,503.8Z" transform="translate(-240.4 -148.8)"/><path class="cls-1" d="M1139.9,558.6c.5,4.1,1.5,7,3.1,8.7s8.2,4.6,15.9,4.6c4.6,0,8.2-.6,10.9-2s4-3.3,4-6a6.4,6.4,0,0,0-3.3-5.9c-2.1-1.4-10.1-3.7-24-7-10-2.4-17.1-5.5-21.1-9.2s-6.2-9-6.2-15.9,3.2-15.1,9.6-20.9,15.4-8.8,27-8.8,19.9,2.2,26.9,6.6,10.9,12,11.9,22.7h-23a13.9,13.9,0,0,0-2.5-7c-2.5-3.1-6.9-4.7-13-4.7s-8.6.8-10.7,2.4a6.8,6.8,0,0,0-3.2,5.5,6.1,6.1,0,0,0,3.4,5.7c2.3,1.2,10.3,3.3,24,6.4,9.2,2.1,16.1,5.4,20.7,9.7a22.3,22.3,0,0,1,6.7,16.6c0,8.7-3.2,15.8-9.7,21.3s-16.6,8.3-30.1,8.3-24.1-2.9-30.7-8.8-9.9-13.2-9.9-22.3Z" transform="translate(-240.4 -148.8)"/><polygon class="cls-1" points="23.3 349.9 23.3 437.9 0 437.9 0 349.9 0 349.9 0 0.1 23.3 0.1 23.3 349.9 23.3 349.9"/><rect class="cls-1" width="23.2" height="0.15"/><path class="cls-1" d="M897.3,355.1v46.5c0,3.6.5,5.9,1.4,6.8s3.7,1.3,8.4,1.3h4.5v17.1l-10.9.5c-10.9.3-18.3-1.6-22.3-5.7-2.6-2.6-3.8-6.7-3.8-12.2V355.1H862.3V338.8h12.3V314.2h0V148.8h22.7V314.2h0v24.6h14.3v16.3Z" transform="translate(-240.4 -148.8)"/></svg>