<svg id="Group_228" data-name="Group 228" xmlns="http://www.w3.org/2000/svg" width="229.534" height="280.609" viewBox="0 0 229.534 280.609">
  <path id="Path_628" data-name="Path 628" d="M202.963,349.951l.042,4.118.042,4.116,3.545-2.094,3.545-2.1Zm3.083,4.907-1.686,1-.019-1.958-.021-1.958,3.411,1.923Z" transform="translate(-116.024 -200.049)" fill="#fff"/>
  <rect id="Rectangle_57" data-name="Rectangle 57" width="61.194" height="0.615" transform="translate(55.222 209.057) rotate(-58.325)" fill="#fff"/>
  <path id="Path_629" data-name="Path 629" d="M34.562,634.444l.12-4.116.121-4.115-3.624,1.953-3.625,1.954Zm-2.888-5.025,1.724-.929-.058,1.957-.057,1.956-3.333-2.056Z" transform="translate(-15.751 -357.974)" fill="#fff"/>
  <rect id="Rectangle_58" data-name="Rectangle 58" width="83.839" height="0.615" transform="matrix(0.525, -0.851, 0.851, 0.525, 17.386, 270.376)" fill="#fff"/>
  <path id="Path_630" data-name="Path 630" d="M227.606,367.79l.042,4.118.042,4.116,3.545-2.094,3.545-2.1Zm3.083,4.907-1.686,1-.019-1.958-.021-1.958,3.411,1.923Z" transform="translate(-130.111 -210.247)" fill="#fff"/>
  <rect id="Rectangle_59" data-name="Rectangle 59" width="61.194" height="0.615" transform="translate(65.778 216.699) rotate(-58.325)" fill="#fff"/>
  <path id="Path_631" data-name="Path 631" d="M80.419,618.019l.12-4.116.121-4.115-3.624,1.953-3.625,1.954Zm-2.888-5.025,1.724-.929-.058,1.957-.057,1.956-3.333-2.056Z" transform="translate(-41.965 -348.585)" fill="#fff"/>
  <rect id="Rectangle_60" data-name="Rectangle 60" width="64.655" height="0.615" transform="matrix(0.525, -0.851, 0.851, 0.525, 38.015, 261.691)" fill="#fff"/>
  <path id="Path_632" data-name="Path 632" d="M254.06,382.52l.042,4.118.042,4.116,3.545-2.094,3.545-2.1Zm3.083,4.907-1.686,1-.019-1.958-.021-1.958,3.411,1.923Z" transform="translate(-145.233 -218.667)" fill="#fff"/>
  <rect id="Rectangle_61" data-name="Rectangle 61" width="61.194" height="0.615" transform="translate(77.109 223.008) rotate(-58.325)" fill="#fff"/>
  <path id="Path_633" data-name="Path 633" d="M106.05,633.988l.12-4.116.121-4.115-3.624,1.953-3.625,1.954Zm-2.888-5.025,1.724-.929-.058,1.957-.057,1.956-3.333-2.056Z" transform="translate(-56.617 -357.713)" fill="#fff"/>
  <rect id="Rectangle_62" data-name="Rectangle 62" width="65.393" height="0.615" transform="matrix(0.525, -0.851, 0.851, 0.525, 48.959, 268.629)" fill="#fff"/>
  <path id="Path_634" data-name="Path 634" d="M207.2,372.323l.042,4.118.042,4.116,3.545-2.094,3.545-2.1Zm3.083,4.907-1.686,1-.019-1.958-.021-1.958,3.411,1.923Z" transform="translate(-118.445 -212.838)" fill="#fff"/>
  <rect id="Rectangle_63" data-name="Rectangle 63" width="61.194" height="0.615" transform="translate(57.036 218.64) rotate(-58.325)" fill="#fff"/>
  <path id="Path_635" data-name="Path 635" d="M57.285,626.645l.12-4.116.121-4.115L53.9,620.367l-3.625,1.954ZM54.4,621.62l1.724-.929-.058,1.957-.057,1.956-3.333-2.056Z" transform="translate(-28.741 -353.516)" fill="#fff"/>
  <rect id="Rectangle_64" data-name="Rectangle 64" width="67.122" height="0.615" transform="matrix(0.525, -0.851, 0.851, 0.525, 27.981, 265.608)" fill="#fff"/>
  <path id="Path_636" data-name="Path 636" d="M234.106,388.449l.042,4.118.042,4.116,3.545-2.094,3.545-2.1Zm3.083,4.907-1.686,1-.019-1.958-.021-1.958,3.411,1.923Z" transform="translate(-133.826 -222.056)" fill="#fff"/>
  <rect id="Rectangle_65" data-name="Rectangle 65" width="61.194" height="0.615" transform="translate(68.562 225.548) rotate(-58.325)" fill="#fff"/>
  <path id="Path_637" data-name="Path 637" d="M104.956,609.362l.12-4.116.121-4.115-3.624,1.953-3.625,1.954Zm-2.888-5.025,1.724-.929-.058,1.957-.057,1.956-3.333-2.056Z" transform="translate(-55.992 -343.636)" fill="#fff"/>
  <rect id="Rectangle_66" data-name="Rectangle 66" width="50.79" height="0.615" transform="matrix(0.525, -0.851, 0.851, 0.525, 48.08, 258.741)" fill="#fff"/>
  <path id="Path_638" data-name="Path 638" d="M1.065,638.014l1.695.979,1.7.979-1.7.978-1.695.979ZM0,644.09l3.566-2.059,3.565-2.058-3.565-2.059L0,635.855Z" transform="translate(0 -363.486)" fill="#fff"/>
  <rect id="Rectangle_67" data-name="Rectangle 67" width="138.825" height="0.615" transform="translate(5.898 276.183)" fill="#fff"/>
  <path id="Path_639" data-name="Path 639" d="M504.975,640.963l-1.7-.979,1.7-.978,1.7-.979v3.916Zm-.806-3.037-3.565,2.058,3.565,2.059,3.566,2.059v-8.235Z" transform="translate(-286.17 -363.493)" fill="#fff"/>
  <rect id="Rectangle_68" data-name="Rectangle 68" width="85.78" height="0.615" transform="translate(129.643 276.181)" fill="#fff"/>
  <path id="Path_640" data-name="Path 640" d="M30.1,2.159l1.695.979,1.7.979-1.7.978L30.1,6.075ZM29.033,0V8.235L32.6,6.176l3.565-2.058L32.6,2.059Z" transform="translate(-16.597)" fill="#fff"/>
  <rect id="Rectangle_69" data-name="Rectangle 69" width="173.25" height="0.615" transform="translate(17.577 3.813)" fill="#fff"/>
  <path id="Path_641" data-name="Path 641" d="M523.578,5.108l-1.7-.98,1.7-.978,1.7-.98V6.087Zm-.806-3.037-3.565,2.058,3.565,2.059,3.566,2.059V.012Z" transform="translate(-296.804 -0.007)" fill="#fff"/>
  <rect id="Rectangle_70" data-name="Rectangle 70" width="85.78" height="0.615" transform="translate(137.611 3.811)" fill="#fff"/>
  <rect id="Rectangle_71" data-name="Rectangle 71" width="122.525" height="0.615" transform="translate(16.3 126.475) rotate(-86.327)" fill="#fff"/>
  <path id="Path_642" data-name="Path 642" d="M36.508,299.044l-1.825-3.691-1.824-3.69-2.284,3.425-2.284,3.426ZM31.6,295.962l1.086-1.629.867,1.755.868,1.755-3.908-.252Z" transform="translate(-16.173 -166.729)" fill="#fff"/>
  <rect id="Rectangle_72" data-name="Rectangle 72" width="73.604" height="0.615" transform="translate(26.699 77.509) rotate(-86.327)" fill="#fff"/>
  <path id="Path_643" data-name="Path 643" d="M60.8,184.731,58.98,181.04l-1.824-3.69-2.284,3.425L52.587,184.2ZM55.9,181.649l1.086-1.629.867,1.755.868,1.755-3.908-.252Z" transform="translate(-30.061 -101.382)" fill="#fff"/>
  <rect id="Rectangle_73" data-name="Rectangle 73" width="49.145" height="0.615" transform="matrix(0.064, -0.998, 0.998, 0.064, 35.401, 53.146)" fill="#fff"/>
  <path id="Path_644" data-name="Path 644" d="M81.127,127.856,79.3,124.165l-1.824-3.69L75.194,123.9l-2.284,3.426Zm-4.908-3.083,1.086-1.629.867,1.755.868,1.755-3.908-.252Z" transform="translate(-41.679 -68.869)" fill="#fff"/>
  <rect id="Rectangle_74" data-name="Rectangle 74" width="24.713" height="0.615" transform="matrix(0.064, -0.998, 0.998, 0.064, 43.771, 28.783)" fill="#fff"/>
  <path id="Path_645" data-name="Path 645" d="M100.676,70.98l-1.825-3.691L97.027,63.6l-2.284,3.425L92.459,70.45ZM95.769,67.9l1.086-1.629.867,1.755.868,1.755-3.908-.252Z" transform="translate(-52.854 -36.356)" fill="#fff"/>
  <rect id="Rectangle_75" data-name="Rectangle 75" width="8.671" height="0.615" transform="matrix(0.064, -0.998, 0.998, 0.064, 51.66, 12.783)" fill="#fff"/>
  <path id="Path_646" data-name="Path 646" d="M119.1,33.627l-1.825-3.691-1.824-3.69-2.284,3.425L110.882,33.1Zm-4.908-3.082,1.086-1.629.867,1.755.868,1.755-3.908-.252Z" transform="translate(-63.386 -15.003)" fill="#fff"/>
  <rect id="Rectangle_76" data-name="Rectangle 76" width="124.742" height="0.615" transform="matrix(0.064, -0.998, 0.998, 0.064, 209.114, 276.523)" fill="#fff"/>
  <path id="Path_647" data-name="Path 647" d="M498.851,341.394l1.825,3.691,1.824,3.69,2.284-3.425,2.284-3.426Zm4.908,3.082-1.086,1.629-.867-1.755-.868-1.755,3.908.252Z" transform="translate(-285.168 -195.158)" fill="#fff"/>
  <rect id="Rectangle_77" data-name="Rectangle 77" width="75.681" height="0.615" transform="matrix(0.064, -0.998, 0.998, 0.064, 201.857, 276.53)" fill="#fff"/>
  <path id="Path_648" data-name="Path 648" d="M474.556,455.708l1.825,3.691,1.824,3.69,2.284-3.425,2.284-3.426Zm4.908,3.082-1.086,1.629-.867-1.755-.868-1.755,3.908.252Z" transform="translate(-271.279 -260.505)" fill="#fff"/>
  <rect id="Rectangle_78" data-name="Rectangle 78" width="51.269" height="0.615" transform="matrix(0.064, -0.998, 0.998, 0.064, 194.72, 276.53)" fill="#fff"/>
  <path id="Path_649" data-name="Path 649" d="M454.233,512.583l1.825,3.691,1.824,3.69,2.284-3.425,2.284-3.426Zm4.908,3.082-1.086,1.629-.867-1.755-.868-1.755,3.908.252Z" transform="translate(-259.662 -293.017)" fill="#fff"/>
  <rect id="Rectangle_79" data-name="Rectangle 79" width="26.878" height="0.615" transform="translate(187.913 276.552) rotate(-86.326)" fill="#fff"/>
  <path id="Path_650" data-name="Path 650" d="M434.684,569.458l1.824,3.691,1.824,3.69,2.284-3.425,2.284-3.426Zm4.908,3.082L438.5,574.17l-.867-1.755-.868-1.755,3.908.252Z" transform="translate(-248.487 -325.53)" fill="#fff"/>
  <rect id="Rectangle_80" data-name="Rectangle 80" width="10.819" height="0.615" transform="translate(181.052 276.527) rotate(-86.326)" fill="#fff"/>
  <path id="Path_651" data-name="Path 651" d="M416.26,606.811l1.825,3.691,1.824,3.69,2.284-3.425,2.284-3.426Zm4.908,3.082-1.086,1.63-.867-1.755-.868-1.755,3.908.252Z" transform="translate(-237.955 -346.883)" fill="#fff"/>
  <path id="Path_652" data-name="Path 652" d="M237.22,338.618l.459-17.186.456-17.183-15.142,8.129-15.149,8.131Zm-5.372-8.53-13.969-8.612,7.2-3.863,7.2-3.868-.218,8.173Z" transform="translate(-118.814 -173.924)" fill="#fff"/>
  <path id="Path_653" data-name="Path 653" d="M411.4,10.219,410.943,27.4l-.456,17.183,15.142-8.129,15.149-8.131Zm5.372,8.53,13.969,8.612-7.2,3.863-7.2,3.868.218-8.173Z" transform="translate(-234.654 -5.842)" fill="#fff"/>
  <rect id="Rectangle_81" data-name="Rectangle 81" width="119.102" height="2.578" transform="translate(116.055 133.169) rotate(-58.346)" fill="#fff"/>
</svg>
