<svg xmlns="http://www.w3.org/2000/svg" width="985.562" height="280.609" viewBox="0 0 985.562 280.609">
  <g id="Group_235" data-name="Group 235" transform="translate(-175 -273)">
    <g id="Group_228" data-name="Group 228" transform="translate(175 273)">
      <path id="Path_628" data-name="Path 628" d="M202.963,349.951l.042,4.118.042,4.116,3.545-2.094,3.545-2.1Zm3.083,4.907-1.686,1-.019-1.958-.021-1.958,3.411,1.923Z" transform="translate(-116.024 -200.049)" fill="#fff"/>
      <rect id="Rectangle_57" data-name="Rectangle 57" width="61.194" height="0.615" transform="translate(55.222 209.057) rotate(-58.325)" fill="#fff"/>
      <path id="Path_629" data-name="Path 629" d="M34.562,634.444l.12-4.116.121-4.115-3.624,1.953-3.625,1.954Zm-2.888-5.025,1.724-.929-.058,1.957-.057,1.956-3.333-2.056Z" transform="translate(-15.751 -357.974)" fill="#fff"/>
      <rect id="Rectangle_58" data-name="Rectangle 58" width="83.839" height="0.615" transform="matrix(0.525, -0.851, 0.851, 0.525, 17.386, 270.376)" fill="#fff"/>
      <path id="Path_630" data-name="Path 630" d="M227.606,367.79l.042,4.118.042,4.116,3.545-2.094,3.545-2.1Zm3.083,4.907-1.686,1-.019-1.958-.021-1.958,3.411,1.923Z" transform="translate(-130.111 -210.247)" fill="#fff"/>
      <rect id="Rectangle_59" data-name="Rectangle 59" width="61.194" height="0.615" transform="translate(65.778 216.699) rotate(-58.325)" fill="#fff"/>
      <path id="Path_631" data-name="Path 631" d="M80.419,618.019l.12-4.116.121-4.115-3.624,1.953-3.625,1.954Zm-2.888-5.025,1.724-.929-.058,1.957-.057,1.956-3.333-2.056Z" transform="translate(-41.965 -348.585)" fill="#fff"/>
      <rect id="Rectangle_60" data-name="Rectangle 60" width="64.655" height="0.615" transform="matrix(0.525, -0.851, 0.851, 0.525, 38.015, 261.691)" fill="#fff"/>
      <path id="Path_632" data-name="Path 632" d="M254.06,382.52l.042,4.118.042,4.116,3.545-2.094,3.545-2.1Zm3.083,4.907-1.686,1-.019-1.958-.021-1.958,3.411,1.923Z" transform="translate(-145.233 -218.667)" fill="#fff"/>
      <rect id="Rectangle_61" data-name="Rectangle 61" width="61.194" height="0.615" transform="translate(77.109 223.008) rotate(-58.325)" fill="#fff"/>
      <path id="Path_633" data-name="Path 633" d="M106.05,633.988l.12-4.116.121-4.115-3.624,1.953-3.625,1.954Zm-2.888-5.025,1.724-.929-.058,1.957-.057,1.956-3.333-2.056Z" transform="translate(-56.617 -357.713)" fill="#fff"/>
      <rect id="Rectangle_62" data-name="Rectangle 62" width="65.393" height="0.615" transform="matrix(0.525, -0.851, 0.851, 0.525, 48.959, 268.629)" fill="#fff"/>
      <path id="Path_634" data-name="Path 634" d="M207.2,372.323l.042,4.118.042,4.116,3.545-2.094,3.545-2.1Zm3.083,4.907-1.686,1-.019-1.958-.021-1.958,3.411,1.923Z" transform="translate(-118.445 -212.838)" fill="#fff"/>
      <rect id="Rectangle_63" data-name="Rectangle 63" width="61.194" height="0.615" transform="translate(57.036 218.64) rotate(-58.325)" fill="#fff"/>
      <path id="Path_635" data-name="Path 635" d="M57.285,626.645l.12-4.116.121-4.115L53.9,620.367l-3.625,1.954ZM54.4,621.62l1.724-.929-.058,1.957-.057,1.956-3.333-2.056Z" transform="translate(-28.741 -353.516)" fill="#fff"/>
      <rect id="Rectangle_64" data-name="Rectangle 64" width="67.122" height="0.615" transform="matrix(0.525, -0.851, 0.851, 0.525, 27.981, 265.608)" fill="#fff"/>
      <path id="Path_636" data-name="Path 636" d="M234.106,388.449l.042,4.118.042,4.116,3.545-2.094,3.545-2.1Zm3.083,4.907-1.686,1-.019-1.958-.021-1.958,3.411,1.923Z" transform="translate(-133.826 -222.056)" fill="#fff"/>
      <rect id="Rectangle_65" data-name="Rectangle 65" width="61.194" height="0.615" transform="translate(68.562 225.548) rotate(-58.325)" fill="#fff"/>
      <path id="Path_637" data-name="Path 637" d="M104.956,609.362l.12-4.116.121-4.115-3.624,1.953-3.625,1.954Zm-2.888-5.025,1.724-.929-.058,1.957-.057,1.956-3.333-2.056Z" transform="translate(-55.992 -343.636)" fill="#fff"/>
      <rect id="Rectangle_66" data-name="Rectangle 66" width="50.79" height="0.615" transform="matrix(0.525, -0.851, 0.851, 0.525, 48.08, 258.741)" fill="#fff"/>
      <path id="Path_638" data-name="Path 638" d="M1.065,638.014l1.695.979,1.7.979-1.7.978-1.695.979ZM0,644.09l3.566-2.059,3.565-2.058-3.565-2.059L0,635.855Z" transform="translate(0 -363.486)" fill="#fff"/>
      <rect id="Rectangle_67" data-name="Rectangle 67" width="138.825" height="0.615" transform="translate(5.898 276.183)" fill="#fff"/>
      <path id="Path_639" data-name="Path 639" d="M504.975,640.963l-1.7-.979,1.7-.978,1.7-.979v3.916Zm-.806-3.037-3.565,2.058,3.565,2.059,3.566,2.059v-8.235Z" transform="translate(-286.17 -363.493)" fill="#fff"/>
      <rect id="Rectangle_68" data-name="Rectangle 68" width="85.78" height="0.615" transform="translate(129.643 276.181)" fill="#fff"/>
      <path id="Path_640" data-name="Path 640" d="M30.1,2.159l1.695.979,1.7.979-1.7.978L30.1,6.075ZM29.033,0V8.235L32.6,6.176l3.565-2.058L32.6,2.059Z" transform="translate(-16.597)" fill="#fff"/>
      <rect id="Rectangle_69" data-name="Rectangle 69" width="173.25" height="0.615" transform="translate(17.577 3.813)" fill="#fff"/>
      <path id="Path_641" data-name="Path 641" d="M523.578,5.108l-1.7-.98,1.7-.978,1.7-.98V6.087Zm-.806-3.037-3.565,2.058,3.565,2.059,3.566,2.059V.012Z" transform="translate(-296.804 -0.007)" fill="#fff"/>
      <rect id="Rectangle_70" data-name="Rectangle 70" width="85.78" height="0.615" transform="translate(137.611 3.811)" fill="#fff"/>
      <rect id="Rectangle_71" data-name="Rectangle 71" width="122.525" height="0.615" transform="translate(16.3 126.475) rotate(-86.327)" fill="#fff"/>
      <path id="Path_642" data-name="Path 642" d="M36.508,299.044l-1.825-3.691-1.824-3.69-2.284,3.425-2.284,3.426ZM31.6,295.962l1.086-1.629.867,1.755.868,1.755-3.908-.252Z" transform="translate(-16.173 -166.729)" fill="#fff"/>
      <rect id="Rectangle_72" data-name="Rectangle 72" width="73.604" height="0.615" transform="translate(26.699 77.509) rotate(-86.327)" fill="#fff"/>
      <path id="Path_643" data-name="Path 643" d="M60.8,184.731,58.98,181.04l-1.824-3.69-2.284,3.425L52.587,184.2ZM55.9,181.649l1.086-1.629.867,1.755.868,1.755-3.908-.252Z" transform="translate(-30.061 -101.382)" fill="#fff"/>
      <rect id="Rectangle_73" data-name="Rectangle 73" width="49.145" height="0.615" transform="matrix(0.064, -0.998, 0.998, 0.064, 35.401, 53.146)" fill="#fff"/>
      <path id="Path_644" data-name="Path 644" d="M81.127,127.856,79.3,124.165l-1.824-3.69L75.194,123.9l-2.284,3.426Zm-4.908-3.083,1.086-1.629.867,1.755.868,1.755-3.908-.252Z" transform="translate(-41.679 -68.869)" fill="#fff"/>
      <rect id="Rectangle_74" data-name="Rectangle 74" width="24.713" height="0.615" transform="matrix(0.064, -0.998, 0.998, 0.064, 43.771, 28.783)" fill="#fff"/>
      <path id="Path_645" data-name="Path 645" d="M100.676,70.98l-1.825-3.691L97.027,63.6l-2.284,3.425L92.459,70.45ZM95.769,67.9l1.086-1.629.867,1.755.868,1.755-3.908-.252Z" transform="translate(-52.854 -36.356)" fill="#fff"/>
      <rect id="Rectangle_75" data-name="Rectangle 75" width="8.671" height="0.615" transform="matrix(0.064, -0.998, 0.998, 0.064, 51.66, 12.783)" fill="#fff"/>
      <path id="Path_646" data-name="Path 646" d="M119.1,33.627l-1.825-3.691-1.824-3.69-2.284,3.425L110.882,33.1Zm-4.908-3.082,1.086-1.629.867,1.755.868,1.755-3.908-.252Z" transform="translate(-63.386 -15.003)" fill="#fff"/>
      <rect id="Rectangle_76" data-name="Rectangle 76" width="124.742" height="0.615" transform="matrix(0.064, -0.998, 0.998, 0.064, 209.114, 276.523)" fill="#fff"/>
      <path id="Path_647" data-name="Path 647" d="M498.851,341.394l1.825,3.691,1.824,3.69,2.284-3.425,2.284-3.426Zm4.908,3.082-1.086,1.629-.867-1.755-.868-1.755,3.908.252Z" transform="translate(-285.168 -195.158)" fill="#fff"/>
      <rect id="Rectangle_77" data-name="Rectangle 77" width="75.681" height="0.615" transform="matrix(0.064, -0.998, 0.998, 0.064, 201.857, 276.53)" fill="#fff"/>
      <path id="Path_648" data-name="Path 648" d="M474.556,455.708l1.825,3.691,1.824,3.69,2.284-3.425,2.284-3.426Zm4.908,3.082-1.086,1.629-.867-1.755-.868-1.755,3.908.252Z" transform="translate(-271.279 -260.505)" fill="#fff"/>
      <rect id="Rectangle_78" data-name="Rectangle 78" width="51.269" height="0.615" transform="matrix(0.064, -0.998, 0.998, 0.064, 194.72, 276.53)" fill="#fff"/>
      <path id="Path_649" data-name="Path 649" d="M454.233,512.583l1.825,3.691,1.824,3.69,2.284-3.425,2.284-3.426Zm4.908,3.082-1.086,1.629-.867-1.755-.868-1.755,3.908.252Z" transform="translate(-259.662 -293.017)" fill="#fff"/>
      <rect id="Rectangle_79" data-name="Rectangle 79" width="26.878" height="0.615" transform="translate(187.913 276.552) rotate(-86.326)" fill="#fff"/>
      <path id="Path_650" data-name="Path 650" d="M434.684,569.458l1.824,3.691,1.824,3.69,2.284-3.425,2.284-3.426Zm4.908,3.082L438.5,574.17l-.867-1.755-.868-1.755,3.908.252Z" transform="translate(-248.487 -325.53)" fill="#fff"/>
      <rect id="Rectangle_80" data-name="Rectangle 80" width="10.819" height="0.615" transform="translate(181.052 276.527) rotate(-86.326)" fill="#fff"/>
      <path id="Path_651" data-name="Path 651" d="M416.26,606.811l1.825,3.691,1.824,3.69,2.284-3.425,2.284-3.426Zm4.908,3.082-1.086,1.63-.867-1.755-.868-1.755,3.908.252Z" transform="translate(-237.955 -346.883)" fill="#fff"/>
      <path id="Path_652" data-name="Path 652" d="M237.22,338.618l.459-17.186.456-17.183-15.142,8.129-15.149,8.131Zm-5.372-8.53-13.969-8.612,7.2-3.863,7.2-3.868-.218,8.173Z" transform="translate(-118.814 -173.924)" fill="#fff"/>
      <path id="Path_653" data-name="Path 653" d="M411.4,10.219,410.943,27.4l-.456,17.183,15.142-8.129,15.149-8.131Zm5.372,8.53,13.969,8.612-7.2,3.863-7.2,3.868.218-8.173Z" transform="translate(-234.654 -5.842)" fill="#fff"/>
      <rect id="Rectangle_81" data-name="Rectangle 81" width="119.102" height="2.578" transform="translate(116.055 133.169) rotate(-58.346)" fill="#fff"/>
    </g>
    <g id="Group_229" data-name="Group 229" transform="translate(984.386 273)">
      <path id="Path_654" data-name="Path 654" d="M18.963,162.038l-2.052-3.553-2.053-3.553-2.05,3.553-2.051,3.554Zm-2.152-1.061h-3.9l.976-1.689.975-1.69.976,1.69Z" transform="translate(-6.165 -88.792)" fill="#fff"/>
      <path id="Path_655" data-name="Path 655" d="M19.627,0l.007,67.112h.613L20.24.136Z" transform="translate(-11.248 0)" fill="#fff"/>
      <path id="Path_656" data-name="Path 656" d="M3.127,480.834l-.975-1.689h3.9l-.976,1.689-.976,1.69Zm-1.076.8,2.05,3.553,2.053-3.553,2.053-3.554H0Z" transform="translate(0 -273.992)" fill="#fff"/>
      <path id="Path_657" data-name="Path 657" d="M8.873,492.419l-.008,70.342.6-.089.018-70.253Z" transform="translate(-5.081 -282.208)" fill="#fff"/>
      <path id="Path_658" data-name="Path 658" d="M19.967.411l-.191.583L133.3,55.687l.191-.582Z" transform="translate(-11.333 -0.235)" fill="#fff"/>
      <path id="Path_659" data-name="Path 659" d="M67.276,257.088l.329.517,93.545-48.4-.329-.517Z" transform="translate(-38.556 -119.602)" fill="#fff"/>
      <path id="Path_660" data-name="Path 660" d="M67.693,288.944l.114.6,119.964-24.541-.113-.6Z" transform="translate(-38.795 -151.53)" fill="#fff"/>
      <path id="Path_661" data-name="Path 661" d="M67.006,322.787l.329-.517,93.63,49.15-.329.517Z" transform="translate(-38.401 -184.695)" fill="#fff"/>
      <path id="Path_662" data-name="Path 662" d="M67.008,322.669l.114-.6,120.3,25.21-.114.6Z" transform="translate(-38.403 -184.578)" fill="#fff"/>
      <path id="Path_663" data-name="Path 663" d="M19.727.645,160.209,31.239l.066-.61L19.642.007Z" transform="translate(-11.257 -0.004)" fill="#fff"/>
      <path id="Path_664" data-name="Path 664" d="M9.563,576.742l.191.582,118.123-58.393-.192-.583Z" transform="translate(-5.481 -297.069)" fill="#fff"/>
      <path id="Path_665" data-name="Path 665" d="M8.87,608.822l0,.62,145.189-35.06-.066-.609Z" transform="translate(-5.084 -328.833)" fill="#fff"/>
      <path id="Path_666" data-name="Path 666" d="M348.118,72.219l27.135,24.248.429-.438L348.547,71.781Z" transform="translate(-199.509 -41.138)" fill="#fff"/>
      <path id="Path_667" data-name="Path 667" d="M313.016,72.173l-.429-.439L285.408,96.067l.428.439Z" transform="translate(-163.569 -41.111)" fill="#fff"/>
      <path id="Path_668" data-name="Path 668" d="M312.977,232.407l-.428.438L285.41,208.73l.428-.439Z" transform="translate(-163.57 -119.373)" fill="#fff"/>
      <path id="Path_669" data-name="Path 669" d="M347.953,232.307l.428.438,27.209-24.19-.429-.438Z" transform="translate(-199.414 -119.273)" fill="#fff"/>
      <path id="Path_670" data-name="Path 670" d="M347.665,129.751l-2.043-3.539-2.042-3.538-2.043,3.538-2.043,3.539Zm-5.057-2.739.972-1.683.971,1.683.972,1.682h-3.886Z" transform="translate(-194.566 -70.305)" fill="#fff"/>
      <rect id="Rectangle_82" data-name="Rectangle 82" width="0.61" height="22.088" transform="translate(148.709 31.317)" fill="#fff"/>
      <path id="Path_671" data-name="Path 671" d="M339.493,196.713l2.043,3.539,2.042,3.538,2.043-3.538,2.043-3.539Zm5.057,2.739-.972,1.683-.971-1.683-.972-1.682h3.886Z" transform="translate(-194.566 -112.737)" fill="#fff"/>
      <rect id="Rectangle_83" data-name="Rectangle 83" width="0.61" height="22.934" transform="translate(148.707 90.016)" fill="#fff"/>
      <path id="Path_672" data-name="Path 672" d="M361.435,149.867l-7.048-4.086,7.048-4.09,7.043-4.09v16.354Zm-3.349-12.685-14.816,8.6,14.816,8.6,14.82,8.6V128.583Z" transform="translate(-196.73 -73.692)" fill="#fff"/>
      <path id="Path_673" data-name="Path 673" d="M285.4,163.133l14.82-8.6,14.815-8.6-14.815-8.595-14.82-8.6Zm4.427-9.019V137.76l7.043,4.09,7.048,4.085-7.048,4.09Z" transform="translate(-163.567 -73.782)" fill="#fff"/>
      <path id="Path_674" data-name="Path 674" d="M347.649,183.844l-2.043-3.539-2.042-3.538L341.52,180.3l-2.043,3.539Zm-5.057-2.739.972-1.683.971,1.683.972,1.682H341.62Z" transform="translate(-194.556 -101.306)" fill="#fff"/>
      <rect id="Rectangle_84" data-name="Rectangle 84" width="0.61" height="4.2" transform="translate(148.701 72.297)" fill="#fff"/>
      <path id="Path_675" data-name="Path 675" d="M339.477,143.124l2.043,3.539,2.042,3.538,2.043-3.538,2.043-3.539Zm5.057,2.739-.972,1.683-.971-1.683-.972-1.682h3.886Z" transform="translate(-194.556 -82.025)" fill="#fff"/>
      <rect id="Rectangle_85" data-name="Rectangle 85" width="0.61" height="4.2" transform="translate(148.701 67.139)" fill="#fff"/>
      <path id="Path_676" data-name="Path 676" d="M348.118,381.606l27.135,24.249.429-.439-27.135-24.249Z" transform="translate(-199.509 -218.449)" fill="#fff"/>
      <path id="Path_677" data-name="Path 677" d="M313.016,381.561l-.429-.438-27.179,24.333.428.439Z" transform="translate(-163.569 -218.423)" fill="#fff"/>
      <path id="Path_678" data-name="Path 678" d="M312.977,541.794l-.428.438L285.41,518.117l.428-.439Z" transform="translate(-163.57 -296.684)" fill="#fff"/>
      <path id="Path_679" data-name="Path 679" d="M347.953,541.694l.428.439,27.209-24.19-.429-.439Z" transform="translate(-199.414 -296.585)" fill="#fff"/>
      <path id="Path_680" data-name="Path 680" d="M347.665,439.138l-2.043-3.539-2.042-3.538-2.043,3.538-2.043,3.539Zm-5.057-2.739.972-1.683.971,1.683.972,1.682h-3.886Z" transform="translate(-194.566 -247.617)" fill="#fff"/>
      <rect id="Rectangle_86" data-name="Rectangle 86" width="0.61" height="22.088" transform="translate(148.709 163.392)" fill="#fff"/>
      <path id="Path_681" data-name="Path 681" d="M339.493,506.1l2.043,3.539,2.042,3.538,2.043-3.538,2.043-3.539Zm5.057,2.739-.972,1.683-.971-1.683-.972-1.682h3.886Z" transform="translate(-194.566 -290.049)" fill="#fff"/>
      <rect id="Rectangle_87" data-name="Rectangle 87" width="0.61" height="22.934" transform="translate(148.707 222.091)" fill="#fff"/>
      <path id="Path_682" data-name="Path 682" d="M361.435,459.254l-7.048-4.085,7.048-4.09,7.043-4.089v16.354Zm-3.349-12.685-14.816,8.6,14.816,8.595,14.82,8.6V437.97Z" transform="translate(-196.73 -251.003)" fill="#fff"/>
      <path id="Path_683" data-name="Path 683" d="M285.4,472.52l14.82-8.6,14.815-8.6-14.815-8.595-14.82-8.6Zm4.427-9.019V447.147l7.043,4.09,7.048,4.085-7.048,4.09Z" transform="translate(-163.567 -251.094)" fill="#fff"/>
      <path id="Path_684" data-name="Path 684" d="M347.649,493.231l-2.043-3.539-2.042-3.538-2.043,3.538-2.043,3.539Zm-5.057-2.739.972-1.683.971,1.683.972,1.682H341.62Z" transform="translate(-194.556 -278.618)" fill="#fff"/>
      <rect id="Rectangle_88" data-name="Rectangle 88" width="0.61" height="4.2" transform="translate(148.701 204.373)" fill="#fff"/>
      <path id="Path_685" data-name="Path 685" d="M339.477,452.511l2.043,3.539,2.042,3.538,2.043-3.538,2.043-3.539Zm5.057,2.739-.972,1.683-.971-1.683-.972-1.682h3.886Z" transform="translate(-194.556 -259.337)" fill="#fff"/>
      <rect id="Rectangle_89" data-name="Rectangle 89" width="0.61" height="4.2" transform="translate(148.701 199.215)" fill="#fff"/>
    </g>
    <g id="Group_230" data-name="Group 230" transform="translate(577 273)">
      <path id="Path_686" data-name="Path 686" d="M141.145,242.527l.445.434-24.566,27.5-.445-.434Z" transform="translate(-66.154 -137.626)" fill="#fff"/>
      <path id="Path_687" data-name="Path 687" d="M116.977,305.139l-.444.434,24.658,27.536.444-.434Z" transform="translate(-66.128 -173.156)" fill="#fff"/>
      <path id="Path_688" data-name="Path 688" d="M277.528,305.213l.445.434-24.432,27.5-.444-.434Z" transform="translate(-143.623 -173.197)" fill="#fff"/>
      <path id="Path_689" data-name="Path 689" d="M253.353,242.512l-.444.434,24.513,27.565.444-.434Z" transform="translate(-143.517 -137.617)" fill="#fff"/>
      <path id="Path_690" data-name="Path 690" d="M174.642,296.576l-3.585,2.071-3.584,2.07,3.585,2.07,3.586,2.07Zm-2.775,5.124-1.705-.984,1.705-.984,1.7-.985v3.937Z" transform="translate(-95.034 -168.296)" fill="#fff"/>
      <rect id="Rectangle_90" data-name="Rectangle 90" width="22.38" height="0.619" transform="translate(51.107 132.112)" fill="#fff"/>
      <path id="Path_691" data-name="Path 691" d="M241.512,304.851l3.585-2.071,3.584-2.07-3.585-2.07-3.586-2.07Zm2.775-5.124,1.705.984-1.705.984-1.7.985v-3.937Z" transform="translate(-137.049 -168.294)" fill="#fff"/>
      <rect id="Rectangle_91" data-name="Rectangle 91" width="23.237" height="0.619" transform="translate(110.582 132.106)" fill="#fff"/>
      <path id="Path_692" data-name="Path 692" d="M173.375,242.517l8.714,15.015,8.714,15.01,8.707-15.012,8.711-15.017ZM182.513,247l16.57,0-4.143,7.137-4.139,7.142-4.145-7.141Z" transform="translate(-98.384 -137.618)" fill="#fff"/>
      <path id="Path_693" data-name="Path 693" d="M208.392,330.407l-8.714-15.015-8.714-15.01-8.707,15.012-8.711,15.017Zm-9.138-4.485-16.57,0,4.143-7.137,4.139-7.142,4.145,7.141Z" transform="translate(-98.481 -170.456)" fill="#fff"/>
      <path id="Path_694" data-name="Path 694" d="M228.735,296.587l-3.585,2.071-3.584,2.07,3.585,2.07,3.585,2.07Zm-2.774,5.124-1.706-.984,1.706-.984,1.7-.985V302.7Z" transform="translate(-125.73 -168.303)" fill="#fff"/>
      <rect id="Rectangle_92" data-name="Rectangle 92" width="4.256" height="0.619" transform="translate(92.63 132.115)" fill="#fff"/>
      <path id="Path_695" data-name="Path 695" d="M187.923,304.872l3.585-2.071,3.584-2.07-3.585-2.07-3.586-2.07Zm2.775-5.124,1.705.984-1.705.984-1.7.985v-3.937Z" transform="translate(-106.639 -168.305)" fill="#fff"/>
      <rect id="Rectangle_93" data-name="Rectangle 93" width="4.256" height="0.619" transform="translate(87.403 132.116)" fill="#fff"/>
      <path id="Path_696" data-name="Path 696" d="M60.516,509.113l66.748,60.01.324-.527-66.748-60.01Z" transform="translate(-34.341 -288.604)" fill="#fff"/>
      <path id="Path_697" data-name="Path 697" d="M215.163,568.024l.324.527,64.738-60.425-.324-.527Z" transform="translate(-122.097 -288.044)" fill="#fff"/>
      <path id="Path_698" data-name="Path 698" d="M73.244,73.832l.564.255L134.18.368l-.564-.254Z" transform="translate(-41.563 -0.065)" fill="#fff"/>
      <path id="Path_699" data-name="Path 699" d="M212.008.646l60.917,73.381.564-.255L212.47.249Z" transform="translate(-120.307 -0.142)" fill="#fff"/>
      <path id="Path_700" data-name="Path 700" d="M92.085,0,.019,51.469l.324.537L92.386.54Z" transform="translate(-0.011)" fill="#fff"/>
      <path id="Path_701" data-name="Path 701" d="M212.484,0l-.3.54,92.541,51.668.326-.529Z" transform="translate(-120.406)" fill="#fff"/>
      <path id="Path_702" data-name="Path 702" d="M214.671,605.176l.3.54,88.469-32.25-.3-.54Z" transform="translate(-121.818 -325.115)" fill="#fff"/>
      <path id="Path_703" data-name="Path 703" d="M7.838,573.219l89.778,32.364.3-.54L8.14,572.679Z" transform="translate(-4.448 -324.975)" fill="#fff"/>
      <path id="Path_704" data-name="Path 704" d="M79.221,367.825l.481.389L8.129,457.146l-.628-.214Z" transform="translate(-4.256 -208.728)" fill="#fff"/>
      <path id="Path_705" data-name="Path 705" d="M55.156,304.95l.6.166L8.3,421.322l-.6-.167Z" transform="translate(-4.369 -173.048)" fill="#fff"/>
      <rect id="Rectangle_94" data-name="Rectangle 94" width="0.619" height="116.553" transform="translate(107.622 157.938) rotate(-39.011)" fill="#fff"/>
      <path id="Path_706" data-name="Path 706" d="M309.83,306.222l-.6.166,47.129,115.656.6-.167Z" transform="translate(-175.479 -173.77)" fill="#fff"/>
      <rect id="Rectangle_95" data-name="Rectangle 95" width="91.473" height="0.619" transform="translate(109.637 105.004) rotate(-35.956)" fill="#fff"/>
      <rect id="Rectangle_96" data-name="Rectangle 96" width="0.619" height="93.059" transform="translate(0.414 51.606) rotate(-54.045)" fill="#fff"/>
      <path id="Path_707" data-name="Path 707" d="M309.4,199.532l.525.327,50.3-80.78-.55-.308Z" transform="translate(-175.571 -67.398)" fill="#fff"/>
      <path id="Path_708" data-name="Path 708" d="M0,118.594l50.406,80.95.526-.327L.553,118.288Z" transform="translate(0 -67.124)" fill="#fff"/>
    </g>
  </g>
</svg>
