<svg xmlns="http://www.w3.org/2000/svg" width="712.042" height="1134.124" viewBox="0 0 712.042 1134.124">
  <g id="Group_2" data-name="Group 2" transform="translate(-5044 1298)">
    <g id="Group_1" data-name="Group 1" transform="translate(5044 -1298)">
      <path id="Path_1" data-name="Path 1" d="M43.924,183.652,35.63,169.29l-8.3-14.358-8.287,14.36-8.29,14.365Zm-8.7-4.289-15.773,0,3.944-6.827,3.939-6.831,3.944,6.831Z" transform="translate(7.803 112.38)" fill="#fff"/>
      <path id="Path_2" data-name="Path 2" d="M19.627,0l.029,271.243h2.479L22.1.547Z" transform="translate(14.237 0)" fill="#fff"/>
      <path id="Path_3" data-name="Path 3" d="M12.64,489.2,8.7,482.376l15.771,0L20.525,489.2l-3.946,6.829Zm-4.35,3.245,8.287,14.362,8.3-14.358,8.3-14.364L0,478.083Z" transform="translate(0 346.779)" fill="#fff"/>
      <path id="Path_4" data-name="Path 4" d="M8.9,492.419l-.031,284.3,2.438-.361.071-283.938Z" transform="translate(6.43 357.178)" fill="#fff"/>
      <path id="Path_5" data-name="Path 5" d="M20.548.411l-.773,2.355L478.618,223.815l.771-2.353Z" transform="translate(14.344 0.297)" fill="#fff"/>
      <path id="Path_6" data-name="Path 6" d="M67.276,404.293l1.33,2.091,378.075-195.6-1.329-2.091Z" transform="translate(48.799 151.375)" fill="#fff"/>
      <path id="Path_7" data-name="Path 7" d="M67.693,363.589l.459,2.435,484.854-99.185-.457-2.436Z" transform="translate(49.101 191.785)" fill="#fff"/>
      <path id="Path_8" data-name="Path 8" d="M67.006,324.361l1.33-2.091,378.42,198.647-1.33,2.091Z" transform="translate(48.603 233.759)" fill="#fff"/>
      <path id="Path_9" data-name="Path 9" d="M67.008,324.5l.459-2.434L553.683,423.956l-.459,2.436Z" transform="translate(48.605 233.612)" fill="#fff"/>
      <path id="Path_10" data-name="Path 10" d="M19.986,2.584,587.764,126.237l.266-2.464L19.642.007Z" transform="translate(14.248 0.004)" fill="#fff"/>
      <path id="Path_11" data-name="Path 11" d="M9.563,754.356l.771,2.353L487.746,520.7l-.775-2.355Z" transform="translate(6.937 375.986)" fill="#fff"/>
      <path id="Path_12" data-name="Path 12" d="M8.87,715.429l.009,2.507,586.8-141.7-.267-2.462Z" transform="translate(6.434 416.189)" fill="#fff"/>
      <path id="Path_13" data-name="Path 13" d="M348.118,73.554l109.669,98,1.732-1.772L349.85,71.781Z" transform="translate(252.509 52.066)" fill="#fff"/>
      <path id="Path_14" data-name="Path 14" d="M396.99,73.508l-1.732-1.774-109.85,98.347,1.731,1.774Z" transform="translate(207.022 52.032)" fill="#fff"/>
      <path id="Path_15" data-name="Path 15" d="M396.827,305.76l-1.731,1.772L285.41,210.065l1.731-1.774Z" transform="translate(207.024 151.084)" fill="#fff"/>
      <path id="Path_16" data-name="Path 16" d="M347.953,305.886l1.731,1.772,109.969-97.769-1.732-1.772Z" transform="translate(252.389 150.958)" fill="#fff"/>
      <path id="Path_17" data-name="Path 17" d="M372.52,151.277l-8.258-14.3-8.254-14.3-8.258,14.3-8.258,14.3Zm-20.439-11.072,3.927-6.8,3.923,6.8,3.929,6.8H348.154Z" transform="translate(246.253 88.981)" fill="#fff"/>
      <rect id="Rectangle_1" data-name="Rectangle 1" width="2.467" height="89.273" transform="translate(601.028 126.569)" fill="#fff"/>
      <path id="Path_18" data-name="Path 18" d="M339.493,196.713l8.258,14.3,8.254,14.3,8.258-14.3,8.258-14.3Zm20.438,11.072-3.927,6.8-3.923-6.8-3.929-6.8h15.706Z" transform="translate(246.253 142.686)" fill="#fff"/>
      <rect id="Rectangle_2" data-name="Rectangle 2" width="2.467" height="92.689" transform="translate(601.024 363.813)" fill="#fff"/>
      <path id="Path_19" data-name="Path 19" d="M416.686,214.6,388.2,198.091l28.484-16.529,28.467-16.529v66.1ZM403.15,163.337l-59.88,34.754,59.88,34.738,59.9,34.754v-139Z" transform="translate(248.993 93.268)" fill="#fff"/>
      <path id="Path_20" data-name="Path 20" d="M285.405,267.741l59.9-34.754,59.878-34.754L345.3,163.5l-59.9-34.756Zm17.894-36.45v-66.1l28.467,16.529,28.486,16.512-28.486,16.529Z" transform="translate(207.02 93.382)" fill="#fff"/>
      <path id="Path_21" data-name="Path 21" d="M372.5,205.37l-8.258-14.3-8.254-14.3-8.258,14.3-8.258,14.3ZM352.065,194.3l3.927-6.8,3.923,6.8,3.929,6.8H348.138Z" transform="translate(246.241 128.218)" fill="#fff"/>
      <rect id="Rectangle_3" data-name="Rectangle 3" width="2.467" height="16.976" transform="translate(601 292.2)" fill="#fff"/>
      <path id="Path_22" data-name="Path 22" d="M339.477,143.124l8.258,14.3,8.254,14.3,8.258-14.3,8.258-14.3ZM359.916,154.2l-3.927,6.8-3.923-6.8-3.929-6.8h15.706Z" transform="translate(246.241 103.815)" fill="#fff"/>
      <rect id="Rectangle_4" data-name="Rectangle 4" width="2.467" height="16.976" transform="translate(600.997 271.353)" fill="#fff"/>
      <path id="Path_23" data-name="Path 23" d="M348.118,382.941l109.669,98.005,1.732-1.774L349.85,381.167Z" transform="translate(252.509 276.481)" fill="#fff"/>
      <path id="Path_24" data-name="Path 24" d="M396.99,382.894l-1.732-1.772-109.85,98.345,1.731,1.774Z" transform="translate(207.022 276.448)" fill="#fff"/>
      <path id="Path_25" data-name="Path 25" d="M396.827,615.147l-1.731,1.772L285.41,519.452l1.731-1.774Z" transform="translate(207.024 375.499)" fill="#fff"/>
      <path id="Path_26" data-name="Path 26" d="M347.953,615.273l1.731,1.774,109.969-97.769L457.92,517.5Z" transform="translate(252.389 375.373)" fill="#fff"/>
      <path id="Path_27" data-name="Path 27" d="M372.52,460.664l-8.258-14.3-8.254-14.3-8.258,14.3-8.258,14.3Zm-20.439-11.072,3.927-6.8,3.923,6.8,3.929,6.8H348.154Z" transform="translate(246.253 313.397)" fill="#fff"/>
      <rect id="Rectangle_5" data-name="Rectangle 5" width="2.467" height="89.273" transform="translate(601.028 660.372)" fill="#fff"/>
      <path id="Path_28" data-name="Path 28" d="M339.493,506.1l8.258,14.3L356,534.7l8.258-14.3,8.258-14.3Zm20.438,11.072-3.927,6.8-3.923-6.8-3.929-6.8h15.706Z" transform="translate(246.253 367.101)" fill="#fff"/>
      <rect id="Rectangle_6" data-name="Rectangle 6" width="2.467" height="92.69" transform="translate(601.024 897.615)" fill="#fff"/>
      <path id="Path_29" data-name="Path 29" d="M416.686,523.991,388.2,507.479l28.484-16.531,28.467-16.527v66.1ZM403.15,472.724l-59.88,34.755,59.88,34.737,59.9,34.754v-139Z" transform="translate(248.993 317.683)" fill="#fff"/>
      <path id="Path_30" data-name="Path 30" d="M285.405,577.128l59.9-34.754,59.878-34.754L345.3,472.884l-59.9-34.756Zm17.894-36.45v-66.1l28.467,16.529,28.486,16.512-28.486,16.529Z" transform="translate(207.02 317.798)" fill="#fff"/>
      <path id="Path_31" data-name="Path 31" d="M372.5,514.757l-8.258-14.3-8.254-14.3-8.258,14.3-8.258,14.3Zm-20.439-11.072,3.927-6.8,3.923,6.8,3.929,6.8H348.138Z" transform="translate(246.241 352.634)" fill="#fff"/>
      <rect id="Rectangle_7" data-name="Rectangle 7" width="2.467" height="16.976" transform="translate(601 826.002)" fill="#fff"/>
      <path id="Path_32" data-name="Path 32" d="M339.477,452.511l8.258,14.3,8.254,14.3,8.258-14.3,8.258-14.3Zm20.439,11.072-3.927,6.8-3.923-6.8-3.929-6.8h15.706Z" transform="translate(246.241 328.23)" fill="#fff"/>
      <rect id="Rectangle_8" data-name="Rectangle 8" width="2.467" height="16.976" transform="translate(600.997 805.155)" fill="#fff"/>
    </g>
  </g>
</svg>
