<svg id="Group_33" data-name="Group 33" xmlns="http://www.w3.org/2000/svg" xmlns:xlink="http://www.w3.org/1999/xlink" width="125.171" height="66.5" viewBox="0 0 125.171 66.5">
  <defs>
    <clipPath id="clip-path">
      <rect id="Rectangle_35" data-name="Rectangle 35" width="125.171" height="66.5" fill="#fff"/>
    </clipPath>
  </defs>
  <g id="Group_32" data-name="Group 32" clip-path="url(#clip-path)">
    <path id="Path_557" data-name="Path 557" d="M22.529,65.413H0V61.164a9.633,9.633,0,0,0,4.2-.791,7.611,7.611,0,0,0,2.964-2.865A33.748,33.748,0,0,0,9.98,51.58L31.422,0H41.8L63.14,51.777a23.136,23.136,0,0,0,4.2,7.065,7.4,7.4,0,0,0,5.583,2.322v4.249H41.2V61.164a23.718,23.718,0,0,0,2.619-.148,4.611,4.611,0,0,0,2.273-.84A2.521,2.521,0,0,0,47.034,58a13.742,13.742,0,0,0-.593-3.261q-.593-2.173-1.383-4.249l-2.767-7.213L41.5,40.71,32.212,14.822h-.4L21.343,40.71l-.791,2.569-3.36,8.5q-.4,1.285-.889,2.865a9.675,9.675,0,0,0-.494,2.866q0,2.372,1.532,3.014a14.72,14.72,0,0,0,5.188.642Zm21.64-20.849H18.675l1.779-5.138H42.39Z" fill="#fff"/>
    <path id="Path_558" data-name="Path 558" d="M411.05,141.324a14.55,14.55,0,0,1-8.942-2.619q-3.509-2.617-3.508-8.646a12.8,12.8,0,0,1,1.779-6.966,15.384,15.384,0,0,1,4.644-4.693,29.811,29.811,0,0,1,6.324-3.113q3.458-1.234,6.917-2.124t6.225-1.68V106.74q0-6.322-1.285-8.251t-4.842-1.927q-2.964,0-4,1.383t-1.038,5.632q0,3.36-1.976,4.842A7.375,7.375,0,0,1,406.8,109.9a6.251,6.251,0,0,1-4.1-1.631,6.173,6.173,0,0,1-1.927-4.99,8.03,8.03,0,0,1,2.273-5.484,15.826,15.826,0,0,1,6.472-4.051,29.006,29.006,0,0,1,9.931-1.532q9.287,0,14.229,3.557t4.941,11.759v21.442q0,2.964.741,3.854a2.852,2.852,0,0,0,2.322.889,4.478,4.478,0,0,0,2.421-.791,13.8,13.8,0,0,0,2.322-1.877l2.174,2.174a22.823,22.823,0,0,1-5.484,5.83q-3.015,2.172-8.547,2.174-5.336,0-7.164-1.68t-2.421-5.83l-.494-1.976v-16.4a40.944,40.944,0,0,0-6.472,2.52,9.607,9.607,0,0,0-3.952,3.508,11.3,11.3,0,0,0-1.334,5.929,9.727,9.727,0,0,0,1.136,5.336,3.837,3.837,0,0,0,3.409,1.68,7.7,7.7,0,0,0,3.952-1.038,22.8,22.8,0,0,0,4.446-3.8l.593,5.533h-1.482q-2.372,1.978-4.2,3.409a13.689,13.689,0,0,1-3.952,2.174,17.346,17.346,0,0,1-5.583.741" transform="translate(-323.428 -74.824)" fill="#fff"/>
  </g>
</svg>
