<svg id="Group_39" data-name="Group 39" xmlns="http://www.w3.org/2000/svg" xmlns:xlink="http://www.w3.org/1999/xlink" width="76.296" height="75.623" viewBox="0 0 76.296 75.623">
  <defs>
    <clipPath id="clip-path">
      <rect id="Rectangle_48" data-name="Rectangle 48" width="76.296" height="75.623" fill="#fff"/>
    </clipPath>
  </defs>
  <g id="Group_38" data-name="Group 38" clip-path="url(#clip-path)">
    <path id="Path_593" data-name="Path 593" d="M1.739,155.748a1.363,1.363,0,0,1-.257-.109c-1.916-1.522-1.895-1.51-.4-3.415A37.733,37.733,0,0,0,7.843,136.6a75.463,75.463,0,0,0,1.63-18.885,1.623,1.623,0,0,1,1.08-1.743q13.912-6.75,27.79-13.558a1.2,1.2,0,0,1,1.663.227q8.211,8.368,16.508,16.663a1.175,1.175,0,0,1,.246,1.642q-6.973,13.685-13.874,27.39a1.96,1.96,0,0,1-2.211,1.227,57.554,57.554,0,0,0-33.2,7.592c-.261.154-.52.316-.772.48-1.937,1.263-1.937,1.263-3.526-.562l19.838-19.727a15.563,15.563,0,0,0,3.863.128,4.451,4.451,0,0,0,3.187-5.428q-.037-.142-.083-.282a4.577,4.577,0,0,0-5.718-3.034l-.087.027a4.5,4.5,0,0,0-2.924,5.655q.032.1.069.2a1.56,1.56,0,0,1-.44,2.019q-9.362,9.316-18.678,18.679c-.152.156-.32.3-.468.431" transform="translate(0 -82.905)" fill="#fff"/>
    <path id="Path_594" data-name="Path 594" d="M249.751,33.607,222.687,7.04c1.474-2.187,2.9-4.364,4.371-6.527.6-.886,1.189-.47,1.77.091q5.053,4.842,10.118,9.684,8.592,8.228,17.182,16.457c1.168,1.12,1.145,1.349-.181,2.316Z" transform="translate(-180.679 0)" fill="#fff"/>
    <path id="Path_595" data-name="Path 595" d="M228.745,71.384c-1.844,1.356-3.531,2.581-5.2,3.828-.743.558-1.228.177-1.752-.356q-6.474-6.564-12.969-13.112c-3.2-3.236-6.392-6.489-9.63-9.684a1.408,1.408,0,0,1-.211-2.156c1.053-1.474,2.04-3.006,3.143-4.651Z" transform="translate(-161.117 -36.716)" fill="#fff"/>
  </g>
</svg>
