<svg id="Group_37" data-name="Group 37" xmlns="http://www.w3.org/2000/svg" xmlns:xlink="http://www.w3.org/1999/xlink" width="90.602" height="90.621" viewBox="0 0 90.602 90.621">
  <defs>
    <clipPath id="clip-path">
      <rect id="Rectangle_47" data-name="Rectangle 47" width="90.602" height="90.621" fill="none"/>
    </clipPath>
  </defs>
  <rect id="Rectangle_36" data-name="Rectangle 36" width="15.228" height="27.004" transform="translate(45.749 61.2)" fill="#8c8a93"/>
  <path id="Path_559" data-name="Path 559" d="M208.378,285.746h-16.1V257.87h16.1Zm-15.2-.869h14.331V258.741H193.176Z" transform="translate(-146.979 -197.119)"/>
  <g id="Group_35" data-name="Group 35">
    <g id="Group_34" data-name="Group 34" clip-path="url(#clip-path)">
      <path id="Path_560" data-name="Path 560" d="M279.732,286.869a1.1,1.1,0,0,0,1.1-1.1V260.989a1.1,1.1,0,0,0-1.1-1.1H258.713V286.9h21.019Z" transform="translate(-197.764 -198.664)" fill="#81667a"/>
      <path id="Path_561" data-name="Path 561" d="M278.365,285.746h-21.44V257.87h21.44a1.559,1.559,0,0,1,1.545,1.546V284.2a1.524,1.524,0,0,1-1.5,1.546h-.044m-20.57-.869h20.57a.684.684,0,0,0,.674-.674V259.416a.684.684,0,0,0-.674-.674H257.8Z" transform="translate(-196.397 -197.119)"/>
      <path id="Path_562" data-name="Path 562" d="M3,259.7a1.1,1.1,0,0,0-1.1,1.1v24.784a1.116,1.116,0,0,0,1.1,1.1H16.767v-27H3Z" transform="translate(-1.452 -198.5)" fill="#d1f0b1"/>
      <path id="Path_563" data-name="Path 563" d="M15.765,285.737H1.546A1.559,1.559,0,0,1,0,284.191V259.407a1.6,1.6,0,0,1,.45-1.1,1.443,1.443,0,0,1,1.1-.45H15.766ZM1.546,258.761a.659.659,0,0,0-.477.2.679.679,0,0,0-.2.477v24.784a.684.684,0,0,0,.674.674H14.894V258.761Z" transform="translate(0 -197.11)"/>
      <rect id="Rectangle_37" data-name="Rectangle 37" width="15.204" height="27.004" transform="translate(30.545 61.2)" fill="#92b4a7"/>
      <path id="Path_564" data-name="Path 564" d="M143.849,285.746h-16.1V257.87h16.1Zm-15.2-.869h14.331V258.741H128.647Z" transform="translate(-97.652 -197.119)"/>
      <rect id="Rectangle_38" data-name="Rectangle 38" width="15.202" height="27.004" transform="translate(15.341 61.2)" fill="#b6cb9e"/>
      <path id="Path_565" data-name="Path 565" d="M79.321,285.746H63.22V257.87h16.1Zm-15.23-.869H78.422V258.741H64.091Z" transform="translate(-48.326 -197.119)"/>
      <path id="Path_566" data-name="Path 566" d="M300.107,305.355a5.255,5.255,0,1,1,5.255-5.255,5.255,5.255,0,0,1-5.255,5.255m0-9.666a4.384,4.384,0,1,0,4.384,4.384,4.383,4.383,0,0,0-4.384-4.384" transform="translate(-225.389 -225.384)"/>
      <path id="Path_567" data-name="Path 567" d="M300.088,305.265a5.275,5.275,0,0,1-2.641-9.835,5.356,5.356,0,0,1,2.613-.7,5.269,5.269,0,0,1,.026,10.537Zm0-9.666a4.348,4.348,0,0,0-2.191.59,4.446,4.446,0,0,0-2.053,2.669,4.287,4.287,0,0,0,.45,3.316,4.424,4.424,0,0,0,3.793,2.191,4.349,4.349,0,0,0,2.192-.59,4.445,4.445,0,0,0,2.053-2.669,4.288,4.288,0,0,0-.45-3.316,4.425,4.425,0,0,0-3.794-2.192" transform="translate(-225.37 -225.294)"/>
      <path id="Path_568" data-name="Path 568" d="M300.085,305.262a5.465,5.465,0,0,1-2.641-.7,5.269,5.269,0,0,1,5.23-9.148l.026.015a5.278,5.278,0,0,1-2.614,9.834Zm0-9.666a4.383,4.383,0,0,0-2.226,8.157l.034.02a4.375,4.375,0,0,0,5.979-1.59l.007-.011a4.385,4.385,0,0,0-1.573-6l-.028-.016a4.626,4.626,0,0,0-2.192-.56" transform="translate(-225.367 -225.291)"/>
      <path id="Path_569" data-name="Path 569" d="M195.2,236.98,208.685,213.6l-13.151-7.615-13.517,23.381Z" transform="translate(-139.137 -157.459)" fill="#ffdd4a"/>
      <path id="Path_570" data-name="Path 570" d="M193.446,235.655l-13.939-8.036,13.939-24.138,13.939,8.036Zm-12.757-8.346,12.42,7.165,13.066-22.62-12.42-7.165Z" transform="translate(-137.218 -155.544)"/>
      <path id="Path_571" data-name="Path 571" d="M256.259,272.2a1.127,1.127,0,0,0,1.517-.393l12.392-21.468a1.128,1.128,0,0,0-.393-1.517l-18.209-10.509L238.078,261.69Z" transform="translate(-181.99 -182.168)" fill="#fe9000"/>
      <path id="Path_572" data-name="Path 572" d="M254.787,270.873h0a1.688,1.688,0,0,1-.759-.2l-18.574-10.734L249.393,235.8l18.574,10.734a1.508,1.508,0,0,1,.73.927,1.575,1.575,0,0,1-.14,1.181l-12.392,21.468a1.7,1.7,0,0,1-1.379.759m-18.153-11.266,17.815,10.285a.677.677,0,0,0,.9-.253l12.392-21.468a.632.632,0,0,0,.056-.506.726.726,0,0,0-.309-.394l-17.815-10.284Z" transform="translate(-179.984 -180.252)"/>
      <path id="Path_573" data-name="Path 573" d="M31.21,111.76a1.127,1.127,0,0,0-1.517.393L17.3,133.622a1.128,1.128,0,0,0,.393,1.517l11.915,6.885L43.1,118.645Z" transform="translate(-13.113 -85.319)" fill="#f7634b"/>
      <path id="Path_574" data-name="Path 574" d="M28.455,141.18,16.147,134.07a1.379,1.379,0,0,1-.7-.927,1.576,1.576,0,0,1,.14-1.181L27.977,110.5a1.579,1.579,0,0,1,2.108-.562l12.308,7.109Zm.871-30.572a.693.693,0,0,0-.59.337L16.344,132.413a.633.633,0,0,0-.056.506.726.726,0,0,0,.309.393l11.549,6.66,13.066-22.62-11.549-6.66A.744.744,0,0,0,29.326,110.607Z" transform="translate(-11.763 -83.885)"/>
      <rect id="Rectangle_39" data-name="Rectangle 39" width="27.003" height="15.202" transform="matrix(0.5, -0.866, 0.866, 0.5, 29.734, 64.32)" fill="#5adbff"/>
      <path id="Path_575" data-name="Path 575" d="M137.507,203.45l-13.939-8.037,13.939-24.138,13.939,8.037Zm-12.729-8.374,12.421,7.166,13.067-22.621-12.42-7.165Z" transform="translate(-94.457 -130.925)"/>
      <rect id="Rectangle_40" data-name="Rectangle 40" width="27.003" height="15.202" transform="translate(16.53 56.695) rotate(-59.999)" fill="#7d73f9"/>
      <path id="Path_576" data-name="Path 576" d="M81.566,171.127,67.627,163.09l13.939-24.138L95.5,146.989Zm-12.729-8.372,12.42,7.165L94.323,147.3,81.9,140.133Z" transform="translate(-51.695 -106.217)"/>
      <rect id="Rectangle_41" data-name="Rectangle 41" width="27.003" height="15.202" transform="translate(48.56 56.372) rotate(-30.001)" fill="#83bcff"/>
      <path id="Path_577" data-name="Path 577" d="M211.525,207.252l-8.037-13.939,24.138-13.939,8.037,13.939Zm-6.829-13.6,7.166,12.42,22.62-13.066-7.165-12.42Z" transform="translate(-155.549 -137.116)"/>
      <path id="Path_578" data-name="Path 578" d="M248.827,269.565a1.1,1.1,0,0,0,1.508.4l.009-.005,21.468-12.392a1.1,1.1,0,0,0,.4-1.507l-.006-.01L261.7,237.84l-23.379,13.488Z" transform="translate(-182.174 -181.808)" fill="#80ffe8"/>
      <path id="Path_579" data-name="Path 579" d="M247.777,268.714h0a1.606,1.606,0,0,1-1.349-.759l-10.734-18.574,24.138-13.939,10.734,18.574a1.553,1.553,0,0,1-.562,2.108l-21.468,12.392a1.689,1.689,0,0,1-.759.2M236.9,249.688,247.186,267.5a.686.686,0,0,0,.59.337.753.753,0,0,0,.337-.084l21.468-12.392a.678.678,0,0,0,.253-.9L259.55,236.65Z" transform="translate(-180.168 -179.975)"/>
      <path id="Path_580" data-name="Path 580" d="M135.116,17.776a1.1,1.1,0,0,0-1.508-.4l-.01.006L112.13,29.775a1.1,1.1,0,0,0-.4,1.507l.006.01,6.884,11.914L142,29.719Z" transform="translate(-85.294 -13.169)" fill="#d9fff8"/>
      <path id="Path_581" data-name="Path 581" d="M117.02,42.4,109.91,30.093a1.553,1.553,0,0,1,.562-2.108L131.94,15.593a1.586,1.586,0,0,1,2.108.562l7.109,12.308Zm15.708-26.133a.756.756,0,0,0-.338.084L110.922,28.744a.684.684,0,0,0-.253.9l6.66,11.549,22.62-13.066-6.66-11.549a.616.616,0,0,0-.562-.309" transform="translate(-83.861 -11.772)"/>
      <rect id="Rectangle_42" data-name="Rectangle 42" width="27.003" height="15.202" transform="translate(40.916 43.21) rotate(-30.001)" fill="#97d2fb"/>
      <path id="Path_582" data-name="Path 582" d="M179.32,151.313l-8.036-13.939,24.138-13.939,8.036,13.939Zm-6.856-13.6,7.165,12.42,22.621-13.066-7.166-12.42Z" transform="translate(-130.932 -94.355)"/>
      <rect id="Rectangle_43" data-name="Rectangle 43" width="27.003" height="15.202" transform="translate(33.317 30.014) rotate(-30.001)" fill="#e1eff6"/>
      <path id="Path_583" data-name="Path 583" d="M147,95.492l-8.037-13.939L163.1,67.614l8.037,13.939ZM140.14,81.863l7.165,12.42,22.62-13.067L162.76,68.8Z" transform="translate(-106.222 -51.685)"/>
      <rect id="Rectangle_44" data-name="Rectangle 44" width="27.004" height="15.202" transform="translate(61.202 45.746)" fill="#d5c67a"/>
      <path id="Path_584" data-name="Path 584" d="M285.864,208.371H257.986v-16.1h27.878Zm-27-.871h26.133V193.169H258.86Z" transform="translate(-197.208 -146.974)"/>
      <path id="Path_585" data-name="Path 585" d="M259.709,279.726a1.1,1.1,0,0,0,1.1,1.1h24.784a1.1,1.1,0,0,0,1.1-1.1V258.707h-27v21.019Z" transform="translate(-198.507 -197.759)" fill="#f1a208"/>
      <path id="Path_586" data-name="Path 586" d="M284.326,279.9H259.542A1.559,1.559,0,0,1,258,278.358v-21.44h27.878v21.44a1.559,1.559,0,0,1-1.548,1.545m-25.459-22.115v20.569a.683.683,0,0,0,.674.674h24.784a.684.684,0,0,0,.674-.674V257.789Z" transform="translate(-197.216 -196.392)"/>
      <path id="Path_587" data-name="Path 587" d="M286.869,3a1.1,1.1,0,0,0-1.1-1.1H260.987a1.1,1.1,0,0,0-1.1,1.1V16.768h27V3Z" transform="translate(-198.663 -1.453)" fill="#052f5f"/>
      <path id="Path_588" data-name="Path 588" d="M285.864,15.763H257.986V1.546A1.559,1.559,0,0,1,259.532,0h24.784a1.559,1.559,0,0,1,1.546,1.546Zm-27-.871h26.133V1.546a.684.684,0,0,0-.674-.675H259.534a.684.684,0,0,0-.674.675Z" transform="translate(-197.208)"/>
      <rect id="Rectangle_45" data-name="Rectangle 45" width="27.004" height="15.202" transform="translate(61.202 30.516)" fill="#06a77d"/>
      <path id="Path_589" data-name="Path 589" d="M285.864,143.723H257.986v-16.1h27.878Zm-27-.871h26.133V128.521H258.86Z" transform="translate(-197.208 -97.556)"/>
      <rect id="Rectangle_46" data-name="Rectangle 46" width="27.004" height="15.202" transform="translate(61.202 15.314)" fill="#005377"/>
      <path id="Path_590" data-name="Path 590" d="M285.864,79.2H257.986v-16.1h27.878Zm-27-.871h26.133V63.993H258.86Z" transform="translate(-197.208 -48.23)"/>
      <path id="Path_591" data-name="Path 591" d="M301.476,296.637a4.833,4.833,0,1,1-4.833,4.834h0a4.832,4.832,0,0,1,4.832-4.833Z" transform="translate(-226.758 -226.753)" fill="#fff"/>
      <path id="Path_592" data-name="Path 592" d="M300.107,305.355a5.255,5.255,0,1,1,5.255-5.255,5.255,5.255,0,0,1-5.255,5.255m0-9.666a4.384,4.384,0,1,0,4.384,4.384,4.383,4.383,0,0,0-4.384-4.384" transform="translate(-225.389 -225.384)"/>
    </g>
  </g>
</svg>
