<svg id="Group_40" data-name="Group 40" xmlns="http://www.w3.org/2000/svg" xmlns:xlink="http://www.w3.org/1999/xlink" width="104.232" height="93.156" viewBox="0 0 104.232 93.156">
  <defs>
    <clipPath id="clip-path">
      <rect id="Rectangle_32" data-name="Rectangle 32" width="104.232" height="93.156" fill="#fff"/>
    </clipPath>
  </defs>
  <g id="Group_25" data-name="Group 25" clip-path="url(#clip-path)">
    <path id="Path_557" data-name="Path 557" d="M160.438,59.293l.272-1.086a28.847,28.847,0,0,1-21.6-23.881A29.436,29.436,0,0,1,138.8,30.1a28.978,28.978,0,1,1,57.955,0,29.437,29.437,0,0,1-.306,4.228,28.847,28.847,0,0,1-21.6,23.881l.272,1.086a29.963,29.963,0,0,0,22.436-24.805,30.561,30.561,0,0,0,.318-4.389,30.1,30.1,0,1,0-60.194,0A30.562,30.562,0,0,0,138,34.488,29.963,29.963,0,0,0,160.438,59.293Z" transform="translate(-115.666)" fill="#fff"/>
    <path id="Ellipse_27" data-name="Ellipse 27" d="M26.6-3.5A30.1,30.1,0,1,0,56.7,26.6,30.132,30.132,0,0,0,26.6-3.5Zm0,59.076A28.978,28.978,0,1,1,55.576,26.6,29.011,29.011,0,0,1,26.6,55.576Z" transform="translate(47.537 36.461)" fill="#fff"/>
    <path id="Ellipse_28" data-name="Ellipse 28" d="M26.6-3.5A30.1,30.1,0,1,0,56.7,26.6,30.132,30.132,0,0,0,26.6-3.5Zm0,59.076A28.978,28.978,0,1,1,55.576,26.6,29.011,29.011,0,0,1,26.6,55.576Z" transform="translate(3.5 36.461)" fill="#fff"/>
    <path id="Path_558" data-name="Path 558" d="M285.124,268.954l-.179.2a29.789,29.789,0,0,0-5.558,9.04,29.635,29.635,0,0,0-1.5,5.231,30.07,30.07,0,0,0,0,11.154,29.591,29.591,0,0,0,3.886,10.019,29.979,29.979,0,0,0,3.173,4.251l.179.2.179-.2a29.788,29.788,0,0,0,5.558-9.04,29.633,29.633,0,0,0,1.5-5.231,30.07,30.07,0,0,0,0-11.154,29.592,29.592,0,0,0-3.886-10.019,29.982,29.982,0,0,0-3.173-4.251Zm0,39.373a29.3,29.3,0,0,1-5.289-8.692,29.15,29.15,0,0,1-1.477-5.146,29.59,29.59,0,0,1,0-10.975,29.112,29.112,0,0,1,3.823-9.857,29.5,29.5,0,0,1,2.943-3.981,29.3,29.3,0,0,1,5.29,8.692,29.155,29.155,0,0,1,1.477,5.146,29.592,29.592,0,0,1,0,10.975,29.112,29.112,0,0,1-3.823,9.857A29.5,29.5,0,0,1,285.124,308.327Z" transform="translate(-233.008 -225.943)" fill="#fff"/>
    <path id="Line_90" data-name="Line 90" d="M8.007,8.346l.339-.339L-.721-1.061l-.339.339Z" transform="translate(50.518 47.457)" fill="#fff"/>
    <path id="Path_559" data-name="Path 559" d="M289.712,328.742l.168-.168h.241v-.1L277.709,316.06l-.339.339Z" transform="translate(-230.247 -265.515)" fill="#fff"/>
    <path id="Line_91" data-name="Line 91" d="M12.41,12.749l.339-.339L-.721-1.061l-.339.339Z" transform="translate(46.467 56.374)" fill="#fff"/>
    <path id="Line_92" data-name="Line 92" d="M11.837,12.176l.339-.339-12.9-12.9-.339.339Z" transform="translate(45.554 61.944)" fill="#fff"/>
    <path id="Line_93" data-name="Line 93" d="M9.366,9.705l.339-.339L-.721-1.061l-.339.339Z" transform="translate(45.876 68.751)" fill="#fff"/>
  </g>
</svg>
