<svg id="Group_41" data-name="Group 41" xmlns="http://www.w3.org/2000/svg" xmlns:xlink="http://www.w3.org/1999/xlink" width="79.491" height="79.578" viewBox="0 0 79.491 79.578">
  <defs>
    <clipPath id="clip-path">
      <rect id="Rectangle_33" data-name="Rectangle 33" width="79.491" height="79.578" fill="#fff"/>
    </clipPath>
  </defs>
  <g id="Group_28" data-name="Group 28" transform="translate(0)">
    <g id="Group_27" data-name="Group 27" clip-path="url(#clip-path)">
      <path id="Path_557" data-name="Path 557" d="M319.621,39.465h35.473V1h-.342a35.514,35.514,0,0,0-7.108.717,35.072,35.072,0,0,0-12.613,5.31,35.391,35.391,0,0,0-12.779,15.527,35.129,35.129,0,0,0-2.055,6.625,35.565,35.565,0,0,0-.717,7.112c0,.963.039,1.925.115,2.86Zm34.79-.684H320.253c-.059-.817-.089-1.653-.089-2.49a34.883,34.883,0,0,1,.7-6.975,34.425,34.425,0,0,1,5.2-12.374A34.693,34.693,0,0,1,341.289,4.4a34.4,34.4,0,0,1,6.492-2.016,34.813,34.813,0,0,1,6.629-.7Z" transform="translate(-319.303 -0.863)" fill="#fff"/>
      <path id="Path_558" data-name="Path 558" d="M39.7,79.578A39.975,39.975,0,0,0,79.361,43.013c.086-1.052.13-2.137.13-3.224A39.834,39.834,0,0,0,39.7,0h-.479V42.5H0l.041.517A39.975,39.975,0,0,0,39.7,79.578ZM40.181.96A38.876,38.876,0,0,1,78.533,39.789c0,1.061-.043,2.119-.127,3.147a38.833,38.833,0,0,1-77.366.518h39.14Z" transform="translate(0 0)" fill="#fff"/>
    </g>
  </g>
</svg>
