<svg xmlns="http://www.w3.org/2000/svg" width="163.64" height="24.059" viewBox="0 0 163.64 24.059">
  <g id="Page-1" transform="translate(-18)">
    <g id="logo" transform="translate(18)">
      <g id="Group">
        <path id="Shape" d="M16.22,16.04h0L8.11,8.02,16.22,0H8.11L0,8.02l4.055,4.055L8.11,16.04,12.165,20Z" fill="#fff"/>
        <path id="Shape-2" data-name="Shape" d="M21.987,12.075,17.932,8.02,13.877,4.055,9.912,8.02l8.02,8.02h0l-8.11,8.02h8.11l4.055-3.965,4.055-4.055Z" fill="#fff"/>
      </g>
      <g id="Group-2" data-name="Group">
        <path id="Shape-3" data-name="Shape" d="M36.134,8.02a3.674,3.674,0,0,0-2.883,1.171,4.789,4.789,0,0,0-1.082,3.334,5.252,5.252,0,0,0,.991,3.334,3.555,3.555,0,0,0,2.884,1.172,9.918,9.918,0,0,0,2.613-.451v1.172a8.648,8.648,0,0,1-2.793.45,4.827,4.827,0,0,1-3.785-1.442,6.13,6.13,0,0,1-1.352-4.235,6.052,6.052,0,0,1,.631-2.973,5.5,5.5,0,0,1,1.8-1.983,5.465,5.465,0,0,1,2.884-.721,6.669,6.669,0,0,1,3.064.631L38.567,8.56A6.891,6.891,0,0,0,36.134,8.02Z" fill="#fff"/>
        <path id="Shape-4" data-name="Shape" d="M47.4,15.138a2.619,2.619,0,0,1-1.082,2.253,4.567,4.567,0,0,1-2.883.811,6.917,6.917,0,0,1-3.064-.54V16.4a8.172,8.172,0,0,0,3.064.631,3.215,3.215,0,0,0,1.892-.451,1.619,1.619,0,0,0,.631-1.351,1.349,1.349,0,0,0-.27-.9,3.293,3.293,0,0,0-.811-.72,15.81,15.81,0,0,0-1.622-.721,4.478,4.478,0,0,1-2.163-1.352,2.915,2.915,0,0,1-.631-1.982,2.7,2.7,0,0,1,.992-2.073,3.809,3.809,0,0,1,2.523-.721,7.175,7.175,0,0,1,3.063.631l-.36,1.081a7.238,7.238,0,0,0-2.7-.54,2.883,2.883,0,0,0-1.622.45,1.512,1.512,0,0,0-.541,1.262,2.264,2.264,0,0,0,.18.9,1.679,1.679,0,0,0,.721.631,13.13,13.13,0,0,0,1.532.721,7.243,7.243,0,0,1,2.433,1.351A2.507,2.507,0,0,1,47.4,15.138Z" fill="#fff"/>
        <path id="Shape-5" data-name="Shape" d="M55.958,15.138a2.618,2.618,0,0,1-1.081,2.253,4.572,4.572,0,0,1-2.884.811,6.915,6.915,0,0,1-3.063-.54V16.4a8.161,8.161,0,0,0,3.063.631,3.219,3.219,0,0,0,1.893-.451,1.621,1.621,0,0,0,.63-1.351,1.349,1.349,0,0,0-.27-.9,3.257,3.257,0,0,0-.811-.72,15.71,15.71,0,0,0-1.622-.721,4.469,4.469,0,0,1-2.162-1.352,2.91,2.91,0,0,1-.631-1.982,2.7,2.7,0,0,1,.991-2.073,3.812,3.812,0,0,1,2.523-.721,7.18,7.18,0,0,1,3.064.631L55.237,8.47a7.238,7.238,0,0,0-2.7-.54,2.885,2.885,0,0,0-1.622.45,1.515,1.515,0,0,0-.541,1.262,2.262,2.262,0,0,0,.181.9,1.673,1.673,0,0,0,.721.631A13.1,13.1,0,0,0,52.8,11.9a7.222,7.222,0,0,1,2.433,1.351A2.907,2.907,0,0,1,55.958,15.138Z" fill="#fff"/>
        <path id="Shape-6" data-name="Shape" d="M67.222,12.345A5.8,5.8,0,0,1,65.69,16.58a5.876,5.876,0,0,1-4.325,1.532H57.76V7.029h3.785A5.888,5.888,0,0,1,65.69,8.38,5.156,5.156,0,0,1,67.222,12.345Zm-3.064.09a3.207,3.207,0,0,0-.631-2.253,2.236,2.236,0,0,0-1.8-.72h-.9v6.217h.631a2.391,2.391,0,0,0,1.982-.811A3.285,3.285,0,0,0,64.158,12.435Z" fill="#fff"/>
        <path id="Shape-7" data-name="Shape" d="M73.169,18.292a4.436,4.436,0,0,1-3.334-1.171,4.1,4.1,0,0,1-1.171-3.244,4.787,4.787,0,0,1,1.081-3.334A4.018,4.018,0,0,1,72.9,9.371a4.38,4.38,0,0,1,2.974.992,3.674,3.674,0,0,1,1.081,2.883V14.6H71.637a1.588,1.588,0,0,0,.541,1.171,2.209,2.209,0,0,0,1.352.451,7,7,0,0,0,1.441-.18,5.8,5.8,0,0,0,1.442-.541v2.163a3.86,3.86,0,0,1-1.442.45A10.134,10.134,0,0,1,73.169,18.292Zm-.18-6.848a1.158,1.158,0,0,0-.9.36,1.469,1.469,0,0,0-.451.992H74.16a1.234,1.234,0,0,0-.36-.992C73.71,11.534,73.44,11.444,72.989,11.444Z" fill="#fff"/>
        <path id="Shape-8" data-name="Shape" d="M85.244,15.5a2.38,2.38,0,0,1-.9,2.072,4.594,4.594,0,0,1-2.7.721,8.767,8.767,0,0,1-1.622-.09,8.425,8.425,0,0,1-1.442-.36V15.5c.45.18.991.36,1.532.541a8.986,8.986,0,0,0,1.441.18c.631,0,.992-.18.992-.451,0-.18-.09-.27-.271-.36s-.721-.361-1.532-.721a4.173,4.173,0,0,1-1.622-1.081,2.8,2.8,0,0,1-.45-1.532,2.157,2.157,0,0,1,.9-1.893,4.32,4.32,0,0,1,2.613-.63,9.929,9.929,0,0,1,1.622.18,5.184,5.184,0,0,1,1.532.541l-.811,1.892a5.213,5.213,0,0,0-1.261-.451,6.664,6.664,0,0,0-1.082-.18c-.45,0-.721.09-.721.361,0,.18.09.27.271.36s.63.27,1.441.631a4.506,4.506,0,0,1,1.352.721,2.478,2.478,0,0,1,.631.811C85.154,14.6,85.244,15.048,85.244,15.5Z" fill="#fff"/>
        <path id="Shape-9" data-name="Shape" d="M86.866,7.389a1.122,1.122,0,0,1,.36-.991A2.011,2.011,0,0,1,88.4,6.037c.54,0,.991.09,1.171.361a1.12,1.12,0,0,1,.361.991c0,.9-.541,1.262-1.622,1.262C87.316,8.741,86.866,8.29,86.866,7.389ZM89.84,18.112H86.866V9.552H89.84Z" fill="#fff"/>
        <path id="Shape-10" data-name="Shape" d="M100.022,9.552v1.441l-1.171.451a1.818,1.818,0,0,1,.27.991A2.745,2.745,0,0,1,98.13,14.6a4.418,4.418,0,0,1-2.884.721,1.552,1.552,0,0,1-.721-.09.541.541,0,0,0-.09.36c0,.18.09.27.361.36a2.749,2.749,0,0,0,.9.091h1.441c1.893,0,2.884.811,2.884,2.433a2.654,2.654,0,0,1-1.352,2.432,7.318,7.318,0,0,1-3.784.9,4.946,4.946,0,0,1-2.794-.631,1.934,1.934,0,0,1-.991-1.712c0-.991.631-1.712,1.892-1.983a1.887,1.887,0,0,1-.72-.54A1.2,1.2,0,0,1,92,16.22a1.7,1.7,0,0,1,.18-.721,4.406,4.406,0,0,1,.9-.721,2.654,2.654,0,0,1-1.082-.9,2.765,2.765,0,0,1-.36-1.532,2.742,2.742,0,0,1,.991-2.163,4.04,4.04,0,0,1,2.7-.811,3.074,3.074,0,0,1,.811.091c.361,0,.631.09.811.09Zm-6.488,9.641a.679.679,0,0,0,.361.631,1.951,1.951,0,0,0,1.081.18,4.548,4.548,0,0,0,1.712-.27c.45-.18.631-.45.631-.721s-.09-.36-.361-.45a3.528,3.528,0,0,0-1.171-.181H94.615a2.159,2.159,0,0,0-.811.181A.817.817,0,0,0,93.534,19.193Zm.9-6.848c0,.9.27,1.352.9,1.352a.6.6,0,0,0,.631-.361,1.449,1.449,0,0,0,.27-.991c0-.9-.27-1.352-.9-1.352C94.8,10.993,94.435,11.444,94.435,12.345Z" fill="#fff"/>
        <path id="Shape-11" data-name="Shape" d="M106.69,18.112V13.426a2.388,2.388,0,0,0-.27-1.261.948.948,0,0,0-.811-.451,1.022,1.022,0,0,0-1.082.631,5,5,0,0,0-.36,2.073V18.2h-2.974V9.642h2.253l.361,1.081h.18a2.651,2.651,0,0,1,1.081-.9,4.215,4.215,0,0,1,1.532-.27,3,3,0,0,1,2.253.811,3.219,3.219,0,0,1,.811,2.342v5.587H106.69Z" fill="#fff"/>
        <path id="Shape-12" data-name="Shape" d="M119.125,18.112,117.774,14.6h-4.416l-1.351,3.514h-1.262L115.16,7.029h1.082l4.325,11.083Zm-1.8-4.686L116.062,10a16.654,16.654,0,0,1-.541-1.622c-.09.451-.27.991-.451,1.622l-1.261,3.424Z" fill="#fff"/>
        <path id="Shape-13" data-name="Shape" d="M128.587,18.112l-1.532-4.866c-.09-.27-.27-.991-.541-1.982h-.09a16.553,16.553,0,0,1-.54,2.072L124.352,18.2H122.91l-2.253-8.29h1.352c.54,2.073.9,3.7,1.261,4.776a12.862,12.862,0,0,1,.451,2.163h.09a9.389,9.389,0,0,0,.27-1.082,7.508,7.508,0,0,1,.361-1.081l1.532-4.776h1.351l1.442,4.776a18.672,18.672,0,0,1,.541,2.163h.09a4.553,4.553,0,0,1,.18-.811c.09-.361.631-2.433,1.532-6.128h1.261l-2.252,8.29h-1.532Z" fill="#fff"/>
        <path id="Shape-14" data-name="Shape" d="M138.949,18.112l-.27-1.171h-.09a3.381,3.381,0,0,1-1.262,1.081,3.884,3.884,0,0,1-1.531.27,2.543,2.543,0,0,1-1.893-.63,2.374,2.374,0,0,1-.721-1.8c0-1.712,1.352-2.523,4.055-2.613l1.442-.09v-.541a2.116,2.116,0,0,0-.45-1.441,1.864,1.864,0,0,0-1.352-.451,5.083,5.083,0,0,0-2.343.631l-.36-.991c.45-.181.811-.361,1.351-.541a7.9,7.9,0,0,1,1.442-.18,2.961,2.961,0,0,1,2.163.631,2.883,2.883,0,0,1,.721,2.072v5.677h-.9Zm-2.883-.9a2.2,2.2,0,0,0,2.433-2.433v-.721l-1.262.09a4.289,4.289,0,0,0-2.162.451,1.362,1.362,0,0,0-.631,1.261,1.163,1.163,0,0,0,.451.992A1.81,1.81,0,0,0,136.066,17.211Z" fill="#fff"/>
        <path id="Shape-15" data-name="Shape" d="M146.248,9.642a3.389,3.389,0,0,1,.992.09l-.181,1.171a3.38,3.38,0,0,0-.9-.09,2.221,2.221,0,0,0-1.712.811,3.218,3.218,0,0,0-.721,2.073v4.415h-1.261V9.822h.991l.18,1.532h.09a3.8,3.8,0,0,1,1.082-1.262A2.723,2.723,0,0,1,146.248,9.642Z" fill="#fff"/>
        <path id="Shape-16" data-name="Shape" d="M154.448,17.031h0a3.254,3.254,0,0,1-2.7,1.261,3.144,3.144,0,0,1-2.523-1.081,4.7,4.7,0,0,1-.9-3.154,4.7,4.7,0,0,1,.9-3.154,3.321,3.321,0,0,1,5.136.09h.09l-.09-.63V6.308h1.262v11.8h-.991Zm-2.523.18a2.441,2.441,0,0,0,1.893-.721,3.771,3.771,0,0,0,.54-2.253v-.27a3.854,3.854,0,0,0-.631-2.523,2.065,2.065,0,0,0-1.892-.721,1.951,1.951,0,0,0-1.712.9,4.372,4.372,0,0,0-.631,2.433,4.429,4.429,0,0,0,.541,2.433A2.734,2.734,0,0,0,151.925,17.211Z" fill="#fff"/>
        <path id="Shape-17" data-name="Shape" d="M163.64,15.859a2,2,0,0,1-.9,1.8,3.738,3.738,0,0,1-2.432.63,5.379,5.379,0,0,1-2.614-.54V16.58a5.221,5.221,0,0,0,1.262.451,6.957,6.957,0,0,0,1.352.18,3.591,3.591,0,0,0,1.531-.27,1.036,1.036,0,0,0,.541-.992.947.947,0,0,0-.451-.811,4.416,4.416,0,0,0-1.621-.811,7.292,7.292,0,0,1-1.622-.72,1.847,1.847,0,0,1-.721-.721,1.812,1.812,0,0,1-.271-.991,2.048,2.048,0,0,1,.811-1.622,3.357,3.357,0,0,1,2.253-.631,6.47,6.47,0,0,1,2.613.54l-.45.992a5.81,5.81,0,0,0-2.253-.541,2.538,2.538,0,0,0-1.352.27.948.948,0,0,0-.45.811.966.966,0,0,0,.18.541c.09.18.27.27.541.45a7.974,7.974,0,0,0,1.441.631,5.5,5.5,0,0,1,1.983,1.082A1.92,1.92,0,0,1,163.64,15.859Z" fill="#fff"/>
      </g>
    </g>
  </g>
</svg>
