<svg xmlns="http://www.w3.org/2000/svg" width="134.583" height="61.917" viewBox="0 0 134.583 61.917">
  <g id="Group_231" data-name="Group 231" transform="translate(-614 -1112.705)">
    <path id="Path_709" data-name="Path 709" d="M3.215,58.353H18.5L10.858,71.59ZM.147,56.581,10.858,75.132,21.569,56.581Z" transform="translate(613.853 1072.19)" fill="#fff"/>
    <path id="Path_710" data-name="Path 710" d="M77.32,75.133,66.609,56.582H88.031Zm-7.643-16.78L77.32,71.59l7.643-13.237Z" transform="translate(567.887 1072.189)" fill="#fff"/>
    <path id="Path_711" data-name="Path 711" d="M77.32,130.19,66.609,111.637H88.031Zm-7.643-16.781,7.643,13.238,7.643-13.238Z" transform="translate(567.887 1034.113)" fill="#fff"/>
    <rect id="Rectangle_98" data-name="Rectangle 98" width="1.771" height="29.071" transform="translate(623.824 1145.55)" fill="#fff"/>
    <rect id="Rectangle_99" data-name="Rectangle 99" width="1.771" height="11.093" transform="translate(644.321 1162.531)" fill="#fff"/>
    <path id="Path_712" data-name="Path 712" d="M2.868,11.445A3,3,0,0,1,1.712,10.16,4.44,4.44,0,0,1,1.3,8.19v0a4.424,4.424,0,0,1,.407-1.968,3,3,0,0,1,1.153-1.28,3.35,3.35,0,0,1,1.764-.45,3.27,3.27,0,0,1,1.426.3,2.84,2.84,0,0,1,1.049.84,2.676,2.676,0,0,1,.522,1.247l0,.05H6.523l-.03-.1a1.863,1.863,0,0,0-.37-.726,1.684,1.684,0,0,0-.631-.464,2.165,2.165,0,0,0-.862-.162,2,2,0,0,0-1.155.333,2.159,2.159,0,0,0-.758.939,3.529,3.529,0,0,0-.268,1.436v0a3.569,3.569,0,0,0,.268,1.439,2.143,2.143,0,0,0,.761.946,2.006,2.006,0,0,0,1.153.333,2.131,2.131,0,0,0,.852-.162,1.705,1.705,0,0,0,.639-.475,2.044,2.044,0,0,0,.393-.765l.015-.05H7.636l-.01.05a2.71,2.71,0,0,1-.519,1.255,2.767,2.767,0,0,1-1.046.837,3.336,3.336,0,0,1-1.431.3A3.337,3.337,0,0,1,2.868,11.445Zm6.82.167A1.953,1.953,0,0,1,8.532,9.77V6.078H9.611V9.686a1.28,1.28,0,0,0,.363.954A1.4,1.4,0,0,0,11,11a1.372,1.372,0,0,0,1.014-.358,1.291,1.291,0,0,0,.358-.954V6.078h1.078V9.77A1.957,1.957,0,0,1,12.3,11.611a2.972,2.972,0,0,1-1.312.266A2.984,2.984,0,0,1,9.688,11.611Zm4.859-5.533h.969l3.473,4.805-1.014-.8h.457V6.078h1.074v5.7h-.959L15.069,6.963l1.009.8h-.452v4.02H14.547Zm6.055,0h3.866v.855H21.681V8.478H24.32v.815H21.681v1.63h2.788v.855H20.6Zm4.824,0H26.5v5.7H25.427Zm2.167,0h3.816v.855H28.673v1.69h2.5v.83h-2.5v2.326H27.594Zm5.736,5.439a2.449,2.449,0,0,1-.984-1.021A3.34,3.34,0,0,1,32,8.931v0a3.34,3.34,0,0,1,.345-1.565,2.433,2.433,0,0,1,.984-1.019,3.352,3.352,0,0,1,3.014,0,2.453,2.453,0,0,1,.984,1.019,3.318,3.318,0,0,1,.348,1.565v0a3.345,3.345,0,0,1-.345,1.563,2.451,2.451,0,0,1-.981,1.024,3.343,3.343,0,0,1-3.019,0Zm2.437-.775a1.647,1.647,0,0,0,.6-.72,2.645,2.645,0,0,0,.209-1.091v-.01a2.627,2.627,0,0,0-.211-1.1,1.636,1.636,0,0,0-.6-.713,1.655,1.655,0,0,0-.919-.251,1.68,1.68,0,0,0-.924.251,1.623,1.623,0,0,0-.6.713,2.627,2.627,0,0,0-.211,1.1v.01a2.644,2.644,0,0,0,.211,1.1,1.617,1.617,0,0,0,.6.715,1.678,1.678,0,0,0,.924.251A1.637,1.637,0,0,0,35.768,10.742ZM38.55,6.078h2.39a2.223,2.223,0,0,1,1.508.477A1.636,1.636,0,0,1,43,7.857v.01a1.721,1.721,0,0,1-.3,1,1.614,1.614,0,0,1-.815.616l1.3,2.291H41.944L40.776,9.641H39.628v2.137H38.55Zm2.276,2.763a1.124,1.124,0,0,0,.785-.254.918.918,0,0,0,.278-.715v-.01a.9.9,0,0,0-.291-.706,1.151,1.151,0,0,0-.793-.258H39.628V8.841Zm3.067-2.763H45.14l1.824,4.363h.025l1.819-4.363h1.247v5.7h-.974V7.718h-.492l1.1-1.481-2.346,5.541h-.736L44.261,6.237l1.1,1.481h-.5v4.06h-.974Z" transform="translate(613.052 1108.217)" fill="#fff"/>
    <path id="Path_713" data-name="Path 713" d="M301.485,11.445a3,3,0,0,1-1.156-1.284,4.44,4.44,0,0,1-.407-1.97v0a4.424,4.424,0,0,1,.407-1.968,3,3,0,0,1,1.153-1.28,3.35,3.35,0,0,1,1.764-.45,3.27,3.27,0,0,1,1.426.3,2.84,2.84,0,0,1,1.049.84,2.676,2.676,0,0,1,.522,1.247l0,.05H305.14l-.03-.1a1.863,1.863,0,0,0-.37-.726,1.684,1.684,0,0,0-.631-.464,2.165,2.165,0,0,0-.862-.162,2,2,0,0,0-1.155.333,2.159,2.159,0,0,0-.758.939,3.528,3.528,0,0,0-.268,1.436v0a3.568,3.568,0,0,0,.268,1.439,2.143,2.143,0,0,0,.76.946,2.006,2.006,0,0,0,1.153.333,2.132,2.132,0,0,0,.852-.162,1.706,1.706,0,0,0,.639-.475,2.044,2.044,0,0,0,.393-.765l.015-.05h1.108l-.01.05a2.71,2.71,0,0,1-.519,1.255,2.769,2.769,0,0,1-1.046.837,3.623,3.623,0,0,1-3.193-.154Zm5.664-5.367h1.078v2.37h2.887V6.078H312.2v5.7h-1.083V9.3h-2.887v2.475h-1.078Zm7.832,0h.919V7.092h-.318l-1.6,4.686h-1.133Zm-.755,3.439h2.743l.288.785h-3.314Zm1.382-2.425V6.078h.6l2.132,5.7H317.2Zm3.383-1.014h1.078v5.7h-1.078Zm.542,3h1.5a1.284,1.284,0,0,0,.89-.286,1.018,1.018,0,0,0,.318-.8v-.01a1.008,1.008,0,0,0-.318-.8,1.3,1.3,0,0,0-.89-.281h-1.5v-.83H321.3a2.27,2.27,0,0,1,1.063.238,1.765,1.765,0,0,1,.713.666,1.908,1.908,0,0,1,.256,1v.01a1.914,1.914,0,0,1-.256.994,1.75,1.75,0,0,1-.713.671,2.267,2.267,0,0,1-1.063.239h-1.769Zm4.608-3h1.247l1.824,4.363h.025l1.819-4.363H330.3v5.7h-.974V7.718h-.492l1.1-1.481-2.346,5.541h-.735l-2.346-5.541,1.1,1.481h-.5v4.06h-.974Zm8.946,0h.919V7.092h-.318l-1.6,4.686h-1.133Zm-.755,3.439h2.743l.288.785h-3.314Zm1.381-2.425V6.078h.6l2.132,5.7H335.3ZM337.1,6.078h.969l3.474,4.805-1.014-.8h.457V6.078h1.074v5.7H341.1l-3.479-4.815,1.009.8h-.452v4.02H337.1Z" transform="translate(406.527 1108.217)" fill="#fff"/>
    <path id="Path_715" data-name="Path 715" d="M340.225,77.066v.909l-3.829.454c-3.635.39-4.543,2.077-4.8,7.01l-.974,14.863h-.909l-1.688-12.137H327.5c-1.622,8.113-6.1,12.137-11.813,12.137a14.009,14.009,0,0,1-10.45-4.673c-3.894-3.895-6.62-9.931-6.62-18.563s2.791-14.6,6.62-18.368a15.737,15.737,0,0,1,11.423-4.868c5.517,0,9.346,3.57,11.813,9.476l2.272-9.282h.909l.779,18.888-.844.195-3.635-7.789c-3.7-7.853-6.555-10.19-11.164-10.19a9.587,9.587,0,0,0-6.815,2.986C307.189,60.9,305.5,66.1,305.5,77.066c0,11.164,1.688,16.616,4.413,19.342a8.381,8.381,0,0,0,6.3,2.6c4.868,0,9.736-4.8,9.736-13.5v-.065c0-4.933-.779-6.426-4.738-6.945l-4.219-.519v-.909Z" transform="translate(407.427 1074.092)" fill="#fff"/>
  </g>
</svg>
