<?xml version="1.0" encoding="UTF-8"?>
<svg id="Layer_1" xmlns="http://www.w3.org/2000/svg" xmlns:xlink="http://www.w3.org/1999/xlink" version="1.1" viewBox="0 0 51 51.2">
  <!-- Generator: Adobe Illustrator 29.5.1, SVG Export Plug-In . SVG Version: 2.1.0 Build 141)  -->
  <defs>
    <style>
      .st0 {
        fill: url(#Brick_65);
      }

      .st1 {
        fill: url(#Brick_67);
      }

      .st2 {
        fill: url(#Brick_64);
      }

      .st3 {
        fill: url(#Brick_66);
      }

      .st4 {
        fill: url(#Brick_62);
      }

      .st5 {
        fill: url(#Brick_61);
      }

      .st6 {
        fill: url(#Brick_63);
      }

      .st7 {
        fill: red;
      }

      .st8 {
        fill: url(#Brick_6);
      }
    </style>
    <linearGradient id="Brick_6" data-name="Brick 6" x1="19.1" y1="6.6" x2="32.3" y2="6.6" gradientUnits="userSpaceOnUse">
      <stop offset="0" stop-color="#efebe7"/>
      <stop offset=".5" stop-color="#e9e4db"/>
      <stop offset="1" stop-color="#c9cacc"/>
    </linearGradient>
    <linearGradient id="Brick_61" data-name="Brick 6" y1="44.6" y2="44.6" xlink:href="#Brick_6"/>
    <linearGradient id="Brick_62" data-name="Brick 6" x1="5.9" y1="39.4" x2="19.1" y2="39.4" xlink:href="#Brick_6"/>
    <linearGradient id="Brick_63" data-name="Brick 6" x1="5.9" y1="12.8" x2="19.1" y2="12.8" xlink:href="#Brick_6"/>
    <linearGradient id="Brick_64" data-name="Brick 6" x1="32.4" y1="12.8" x2="45.6" y2="12.8" xlink:href="#Brick_6"/>
    <linearGradient id="Brick_65" data-name="Brick 6" x1="32.4" y1="39.4" x2="45.6" y2="39.4" xlink:href="#Brick_6"/>
    <linearGradient id="Brick_66" data-name="Brick 6" x1="37.8" y1="26" x2="51.1" y2="26" xlink:href="#Brick_6"/>
    <linearGradient id="Brick_67" data-name="Brick 6" x1="0" y1="26" x2="13.1" y2="26" xlink:href="#Brick_6"/>
  </defs>
  <rect id="Rectangle_259" class="st8" x="19.1" y="0" width="13.2" height="13.2"/>
  <rect id="Rectangle_260" class="st5" x="19.1" y="38" width="13.2" height="13.2"/>
  <path id="Path_1158" class="st4" d="M19.1,46H5.9v-13.2c7.3,0,13.2,5.9,13.2,13.2Z"/>
  <path id="Path_1159" class="st6" d="M5.9,19.4h0V6.2h13.2c0,7.3-5.9,13.2-13.2,13.2"/>
  <path id="Path_1160" class="st2" d="M32.4,6.2h13.2v13.2c-7.3,0-13.2-5.9-13.2-13.2h0Z"/>
  <path id="Path_1161" class="st0" d="M45.6,32.8h0v13.2h-13.2c0-7.3,5.9-13.2,13.2-13.2"/>
  <path id="Path_1162" class="st7" d="M19.1,26.1h0c0-3.7,3-6.6,6.6-6.6s6.6,3,6.6,6.6-3,6.6-6.6,6.6-6.6-3-6.6-6.6h0"/>
  <rect id="Rectangle_261" class="st3" x="37.8" y="19.4" width="13.2" height="13.2"/>
  <rect id="Rectangle_262" class="st1" x="0" y="19.4" width="13.2" height="13.2"/>
</svg>