<?xml version="1.0" encoding="UTF-8"?>
<svg id="Layer_1" xmlns="http://www.w3.org/2000/svg" version="1.1" viewBox="0 0 51 51.2">
  <!-- Generator: Adobe Illustrator 29.5.1, SVG Export Plug-In . SVG Version: 2.1.0 Build 141)  -->
  <defs>
    <style>
      .st0 {
        fill: #a3a1ad;
      }

      .st1 {
        fill: #282828;
      }

      .st2 {
        fill: red;
      }
    </style>
  </defs>
  <rect class="st0" x=".7" y=".5" width="49.5" height="50.2" rx="3.4" ry="3.4"/>
  <rect id="Rectangle_259" class="st1" x="19.1" y="0" width="13.2" height="13.2"/>
  <rect id="Rectangle_260" class="st1" x="19.1" y="38" width="13.2" height="13.2"/>
  <path id="Path_1158" class="st1" d="M19.1,46H5.9v-13.2c7.3,0,13.2,5.9,13.2,13.2Z"/>
  <path id="Path_1159" class="st1" d="M5.9,19.4h0V6.2h13.2c0,7.3-5.9,13.2-13.2,13.2"/>
  <path id="Path_1160" class="st1" d="M32.4,6.2h13.2v13.2c-7.3,0-13.2-5.9-13.2-13.2h0Z"/>
  <path id="Path_1161" class="st1" d="M45.6,32.8h0v13.2h-13.2c0-7.3,5.9-13.2,13.2-13.2"/>
  <path id="Path_1162" class="st2" d="M19.1,26.1h0c0-3.7,3-6.6,6.6-6.6s6.6,3,6.6,6.6-3,6.6-6.6,6.6-6.6-3-6.6-6.6h0"/>
  <rect id="Rectangle_261" class="st1" x="37.8" y="19.4" width="13.2" height="13.2"/>
  <rect id="Rectangle_262" class="st1" x="0" y="19.4" width="13.2" height="13.2"/>
</svg>