<svg xmlns="http://www.w3.org/2000/svg" width="162.338" height="94.257" viewBox="0 0 162.338 94.257">
  <g id="Group_44" data-name="Group 44" transform="translate(-770.242 -1643.371)">
    <path id="Rectangle_50" data-name="Rectangle 50" d="M1.575-3.5H153.763a5.081,5.081,0,0,1,5.075,5.075V85.682a5.081,5.081,0,0,1-5.075,5.075H1.575A5.081,5.081,0,0,1-3.5,85.681V1.575A5.081,5.081,0,0,1,1.575-3.5ZM153.763,89.14a3.463,3.463,0,0,0,3.459-3.459V1.575a3.463,3.463,0,0,0-3.459-3.459H1.575A3.463,3.463,0,0,0-1.884,1.575V85.681A3.463,3.463,0,0,0,1.575,89.14Z" transform="translate(773.742 1646.871)" fill="#fff"/>
    <path id="Path_597" data-name="Path 597" d="M799.081,119.937a2.12,2.12,0,1,1-2.12,2.12A2.123,2.123,0,0,1,799.081,119.937Zm0,3.547a1.427,1.427,0,1,0-1.427-1.427A1.429,1.429,0,0,0,799.081,123.484Z" transform="translate(-19.52 1528.759)" fill="#fff"/>
    <path id="Path_598" data-name="Path 598" d="M824.074,119.937a2.12,2.12,0,1,1-2.12,2.12A2.123,2.123,0,0,1,824.074,119.937Zm0,3.547a1.427,1.427,0,1,0-1.427-1.427A1.429,1.429,0,0,0,824.074,123.484Z" transform="translate(-38.741 1528.759)" fill="#fff"/>
    <path id="Path_599" data-name="Path 599" d="M849.067,119.937a2.12,2.12,0,1,1-2.12,2.12A2.123,2.123,0,0,1,849.067,119.937Zm0,3.547a1.427,1.427,0,1,0-1.427-1.427A1.429,1.429,0,0,0,849.067,123.484Z" transform="translate(-57.963 1528.759)" fill="#fff"/>
  </g>
</svg>
