<?xml version="1.0" encoding="UTF-8"?>
<svg id="Layer_1" xmlns="http://www.w3.org/2000/svg" xmlns:xlink="http://www.w3.org/1999/xlink" version="1.1" viewBox="0 0 170 170">
  <!-- Generator: Adobe Illustrator 29.5.1, SVG Export Plug-In . SVG Version: 2.1.0 Build 141)  -->
  <defs>
    <style>
      .st0 {
        fill: url(#Red);
      }

      .st1 {
        fill: #7955dd;
      }

      .st2 {
        fill: #ed1c24;
      }

      .st3 {
        fill: #fff;
      }

      .st4 {
        fill: none;
        stroke: #231f20;
        stroke-miterlimit: 10;
        stroke-width: 3px;
      }

      .st5 {
        fill: url(#Hot_Pink);
      }
    </style>
    <linearGradient id="Hot_Pink" data-name="Hot Pink" x1="112.7" y1="85.9" x2="164.8" y2="85.9" gradientUnits="userSpaceOnUse">
      <stop offset="0" stop-color="#f074ac"/>
      <stop offset=".5" stop-color="#eb008b"/>
      <stop offset="1" stop-color="#cd118c"/>
    </linearGradient>
    <linearGradient id="Red" x1="5.2" y1="82.3" x2="60.3" y2="82.3" gradientUnits="userSpaceOnUse">
      <stop offset="0" stop-color="#f37f7b"/>
      <stop offset=".5" stop-color="#ed3d57"/>
      <stop offset="1" stop-color="#dd1e47"/>
    </linearGradient>
  </defs>
  <path class="st5" d="M149.2,64.2c-1.6,7.5-.9,15.1.9,22.6.3,1.1.6,2.3.9,3.4.1.4.2.8.3,1.2.3,1.1.7,2.3,1.1,3.4,0,0,0,0,0,0,.1.4.2.8.4,1.1,3,9.2,7.1,18.3,10.2,27.6.7,2.1,1.3,4.1,1.9,6.1v23.2c0,6.6-5.4,12-12,12h-36.2c6.3-6.1,10.1-12.4,12.4-18.5,13.3-36.3-27.4-70.5-13.2-105.2,6.6-16.2,22.8-26.9,43.4-33.9,3.4,2.1,5.6,5.9,5.6,10.1v22.1c-6,5.1-10.5,11-13.4,17.9-.4,1-.8,2-1.1,3,0,.3-.2.7-.3,1-.3,1-.5,2-.8,2.9Z"/>
  <path class="st3" d="M93.2,135.2c-3.7,10-11.5,20.4-27.3,29.6H17.2c-4.2,0-7.8-2.1-10-5.4,1.1-.4,2.1-.8,3.1-1.1,1.4-.5,2.7-1,4-1.5,2.3-.9,4.4-1.8,6.5-2.8.6-.3,1.2-.6,1.8-.9.4-.2.8-.4,1.3-.6.4-.2.8-.4,1.2-.6,4.5-2.3,8.4-4.7,11.9-7.2.3-.2.6-.4.9-.7,1-.7,2-1.5,2.9-2.2.5-.4,1-.8,1.4-1.2,0,0,0,0,0,0,.5-.4,1-.9,1.5-1.3h0c.4-.4.8-.8,1.2-1.1.5-.5,1-1,1.5-1.5.4-.4.8-.9,1.2-1.3.3-.3.6-.7.9-1,.5-.6,1-1.1,1.4-1.7.3-.4.6-.7.9-1.1,1.4-1.8,2.5-3.6,3.6-5.4.2-.3.3-.6.5-.9.6-1.2,1.2-2.4,1.7-3.5.1-.3.2-.5.3-.8.2-.4.4-.9.5-1.3,13.3-36.3-27.4-70.5-13.2-105.2.2-.4.3-.8.5-1.2.7-1.6,1.5-3.2,2.4-4.7.2-.3.4-.7.6-1,.2-.4.5-.7.7-1.1.2-.3.4-.6.6-.9,0,0,0,0,0-.1h53.7c-10.7,6.3-18.8,14.4-23,24.7-14.2,34.7,26.5,68.9,13.2,105.2Z"/>
  <path class="st0" d="M57.6,119.4c-.2.4-.3.9-.5,1.3,0,.3-.2.5-.3.8-.5,1.2-1.1,2.4-1.7,3.5-.2.3-.3.6-.5.9-1,1.8-2.2,3.6-3.6,5.4-.3.4-.6.7-.9,1.1-.5.6-.9,1.1-1.4,1.7-.3.3-.6.7-.9,1-.4.4-.8.9-1.2,1.3-.5.5-1,1-1.5,1.5-.4.4-.8.8-1.2,1.1h0c-.5.4-1,.9-1.5,1.3,0,0,0,0,0,0-.5.4-.9.8-1.4,1.2-.9.7-1.9,1.5-2.9,2.2-.3.2-.6.4-.9.7-3.5,2.5-7.4,4.9-11.9,7.2-.4.2-.8.4-1.2.6-.4.2-.8.4-1.3.6-.6.3-1.2.6-1.8.9-2,1-4.2,1.9-6.5,2.8-1.3.5-2.6,1-4,1.5-1,.4-2.1.8-3.1,1.1-1.3-1.9-2-4.2-2-6.6v-31.1c8.9-7.2,13.9-14.9,16.6-22.3C32.7,69.9,7.9,41.8,5.8,13.7c1.5-4.9,6.1-8.5,11.5-8.5h32.1s0,0,0,.1c-.2.3-.4.6-.6.9-.2.4-.5.7-.7,1.1-.2.3-.4.7-.6,1-.9,1.5-1.7,3.1-2.4,4.7-.2.4-.3.8-.5,1.2-14.2,34.7,26.5,68.9,13.2,105.2Z"/>
  <path class="st2" d="M21.9,99.4c-2.7,7.4-7.8,15.1-16.6,22.3V17.2c0-1.2.2-2.4.5-3.5,2.1,28.1,26.9,56.2,16.1,85.7Z"/>
  <path class="st1" d="M164.8,39.3v90.2c-.6-2-1.2-4.1-1.9-6.1-3-9.2-7.1-18.4-10.2-27.6-.1-.4-.2-.8-.4-1.1,0,0,0,0,0,0-.4-1.1-.7-2.3-1.1-3.4-.1-.4-.2-.8-.3-1.2-.3-1.1-.6-2.3-.9-3.4-1.8-7.5-2.4-15.1-.9-22.6.2-1,.5-2,.8-2.9,0-.3.2-.7.3-1,.3-1,.7-2,1.1-3,2.8-6.9,7.4-12.9,13.4-17.9Z"/>
  <path class="st4" d="M164.8,17.2v135.5c0,6.6-5.4,12-12,12H17.2c-4.2,0-7.8-2.1-10-5.4-1.3-1.9-2-4.2-2-6.6V17.2c0-1.2.2-2.4.5-3.5,1.5-4.9,6.1-8.5,11.5-8.5h135.5c2.3,0,4.5.7,6.4,1.9,3.4,2.1,5.6,5.9,5.6,10.1Z"/>
</svg>