<svg xmlns="http://www.w3.org/2000/svg" width="60.365" height="122.547" viewBox="0 0 60.365 122.547">
  <g id="Group_45" data-name="Group 45" transform="translate(-593.41 -1629.227)">
    <path id="Rectangle_49" data-name="Rectangle 49" d="M1.9-3.5H51.466a5.405,5.405,0,0,1,5.4,5.4V113.648a5.405,5.405,0,0,1-5.4,5.4H1.9a5.405,5.405,0,0,1-5.4-5.4V1.9A5.405,5.405,0,0,1,1.9-3.5ZM51.466,117.431a3.787,3.787,0,0,0,3.783-3.783V1.9a3.787,3.787,0,0,0-3.783-3.783H1.9A3.787,3.787,0,0,0-1.884,1.9V113.648A3.787,3.787,0,0,0,1.9,117.431Z" transform="translate(596.91 1632.727)" fill="#fff"/>
    <path id="Path_596" data-name="Path 596" d="M109.882,61.774H93.5a.522.522,0,0,1-.52-.52v-.275a.522.522,0,0,1,.52-.52h16.384a.522.522,0,0,1,.52.52v.275a.522.522,0,0,1-.52.52" transform="translate(521.902 1574.502)" fill="#fff"/>
  </g>
</svg>
