<svg xmlns="http://www.w3.org/2000/svg" width="133.584" height="139" viewBox="0 0 133.584 139">
  <g id="Group_43" data-name="Group 43" transform="translate(-1017.472 -1621)">
    <path id="Path_600" data-name="Path 600" d="M2072.469,139H1969.647V98.627h1.616v38.757h99.59V1.616h-99.59V40.373h-1.616V0h102.822Z" transform="translate(-921.413 1621)" fill="#fff"/>
    <path id="Line_90" data-name="Line 90" d="M-1.884,8.322H-3.5V0h1.616Z" transform="translate(1051.733 1686.338)" fill="#fff"/>
    <path id="Rectangle_51" data-name="Rectangle 51" d="M-2.5-2.5H41.305V23.621H-2.5ZM40.151-1.345h-41.5V22.466h41.5Z" transform="translate(1019.972 1663.295)" fill="#fff"/>
    <path id="Rectangle_52" data-name="Rectangle 52" d="M-2.5-2.5H41.305V23.621H-2.5ZM40.151-1.345h-41.5V22.466h41.5Z" transform="translate(1019.972 1696.584)" fill="#fff"/>
    <path id="Line_91" data-name="Line 91" d="M12.735-.807H0V-1.5H12.735Z" transform="translate(1059.919 1639.647)" fill="#fff"/>
    <path id="Line_92" data-name="Line 92" d="M12.735-.807H0V-1.5H12.735Z" transform="translate(1059.919 1643.938)" fill="#fff"/>
    <path id="Line_93" data-name="Line 93" d="M55.134-.807H0V-1.5H55.134Z" transform="translate(1076.304 1669.948)" fill="#fff"/>
    <path id="Line_94" data-name="Line 94" d="M55.134-.807H0V-1.5H55.134Z" transform="translate(1076.304 1677.881)" fill="#fff"/>
    <path id="Line_95" data-name="Line 95" d="M55.134-.807H0V-1.5H55.134Z" transform="translate(1076.304 1685.813)" fill="#fff"/>
    <path id="Line_96" data-name="Line 96" d="M55.134-.807H0V-1.5H55.134Z" transform="translate(1076.304 1693.744)" fill="#fff"/>
    <path id="Line_97" data-name="Line 97" d="M55.134-.807H0V-1.5H55.134Z" transform="translate(1076.304 1701.677)" fill="#fff"/>
    <path id="Line_98" data-name="Line 98" d="M55.134-.807H0V-1.5H55.134Z" transform="translate(1076.304 1709.608)" fill="#fff"/>
    <path id="Line_99" data-name="Line 99" d="M55.134-.807H0V-1.5H55.134Z" transform="translate(1076.304 1717.541)" fill="#fff"/>
    <path id="Path_601" data-name="Path 601" d="M1868.368,210.117a4.757,4.757,0,1,0,4.757,4.757,4.757,4.757,0,0,0-4.757-4.757m2.549,7.306h-5.1v-5.1h5.1Z" transform="translate(-839.863 1459.402)" fill="#fff"/>
    <path id="Line_100" data-name="Line 100" d="M13.24-.538H0V-1H13.24Z" transform="translate(1040.048 1706.751)" fill="#fff"/>
    <path id="Line_101" data-name="Line 101" d="M13.24-.538H0V-1H13.24Z" transform="translate(1040.048 1709.156)" fill="#fff"/>
    <path id="Line_102" data-name="Line 102" d="M13.24-.538H0V-1H13.24Z" transform="translate(1040.048 1711.432)" fill="#fff"/>
  </g>
</svg>
