<svg xmlns="http://www.w3.org/2000/svg" width="186.438" height="24.247" viewBox="0 0 186.438 24.247">
  <g id="Group_46" data-name="Group 46" transform="translate(-785.631 -1890.884)">
    <path id="Path_603" data-name="Path 603" d="M1013.772,127.14h-9.626v1c3.009,0,3.509.625,3.509,4.413v6.819c0,3.813-.5,4.513-3.509,4.513-2.306-.3-3.911-1.6-6.017-3.911l-2.507-2.708c3.309-.625,5.115-2.709,5.115-5.013,0-2.909-2.507-5.215-7.22-5.215h-9.426v1c3.009,0,3.509.625,3.509,4.413v6.819c0,3.813-.5,4.513-3.509,4.513v1h10.63v-1c-3.009,0-3.509-.7-3.509-4.513v-1.9h.9l5.917,7.417h15.642c7.722,0,11.03-4.111,11.03-8.923.1-4.713-3.209-8.724-10.93-8.724Zm-22.459,8.723v-7.1h2.208a3.335,3.335,0,0,1,3.508,3.611,3.259,3.259,0,0,1-3.508,3.508Zm22.661,7.417h-.4c-1.9,0-2.208-.5-2.208-2.909V128.746h2.6c5.615,0,6.617,4.111,6.617,7.219,0,3.309-1.1,7.319-6.617,7.319Zm-59.763-5.39,3.708-10.93c1.1-3.209.625-4.111-2.808-4.111v-1.1h10.126v1.1c-3.409,0-4.208.8-5.515,4.713L953.6,145.891h-.8l-5.515-16.744-5.517,16.744h-.7l-5.917-18.349c-1.3-3.911-2.083-4.713-5.215-4.713v-1.1h11.834v1.1c-3.209,0-4.011.7-2.909,4.111l3.611,10.93,5.417-16.147h1Zm18.247,7.823c-5.917,0-10.73-4.313-10.73-9.625,0-5.215,4.792-9.626,10.73-9.626s10.729,4.313,10.729,9.626-4.792,9.625-10.729,9.625m0-17.647c-4.913,0-6.617,4.413-6.617,7.921s1.7,7.921,6.617,7.921c5.013,0,6.719-4.413,6.719-7.921,0-3.409-1.7-7.921-6.719-7.921m65.58,15.84v1.1H1025.7v-1.1c3.61,0,4.208-.9,4.208-6.317v-8.625c0-5.417-.625-6.217-4.208-6.217v-1.1h11.13c5.515,0,8.626,2.808,8.626,6.617,0,3.708-3.109,6.617-8.626,6.617h-3.008v2.808c0,5.313.625,6.217,4.208,6.217Zm-1.2-20.255h-3.008v9.325h3.008c3.008,0,4.413-2.084,4.413-4.613s-1.4-4.713-4.413-4.713m45.425,16.342-.3,1c-.5,1.8-1.1,2.406-4.913,2.406h-.7c-2.808,0-3.308-.625-3.308-4.413v-2.506c4.208,0,4.513.4,4.513,3.208h1V131.67h-1c0,2.808-.3,3.208-4.513,3.208v-6.009h2.908c3.813,0,4.413.625,4.913,2.406l.3,1h.9l-.4-5.013h-15.742v1c3.008,0,3.508.625,3.508,4.413v6.819c0,3.509-.4,4.413-2.808,4.513-2.208-.3-3.813-1.6-5.917-3.911l-2.506-2.709c3.308-.625,5.114-2.708,5.114-5.013,0-2.909-2.506-5.215-7.219-5.215h-9.426v1c3.008,0,3.508.625,3.508,4.412v6.819c0,3.813-.5,4.513-3.508,4.513v1h10.63v-1c-3.009,0-3.509-.7-3.509-4.513v-1.9h.9l5.917,7.417h22.06l.3-5.013h-.7Zm-28.376-4.111v-7.119h2.208a3.335,3.335,0,0,1,3.509,3.611,3.259,3.259,0,0,1-3.509,3.508Z" transform="translate(-144.303 1769.24)" fill="#fff"/>
    <path id="Path_604" data-name="Path 604" d="M1515.214,158.772a7.848,7.848,0,0,1-4.792-1.8,5.035,5.035,0,0,0-.9,1.8h-1v-7.417h1.1a5.94,5.94,0,0,0,6.017,5.615c1.7,0,3.109-1,3.109-2.6,0-1.4-1.2-2.506-3.408-3.508l-3.009-1.4a5.847,5.847,0,0,1-3.708-5.115c0-2.6,2.406-4.792,5.715-4.792a6.412,6.412,0,0,1,4.208,1.4,3.057,3.057,0,0,0,.7-1.4h1v6.317h-1.1c-.4-2.506-1.8-4.613-4.613-4.613-1.5,0-2.908.9-2.908,2.209,0,1.4,1.1,2.1,3.708,3.309l2.909,1.4c2.6,1.2,3.61,3.209,3.61,4.792-.1,3.408-3.008,5.813-6.617,5.813Z" transform="translate(-566.329 1756.183)" fill="#fff"/>
    <path id="Path_605" data-name="Path 605" d="M1576.364,158.772a7.848,7.848,0,0,1-4.792-1.8,5.035,5.035,0,0,0-.9,1.8h-1v-7.417h1.1a5.94,5.94,0,0,0,6.017,5.615c1.7,0,3.109-1,3.109-2.6,0-1.4-1.2-2.506-3.408-3.508l-3.009-1.4a5.847,5.847,0,0,1-3.708-5.115c0-2.6,2.406-4.792,5.715-4.792a6.412,6.412,0,0,1,4.208,1.4,3.056,3.056,0,0,0,.7-1.4h1v6.317h-1.1c-.4-2.506-1.8-4.613-4.613-4.613-1.5,0-2.908.9-2.908,2.209,0,1.4,1.1,2.1,3.708,3.309l2.909,1.4c2.6,1.2,3.61,3.209,3.61,4.792-.1,3.408-3.008,5.813-6.617,5.813Z" transform="translate(-610.933 1756.183)" fill="#fff"/>
  </g>
</svg>
