<svg xmlns="http://www.w3.org/2000/svg" width="128.15" height="77.312" viewBox="0 0 128.15 77.312">
  <path id="Path_606" data-name="Path 606" d="M2046.893,20.164h24.17v1.921h-21.955V36.544h20.646v1.921h-20.646V54.339h22.207V56.26h-24.422Zm26.336,0h2.568l11.38,15.874,11.632-15.875L2114.631,0l-25.993,37.707,13.395,18.554h-2.669l-12.186-16.885L2074.941,56.26h-2.618l13.494-18.554Zm29.759,1.921V20.164h27.544v1.921h-12.689V56.26h-2.216V22.085Zm-86.333-1.922h2.77l38.19,57.148L2041.833,56.26l-22.861-33.366-.1,33.367h-2.216Zm113.655,33.6a.8.8,0,1,1,.792-.8.783.783,0,0,1-.792.8m2.177-2.115h1.186a1.083,1.083,0,0,0,1.175,1.074c.771,0,1.207-.464,1.207-1.333v-5.5h1.208V51.39a2.232,2.232,0,0,1-2.4,2.466,2.171,2.171,0,0,1-2.371-2.213Zm6.354-.07h1.2c.1.739.825,1.208,1.865,1.208.97,0,1.681-.5,1.681-1.192,0-.593-.453-.95-1.482-1.192l-1-.243c-1.406-.329-2.047-1.009-2.047-2.153,0-1.386,1.131-2.309,2.829-2.309a2.538,2.538,0,0,1,2.8,2.234h-1.175a1.486,1.486,0,0,0-1.644-1.166c-.953,0-1.589.459-1.589,1.16,0,.556.409.874,1.422,1.112l.857.21c1.6.373,2.252,1.02,2.252,2.191,0,1.489-1.153,2.423-3,2.423-1.725,0-2.884-.891-2.97-2.283Z" transform="translate(-2016.655)" fill="#fff"/>
</svg>
