<svg xmlns="http://www.w3.org/2000/svg" width="155.78" height="39.341" viewBox="0 0 155.78 39.341">
  <path id="Path_602" data-name="Path 602" d="M50.307,109.155c0-2.825-2.71-5.787-7.42-5.787-5.282,0-11.082,3.889-11.97,11.652-.907,7.838,3.95,11.322,8.845,11.322s7.459-1.916,10.081-4.47a4.45,4.45,0,0,0-5.724-1.239,5.842,5.842,0,0,1-3.026.736c-1.889,0-3.817-.851-3.817-4.392,12.1-1.2,13.029-5.014,13.029-7.821Zm-6,.464c-.078.87-.424,2.361-6.553,3.2,1.289-4.608,3.76-4.954,4.9-4.954a1.6,1.6,0,0,1,1.67,1.762Zm-20.5.756-2.814,8.884-1.986-15.425c-4.431,0-6.815,3.174-8.058,6.521l-3.432,8.923-.482-8.827A7.247,7.247,0,0,0,0,103.851l3.662,22.315c4.643-.018,7.15-3.174,8.462-6.522l2.9-7.586c.027.309,2.006,14.109,2.006,14.109,4.664,0,7.171-2.961,8.515-6.193l6.532-16.122c-4.6,0-7.023,3.155-8.275,6.521Zm43.617-7.062c-2.872,0-5.067,1.568-6.92,3.87v-.018L62.16,93.753c-3.817,0-6.92,3.33-7.517,8.284l-2.87,23.957c2.2,0,4.53-.639,5.784-2.265a6.4,6.4,0,0,0,5.282,2.613c6.437,0,10.852-7.509,10.852-14.555-.039-6.426-3.143-8.456-6.246-8.456Zm-.6,11.516c-.671,3.928-2.853,6.6-4.952,6.6a4.326,4.326,0,0,1-3.026-.948c.406-3.443.657-5.554,1.427-7.374s2.6-4.723,4.511-4.723c1.871,0,2.719,2.5,2.043,6.444Zm22.919-10.994H85.252l.018-.233c.309-2.941,1-4.49,3.291-4.742A2.407,2.407,0,0,0,90.99,97l.56-3.116c-9-.058-11.853,3.849-12.579,9.812l-.018.136h-.1c-1.465,0-3.083,1.665-3.354,3.775l-.1.773h3.008l-2.525,20.938-.773,3.755c.1,0,.212.018.307.018,4.219-.155,6.921-3.5,7.517-8.361l1.97-16.353h1.412c1.388,0,3.008-1.395,3.291-3.716Zm23.361-.388c-5.185,0-10.081,3.831-11.582,9.851s.773,13.14,8.4,13.14,12-7.415,12-13.587c.007-6.135-4.135-9.407-8.82-9.407Zm2.1,11.186c-.268,2.729-1.465,6.871-4.742,6.871s-2.834-4.837-2.516-7.141c.348-2.458,1.716-5.96,4.664-5.96,2.652,0,2.9,3.155,2.6,6.232Zm32.343-4.278-2.814,8.884c-.076-.7-1.984-15.425-1.984-15.425-4.431,0-6.8,3.174-8.047,6.521l-3.432,8.923c-.018-.639-.482-8.827-.482-8.827a7.275,7.275,0,0,0-7.062-6.6l3.642,22.315c4.643-.018,7.15-3.174,8.462-6.521l2.892-7.586c.018.309,2.006,14.11,2.006,14.11,4.664,0,7.161-2.961,8.515-6.193l6.537-16.122c-4.587,0-7.016,3.155-8.25,6.521ZM93.984,93.884l-3.778,30.6-.773,3.774c.1,0,.212.018.307.018,4.064-.058,6.956-3.637,7.5-8.147l2.177-17.554c.66-5.361-2.519-8.689-5.43-8.689Z" transform="translate(0 -93.753)" fill="#fff"/>
</svg>
