<?xml version="1.0" encoding="utf-8"?>
<!-- Generator: Adobe Illustrator 25.3.1, SVG Export Plug-In . SVG Version: 6.00 Build 0)  -->
<svg version="1.1" id="Layer_1" xmlns="http://www.w3.org/2000/svg" xmlns:xlink="http://www.w3.org/1999/xlink" x="0px" y="0px"
	 viewBox="0 0 192 192" style="enable-background:new 0 0 192 192;" xml:space="preserve">
<style type="text/css">
	.st0{fill:#FFFFFF;}
	.st1{fill:#282828;}
</style>
<circle class="st0" cx="95.3" cy="95.8" r="94.3"/>
<g>
	<path class="st1" d="M110.59,103.68c-0.04-0.04-0.14-0.06-0.21,0.03c0.04-0.04-0.8-1.27-0.87-1.39c-0.36-0.57-0.69-1.15-1.04-1.72
		c-0.69-1.04-1.47-2.02-2.52-2.69c-1.04-0.69-2.36-0.97-3.55-0.57c-2.55,0.87-3.6,4.49-3.48,6.9c-0.04-0.69-0.46-1.51-0.76-2.09
		c-0.32-0.69-0.71-1.36-1.19-1.97c-0.78-1.04-1.9-1.95-3.23-2.16c-2.87-0.46-4.59,2.27-6.42,3.95c-0.69,0.64-1.51,0.94-2.43,0.62
		c-0.69-0.21-1.22-0.69-1.72-1.22c-0.5-0.53-0.94-1.08-1.47-1.54c-0.14-0.14-0.32-0.25-0.53-0.25c0.18,0.32,0.38,0.59,0.6,0.9
		c0.2,0.29,0.48,0.67,0.7,0.94c1.12,1.44,2.76,3.08,4.77,2.76c0.83-0.14,1.54-0.62,2.16-1.15c1.19-1.04,2.59-3.01,4.42-2.52
		c0.5,0.14,0.94,0.43,1.29,0.76c1.54,1.26,2.62,3.01,3.81,4.59c0.07,0.07,0.14,0.18,0.25,0.14c0.07-0.04,0.07-0.11,0.11-0.18
		c0.29-1.36,0.57-2.73,1.15-4.02c0.46-1.01,1.15-2.29,2.23-2.73c0.69-0.25,1.47-0.14,2.16,0.18c0.83,0.39,1.51,1.01,2.18,1.54
		c0.62,0.46,1.15,1.01,1.69,1.54c0.5,0.5,0.94,1.12,1.51,1.54c0.11,0.07,0.29,0.14,0.39,0.04
		C110.63,103.82,110.63,103.75,110.59,103.68z"/>
	<path class="st1" d="M108.94,56.24"/>
	<path class="st1" d="M113.61,43.46c-0.97,2.11-1.95,2.69-1.95,2.69s3.83-7.57-9.98-7.96c-15.39-0.46-16.47-0.43-16.47-0.43
		s2.43-0.04,4.06-0.07c4.74-0.14,17.3-2.87,20.81-1.61C113.61,37.24,115.06,40.33,113.61,43.46z"/>
	<path class="st1" d="M97.79,32.62c0,0-4.2,1.97-6.14,1.61c-4.52-0.83-3.99-4.52-3.99-4.52s0.07-4.77,5.49-4.95
		C98.54,24.59,97.79,32.62,97.79,32.62z"/>
	<path class="st1" d="M72.61,41.12c2.15-9.75,5.2-22.77,16.49-25.67c10.52-2.7,16.55-6.58,16.55-6.7c0.01,0.27-3.4,9.59,3.96,12.15
		c6.17,2.15,11-0.11,11.04-0.14c0.08,0.28-1.45,8.39,0.43,12.19c1.9,3.83-0.87,7.38-2.27,8.31c-4.2,2.8-8.07,11.59-9.87,15
		c1.76-3.55,2.8-7.36,4.77-10.8c1.08-1.86,2.48-3.51,4.06-5c0.04-0.04,0.07-0.07,0.07-0.11c0-0.04-0.04-0.07-0.07-0.11
		c-0.57-0.62-1.15-1.22-1.76-1.79c-0.14-0.14-0.32-0.32-0.32-0.53c0-0.14,0.04-0.29,0.07-0.39c0.21-0.69,0.46-1.4,0.9-1.97
		c0.18-0.29,0.39-0.46,0.64-0.64c0.21-0.14,0.39-0.32,0.32-0.62c0.02-1.06-0.27-2.3-0.55-3.35c-0.32-1.15-0.57-2.01-1.24-3.29
		c0,0-2.98,0.06-7.8-2.01c-4.59-1.97-7.89-6.17-7.89-6.17s-9.21-0.42-17.5,7.74c-3.2,3.15-5.67,10.31-8.19,15.85
		c-1.29,2.84-6.34,10.11-7.31,11.7c-0.97,1.58-1.03,1.75-1.46,2.56s-7.14,17.52-2.7,36.43c0.94,4.02,1.95,8.05,3.44,11.88
		c1.51,3.92,3.62,7.72,5.96,11.19c-0.02-0.07-0.36-1.29-0.29-2.54c-0.07-2.43,0.62-3.88,0.62-3.88l0.94,3.92
		c0.46,1.72,1.54,4.31,1.9,5.07c1.29,2.8,2.62,4.91,4.49,7.39c0.25,0.32,0.5,0.62,0.76,0.94c0,0,4.14,5.89,5.48,3.21
		c0.12-0.24,6.4,15.3,10.89,19.54c1.15,1.36,2.37,2.77,3.3,4.38c-0.68-6.9-0.25-13.88,1.51-20.6c2.23-8.62,7.18-16.36,10.41-24.66
		c2.87-7.32,4.72-15.33,3.37-23.05c1.1,6.06,1.64,12.4,0.69,18.53c-0.97,5.99-3.35,11.66-5.57,17.25c-0.5,1.26-1.01,2.55-1.47,3.83
		c-1.97,5.39-3.51,11.13-3.09,16.9c0.39,5.14,3.16,9.66,4.95,14.36c2.08,5.49,4.57,10.87,5.23,16.76c0.07,0.57-0.12,1.51-0.27,2.09
		c-0.04,0.14-0.11,0.28-0.17,0.38c1.05,1.56,0.8,3.2,0.64,3.81c-0.08,0.19-0.33,0.67-1.19,1.18c-0.7,0.41-2.48,0.76-3.95,0.71
		c-11.34-0.39-19.98-11.7-25.19-20.92c-0.46-0.83-0.94-1.69-1.36-2.52c-2.84-5.53-4.74-11.49-7.54-17.02
		c-2.91-5.71-5.96-11.38-9.19-16.9c-3.09-5.32-5.39-11.45-7.36-17.23c-0.76-2.18-1.44-4.38-2.04-6.6
		c-1.47-5.39-2.43-10.99-2.48-16.58c-0.06-13.97,8.55-26.64,9.16-27.62c0.61-0.97,1.58-2.68,1.58-2.68S71.11,47.92,72.61,41.12z"/>
</g>
</svg>
