<?xml version="1.0" encoding="utf-8"?>
<!-- Generator: Adobe Illustrator 25.3.1, SVG Export Plug-In . SVG Version: 6.00 Build 0)  -->
<svg version="1.1" id="Layer_1" xmlns="http://www.w3.org/2000/svg" xmlns:xlink="http://www.w3.org/1999/xlink" x="0px" y="0px"
	 viewBox="0 0 192 192" style="enable-background:new 0 0 192 192;" xml:space="preserve">
<style type="text/css">
	.st0{fill:#0A0A0A;}
</style>
<g>
	<path class="st0" d="M140.2,302.5c0,0-0.3-0.3-0.6,0c0,0-2.5-3.8-2.5-4.1c-0.9-1.6-1.9-3.5-3.2-5c-1.9-3.2-4.4-6-7.6-7.9
		s-6.9-2.8-10.4-1.6c-7.6,2.5-10.7,13.2-10.4,20.5c0-1.9-1.3-4.4-2.2-6.3c-0.9-1.9-2.2-4.1-3.5-6c-2.2-3.2-5.7-5.7-9.5-6.3
		c-8.5-1.3-13.6,6.6-18.9,11.7c-1.9,1.9-4.4,2.8-7.3,1.9c-1.9-0.6-3.5-1.9-5-3.5c-1.6-1.6-2.8-3.2-4.4-4.4c-0.3-0.3-0.9-0.6-1.6-0.6
		c0.6,0.9,1.3,1.9,1.9,2.5c0.6,0.9,1.3,1.9,2.2,2.8c3.5,4.4,8.2,9.1,14.2,8.2c2.5-0.3,4.4-1.9,6.3-3.5c3.5-3.2,7.6-8.8,13.2-7.6
		c1.6,0.3,2.8,1.3,3.8,2.2c4.4,3.8,7.9,8.8,11.4,13.6c0.3,0.3,0.3,0.6,0.6,0.3c0.3,0,0.3-0.3,0.3-0.6c0.9-4.1,1.6-8.2,3.5-12
		c1.3-2.8,3.5-6.9,6.6-8.2c1.9-0.6,4.4-0.3,6.3,0.6c2.5,1.3,4.4,2.8,6.6,4.4c1.9,1.3,3.5,2.8,5,4.4c1.6,1.6,2.8,3.5,4.4,4.4
		c0.3,0.3,0.9,0.3,1.3,0C140.2,303.1,140.2,302.8,140.2,302.5z"/>
	<path class="st0" d="M135.2,161.9L135.2,161.9z"/>
	<path class="st0" d="M149,121.2c-2.8,6.3-5.7,7.9-5.7,7.9s11.4-22.4-29.6-23.7c-45.7-1.3-48.9-1.3-48.9-1.3s7.3,0,12-0.3
		c14.2-0.3,51.4-8.5,61.8-4.7C149,102.6,153.5,111.7,149,121.2z"/>
	<path class="st0" d="M102,91.8c0,0-12.3,6-18.3,4.7C70.2,94,71.8,83,71.8,83s0.3-14.2,16.4-14.8C104.3,68.2,102,91.8,102,91.8z"/>
	<path class="st0" d="M28.2,117.4c2.8-25.5,5.4-57.4,48.6-67.5c29.3-6.6,45.1-20.2,45.7-20.5c-0.4,0.2-8.8,24.6,12.6,32.8
		c18.3,7.3,30.5-1.1,30.9-1.3c0.1,0.3-4.7,20.2,0.9,31.5c5.7,11.4,1.6,22.1-2.5,24.9c-12.3,8.2-24,34.4-29.3,44.5
		c5.4-10.4,8.2-21.8,14.2-32.2c3.2-5.7,7.3-10.4,12-14.8l0.3-0.3c0,0,0-0.3-0.3-0.3c-1.6-1.9-3.5-3.5-5.4-5.4
		c-0.3-0.3-0.9-0.9-0.9-1.6c0-0.3,0-0.9,0.3-1.3c0.6-1.9,1.3-4.1,2.5-6c0.6-0.9,1.3-1.3,1.9-1.9c0.6-0.3,1.3-0.9,0.9-1.9
		c-0.6-3.2-1.6-6.3-2.2-9.5c-0.9-3.5-1.9-6.9-2.8-10.4c0,0-9.1,1.3-23.7-4.7c-13.6-6-24-17-24-17S74.3,53.7,49.7,78
		c-9.5,9.5-9.5,27.8-17,44.2c-3.8,8.5-18.9,30-21.8,34.7s-3.2,5-4.4,7.6c-0.9,3.2-20.8,52.7-7.6,108.8c2.8,12,5.7,24,10.1,35.3
		c4.4,11.7,10.7,23,17.7,33.1c0-0.3-0.9-3.8-0.9-7.6c-0.3-7.3,1.9-11.4,1.9-11.4l2.8,11.7c1.3,5,4.4,12.9,5.7,15.1
		c3.8,8.2,7.9,14.5,13.2,21.8c0.6,0.9,1.6,1.9,2.2,2.8c0,0,12.3,17.3,16.4,9.5c0.3-0.6,18.9,45.4,32.2,58c3.5,4.1,6.9,8.2,9.8,12.9
		c-1.9-20.5-0.6-41.3,4.4-61.2c6.6-25.5,21.4-48.6,30.9-73.2c8.5-21.8,13.9-45.4,10.1-68.4c3.2,18,4.7,36.9,2.2,54.9
		c-2.8,17.7-9.8,34.7-16.4,51.1c-1.6,3.8-2.8,7.6-4.4,11.4c-6,16.1-10.4,33.1-9.1,50.1c1.3,15.1,9.5,28.7,14.8,42.6
		c6.3,16.4,13.6,32.2,15.5,49.8c0.3,1.6-0.3,4.4-0.9,6.3c0,0.3-0.3,0.9-0.6,1.3c3.2,4.7,2.2,9.5,1.9,11.4c-0.3,0.6-0.9,1.9-3.5,3.5
		c-2.2,1.3-7.3,2.2-11.7,2.2c-33.7-1.3-59.3-34.7-74.7-62.1c-1.3-2.5-2.8-5-4.1-7.6c-8.5-16.4-14.2-34.1-22.4-50.5
		c-8.5-17-17.7-33.7-27.1-50.1c-9.1-15.8-16.1-34.1-21.8-51.1c-2.2-6.6-4.4-12.9-6-19.6c-4.4-16.1-7.3-32.8-7.6-49.2
		c-0.3-41.3,25.2-79.2,27.1-82c1.9-2.8,4.7-7.9,4.7-7.9S27.3,127.2,28.2,117.4z"/>
</g>
</svg>
