<?xml version="1.0" encoding="utf-8"?>
<!-- Generator: Adobe Illustrator 26.0.3, SVG Export Plug-In . SVG Version: 6.00 Build 0)  -->
<svg version="1.1" id="Layer_1" xmlns="http://www.w3.org/2000/svg" xmlns:xlink="http://www.w3.org/1999/xlink" x="0px" y="0px"
	 viewBox="0 0 192 192" style="enable-background:new 0 0 192 192;" xml:space="preserve">
<style type="text/css">
	.st0{fill:#FFFFFF;}
	.st1{fill:#282828;}
</style>
<circle class="st0" cx="95.3" cy="95.8" r="94.3"/>
<g>
	<path class="st1" d="M110.6,103.7c0,0-0.1-0.1-0.2,0c0,0-0.8-1.3-0.9-1.4c-0.4-0.6-0.7-1.2-1-1.7c-0.7-1-1.5-2-2.5-2.7
		s-2.4-1-3.6-0.6c-2.6,0.9-3.6,4.5-3.5,6.9c0-0.7-0.5-1.5-0.8-2.1c-0.3-0.7-0.7-1.4-1.2-2c-0.8-1-1.9-1.9-3.2-2.2
		c-2.9-0.5-4.6,2.3-6.4,3.9c-0.7,0.6-1.5,0.9-2.4,0.6c-0.7-0.2-1.2-0.7-1.7-1.2s-0.9-1.1-1.5-1.5c-0.1-0.1-0.3-0.2-0.5-0.2
		c0.2,0.3,0.4,0.6,0.6,0.9s0.5,0.7,0.7,0.9c1.1,1.4,2.8,3.1,4.8,2.8c0.8-0.1,1.5-0.6,2.2-1.2c1.2-1,2.6-3,4.4-2.5
		c0.5,0.1,0.9,0.4,1.3,0.8c1.5,1.3,2.6,3,3.8,4.6c0.1,0.1,0.1,0.2,0.2,0.1c0.1,0,0.1-0.1,0.1-0.2c0.3-1.4,0.6-2.7,1.2-4
		c0.5-1,1.2-2.3,2.2-2.7c0.7-0.2,1.5-0.1,2.2,0.2c0.8,0.4,1.5,1,2.2,1.5c0.6,0.5,1.2,1,1.7,1.5s0.9,1.1,1.5,1.5
		C110.4,103.8,110.6,103.8,110.6,103.7C110.6,103.8,110.6,103.8,110.6,103.7z"/>
	<path class="st1" d="M108.9,56.2"/>
	<path class="st1" d="M113.6,43.5c-1,2.1-1.9,2.7-1.9,2.7s3.8-7.6-10-8c-15.4-0.5-16.5-0.4-16.5-0.4s2.4,0,4.1-0.1
		c4.7-0.1,17.3-2.9,20.8-1.6C113.6,37.2,115.1,40.3,113.6,43.5z"/>
	<path class="st1" d="M97.8,32.6c0,0-4.2,2-6.1,1.6c-4.5-0.8-4-4.5-4-4.5s0.1-4.8,5.5-5C98.5,24.6,97.8,32.6,97.8,32.6z"/>
	<path class="st1" d="M72.6,41.1c2.2-9.8,5.2-22.8,16.5-25.7c10.5-2.7,16.5-6.6,16.5-6.7c0,0.3-3.4,9.6,4,12.1
		c6.2,2.1,11-0.1,11-0.1c0.1,0.3-1.4,8.4,0.4,12.2c1.9,3.8-0.9,7.4-2.3,8.3c-4.2,2.8-8.1,11.6-9.9,15c1.8-3.5,2.8-7.4,4.8-10.8
		c1.1-1.9,2.5-3.5,4.1-5l0.1-0.1c0,0,0-0.1-0.1-0.1c-0.6-0.6-1.2-1.2-1.8-1.8c-0.1-0.1-0.3-0.3-0.3-0.5c0-0.1,0-0.3,0.1-0.4
		c0.2-0.7,0.5-1.4,0.9-2c0.2-0.3,0.4-0.5,0.6-0.6s0.4-0.3,0.3-0.6c0-1.1-0.3-2.3-0.6-3.4c-0.3-1.1-0.6-2-1.2-3.3c0,0-3,0.1-7.8-2
		c-4.6-2-7.9-6.2-7.9-6.2s-9.2-0.4-17.5,7.7c-3.2,3.1-5.7,10.3-8.2,15.9C73,45.8,68,53.1,67,54.7c-1,1.6-1,1.8-1.5,2.6
		s-7,17.6-2.5,36.5c0.9,4,2,8.1,3.4,11.9c1.5,3.9,3.6,7.7,6,11.2c0-0.1-0.4-1.3-0.3-2.5c-0.1-2.4,0.6-3.9,0.6-3.9l0.9,3.9
		c0.5,1.7,1.5,4.3,1.9,5.1c1.3,2.8,2.6,4.9,4.5,7.4c0.2,0.3,0.5,0.6,0.8,0.9c0,0,4.1,5.9,5.5,3.2c0.1-0.2,6.4,15.3,10.9,19.5
		c1.2,1.4,2.4,2.8,3.3,4.4c-0.7-6.9-0.2-13.9,1.5-20.6c2.2-8.6,7.2-16.4,10.4-24.7c2.9-7.3,4.7-15.3,3.4-23.1
		c1.1,6.1,1.6,12.4,0.7,18.5c-1,6-3.3,11.7-5.6,17.2c-0.5,1.3-1,2.6-1.5,3.8c-2,5.4-3.5,11.1-3.1,16.9c0.4,5.1,3.2,9.7,4.9,14.4
		c2.1,5.5,4.6,10.9,5.2,16.8c0.1,0.6-0.1,1.5-0.3,2.1c0,0.1-0.1,0.3-0.2,0.4c1.1,1.6,0.8,3.2,0.6,3.8c-0.1,0.2-0.3,0.7-1.2,1.2
		c-0.7,0.4-2.5,0.8-3.9,0.7c-11.3-0.4-20-11.7-25.2-20.9c-0.5-0.8-0.9-1.7-1.4-2.5c-2.8-5.5-4.7-11.5-7.5-17
		c-2.9-5.7-6-11.4-9.2-16.9c-3.1-5.3-5.4-11.4-7.4-17.2c-0.8-2.2-1.4-4.4-2-6.6c-1.5-5.4-2.4-11-2.5-16.6c-0.1-14,8.5-26.6,9.2-27.6
		c0.6-1,1.6-2.7,1.6-2.7S71.1,47.9,72.6,41.1z"/>
</g>
</svg>
