<?xml version="1.0" encoding="utf-8"?>
<!-- Generator: Adobe Illustrator 25.3.1, SVG Export Plug-In . SVG Version: 6.00 Build 0)  -->
<svg version="1.1" id="Layer_1" xmlns="http://www.w3.org/2000/svg" xmlns:xlink="http://www.w3.org/1999/xlink" x="0px" y="0px"
	 viewBox="0 0 192 192" style="enable-background:new 0 0 192 192;" xml:space="preserve">
<style type="text/css">
	.st0{fill:#FDFEFF;}
</style>
<g>
	<path class="st0" d="M111,102.3c0,0-0.1-0.1-0.2,0c0,0-0.8-1.2-0.8-1.3c-0.3-0.5-0.6-1.1-1-1.6c-0.6-1-1.4-1.9-2.4-2.5
		c-1-0.6-2.2-0.9-3.3-0.5c-2.4,0.8-3.4,4.2-3.3,6.5c0-0.6-0.4-1.4-0.7-2c-0.3-0.6-0.7-1.3-1.1-1.9c-0.7-1-1.8-1.8-3-2
		c-2.7-0.4-4.3,2.1-6,3.7c-0.6,0.6-1.4,0.9-2.3,0.6c-0.6-0.2-1.1-0.6-1.6-1.1c-0.5-0.5-0.9-1-1.4-1.4c-0.1-0.1-0.3-0.2-0.5-0.2
		c0.2,0.3,0.4,0.6,0.6,0.8c0.2,0.3,0.4,0.6,0.7,0.9c1.1,1.4,2.6,2.9,4.5,2.6c0.8-0.1,1.4-0.6,2-1.1c1.1-1,2.4-2.8,4.2-2.4
		c0.5,0.1,0.9,0.4,1.2,0.7c1.4,1.2,2.5,2.8,3.6,4.3c0.1,0.1,0.1,0.2,0.2,0.1c0.1,0,0.1-0.1,0.1-0.2c0.3-1.3,0.5-2.6,1.1-3.8
		c0.4-0.9,1.1-2.2,2.1-2.6c0.6-0.2,1.4-0.1,2,0.2c0.8,0.4,1.4,0.9,2.1,1.4c0.6,0.4,1.1,0.9,1.6,1.4c0.5,0.5,0.9,1.1,1.4,1.4
		c0.1,0.1,0.3,0.1,0.4,0C111,102.5,111,102.4,111,102.3z"/>
	<path class="st0" d="M109.4,57.7L109.4,57.7z"/>
	<path class="st0" d="M113.8,44.8c-0.9,2-1.8,2.5-1.8,2.5s3.6-7.1-9.4-7.5c-14.5-0.4-15.5-0.4-15.5-0.4s2.3,0,3.8-0.1
		c4.5-0.1,16.3-2.7,19.6-1.5C113.8,38.9,115.2,41.8,113.8,44.8z"/>
	<path class="st0" d="M98.9,35.5c0,0-3.9,1.9-5.8,1.5c-4.3-0.8-3.8-4.3-3.8-4.3s0.1-4.5,5.2-4.7C99.6,28,98.9,35.5,98.9,35.5z"/>
	<path class="st0" d="M75.5,43.6c0.9-8.1,1.7-18.2,15.4-21.4c9.3-2.1,14.4-6.3,14.5-6.5c-0.1,0.2-2.8,7.8,4,10.4
		c5.8,2.3,9.7-0.3,9.8-0.4c0,0.1-1.5,6.4,0.3,10c1.8,3.6,0.5,7-0.8,7.9c-3.9,2.6-7.6,10.9-9.3,14.1c1.7-3.3,2.6-6.9,4.5-10.2
		c1-1.8,2.3-3.3,3.8-4.7c0,0,0.1-0.1,0.1-0.1c0,0,0-0.1-0.1-0.1c-0.5-0.6-1.1-1.1-1.7-1.7c-0.1-0.1-0.3-0.3-0.3-0.5
		c0-0.1,0-0.3,0.1-0.4c0.2-0.6,0.4-1.3,0.8-1.9c0.2-0.3,0.4-0.4,0.6-0.6c0.2-0.1,0.4-0.3,0.3-0.6c-0.2-1-0.5-2-0.7-3
		c-0.3-1.1-0.6-2.2-0.9-3.3c0,0-2.9,0.4-7.5-1.5c-4.3-1.9-7.6-5.4-7.6-5.4s-10.7-0.3-18.5,7.4c-3,3-3,8.8-5.4,14
		c-1.2,2.7-6,9.5-6.9,11c-0.9,1.5-1,1.6-1.4,2.4C68.3,59.5,62,75.2,66.2,93c0.9,3.8,1.8,7.6,3.2,11.2c1.4,3.7,3.4,7.3,5.6,10.5
		c0-0.1-0.3-1.2-0.3-2.4c-0.1-2.3,0.6-3.6,0.6-3.6l0.9,3.7c0.4,1.6,1.4,4.1,1.8,4.8c1.2,2.6,2.5,4.6,4.2,6.9
		c0.2,0.3,0.5,0.6,0.7,0.9c0,0,3.9,5.5,5.2,3c0.1-0.2,6,14.4,10.2,18.4c1.1,1.3,2.2,2.6,3.1,4.1c-0.6-6.5-0.2-13.1,1.4-19.4
		c2.1-8.1,6.8-15.4,9.8-23.2c2.7-6.9,4.4-14.4,3.2-21.7c1,5.7,1.5,11.7,0.7,17.4c-0.9,5.6-3.1,11-5.2,16.2c-0.5,1.2-0.9,2.4-1.4,3.6
		c-1.9,5.1-3.3,10.5-2.9,15.9c0.4,4.8,3,9.1,4.7,13.5c2,5.2,4.3,10.2,4.9,15.8c0.1,0.5-0.1,1.4-0.3,2c0,0.1-0.1,0.3-0.2,0.4
		c1,1.5,0.7,3,0.6,3.6c-0.1,0.2-0.3,0.6-1.1,1.1c-0.7,0.4-2.3,0.7-3.7,0.7c-10.7-0.4-18.8-11-23.7-19.7c-0.4-0.8-0.9-1.6-1.3-2.4
		c-2.7-5.2-4.5-10.8-7.1-16c-2.7-5.4-5.6-10.7-8.6-15.9c-2.9-5-5.1-10.8-6.9-16.2c-0.7-2.1-1.4-4.1-1.9-6.2
		C61,94.9,60.1,89.6,60,84.4c-0.1-13.1,8-25.1,8.6-26s1.5-2.5,1.5-2.5S75.2,46.7,75.5,43.6z"/>
</g>
</svg>
