<?xml version="1.0" encoding="utf-8"?>
<!-- Generator: Adobe Illustrator 25.3.1, SVG Export Plug-In . SVG Version: 6.00 Build 0)  -->
<svg version="1.1" id="Layer_1" xmlns="http://www.w3.org/2000/svg" xmlns:xlink="http://www.w3.org/1999/xlink" x="0px" y="0px"
	 viewBox="0 0 192 192" style="enable-background:new 0 0 192 192;" xml:space="preserve">
<style type="text/css">
	.st0{fill:#FDFEFF;}
</style>
<g>
	<path class="st0" d="M108.7,102.19c-0.03-0.03-0.13-0.05-0.19,0.02c0.03-0.03-0.74-1.18-0.81-1.28c-0.33-0.53-0.63-1.06-0.96-1.59
		c-0.63-0.96-1.36-1.86-2.33-2.49s-2.19-0.9-3.29-0.53c-2.36,0.8-3.33,4.16-3.22,6.38c-0.03-0.63-0.43-1.4-0.7-1.93
		c-0.3-0.63-0.67-1.26-1.1-1.83c-0.73-0.96-1.76-1.8-2.99-2c-2.66-0.43-4.26,2.09-5.95,3.66c-0.63,0.6-1.4,0.86-2.26,0.57
		c-0.63-0.2-1.13-0.63-1.59-1.13c-0.47-0.5-0.86-1-1.36-1.43c-0.13-0.13-0.3-0.23-0.5-0.23c0.16,0.3,0.35,0.54,0.56,0.83
		c0.19,0.27,0.45,0.62,0.64,0.87c1.03,1.33,2.56,2.85,4.42,2.55c0.76-0.13,1.43-0.57,2-1.06c1.1-0.96,2.39-2.79,4.09-2.33
		c0.47,0.13,0.86,0.4,1.2,0.7c1.43,1.16,2.43,2.79,3.52,4.26c0.07,0.07,0.13,0.16,0.23,0.13c0.07-0.03,0.07-0.1,0.1-0.16
		c0.27-1.26,0.53-2.53,1.06-3.72c0.43-0.93,1.06-2.13,2.06-2.53c0.63-0.23,1.36-0.13,2,0.16c0.76,0.37,1.4,0.93,2.03,1.43
		c0.57,0.43,1.06,0.93,1.56,1.43c0.47,0.47,0.86,1.03,1.4,1.43c0.1,0.07,0.27,0.13,0.37,0.03
		C108.73,102.33,108.73,102.26,108.7,102.19z"/>
	<path class="st0" d="M107.17,58.25"/>
	<path class="st0" d="M111.49,45.48c-0.9,1.96-1.8,2.49-1.8,2.49s3.56-7.02-9.24-7.38C86.2,40.16,85.2,40.2,85.2,40.2
		s2.26-0.03,3.76-0.07c4.39-0.13,16.02-2.66,19.28-1.49C111.49,39.73,112.82,42.59,111.49,45.48z"/>
	<path class="st0" d="M96.83,36.37c0,0-3.89,1.83-5.68,1.49c-4.19-0.76-3.69-4.19-3.69-4.19s0.07-4.42,5.08-4.59
		C97.53,28.93,96.83,36.37,96.83,36.37z"/>
	<path class="st0" d="M116.32,44.39c-3.89,2.59-7.48,10.74-9.14,13.9c1.63-3.29,2.59-6.82,4.42-10.01c1-1.73,2.29-3.26,3.76-4.62
		c0.03-0.03,0.07-0.07,0.07-0.1c0-0.03-0.03-0.07-0.07-0.1c-0.53-0.57-1.06-1.13-1.63-1.66c-0.13-0.13-0.3-0.3-0.3-0.5
		c0-0.13,0.03-0.27,0.07-0.37c0.2-0.63,0.43-1.3,0.83-1.83c0.16-0.27,0.37-0.43,0.6-0.6c0.2-0.13,0.37-0.3,0.3-0.57
		c-0.2-1-0.47-1.96-0.73-2.92c-0.3-1.06-0.6-2.16-0.93-3.22c0,0-2.89,0.43-7.35-1.49c-4.26-1.83-7.48-5.29-7.48-5.29
		s-11.4-0.07-18.98,7.18c-3.02,2.86-2.56,10.34-5.02,15.43c-1.36,2.83-6.28,9.24-7.18,10.84c-0.93,1.59-7.38,15.72-2.96,34.57
		c0.86,3.72,1.8,7.45,3.19,11c1.4,3.62,3.36,7.15,5.52,10.37c0,0-0.33-1.16-0.27-2.36c-0.07-2.26,0.57-3.59,0.57-3.59l0.86,3.62
		c0.43,1.59,1.43,3.99,1.76,4.69c1.2,2.59,2.43,4.55,4.16,6.85c0.23,0.3,0.47,0.57,0.7,0.86c0,0,3.59,3.09,3.99,3.59
		c0.4,0.47,7.02,13.56,11.17,17.49c1.06,1.26,2.19,2.56,3.06,4.06c-0.63-6.38-0.23-12.86,1.4-19.08c2.06-7.98,6.65-15.16,9.64-22.84
		c2.69-6.88,4.42-14.43,3.06-21.67c1.06,5.72,1.59,11.7,0.7,17.49c-0.9,5.55-3.09,10.8-5.15,15.99c-0.47,1.16-0.93,2.36-1.36,3.56
		c-1.83,4.99-3.26,10.31-2.86,15.66c0.37,4.75,2.92,8.94,4.59,13.3c1.93,5.08,4.02,10.37,4.62,15.82c0.07,0.53,0.1,1.1-0.03,1.63
		c-0.03,0.13-0.1,0.27-0.16,0.37c-1.66-1.63-3.56-3.79-5.12-6.28c-2.06-3.36-4.49-11.04-4.95-12.57c0.43,1.43,1.15,7.35,4.88,13.73
		c1.95,3.33,4.14,5.99,4.65,6.5c-0.1,0.1-1.29-0.45-2.17-0.99c-3.88-2.39-13.81-10.41-19.63-22.29c-2.6-5.32-5.18-10.74-6.58-16.49
		c0.37,1.43,0.53,2.92,0.9,4.35c0.96,3.62,2.29,7.15,3.89,10.54c1.28,2.72,2.79,5.36,4.44,7.88c1.64,2.5,3.45,4.89,5.44,7.11
		c2.24,2.5,4.74,4.92,7.42,6.92c1.25,0.97,2.54,1.9,3.82,2.84c0.69,0.51,1.69,0.98,2.43,1.42c0.82,0.49,2.17,0.72,0.08,1.92
		c-0.64,0.37-2.29,0.7-3.66,0.67c-10.51-0.37-18.52-10.84-23.34-19.38c-0.43-0.76-0.86-1.56-1.26-2.33
		c-2.63-5.12-4.39-10.64-6.98-15.76c-2.69-5.29-5.52-10.54-8.51-15.66c-2.86-4.92-4.99-10.61-6.82-15.96
		c-0.7-2.03-1.33-4.06-1.9-6.12c-1.36-4.99-2.26-10.17-2.29-15.36c-0.07-14.49,8.51-25.06,9.01-26.03
		c0.53-0.96,6.75-11.14,7.05-14.29c1.63-7.91,0.9-17.78,14.33-20.88c9.14-2.13,14.2-6.25,14.36-6.38c-0.07,0.2-2.79,7.65,3.96,10.27
		c5.75,2.23,9.57-0.27,9.64-0.37c-0.03,0.13-1.46,6.28,0.27,9.81C118.84,40.2,117.61,43.52,116.32,44.39z"/>
</g>
</svg>
