<svg xmlns="http://www.w3.org/2000/svg" xmlns:xlink="http://www.w3.org/1999/xlink" width="57.099" height="86.173" viewBox="0 0 57.099 86.173">
  <defs>
    <clipPath id="clip-path">
      <rect id="Rectangle_73" data-name="Rectangle 73" width="57.099" height="86.173" fill="#fff"/>
    </clipPath>
  </defs>
  <g id="Group_433" data-name="Group 433" transform="translate(0 0)">
    <g id="Group_402" data-name="Group 402" transform="translate(0 0)" clip-path="url(#clip-path)">
      <path id="Path_622" data-name="Path 622" d="M36.37,32.747a13.43,13.43,0,1,1-13.43-13.43,13.43,13.43,0,0,1,13.43,13.43" transform="translate(4.548 9.238)" fill="#fff"/>
      <path id="Path_623" data-name="Path 623" d="M47.316,53.555a13.429,13.429,0,1,1-13.43-13.43,13.43,13.43,0,0,1,13.43,13.43" transform="translate(9.783 19.189)" fill="#fff"/>
      <path id="Path_624" data-name="Path 624" d="M24.5,12.262a6.249,6.249,0,0,1-.251,4.092,6.35,6.35,0,0,1-3.336,3.37,12.876,12.876,0,0,1-1.356.393,10.754,10.754,0,0,0-2.541.915,11.391,11.391,0,0,0-3.571,2.637c-.31.279-.572.54-.891.8a7.046,7.046,0,0,1-2.328,1.4A7.617,7.617,0,0,1,6.25,26.2a7.685,7.685,0,0,1-3.845-1.858,8.218,8.218,0,0,1-.665-.659,7.65,7.65,0,0,1-1.725-5.5,6.492,6.492,0,0,1,.1-.823c.086-.528.2-1.066.307-1.663A42.921,42.921,0,0,0,1.2,10.643c.117-1.175.2-2.225.217-3.181,0-.2.019-.414.018-.615A7.5,7.5,0,0,1,4.161,1.814,6.785,6.785,0,0,1,11.75.7a5.31,5.31,0,0,1,1.922,1.551c.179.21.333.43.477.627a12.7,12.7,0,0,0,1.132,1.463,10.656,10.656,0,0,0,2.152,1.939,13.485,13.485,0,0,0,1.928,1.172c.439.211.881.364,1.264.513a6.182,6.182,0,0,1,1.6.882A6.517,6.517,0,0,1,24.5,12.262" transform="translate(0 0)" fill="#fff"/>
    </g>
  </g>
</svg>
