<?xml version="1.0" encoding="UTF-8"?>
<svg id="Layer_1" xmlns="http://www.w3.org/2000/svg" xmlns:xlink="http://www.w3.org/1999/xlink" version="1.1" viewBox="0 0 57.1 86.2">
  <!-- Generator: Adobe Illustrator 29.4.0, SVG Export Plug-In . SVG Version: 2.1.0 Build 152)  -->
  <defs>
    <style>
      .st0 {
        fill: none;
      }

      .st1 {
        clip-path: url(#clippath);
      }
    </style>
    <clipPath id="clippath">
      <rect class="st0" y="0" width="57.1" height="86.2"/>
    </clipPath>
  </defs>
  <g id="Group_433">
    <g class="st1">
      <g id="Group_402">
        <path id="Path_622" d="M40.9,42c0,7.4-6,13.4-13.4,13.4s-13.4-6-13.4-13.4,6-13.4,13.4-13.4h0c7.4,0,13.4,6,13.4,13.4"/>
        <path id="Path_623" d="M57.1,72.7c0,7.4-6,13.4-13.4,13.4-7.4,0-13.4-6-13.4-13.4,0-7.4,6-13.4,13.4-13.4,7.4,0,13.4,6,13.4,13.4"/>
        <path id="Path_624" d="M24.5,12.3c.4,1.4.3,2.8-.3,4.1-.6,1.5-1.8,2.7-3.3,3.4-.4.2-.9.3-1.4.4-.9.2-1.7.5-2.5.9-1.4.6-2.6,1.5-3.6,2.6-.3.3-.6.5-.9.8-.7.6-1.5,1.1-2.3,1.4-1.3.5-2.6.6-4,.3-1.4-.2-2.8-.9-3.8-1.9-.2-.2-.5-.4-.7-.7C.5,22.1-.1,20.2,0,18.2c0-.3,0-.6.1-.8,0-.5.2-1.1.3-1.7.4-1.7.6-3.4.8-5.1.1-1.2.2-2.2.2-3.2,0-.2,0-.4,0-.6.2-2,1.2-3.8,2.7-5C6.2,0,9.2-.5,11.8.7c.8.4,1.4.9,1.9,1.6.2.2.3.4.5.6.3.5.7,1,1.1,1.5.6.7,1.3,1.4,2.2,1.9.6.4,1.3.8,1.9,1.2.4.2.9.4,1.3.5.6.2,1.1.5,1.6.9,1.1.9,1.9,2.1,2.3,3.4"/>
      </g>
    </g>
  </g>
</svg>