<?xml version="1.0" encoding="UTF-8"?>
<svg id="Layer_1" xmlns="http://www.w3.org/2000/svg" xmlns:xlink="http://www.w3.org/1999/xlink" version="1.1" viewBox="0 0 43.2 65.2">
  <!-- Generator: Adobe Illustrator 29.4.0, SVG Export Plug-In . SVG Version: 2.1.0 Build 152)  -->
  <defs>
    <style>
      .st0 {
        fill: none;
      }

      .st1 {
        clip-path: url(#clippath);
      }
    </style>
    <clipPath id="clippath">
      <rect class="st0" y="0" width="43.2" height="65.2"/>
    </clipPath>
  </defs>
  <g class="st1">
    <path id="Path_622" d="M31,31.8c0,5.6-4.6,10.2-10.2,10.2s-10.2-4.6-10.2-10.2,4.6-10.2,10.2-10.2h0c5.6,0,10.2,4.6,10.2,10.2"/>
    <path id="Path_623" d="M43.2,55.1c0,5.6-4.6,10.2-10.2,10.2s-10.2-4.6-10.2-10.2c0-5.6,4.6-10.2,10.2-10.2,5.6,0,10.2,4.6,10.2,10.2"/>
    <path id="Path_624" d="M18.5,9.3c.3,1,.2,2.1-.2,3.1-.5,1.1-1.4,2.1-2.5,2.6-.3.1-.7.2-1,.3-.7.1-1.3.4-1.9.7-1,.5-1.9,1.2-2.7,2-.2.2-.4.4-.7.6-.5.5-1.1.8-1.8,1.1-1,.4-2,.4-3,.3-1.1-.2-2.1-.7-2.9-1.4-.2-.2-.3-.3-.5-.5C.4,16.8-.1,15.3,0,13.8c0-.2,0-.4,0-.6,0-.4.1-.8.2-1.3.3-1.3.5-2.5.6-3.8,0-.9.2-1.7.2-2.4,0-.2,0-.3,0-.5.2-1.5.9-2.9,2.1-3.8C4.7,0,7-.4,8.9.5c.6.3,1.1.7,1.5,1.2.1.2.3.3.4.5.3.4.5.8.9,1.1.5.6,1,1.1,1.6,1.5.5.3.9.6,1.5.9.3.2.7.3,1,.4.4.2.8.4,1.2.7.8.7,1.4,1.6,1.7,2.6"/>
  </g>
</svg>