<svg xmlns="http://www.w3.org/2000/svg" xmlns:xlink="http://www.w3.org/1999/xlink" width="43.218" height="65.223" viewBox="0 0 43.218 65.223">
  <defs>
    <clipPath id="clip-path">
      <rect id="Rectangle_73" data-name="Rectangle 73" width="43.218" height="65.223" fill="#fff"/>
    </clipPath>
  </defs>
  <g id="Group_433" data-name="Group 433" transform="translate(0 0)">
    <g id="Group_402" data-name="Group 402" transform="translate(0 0)" clip-path="url(#clip-path)">
      <path id="Path_622" data-name="Path 622" d="M29.84,29.482A10.165,10.165,0,1,1,19.676,19.317,10.165,10.165,0,0,1,29.84,29.482" transform="translate(1.13 2.296)" fill="#fff"/>
      <path id="Path_623" data-name="Path 623" d="M40.786,50.29A10.164,10.164,0,1,1,30.622,40.125,10.165,10.165,0,0,1,40.786,50.29" transform="translate(2.431 4.769)" fill="#fff"/>
      <path id="Path_624" data-name="Path 624" d="M18.547,9.281a4.73,4.73,0,0,1-.19,3.1,4.806,4.806,0,0,1-2.525,2.551,9.746,9.746,0,0,1-1.026.3,8.139,8.139,0,0,0-1.923.693,8.621,8.621,0,0,0-2.7,2c-.235.211-.433.408-.675.6a5.333,5.333,0,0,1-1.762,1.058,5.765,5.765,0,0,1-3.012.253,5.816,5.816,0,0,1-2.91-1.406,6.22,6.22,0,0,1-.5-.5A5.79,5.79,0,0,1,.011,13.758a4.914,4.914,0,0,1,.075-.623c.065-.4.148-.807.233-1.259A32.486,32.486,0,0,0,.912,8.056c.088-.889.154-1.684.164-2.408,0-.152.015-.313.013-.465a5.674,5.674,0,0,1,2.06-3.81A5.135,5.135,0,0,1,8.894.53,4.019,4.019,0,0,1,10.348,1.7c.135.159.252.326.361.474a9.611,9.611,0,0,0,.857,1.108A8.065,8.065,0,0,0,13.2,4.754a10.207,10.207,0,0,0,1.459.887c.332.16.667.275.957.388a4.679,4.679,0,0,1,1.211.668,4.932,4.932,0,0,1,1.725,2.583" transform="translate(0 0)" fill="#fff"/>
    </g>
  </g>
</svg>
