<?xml version="1.0" encoding="UTF-8"?>
<svg id="Layer_1" xmlns="http://www.w3.org/2000/svg" version="1.1" viewBox="0 0 676.5 305.4">
  <!-- Generator: Adobe Illustrator 29.5.1, SVG Export Plug-In . SVG Version: 2.1.0 Build 141)  -->
  <defs>
    <style>
      .st0 {
        fill: #fff;
      }
    </style>
  </defs>
  <path class="st0" d="M585.3,231.7h-11.2c0-23.9-.4-30.3,31.6-30.3h15.6v13.8c0,7.2-1.5,13.2-4.6,17.8s-8.3,8.6-15.8,11.9c-7.5,3.3-16,5.5-25.5,6.6,0,0-1.3,1.3,0,0,12.3-12.3,9.9-19.8,9.9-19.8h0Z"/>
  <rect class="st0" x="305.4" y="75.2" width="88.4" height="176.9"/>
  <rect class="st0" x="54.6" y="75.2" width="88.4" height="176.9"/>
  <path class="st0" d="M621.9,75.2s-82.3-1.1-109.1,14.3-31.4,25-53.3,52.7c-17.6,20.2-55.7,23.9-55.7,23.9v85.6s57.7,3.3,96.6-9c39.1-12.3,46.5-47.6,69.1-64.3,20.6-15.1,52.2-16,52.2-16v-87.4h.2v.2h0Z"/>
  <path class="st0" d="M295.1,75.2v87.4s-29.4.9-48.5,16c-3.3,2.6-4.8,5.5-4.8,8.6v65h-88.4V75h88.4v20.2c0-20.2,53.3-20.2,53.6-20.2h0l-.2.2h0Z"/>
  <rect class="st0" x="54.6" y="53.3" width="88.4" height="11.9"/>
  <rect class="st0" x="305.4" y="53.3" width="88.4" height="11.9"/>
</svg>