<?xml version="1.0" encoding="UTF-8"?>
<svg id="Layer_1" xmlns="http://www.w3.org/2000/svg" version="1.1" viewBox="0 0 291.7 291.7">
  <!-- Generator: Adobe Illustrator 29.4.0, SVG Export Plug-In . SVG Version: 2.1.0 Build 152)  -->
  <defs>
    <style>
      .st0 {
        fill: #ff000d;
      }

      .st1 {
        fill: #fff;
      }
    </style>
  </defs>
  <path id="Path_7" class="st0" d="M291.7,145.6c.1,80.5-65.1,145.9-145.6,146C65.5,291.8.1,226.6,0,146-.1,65.5,65.1.1,145.6,0h.2C226.3,0,291.5,65.2,291.6,145.6"/>
  <g>
    <circle class="st1" cx="145.8" cy="104.6" r="25.7"/>
    <path class="st1" d="M195.4,186.6c0,2.8-.2,5.5-.7,8.1-13.2,11.2-30.2,18-48.9,18s-35.7-6.8-48.9-18c-.4-2.7-.7-5.4-.7-8.1,0-19,10.7-35.5,26.4-43.8,5.9,5.9,14.1,9.6,23.2,9.6s17.2-3.7,23.2-9.6c15.7,8.3,26.4,24.8,26.4,43.8h0Z"/>
  </g>
</svg>