<?xml version="1.0" encoding="UTF-8"?>
<svg id="Layer_1" xmlns="http://www.w3.org/2000/svg" version="1.1" viewBox="0 0 291.7 291.7">
  <!-- Generator: Adobe Illustrator 29.4.0, SVG Export Plug-In . SVG Version: 2.1.0 Build 152)  -->
  <defs>
    <style>
      .st0 {
        fill: #ff000d;
      }

      .st1 {
        fill: #fff;
      }
    </style>
  </defs>
  <path id="Path_7" class="st0" d="M291.7,145.6c.1,80.5-65.1,145.9-145.6,146C65.5,291.8.1,226.6,0,146-.1,65.5,65.1.1,145.6,0h.2C226.3,0,291.5,65.2,291.6,145.6"/>
  <g>
    <circle class="st1" cx="189.2" cy="113.2" r="12.2"/>
    <path class="st1" d="M212.7,152c0,1.3-.1,2.6-.3,3.9-6.2,5.3-14.3,8.5-23.1,8.5s-16.9-3.2-23.1-8.5c-.2-1.3-.3-2.5-.3-3.9,0-9,5.1-16.8,12.5-20.7,2.8,2.8,6.7,4.5,10.9,4.5s8.1-1.7,10.9-4.5c7.4,3.9,12.5,11.7,12.5,20.7h0Z"/>
  </g>
  <g>
    <circle class="st1" cx="124" cy="132.2" r="18.8"/>
    <path class="st1" d="M160.2,192.1c0,2-.2,4-.5,5.9-9.6,8.2-22,13.1-35.6,13.1s-26-4.9-35.6-13.1c-.3-1.9-.5-3.9-.5-5.9,0-13.9,7.8-25.9,19.2-31.9,4.3,4.3,10.3,7,16.9,7s12.6-2.7,16.9-7c11.4,6.1,19.2,18.1,19.2,31.9Z"/>
  </g>
</svg>