<?xml version="1.0" encoding="UTF-8"?>
<svg id="Layer_1" xmlns="http://www.w3.org/2000/svg" version="1.1" viewBox="0 0 291.7 291.7">
  <!-- Generator: Adobe Illustrator 29.4.0, SVG Export Plug-In . SVG Version: 2.1.0 Build 152)  -->
  <defs>
    <style>
      .st0 {
        fill: #ff000d;
      }

      .st1 {
        fill: #fff;
      }
    </style>
  </defs>
  <path id="Path_7" class="st0" d="M291.7,145.6c.1,80.5-65.1,145.9-145.6,146C65.5,291.8.1,226.6,0,146-.1,65.5,65.1.1,145.6,0h.2C226.3,0,291.5,65.2,291.6,145.6"/>
  <g>
    <path id="Path_71" class="st1" d="M251,145.8c0,14.4-11.7,26.1-26.1,26.1s-26.1-11.7-26.1-26.1,11.7-26.1,26.1-26.1h0c14.4,0,26.1,11.7,26.1,26.1"/>
    <path id="Path_72" class="st1" d="M180.1,145.8c0,19.8-16,35.9-35.8,35.9s-35.9-16-35.9-35.8,16-35.9,35.8-35.9h0c19.8,0,35.9,16,35.9,35.8"/>
    <path id="Path_8" class="st1" d="M50,145.8c0-10.9,8.9-19.8,19.8-19.8s19.8,8.9,19.8,19.8-8.9,19.8-19.8,19.8h0c-10.9,0-19.8-8.9-19.8-19.8"/>
  </g>
</svg>