<?xml version="1.0" encoding="UTF-8"?>
<svg id="Layer_1" xmlns="http://www.w3.org/2000/svg" version="1.1" viewBox="0 0 291.7 291.7">
  <!-- Generator: Adobe Illustrator 29.4.0, SVG Export Plug-In . SVG Version: 2.1.0 Build 152)  -->
  <defs>
    <style>
      .st0 {
        fill: #ff000d;
      }

      .st1 {
        fill: #fff;
      }
    </style>
  </defs>
  <path id="Path_7" class="st0" d="M291.7,146.6c.1,80.5-65.1,145.9-145.6,146C65.5,292.8.1,227.6,0,147-.1,66.5,65.1,1.1,145.6,1h.2c80.5,0,145.7,65.2,145.8,145.6"/>
  <g>
    <path class="st1" d="M114.9,117.5h25.8v68.9h-25.8c-19,0-34.5-15.4-34.5-34.5h0c0-19,15.4-34.5,34.5-34.5h0Z"/>
    <path class="st1" d="M185.4,117.5h25.8v68.9h-25.8c-19,0-34.5-15.4-34.5-34.5h0c0-19,15.4-34.5,34.5-34.5h0Z"/>
  </g>
</svg>