<svg xmlns="http://www.w3.org/2000/svg" xmlns:xlink="http://www.w3.org/1999/xlink" width="56.55" height="19.837" viewBox="0 0 56.55 19.837">
  <defs>
    <clipPath id="clip-path">
      <rect id="Rectangle_14" data-name="Rectangle 14" width="56.55" height="19.837" fill="#ff000d"/>
    </clipPath>
  </defs>
  <g id="Group_24" data-name="Group 24" transform="translate(0 0)">
    <g id="Group_23" data-name="Group 23" transform="translate(0 0)" clip-path="url(#clip-path)">
      <path id="Path_18" data-name="Path 18" d="M94.654,29.722H93.538c0-2.38-.038-3.016,3.146-3.016h1.548v1.379a3.2,3.2,0,0,1-.454,1.78,3.456,3.456,0,0,1-1.575,1.18,8.884,8.884,0,0,1-2.535.647h0c1.224-1.224.987-1.969.987-1.969" transform="translate(-41.762 -11.924)" fill="#ff000d"/>
      <rect id="Rectangle_10" data-name="Rectangle 10" width="8.819" height="17.644" transform="translate(24.986 2.194)" fill="#ff000d"/>
      <rect id="Rectangle_11" data-name="Rectangle 11" width="8.819" height="17.644" transform="translate(0 2.194)" fill="#ff000d"/>
      <path id="Path_19" data-name="Path 19" d="M84.631,3.965s-8.2-.1-10.868,1.423-3.138,2.5-5.32,5.258c-1.749,2.02-5.549,2.382-5.549,2.382V21.57s5.746.318,9.636-.9,4.63-4.744,6.887-6.4a10.659,10.659,0,0,1,5.214-1.6Z" transform="translate(-28.081 -1.77)" fill="#ff000d"/>
      <path id="Path_20" data-name="Path 20" d="M31.9,3.963v8.7a9.353,9.353,0,0,0-4.842,1.6,1.119,1.119,0,0,0-.489.855v6.486H17.753V3.961h8.819V5.978c0-2.015,5.319-2.015,5.33-2.015" transform="translate(-7.926 -1.769)" fill="#ff000d"/>
      <rect id="Rectangle_12" data-name="Rectangle 12" width="8.819" height="1.182" transform="translate(0 -0.001)" fill="#ff000d"/>
      <rect id="Rectangle_13" data-name="Rectangle 13" width="8.819" height="1.182" transform="translate(24.986 -0.001)" fill="#ff000d"/>
    </g>
  </g>
</svg>
