<svg xmlns="http://www.w3.org/2000/svg" xmlns:xlink="http://www.w3.org/1999/xlink" width="632" height="44.262" viewBox="0 0 632 44.262">
  <defs>
    <clipPath id="clip-path">
      <rect id="Rectangle_23" data-name="Rectangle 23" width="632" height="44.262" fill="#fff"/>
    </clipPath>
  </defs>
  <g id="Group_189" data-name="Group 189" transform="translate(0 0)">
    <g id="Group_187" data-name="Group 187" transform="translate(0 0)" clip-path="url(#clip-path)">
      <path id="Path_587" data-name="Path 587" d="M0,29.332V26.505H11.728v2.766c0,2.586,1.262,4.571,4.45,4.571,3.668,0,4.51-2.285,4.51-4.571V.766H33.5V28.31c0,9.563-5.533,15.937-17.08,15.937C5.412,44.247,0,38.533,0,29.332" transform="translate(0 0.016)" fill="#fff"/>
      <path id="Path_588" data-name="Path 588" d="M65.24,43.465l-2.285-7.1H48.22l-2.345,7.1H33.066l15.7-42.7H62.655l15.757,42.7ZM51.288,26.927h8.54L55.557,13.816Z" transform="translate(0.676 0.016)" fill="#fff"/>
      <path id="Path_589" data-name="Path 589" d="M79.392,43.465V.766h33.137v10.1H91.781v6.075h18.042v9.682H91.781v6.736h21.35v10.1Z" transform="translate(1.622 0.016)" fill="#fff"/>
      <path id="Path_590" data-name="Path 590" d="M113.283,22.612V21.65c0-12.569,8.48-21.65,21.891-21.65,11.546,0,18.462,6.735,19.6,15.4H142.03c-.782-2.947-2.827-5.173-7.037-5.173-5.712,0-8.539,4.511-8.539,11.427v.962c0,6.977,2.827,11.427,9.261,11.427,5.834,0,8.179-3.007,8.781-6.314h-9.743V19H155.08V43.481h-8.96l-.962-5.172c-2.105,3.367-6.2,5.953-12.329,5.953-12.449,0-19.545-8.781-19.545-21.651" transform="translate(2.315 0)" fill="#fff"/>
      <path id="Path_591" data-name="Path 591" d="M158.136,43.465V.766h33.137v10.1H170.525v6.075h18.041v9.682H170.525v6.736h21.35v10.1Z" transform="translate(3.232 0.016)" fill="#fff"/>
      <path id="Path_592" data-name="Path 592" d="M194.325,43.465V.766h20.688c9.382,0,16.6,5.112,16.6,14.674V15.8c0,6.435-3.066,10.765-7.938,12.99l8.84,14.674H219.043l-7.337-12.99h-4.872v12.99Zm12.51-23.093h6.616c3.066,0,5.172-1.322,5.172-4.571V15.44c0-3.248-2.105-4.571-5.172-4.571h-6.616Z" transform="translate(3.971 0.016)" fill="#fff"/>
      <rect id="Rectangle_21" data-name="Rectangle 21" width="97.81" height="7.457" transform="translate(239.85 22.191)" fill="#fff"/>
      <path id="Path_593" data-name="Path 593" d="M366.732,43.465l-2.947-8.479H347.427l-2.947,8.479H334.2L350.254.766h11.066l16.058,42.7ZM350.193,27.047h10.886l-5.474-15.757Z" transform="translate(6.829 0.016)" fill="#fff"/>
      <path id="Path_594" data-name="Path 594" d="M378.991,43.465V.766H410.5V9h-21.53v8.721h19.306v8H388.974v9.5h22.012v8.239Z" transform="translate(7.745 0.016)" fill="#fff"/>
      <path id="Path_595" data-name="Path 595" d="M414.3,43.465V.766h19.365c9.081,0,15.877,4.81,15.877,13.831v.6c0,6.5-3.428,10.765-8.781,12.689L450.8,43.465H439.675l-8.9-14.434h-6.435V43.465Zm10.043-22.673h8.239c3.849,0,6.495-1.684,6.495-5.593v-.6c0-3.908-2.646-5.592-6.495-5.592h-8.239Z" transform="translate(8.466 0.016)" fill="#fff"/>
      <path id="Path_596" data-name="Path 596" d="M482.49,43.465l-2.947-8.479H463.185l-2.947,8.479H449.954L466.012.766h11.066l16.057,42.7ZM465.951,27.047h10.885l-5.473-15.757Z" transform="translate(9.195 0.016)" fill="#fff"/>
      <path id="Path_597" data-name="Path 597" d="M498.049,43.465V9H486.262V.766h33.677V9H508.212v34.46Z" transform="translate(9.937 0.016)" fill="#fff"/>
      <rect id="Rectangle_22" data-name="Rectangle 22" width="10.224" height="42.699" transform="translate(533.668 0.782)" fill="#fff"/>
      <path id="Path_598" data-name="Path 598" d="M537.126,22.732v-1.2C537.126,9.081,545.245,0,558.295,0c13.11,0,21.23,9.081,21.23,21.529v1.2c0,12.449-8.12,21.53-21.23,21.53-13.05,0-21.169-9.081-21.169-21.53m31.874,0v-1.2c0-8.058-3.789-13.171-10.705-13.171s-10.644,5.112-10.644,13.171v1.2c0,8.059,3.848,13.171,10.644,13.171C565.212,35.9,569,30.792,569,22.732" transform="translate(10.976 0)" fill="#fff"/>
      <path id="Path_599" data-name="Path 599" d="M582.51,43.465V.766h11.847l16.178,28.325V.766H620.1v42.7H608.851L592.193,14V43.465Z" transform="translate(11.904 0.016)" fill="#fff"/>
    </g>
  </g>
</svg>
