<svg id="Group_193" data-name="Group 193" xmlns="http://www.w3.org/2000/svg" xmlns:xlink="http://www.w3.org/1999/xlink" width="632" height="71.932" viewBox="0 0 632 71.932">
  <defs>
    <clipPath id="clip-path">
      <rect id="Rectangle_26" data-name="Rectangle 26" width="632" height="71.932" fill="none"/>
    </clipPath>
  </defs>
  <g id="Group_192" data-name="Group 192" clip-path="url(#clip-path)">
    <text id="Pioneer_of_Fine-Bubble" data-name="Pioneer of Fine-Bubble" transform="translate(422 17.635)" fill="#fff" font-size="21.2" font-family="Georgia"><tspan x="0" y="0" letter-spacing="-0.014em">Pi</tspan><tspan y="0" letter-spacing="-0.015em">o</tspan><tspan y="0" letter-spacing="-0.014em">n</tspan><tspan y="0" letter-spacing="-0.015em">ee</tspan><tspan y="0" letter-spacing="-0.014em">r</tspan><tspan y="0" xml:space="preserve" letter-spacing="-0.015em"> of F</tspan><tspan y="0" letter-spacing="-0.014em">in</tspan><tspan y="0" letter-spacing="-0.015em">e-</tspan><tspan y="0" letter-spacing="-0.014em">B</tspan><tspan y="0" letter-spacing="-0.015em">ubbl</tspan><tspan y="0">e</tspan></text>
    <path id="Path_600" data-name="Path 600" d="M0,56.47V53.645H11.721V56.41c0,2.584,1.262,4.568,4.448,4.568,3.666,0,4.508-2.283,4.508-4.568V27.92h12.8V55.448c0,9.557-5.53,15.928-17.071,15.928C5.409,71.377,0,65.667,0,56.47" transform="translate(0 0.555)" fill="#fff"/>
    <path id="Path_601" data-name="Path 601" d="M65.223,70.6,62.939,63.5H48.212L45.868,70.6h-12.8L48.754,27.92H62.638L78.386,70.6ZM51.278,54.067h8.535l-4.268-13.1Z" transform="translate(0.657 0.555)" fill="#fff"/>
    <path id="Path_602" data-name="Path 602" d="M79.392,70.6V27.92H112.51v10.1H91.774v6.071h18.032v9.677H91.774V60.5h21.338V70.6Z" transform="translate(1.578 0.555)" fill="#fff"/>
    <path id="Path_603" data-name="Path 603" d="M113.283,49.753v-.962c0-12.562,8.475-21.638,21.879-21.638,11.54,0,18.452,6.731,19.594,15.387H142.014c-.781-2.945-2.825-5.17-7.033-5.17-5.709,0-8.534,4.509-8.534,11.421v.962c0,6.973,2.825,11.421,9.256,11.421,5.831,0,8.174-3.006,8.776-6.311h-9.738V46.147h20.316V70.611H146.1l-.962-5.169c-2.1,3.366-6.192,5.95-12.322,5.95-12.442,0-19.535-8.776-19.535-21.639" transform="translate(2.252 0.54)" fill="#fff"/>
    <path id="Path_604" data-name="Path 604" d="M158.136,70.6V27.92h33.118v10.1H170.518v6.071H188.55v9.677H170.518V60.5h21.338V70.6Z" transform="translate(3.143 0.555)" fill="#fff"/>
    <path id="Path_605" data-name="Path 605" d="M194.325,70.6V27.92H215c9.377,0,16.589,5.11,16.589,14.666v.361c0,6.431-3.065,10.759-7.934,12.983L232.493,70.6H219.029L211.7,57.613h-4.869V70.6Zm12.5-23.081h6.612c3.065,0,5.169-1.322,5.169-4.568v-.361c0-3.246-2.1-4.568-5.169-4.568h-6.612Z" transform="translate(3.862 0.555)" fill="#fff"/>
    <rect id="Rectangle_24" data-name="Rectangle 24" width="97.756" height="7.453" transform="translate(239.719 49.873)" fill="#fff"/>
    <path id="Path_606" data-name="Path 606" d="M366.714,70.6l-2.945-8.474H347.42L344.474,70.6H334.2L350.245,27.92H361.3L377.353,70.6Zm-16.529-16.41h10.88l-5.471-15.747Z" transform="translate(6.642 0.555)" fill="#fff"/>
    <path id="Path_607" data-name="Path 607" d="M378.991,70.6V27.92h31.5v8.234H388.968V44.87h19.3v7.994h-19.3v9.5h22V70.6Z" transform="translate(7.533 0.555)" fill="#fff"/>
    <path id="Path_608" data-name="Path 608" d="M414.3,70.6V27.92H433.65c9.076,0,15.868,4.808,15.868,13.823v.6c0,6.492-3.426,10.759-8.776,12.682L450.781,70.6h-11.12l-8.9-14.426h-6.431V70.6Zm10.038-22.661h8.234c3.847,0,6.492-1.683,6.492-5.59v-.6c0-3.906-2.645-5.589-6.492-5.589h-8.234Z" transform="translate(8.234 0.555)" fill="#fff"/>
    <path id="Path_609" data-name="Path 609" d="M482.472,70.6l-2.945-8.474H463.178L460.232,70.6H449.954L466,27.92h11.06L493.111,70.6Zm-16.529-16.41h10.879l-5.47-15.747Z" transform="translate(8.943 0.555)" fill="#fff"/>
    <path id="Path_610" data-name="Path 610" d="M498.042,70.6V36.154H486.262V27.92h33.659v8.234H508.2V70.6Z" transform="translate(9.665 0.555)" fill="#fff"/>
    <rect id="Rectangle_25" data-name="Rectangle 25" width="10.218" height="42.676" transform="translate(533.375 28.475)" fill="#fff"/>
    <path id="Path_611" data-name="Path 611" d="M537.126,49.874v-1.2c0-12.441,8.114-21.517,21.157-21.517,13.1,0,21.219,9.076,21.219,21.517v1.2c0,12.442-8.115,21.518-21.219,21.518-13.043,0-21.157-9.076-21.157-21.518m31.857,0v-1.2c0-8.054-3.787-13.164-10.7-13.164s-10.638,5.11-10.638,13.164v1.2c0,8.055,3.846,13.164,10.638,13.164,6.913,0,10.7-5.109,10.7-13.164" transform="translate(10.676 0.54)" fill="#fff"/>
    <path id="Path_612" data-name="Path 612" d="M582.51,70.6V27.92h11.841L610.52,56.23V27.92h9.557V70.6h-11.24L592.187,41.143V70.6Z" transform="translate(11.578 0.555)" fill="#fff"/>
  </g>
</svg>
