<?xml version="1.0" encoding="UTF-8"?><svg id="Layer_1" xmlns="http://www.w3.org/2000/svg" viewBox="0 0 659.4 200"><defs><style>.cls-1{fill:#0c0c0c;}.cls-1,.cls-2,.cls-3{stroke-width:0px;}.cls-2{fill:#fafbfb;}.cls-3{fill:#040504;}</style></defs><rect class="cls-3" x="50.1" y="50" width="100" height="100"/><path class="cls-2" d="M106.9,102.8s0,0,0,0c0,0-.3-.4-.3-.5-.1-.2-.2-.4-.4-.6-.2-.4-.5-.7-.9-.9-.4-.2-.8-.3-1.2-.2-.9.3-1.2,1.5-1.2,2.3,0-.2-.2-.5-.3-.7-.1-.2-.2-.5-.4-.7-.3-.4-.6-.7-1.1-.7-1-.2-1.6.8-2.2,1.3-.2.2-.5.3-.8.2-.2,0-.4-.2-.6-.4-.2-.2-.3-.4-.5-.5,0,0-.1,0-.2,0,0,.1.1.2.2.3,0,0,.2.2.2.3.4.5.9,1,1.6.9.3,0,.5-.2.7-.4.4-.4.9-1,1.5-.9.2,0,.3.1.4.3.5.4.9,1,1.3,1.6,0,0,0,0,0,0,0,0,0,0,0,0,0-.5.2-.9.4-1.4.2-.3.4-.8.8-.9.2,0,.5,0,.7,0,.3.1.5.3.7.5.2.2.4.3.6.5.2.2.3.4.5.5,0,0,0,0,.1,0,0,0,0,0,0,0Z"/><path class="cls-2" d="M107.9,82c-.3.7-.7.9-.7.9,0,0,1.3-2.6-3.4-2.7-5.2-.2-5.6-.1-5.6-.1,0,0,.8,0,1.4,0,1.6,0,5.9-1,7.1-.5,1.2.4,1.7,1.4,1.2,2.5Z"/><path class="cls-2" d="M102.6,78.7s-1.4.7-2.1.5c-1.5-.3-1.4-1.5-1.4-1.5,0,0,0-1.6,1.9-1.7,1.8,0,1.6,2.7,1.6,2.7Z"/><path class="cls-2" d="M94,81.6c.7-3.3,1.8-7.7,5.6-8.7,3.6-.9,5.8-2.3,5.8-2.4,0,0-1.3,3.4,1.2,4.2s3.7,0,3.7,0c0,0-.5,2.8.1,4.1.6,1.3-.3,2.5-.8,2.8-1.4.9-2.7,3.9-3.3,5.1.6-1.2.9-2.5,1.6-3.7.4-.6.8-1.2,1.4-1.7,0,0,0,0,0,0s0,0,0,0c-.2-.2-.4-.4-.6-.6,0,0-.1-.1-.1-.2s0,0,0-.1c0-.2.2-.5.3-.7,0,0,.1-.2.2-.2,0,0,.1-.1.1-.2,0-.4,0-.8-.2-1.1-.1-.4-.2-.7-.4-1.1,0,0-1,0-2.6-.7-1.6-.7-2.7-2.1-2.7-2.1,0,0-3.1-.1-5.9,2.6s-1.9,3.5-2.8,5.4-2.1,3.4-2.5,4-.3.6-.5.9-2.4,5.9-.9,12.4c.3,1.4.7,2.7,1.2,4,.5,1.3,1.2,2.6,2,3.8,0,0-.1-.4,0-.9,0-.8.2-1.3.2-1.3l.3,1.3c.2.6.5,1.5.6,1.7.4.9.9,1.7,1.5,2.5,0,.1.2.2.3.3,0,0,1.4,2,1.9,1.1,0,0,2.2,5.2,3.7,6.6.4.5.8.9,1.1,1.5-.2-2.3,0-4.7.5-7,.8-2.9,2.4-5.5,3.5-8.4,1-2.5,1.6-5.2,1.1-7.8.4,2.1.6,4.2.2,6.3-.3,2-1.1,4-1.9,5.9-.2.4-.3.9-.5,1.3-.7,1.8-1.2,3.8-1,5.7.1,1.7,1.1,3.3,1.7,4.9.7,1.9,1.5,3.7,1.8,5.7,0,.2,0,.5,0,.7,0,0,0,0,0,.1.4.5.3,1.1.2,1.3,0,0-.1.2-.4.4-.2.1-.8.3-1.3.2-3.8-.1-6.8-4-8.5-7.1-.2-.3-.3-.6-.5-.9-1-1.9-1.6-3.9-2.6-5.8-1-1.9-2-3.9-3.1-5.7-1-1.8-1.8-3.9-2.5-5.8-.3-.7-.5-1.5-.7-2.2-.5-1.8-.8-3.7-.8-5.6,0-4.7,2.9-9,3.1-9.4s.5-.9.5-.9c0,0,1.3-2.2,1.9-4.5Z"/><path class="cls-1" d="M179.6,121.1v-42.4h18.1c2,0,3.9.4,5.6,1.3,1.7.8,3.1,1.9,4.4,3.3,1.2,1.4,2.2,2.9,2.9,4.6.7,1.7,1,3.4,1,5.2s-.3,3.7-1,5.4c-.7,1.7-1.6,3.2-2.7,4.6-1.2,1.4-2.6,2.4-4.3,3.2s-3.5,1.2-5.5,1.2h-8.6v13.7h-9.8ZM189.4,98.9h8c1.2,0,2.1-.5,3-1.5.8-1,1.3-2.4,1.3-4.4s-.1-1.9-.4-2.6c-.3-.7-.6-1.3-1-1.8-.4-.5-.9-.8-1.5-1-.6-.2-1.1-.3-1.7-.3h-7.6v11.6Z"/><path class="cls-1" d="M235.9,121.5c-3.1,0-6-.6-8.6-1.9-2.6-1.2-4.8-2.9-6.6-4.9-1.8-2-3.3-4.3-4.3-6.9-1-2.6-1.5-5.3-1.5-8s.5-5.5,1.6-8.1c1.1-2.6,2.5-4.9,4.4-6.8,1.9-2,4.1-3.5,6.7-4.7,2.6-1.2,5.4-1.8,8.5-1.8s6,.6,8.6,1.9c2.6,1.2,4.8,2.9,6.6,4.9,1.8,2,3.2,4.3,4.2,6.9,1,2.6,1.5,5.2,1.5,7.9s-.5,5.5-1.6,8.1c-1.1,2.6-2.5,4.9-4.4,6.8-1.9,2-4.1,3.6-6.7,4.7-2.6,1.2-5.4,1.8-8.5,1.8ZM224.8,100c0,1.6.2,3.2.7,4.7.5,1.5,1.2,2.9,2.1,4.1.9,1.2,2.1,2.1,3.5,2.9,1.4.7,3,1.1,4.8,1.1s3.5-.4,4.9-1.1c1.4-.8,2.5-1.7,3.5-3,.9-1.2,1.6-2.6,2.1-4.1.5-1.5.7-3.1.7-4.7s-.2-3.2-.7-4.7c-.5-1.5-1.2-2.9-2.1-4.1s-2.1-2.1-3.5-2.8c-1.4-.7-3-1-4.7-1s-3.5.4-4.9,1.1c-1.4.7-2.5,1.7-3.5,2.9-.9,1.2-1.6,2.6-2.1,4.1-.5,1.5-.7,3.1-.7,4.7Z"/><path class="cls-1" d="M294.1,87.3h-12.9v33.8h-9.8v-33.8h-12.9v-8.6h35.6v8.6Z"/><path class="cls-1" d="M316.6,121.5c-3.1,0-6-.6-8.6-1.9-2.6-1.2-4.8-2.9-6.6-4.9-1.8-2-3.3-4.3-4.3-6.9-1-2.6-1.5-5.3-1.5-8s.5-5.5,1.6-8.1c1.1-2.6,2.5-4.9,4.4-6.8,1.9-2,4.1-3.5,6.7-4.7,2.6-1.2,5.4-1.8,8.5-1.8s6,.6,8.6,1.9c2.6,1.2,4.8,2.9,6.6,4.9,1.8,2,3.2,4.3,4.2,6.9,1,2.6,1.5,5.2,1.5,7.9s-.5,5.5-1.6,8.1c-1.1,2.6-2.5,4.9-4.4,6.8-1.9,2-4.1,3.6-6.7,4.7-2.6,1.2-5.4,1.8-8.5,1.8ZM305.5,100c0,1.6.2,3.2.7,4.7.5,1.5,1.2,2.9,2.1,4.1.9,1.2,2.1,2.1,3.5,2.9,1.4.7,3,1.1,4.8,1.1s3.5-.4,4.9-1.1c1.4-.8,2.5-1.7,3.5-3,.9-1.2,1.6-2.6,2.1-4.1.5-1.5.7-3.1.7-4.7s-.2-3.2-.7-4.7c-.5-1.5-1.2-2.9-2.1-4.1-1-1.2-2.1-2.1-3.5-2.8-1.4-.7-3-1-4.7-1s-3.5.4-4.9,1.1c-1.4.7-2.5,1.7-3.5,2.9-.9,1.2-1.6,2.6-2.1,4.1-.5,1.5-.7,3.1-.7,4.7Z"/><path class="cls-1" d="M362.5,121.5c-3.1,0-6-.6-8.6-1.9s-4.8-2.9-6.6-4.9c-1.8-2-3.3-4.3-4.3-6.9-1-2.6-1.5-5.3-1.5-8s.5-5.5,1.6-8.1c1.1-2.6,2.5-4.9,4.4-6.8,1.9-2,4.1-3.5,6.7-4.7,2.6-1.2,5.4-1.8,8.5-1.8s6,.6,8.6,1.9c2.6,1.2,4.8,2.9,6.6,4.9,1.8,2,3.2,4.3,4.2,6.9,1,2.6,1.5,5.2,1.5,7.9s-.5,5.5-1.6,8.1-2.5,4.9-4.4,6.8c-1.9,2-4.1,3.6-6.7,4.7s-5.4,1.8-8.5,1.8ZM351.4,100c0,1.6.2,3.2.7,4.7.5,1.5,1.2,2.9,2.1,4.1.9,1.2,2.1,2.1,3.5,2.9,1.4.7,3,1.1,4.8,1.1s3.5-.4,4.9-1.1c1.4-.8,2.5-1.7,3.5-3,.9-1.2,1.6-2.6,2.1-4.1.5-1.5.7-3.1.7-4.7s-.2-3.2-.7-4.7c-.5-1.5-1.2-2.9-2.1-4.1-1-1.2-2.1-2.1-3.5-2.8-1.4-.7-3-1-4.7-1s-3.5.4-4.9,1.1c-1.4.7-2.5,1.7-3.5,2.9-.9,1.2-1.6,2.6-2.1,4.1-.5,1.5-.7,3.1-.7,4.7Z"/><path class="cls-1" d="M426.8,87.6c-.5-.6-1.1-1.1-1.9-1.6-.8-.5-1.7-1-2.7-1.4-1-.4-2.1-.8-3.3-1s-2.4-.4-3.7-.4c-3.3,0-5.7.6-7.3,1.9-1.5,1.2-2.3,2.9-2.3,5.1s.2,2.1.7,2.9c.4.8,1.1,1.4,2.1,1.9.9.5,2.1,1,3.5,1.4,1.4.4,3,.8,5,1.3,2.2.5,4.2,1,5.9,1.6,1.8.6,3.3,1.4,4.5,2.3,1.3.9,2.2,2,2.9,3.3.7,1.3,1,2.9,1,4.8s-.4,3.8-1.2,5.3c-.8,1.5-1.9,2.7-3.3,3.7-1.4,1-3,1.7-4.9,2.1-1.9.5-3.9.7-6.1.7-3.3,0-6.4-.5-9.3-1.5s-5.6-2.5-8-4.4l2.6-4.5c.6.7,1.5,1.4,2.5,2,1,.7,2.2,1.3,3.5,1.8,1.3.5,2.7,1,4.2,1.3,1.5.3,3.1.5,4.7.5,3,0,5.4-.5,7-1.6s2.5-2.7,2.5-4.8-.3-2.2-.8-3c-.5-.8-1.3-1.5-2.4-2.1s-2.3-1.1-3.8-1.6c-1.5-.5-3.3-.9-5.2-1.4-2.1-.5-4-1.1-5.7-1.7-1.6-.6-3-1.3-4.1-2.1-1.1-.8-1.9-1.9-2.5-3-.6-1.2-.8-2.6-.8-4.3s.4-3.8,1.1-5.4c.8-1.6,1.8-2.9,3.2-3.9,1.4-1.1,3-1.9,4.8-2.4,1.9-.5,3.9-.8,6.1-.8s5.5.4,7.8,1.3c2.3.9,4.4,2,6.1,3.5l-2.5,4.4Z"/><path class="cls-1" d="M468,83.5h-14.6v37.6h-5.4v-37.6h-14.6v-4.8h34.6v4.8Z"/><path class="cls-1" d="M491.7,116.6c2.5,0,4.5-.5,6.1-1.4,1.6-1,2.9-2.2,3.9-3.7,1-1.5,1.7-3.3,2.1-5.3.4-2,.6-4,.6-6v-21.4h5.4v21.4c0,2.9-.3,5.6-1,8.1-.7,2.6-1.7,4.8-3.1,6.8-1.4,1.9-3.3,3.5-5.6,4.6-2.3,1.1-5.1,1.7-8.3,1.7s-6.2-.6-8.5-1.8-4.2-2.8-5.6-4.7c-1.4-2-2.4-4.2-3-6.8-.6-2.6-.9-5.2-.9-7.9v-21.4h5.4v21.4c0,2.1.2,4.1.6,6.1.4,2,1.1,3.7,2.1,5.2,1,1.5,2.3,2.7,3.9,3.7,1.6.9,3.6,1.4,6.1,1.4Z"/><path class="cls-1" d="M516.5,121.1v-42.4h14.7c3.4,0,6.4.6,8.9,1.7,2.6,1.1,4.7,2.6,6.4,4.5,1.7,1.9,3,4.1,3.8,6.7.9,2.6,1.3,5.3,1.3,8.2s-.5,6.1-1.4,8.7c-1,2.6-2.3,4.8-4.1,6.7-1.8,1.9-3.9,3.3-6.5,4.3-2.5,1-5.3,1.5-8.4,1.5h-14.7ZM546.2,99.9c0-2.4-.3-4.6-1-6.6-.7-2-1.6-3.7-2.9-5.2-1.3-1.4-2.9-2.6-4.7-3.4-1.9-.8-4-1.2-6.4-1.2h-9.3v32.8h9.3c2.4,0,4.6-.4,6.5-1.3,1.9-.8,3.5-2,4.7-3.5,1.3-1.5,2.2-3.2,2.9-5.2.7-2,1-4.2,1-6.5Z"/><path class="cls-1" d="M558.4,121.1v-42.4h5.4v42.4h-5.4Z"/><path class="cls-1" d="M589.8,121.4c-3,0-5.7-.6-8.1-1.8-2.4-1.2-4.5-2.8-6.3-4.8-1.8-2-3.1-4.3-4.1-6.9-1-2.6-1.4-5.2-1.4-7.9s.5-5.5,1.5-8.1c1-2.6,2.4-4.9,4.2-6.9,1.8-2,3.9-3.6,6.4-4.7s5.1-1.8,8-1.8,5.7.6,8.1,1.9c2.4,1.3,4.5,2.9,6.3,4.9,1.7,2,3.1,4.3,4.1,6.9s1.4,5.2,1.4,7.8-.5,5.5-1.5,8.1c-1,2.6-2.4,4.9-4.2,6.8-1.8,2-3.9,3.5-6.3,4.7-2.4,1.2-5.1,1.8-8,1.8ZM575.3,99.9c0,2.1.3,4.2,1,6.2.7,2,1.7,3.8,3,5.3,1.3,1.6,2.8,2.8,4.6,3.7,1.8.9,3.8,1.4,6,1.4s4.3-.5,6.1-1.5c1.8-1,3.3-2.2,4.6-3.8,1.3-1.6,2.2-3.4,2.9-5.3.7-2,1-4,1-6s-.3-4.2-1-6.2c-.7-2-1.7-3.8-3-5.3-1.3-1.5-2.8-2.8-4.6-3.7-1.8-.9-3.7-1.4-5.9-1.4s-4.3.5-6.1,1.4c-1.8,1-3.3,2.2-4.6,3.8-1.3,1.6-2.2,3.3-2.9,5.3-.7,2-1,4-1,6.1Z"/></svg>