<?xml version="1.0" encoding="UTF-8"?>
<svg id="Layer_1" xmlns="http://www.w3.org/2000/svg" version="1.1" viewBox="0 0 419.7 90.8">
  <!-- Generator: Adobe Illustrator 29.4.0, SVG Export Plug-In . SVG Version: 2.1.0 Build 152)  -->
  <path d="M1.3,90V1h38c4.3,0,8.2.9,11.7,2.6,3.6,1.8,6.6,4.1,9.2,6.9,2.6,2.8,4.6,6.1,6,9.7,1.5,3.6,2.2,7.2,2.2,10.9s-.7,7.7-2.1,11.3c-1.3,3.6-3.2,6.8-5.7,9.6s-5.5,5.1-9,6.8-7.4,2.5-11.7,2.5h-18v28.7H1.3ZM21.9,43.4h16.8c2.4,0,4.5-1,6.3-3.1s2.6-5.1,2.6-9.2-.3-3.9-.8-5.4-1.3-2.8-2.2-3.8-2-1.7-3.1-2.2c-1.2-.5-2.4-.7-3.5-.7h-16.1v24.4Z"/>
  <path d="M117.1,90.8c-6.6,0-12.6-1.3-18.1-3.9-5.4-2.6-10.1-6-13.9-10.2s-6.8-9.1-9-14.5c-2.1-5.4-3.2-11-3.2-16.8s1.1-11.5,3.3-16.9c2.2-5.4,5.3-10.2,9.3-14.4,4-4.1,8.7-7.4,14.1-9.9,5.4-2.5,11.4-3.7,17.8-3.7s12.6,1.3,18.1,3.9c5.4,2.6,10.1,6,13.9,10.3,3.8,4.3,6.8,9.1,8.9,14.6,2.1,5.4,3.1,11,3.1,16.6s-1.1,11.5-3.3,16.9-5.3,10.2-9.2,14.4c-3.9,4.1-8.6,7.5-14.1,10-5.4,2.3-11.3,3.6-17.7,3.6ZM93.8,45.6c0,3.4.5,6.8,1.5,10s2.5,6.1,4.5,8.6,4.4,4.5,7.3,6,6.3,2.3,10,2.3,7.4-.8,10.3-2.4c2.9-1.6,5.4-3.7,7.3-6.2,1.9-2.6,3.4-5.4,4.3-8.7,1-3.2,1.4-6.5,1.4-9.8s-.5-6.8-1.5-10-2.5-6.1-4.5-8.5c-2-2.5-4.5-4.4-7.3-5.9-2.9-1.5-6.2-2.2-10-2.2s-7.3.8-10.2,2.3-5.3,3.6-7.3,6.1-3.4,5.4-4.4,8.6c-.9,3.2-1.4,6.5-1.4,9.8Z"/>
  <path d="M236.4,19h-27.1v71h-20.6V19h-27.2V1h74.9v18Z"/>
  <path d="M280.6,90.8c-6.6,0-12.6-1.3-18.1-3.9-5.4-2.6-10.1-6-13.9-10.2-3.8-4.2-6.8-9.1-9-14.5-2.1-5.4-3.2-11-3.2-16.8s1.1-11.5,3.3-16.9,5.3-10.2,9.3-14.4c4-4.1,8.7-7.4,14.1-9.9,5.4-2.5,11.4-3.7,17.8-3.7s12.6,1.3,18.1,3.9c5.4,2.6,10.1,6,13.9,10.3,3.8,4.3,6.8,9.1,8.9,14.6,2.1,5.4,3.1,11,3.1,16.6s-1.1,11.5-3.3,16.9c-2.2,5.4-5.3,10.2-9.2,14.4-3.9,4.1-8.6,7.5-14.1,10-5.4,2.3-11.3,3.6-17.7,3.6ZM257.3,45.6c0,3.4.5,6.8,1.5,10s2.5,6.1,4.5,8.6,4.4,4.5,7.3,6,6.3,2.3,10,2.3,7.4-.8,10.3-2.4,5.4-3.7,7.3-6.2c1.9-2.6,3.4-5.4,4.3-8.7,1-3.2,1.4-6.5,1.4-9.8s-.5-6.8-1.5-10-2.5-6.1-4.5-8.5-4.5-4.4-7.3-5.9c-2.9-1.5-6.2-2.2-10-2.2s-7.3.8-10.2,2.3-5.3,3.6-7.3,6.1-3.4,5.4-4.4,8.6c-.9,3.2-1.4,6.5-1.4,9.8Z"/>
  <path d="M374.5,90.8c-6.6,0-12.6-1.3-18.1-3.9s-10.1-6-13.9-10.2-6.8-9.1-9-14.5c-2.1-5.4-3.2-11-3.2-16.8s1.1-11.5,3.3-16.9c2.2-5.4,5.3-10.2,9.3-14.4,4-4.1,8.7-7.4,14.1-9.9,5.4-2.5,11.4-3.7,17.8-3.7s12.6,1.3,18.1,3.9c5.4,2.6,10.1,6,13.9,10.3,3.8,4.3,6.8,9.1,8.9,14.6,2.1,5.4,3.1,11,3.1,16.6s-1.1,11.5-3.3,16.9c-2.2,5.4-5.3,10.2-9.2,14.4-3.9,4.1-8.6,7.5-14.1,10-5.3,2.3-11.3,3.6-17.7,3.6ZM351.3,45.6c0,3.4.5,6.8,1.5,10s2.5,6.1,4.5,8.6,4.4,4.5,7.3,6,6.3,2.3,10,2.3,7.4-.8,10.3-2.4,5.4-3.7,7.3-6.2c1.9-2.6,3.4-5.4,4.3-8.7,1-3.2,1.4-6.5,1.4-9.8s-.5-6.8-1.5-10-2.5-6.1-4.5-8.5c-2-2.5-4.5-4.4-7.3-5.9-2.9-1.5-6.2-2.2-10-2.2s-7.3.8-10.2,2.3c-2.9,1.5-5.3,3.6-7.3,6.1s-3.4,5.4-4.4,8.6c-.9,3.2-1.4,6.5-1.4,9.8Z"/>
</svg>