<?xml version="1.0" encoding="utf-8"?>
<!-- Generator: Adobe Illustrator 28.1.0, SVG Export Plug-In . SVG Version: 6.00 Build 0)  -->
<svg version="1.1" id="Layer_1" xmlns="http://www.w3.org/2000/svg" xmlns:xlink="http://www.w3.org/1999/xlink" x="0px" y="0px"
	 viewBox="0 0 419.7 90.8" style="enable-background:new 0 0 419.7 90.8;" xml:space="preserve">
<style type="text/css">
	.st0{fill:#FFFFFF;}
</style>
<g>
	<path class="st0" d="M1.3,90V1h38c4.3,0,8.2,0.9,11.7,2.6c3.6,1.8,6.6,4.1,9.2,6.9c2.6,2.8,4.6,6.1,6,9.7c1.5,3.6,2.2,7.2,2.2,10.9
		c0,3.9-0.7,7.7-2.1,11.3C65,46,63.1,49.2,60.6,52c-2.5,2.8-5.5,5.1-9,6.8c-3.5,1.7-7.4,2.5-11.7,2.5H21.9V90H1.3z M21.9,43.4h16.8
		c2.4,0,4.5-1,6.3-3.1c1.8-2.1,2.6-5.1,2.6-9.2c0-2.1-0.3-3.9-0.8-5.4c-0.5-1.5-1.3-2.8-2.2-3.8c-0.9-1-2-1.7-3.1-2.2
		C40.3,19.2,39.1,19,38,19H21.9V43.4z"/>
	<path class="st0" d="M117.1,90.8c-6.6,0-12.6-1.3-18.1-3.9c-5.4-2.6-10.1-6-13.9-10.2c-3.8-4.2-6.8-9.1-9-14.5
		c-2.1-5.4-3.2-11-3.2-16.8c0-5.9,1.1-11.5,3.3-16.9c2.2-5.4,5.3-10.2,9.3-14.4c4-4.1,8.7-7.4,14.1-9.9c5.4-2.5,11.4-3.7,17.8-3.7
		c6.6,0,12.6,1.3,18.1,3.9c5.4,2.6,10.1,6,13.9,10.3c3.8,4.3,6.8,9.1,8.9,14.6c2.1,5.4,3.1,11,3.1,16.6c0,5.9-1.1,11.5-3.3,16.9
		c-2.2,5.4-5.3,10.2-9.2,14.4c-3.9,4.1-8.6,7.5-14.1,10C129.4,89.5,123.5,90.8,117.1,90.8z M93.8,45.6c0,3.4,0.5,6.8,1.5,10
		c1,3.2,2.5,6.1,4.5,8.6c2,2.5,4.4,4.5,7.3,6c2.9,1.5,6.3,2.3,10,2.3c3.9,0,7.4-0.8,10.3-2.4c2.9-1.6,5.4-3.7,7.3-6.2
		c1.9-2.6,3.4-5.4,4.3-8.7c1-3.2,1.4-6.5,1.4-9.8c0-3.4-0.5-6.8-1.5-10c-1-3.2-2.5-6.1-4.5-8.5c-2-2.5-4.5-4.4-7.3-5.9
		c-2.9-1.5-6.2-2.2-10-2.2c-3.9,0-7.3,0.8-10.2,2.3s-5.3,3.6-7.3,6.1c-2,2.5-3.4,5.4-4.4,8.6C94.3,39,93.8,42.3,93.8,45.6z"/>
	<path class="st0" d="M236.4,19h-27.1v71h-20.6V19h-27.2V1h74.9V19z"/>
	<path class="st0" d="M280.6,90.8c-6.6,0-12.6-1.3-18.1-3.9c-5.4-2.6-10.1-6-13.9-10.2c-3.8-4.2-6.8-9.1-9-14.5
		c-2.1-5.4-3.2-11-3.2-16.8c0-5.9,1.1-11.5,3.3-16.9c2.2-5.4,5.3-10.2,9.3-14.4c4-4.1,8.7-7.4,14.1-9.9c5.4-2.5,11.4-3.7,17.8-3.7
		c6.6,0,12.6,1.3,18.1,3.9c5.4,2.6,10.1,6,13.9,10.3c3.8,4.3,6.8,9.1,8.9,14.6c2.1,5.4,3.1,11,3.1,16.6c0,5.9-1.1,11.5-3.3,16.9
		c-2.2,5.4-5.3,10.2-9.2,14.4c-3.9,4.1-8.6,7.5-14.1,10C292.9,89.5,287,90.8,280.6,90.8z M257.3,45.6c0,3.4,0.5,6.8,1.5,10
		c1,3.2,2.5,6.1,4.5,8.6c2,2.5,4.4,4.5,7.3,6c2.9,1.5,6.3,2.3,10,2.3c3.9,0,7.4-0.8,10.3-2.4c2.9-1.6,5.4-3.7,7.3-6.2
		c1.9-2.6,3.4-5.4,4.3-8.7c1-3.2,1.4-6.5,1.4-9.8c0-3.4-0.5-6.8-1.5-10c-1-3.2-2.5-6.1-4.5-8.5s-4.5-4.4-7.3-5.9
		c-2.9-1.5-6.2-2.2-10-2.2c-3.9,0-7.3,0.8-10.2,2.3s-5.3,3.6-7.3,6.1c-2,2.5-3.4,5.4-4.4,8.6C257.8,39,257.3,42.3,257.3,45.6z"/>
	<path class="st0" d="M374.5,90.8c-6.6,0-12.6-1.3-18.1-3.9s-10.1-6-13.9-10.2c-3.8-4.2-6.8-9.1-9-14.5c-2.1-5.4-3.2-11-3.2-16.8
		c0-5.9,1.1-11.5,3.3-16.9c2.2-5.4,5.3-10.2,9.3-14.4c4-4.1,8.7-7.4,14.1-9.9c5.4-2.5,11.4-3.7,17.8-3.7c6.6,0,12.6,1.3,18.1,3.9
		c5.4,2.6,10.1,6,13.9,10.3c3.8,4.3,6.8,9.1,8.9,14.6c2.1,5.4,3.1,11,3.1,16.6c0,5.9-1.1,11.5-3.3,16.9c-2.2,5.4-5.3,10.2-9.2,14.4
		c-3.9,4.1-8.6,7.5-14.1,10C386.9,89.5,380.9,90.8,374.5,90.8z M351.3,45.6c0,3.4,0.5,6.8,1.5,10c1,3.2,2.5,6.1,4.5,8.6
		c2,2.5,4.4,4.5,7.3,6c2.9,1.5,6.3,2.3,10,2.3c3.9,0,7.4-0.8,10.3-2.4c2.9-1.6,5.4-3.7,7.3-6.2c1.9-2.6,3.4-5.4,4.3-8.7
		c1-3.2,1.4-6.5,1.4-9.8c0-3.4-0.5-6.8-1.5-10c-1-3.2-2.5-6.1-4.5-8.5c-2-2.5-4.5-4.4-7.3-5.9c-2.9-1.5-6.2-2.2-10-2.2
		c-3.9,0-7.3,0.8-10.2,2.3c-2.9,1.5-5.3,3.6-7.3,6.1c-2,2.5-3.4,5.4-4.4,8.6C351.8,39,351.3,42.3,351.3,45.6z"/>
</g>
</svg>
