<svg xmlns="http://www.w3.org/2000/svg" width="137.365" height="13.846" viewBox="0 0 137.365 13.846">
  <g id="Group_6" data-name="Group 6" transform="translate(-17.729 -52.61)">
    <path id="Path_542" data-name="Path 542" d="M17.729,66.28V52.664H23.6a4.148,4.148,0,0,1,1.841.413,4.772,4.772,0,0,1,1.447,1.073,4.97,4.97,0,0,1,.949,1.516,4.542,4.542,0,0,1,.347,1.717,5,5,0,0,1-1.238,3.268,4.323,4.323,0,0,1-1.42,1.055,4.241,4.241,0,0,1-1.831.393H21.468v4.18Zm3.739-7.44h1.976a.878.878,0,0,0,.643-.317,1.673,1.673,0,0,0,.3-1.14,1.506,1.506,0,0,0-.345-1.151,1.045,1.045,0,0,0-.691-.308h-1.88Z" transform="translate(0 0.042)" fill="#fff"/>
    <path id="Path_543" data-name="Path 543" d="M31.156,66.428a6.546,6.546,0,0,1-2.819-.595,6.921,6.921,0,0,1-2.167-1.562,7.086,7.086,0,0,1-1.4-2.215,6.854,6.854,0,0,1-.5-2.571,6.689,6.689,0,0,1,.517-2.589,6.851,6.851,0,0,1,1.448-2.2,7.039,7.039,0,0,1,2.2-1.516,6.814,6.814,0,0,1,2.792-.565,6.577,6.577,0,0,1,2.819.593,6.912,6.912,0,0,1,2.167,1.574,7.061,7.061,0,0,1,1.39,2.224,6.941,6.941,0,0,1,.489,2.551,6.619,6.619,0,0,1-.517,2.58,6.978,6.978,0,0,1-3.635,3.709,6.692,6.692,0,0,1-2.79.575m-3.088-6.9a4.591,4.591,0,0,0,.193,1.333A3.46,3.46,0,0,0,28.837,62a2.87,2.87,0,0,0,.969.806,3.288,3.288,0,0,0,2.79-.009,2.857,2.857,0,0,0,.969-.825,3.592,3.592,0,0,0,.556-1.16,4.947,4.947,0,0,0,.182-1.324,4.651,4.651,0,0,0-.193-1.333,3.3,3.3,0,0,0-.584-1.131,2.948,2.948,0,0,0-.979-.786,3.006,3.006,0,0,0-1.37-.3,2.944,2.944,0,0,0-1.39.308,2.834,2.834,0,0,0-.969.814,3.461,3.461,0,0,0-.567,1.151,4.764,4.764,0,0,0-.182,1.314" transform="translate(5.042 0.008)" fill="#fff"/>
    <path id="Path_544" data-name="Path 544" d="M44.109,55.924H40.2V66.28h-3.74V55.924H32.525v-3.26H44.109Z" transform="translate(11.402 0.042)" fill="#fff"/>
    <path id="Path_545" data-name="Path 545" d="M46.4,66.428a6.546,6.546,0,0,1-2.819-.595,6.921,6.921,0,0,1-2.167-1.562,7.118,7.118,0,0,1-1.4-2.215,6.889,6.889,0,0,1-.5-2.571,6.688,6.688,0,0,1,.517-2.589,6.88,6.88,0,0,1,1.448-2.2,7.026,7.026,0,0,1,2.206-1.516,6.8,6.8,0,0,1,2.79-.565,6.571,6.571,0,0,1,2.819.593,6.912,6.912,0,0,1,2.167,1.574,7.061,7.061,0,0,1,1.39,2.224,6.941,6.941,0,0,1,.489,2.551,6.619,6.619,0,0,1-.517,2.58,6.978,6.978,0,0,1-3.635,3.709,6.692,6.692,0,0,1-2.79.575m-3.088-6.9a4.591,4.591,0,0,0,.193,1.333A3.461,3.461,0,0,0,44.077,62a2.87,2.87,0,0,0,.969.806,3.288,3.288,0,0,0,2.79-.009,2.857,2.857,0,0,0,.968-.825,3.592,3.592,0,0,0,.556-1.16,4.948,4.948,0,0,0,.182-1.324,4.651,4.651,0,0,0-.193-1.333,3.3,3.3,0,0,0-.584-1.131,2.959,2.959,0,0,0-.977-.786,3.019,3.019,0,0,0-1.372-.3,2.944,2.944,0,0,0-1.39.308,2.834,2.834,0,0,0-.969.814,3.461,3.461,0,0,0-.567,1.151,4.832,4.832,0,0,0-.182,1.314" transform="translate(16.785 0.008)" fill="#fff"/>
    <path id="Path_546" data-name="Path 546" d="M54.9,66.428a6.546,6.546,0,0,1-2.819-.595,6.921,6.921,0,0,1-2.167-1.562,7.086,7.086,0,0,1-1.4-2.215,6.854,6.854,0,0,1-.5-2.571,6.688,6.688,0,0,1,.517-2.589,6.851,6.851,0,0,1,1.448-2.2,7.039,7.039,0,0,1,2.2-1.516,6.812,6.812,0,0,1,2.79-.565,6.579,6.579,0,0,1,2.821.593,6.912,6.912,0,0,1,2.167,1.574,7.061,7.061,0,0,1,1.39,2.224,6.941,6.941,0,0,1,.489,2.551,6.62,6.62,0,0,1-.517,2.58,6.978,6.978,0,0,1-3.635,3.709,6.692,6.692,0,0,1-2.79.575m-3.088-6.9A4.591,4.591,0,0,0,52,60.858,3.491,3.491,0,0,0,52.578,62a2.894,2.894,0,0,0,.97.806,3.288,3.288,0,0,0,2.79-.009,2.857,2.857,0,0,0,.969-.825,3.592,3.592,0,0,0,.556-1.16,4.947,4.947,0,0,0,.182-1.324,4.652,4.652,0,0,0-.193-1.333,3.3,3.3,0,0,0-.584-1.131,2.948,2.948,0,0,0-.979-.786,3.006,3.006,0,0,0-1.37-.3,2.944,2.944,0,0,0-1.39.308,2.834,2.834,0,0,0-.969.814,3.461,3.461,0,0,0-.567,1.151,4.764,4.764,0,0,0-.182,1.314" transform="translate(23.338 0.008)" fill="#fff"/>
    <path id="Path_547" data-name="Path 547" d="M66.739,55.909a2.955,2.955,0,0,0-.556-.451,5.53,5.53,0,0,0-.853-.45,6.049,6.049,0,0,0-1.073-.345,5.305,5.305,0,0,0-1.2-.135,3.262,3.262,0,0,0-2,.5,1.646,1.646,0,0,0-.643,1.379,1.5,1.5,0,0,0,.2.816,1.711,1.711,0,0,0,.623.556,4.821,4.821,0,0,0,1.053.421q.635.183,1.477.393a17.276,17.276,0,0,1,1.871.556,5.364,5.364,0,0,1,1.409.749,3.047,3.047,0,0,1,.891,1.084,3.491,3.491,0,0,1,.317,1.563,3.786,3.786,0,0,1-.393,1.783,3.35,3.35,0,0,1-1.075,1.218,4.731,4.731,0,0,1-1.581.691,8.144,8.144,0,0,1-1.937.22,9.654,9.654,0,0,1-3-.469,8.585,8.585,0,0,1-2.619-1.372l.979-1.84a4.63,4.63,0,0,0,.719.556,6.68,6.68,0,0,0,1.092.565,9.324,9.324,0,0,0,1.353.441,6.18,6.18,0,0,0,1.516.182,3.632,3.632,0,0,0,1.955-.441,1.449,1.449,0,0,0,.691-1.3,1.391,1.391,0,0,0-.259-.864,2.211,2.211,0,0,0-.738-.6,6.35,6.35,0,0,0-1.17-.469q-.691-.212-1.572-.443a16.177,16.177,0,0,1-1.774-.565,4.418,4.418,0,0,1-1.255-.719,2.812,2.812,0,0,1-.758-.988,3.267,3.267,0,0,1-.259-1.372,3.971,3.971,0,0,1,.382-1.774,3.8,3.8,0,0,1,1.046-1.3,4.584,4.584,0,0,1,1.562-.8,6.841,6.841,0,0,1,1.956-.267,7.184,7.184,0,0,1,2.551.441,8.476,8.476,0,0,1,2.052,1.092Z" transform="translate(30.761 0)" fill="#fff"/>
    <path id="Path_548" data-name="Path 548" d="M74.953,54.562H70.427V66.28H68.26V54.562H63.715v-1.9H74.953Z" transform="translate(35.436 0.042)" fill="#fff"/>
    <path id="Path_549" data-name="Path 549" d="M76.472,64.44a3.445,3.445,0,0,0,1.785-.423,3.351,3.351,0,0,0,1.14-1.1,4.63,4.63,0,0,0,.614-1.553,8.817,8.817,0,0,0,.182-1.794v-6.9h2.167v6.9a10.375,10.375,0,0,1-.326,2.638A6.122,6.122,0,0,1,81,64.373a4.951,4.951,0,0,1-1.833,1.466,6.2,6.2,0,0,1-2.695.538,6.061,6.061,0,0,1-2.751-.567,4.942,4.942,0,0,1-1.813-1.516,6.231,6.231,0,0,1-1-2.176,10.521,10.521,0,0,1-.306-2.551v-6.9h2.148v6.9a8.807,8.807,0,0,0,.182,1.813,4.627,4.627,0,0,0,.613,1.553A3.28,3.28,0,0,0,74.7,64.028a3.525,3.525,0,0,0,1.774.413" transform="translate(40.744 0.042)" fill="#fff"/>
    <path id="Path_550" data-name="Path 550" d="M78.478,66.28V52.664h4.834A7.2,7.2,0,0,1,86.2,53.2a5.95,5.95,0,0,1,2.072,1.457,6.093,6.093,0,0,1,1.255,2.158,8.107,8.107,0,0,1,.423,2.636,7.968,7.968,0,0,1-.471,2.81,6.136,6.136,0,0,1-1.331,2.148,5.909,5.909,0,0,1-2.091,1.381,7.36,7.36,0,0,1-2.743.489Zm9.283-6.827a6.264,6.264,0,0,0-.3-1.974,4.285,4.285,0,0,0-.873-1.544,4.038,4.038,0,0,0-1.4-1.007,4.621,4.621,0,0,0-1.88-.365H80.626v9.82h2.686a4.618,4.618,0,0,0,1.909-.374,3.93,3.93,0,0,0,1.4-1.036,4.474,4.474,0,0,0,.855-1.563,6.419,6.419,0,0,0,.287-1.956" transform="translate(46.812 0.042)" fill="#fff"/>
    <rect id="Rectangle_3" data-name="Rectangle 3" width="2.148" height="13.617" transform="translate(138.351 52.705)" fill="#fff"/>
    <path id="Path_551" data-name="Path 551" d="M94.455,66.419a5.953,5.953,0,0,1-2.656-.586,6.632,6.632,0,0,1-2.061-1.553A7.033,7.033,0,0,1,88.4,62.065a7.176,7.176,0,0,1-.471-2.551,6.958,6.958,0,0,1,.5-2.608A7.268,7.268,0,0,1,89.805,54.7a6.539,6.539,0,0,1,2.07-1.524,6.059,6.059,0,0,1,2.619-.565,5.8,5.8,0,0,1,2.656.6A6.655,6.655,0,0,1,99.2,54.8a7.3,7.3,0,0,1,1.324,2.215,7.107,7.107,0,0,1-.019,5.129,6.9,6.9,0,0,1-1.372,2.2,6.722,6.722,0,0,1-2.08,1.516,6.019,6.019,0,0,1-2.6.567m-4.334-6.905a5.721,5.721,0,0,0,.308,1.861,5.043,5.043,0,0,0,.871,1.592,4.291,4.291,0,0,0,1.372,1.1,3.9,3.9,0,0,0,1.8.411,3.784,3.784,0,0,0,1.831-.43,4.293,4.293,0,0,0,1.353-1.142,5.165,5.165,0,0,0,.845-1.592,5.834,5.834,0,0,0-.019-3.672,4.964,4.964,0,0,0-.873-1.572,4.4,4.4,0,0,0-1.362-1.094,3.808,3.808,0,0,0-1.774-.413A3.847,3.847,0,0,0,92.633,55a4.419,4.419,0,0,0-1.362,1.123,5.052,5.052,0,0,0-.853,1.583,5.677,5.677,0,0,0-.3,1.811" transform="translate(54.098 0)" fill="#fff"/>
  </g>
</svg>
