<svg xmlns="http://www.w3.org/2000/svg" width="731.102" height="566.007" viewBox="0 0 731.102 566.007">
  <g id="Group_1" data-name="Group 1" transform="translate(-30.399 -23.804)">
    <path id="Path_542" data-name="Path 542" d="M407.12,65.742c8.636,19.509,18.124,38.488,22.891,59.2l-2.2,1.573-11.136-9.31c.421,7.16.8,13.333,1.141,19.508,2.2,39.686,5.024,79.352,6.316,119.068.7,21.657-3.99,42.565-18.684,61.186,8.263,1.441,15.767,3.167,23.369,4q43.271,4.763,86.6,8.942c5.121.488,6.364,2.346,4.908,6.864-.525,1.632-.921,3.306-1.487,4.922-4.777,13.626-6.159,13.022-20.4,15.284a332.293,332.293,0,0,0-54.93,13.184c-24.886,8.481-49.093,18.993-73.414,29.062-5.738,2.375-10.857,6.321-16.106,9.777-4.936,3.25-2.156,7.184-.819,11.145,1.449,4.3,4.469,3.271,7.458,2.837,7.729-1.122,15.426-2.67,23.2-3.273,7.224-.561,13.1,2.907,16.883,8.982,8.709,13.978,9.952,28.687,2.626,43.591-5.084,10.344-14.845,13.326-26.327,8.683-9.315-3.768-15.357-11.139-20.775-19.124-2.131-3.138-3.961-6.48-6.032-9.9-7.043,3.553-13.772,7.659-21.013,10.413-8.506,3.235-17.309,6.29-26.252,7.642-14.813,2.24-25.029-6.754-26.521-21.723-.22-2.2-.738-4.368-1.412-8.245-3.923,4.218-7.048,7.164-9.69,10.493-7.615,9.591-16.568,17.363-27.917,22.306-27.878,12.142-49.139,1.268-55.088-28.414-1.973-9.847-3.631-19.759-5.253-28.651-20.491,43.091-55.379,69.421-100.405,83.357-7.268,2.249-15.507,2.085-23.262,1.851-8.947-.269-14.478-6.286-18.053-13.988a52,52,0,0,1-3.876-32.512c3.029-15.079,7.277-29.911,10.966-44.859.3-1.225.887-2.856.375-3.731-6.492-11.081-4.235-22.559-1.65-34,2.987-13.22,7.6-25.81,16.011-36.89-2.5,9.2-5.563,18.3-7.336,27.638a119.636,119.636,0,0,0-1.639,23.093c.016,2.165,2.875,5.934,4.65,6.069,2.473.188,5.556-1.917,7.631-3.845,2.119-1.971,3.333-4.915,5.163-7.775,3.607,11.193-5.754,27.19-16.215,29.064a5.438,5.438,0,0,0-3.633,3.3c-2.644,12.876-5.749,25.727-7.219,38.756-1.91,16.943,8.046,25.426,24.942,23.953,29.893-2.606,53.656-17.86,75.814-36.146,9.078-7.492,16.789-16.658,24.98-25.2,7.883-8.218,6.456-18.046,4.827-28.076-4.569-28.127-14.3-54.605-26.736-79.967-6.186-12.614-1.549-23.568.394-35.224l1.594-.865c1.759,1.947,3.794,3.711,5.237,5.869,14.735,22.048,23.852,46.448,29.09,72.264,5.386,26.543,9.862,53.27,15.172,79.829,3.209,16.05,11.49,23.644,24.712,22.756,13.34-.894,26.011-4.534,36.568-13.272,5.439-4.5,10.45-9.523,15.647-14.317a97.032,97.032,0,0,1,7.624-6.94c1.672-1.24,3.947-1.67,5.952-2.464a54.609,54.609,0,0,1,.91,6.423c.062,2.074-.672,4.19-.5,6.24,1.093,13.019,10.925,20.543,24.25,17.074,10.429-2.714,20.435-7.227,30.355-11.569,1.825-.8,3.441-4.674,3.279-7-1.327-19.082,6.237-33.72,21.338-44.9,16.434-12.168,35.671-18,54.7-24.312,6.373-2.116,12.729-4.286,19.092-6.432l-.279-1.473-96.09-13.12c-2.382-9.78,2.44-18.894,11.512-21.874,15.946-5.237,31.925-10.381,47.863-15.644,8.81-2.91,11.193-5.8,10.756-15.1-1.578-33.59-3.266-67.177-5.275-100.744-1.587-26.519-3.7-53.006-5.6-79.5-.109-1.522,0-3.2-.619-4.52C394.47,85.153,401.6,75.9,407.12,65.742Zm-38.182,379.81c5.317,7.2,11.366,10.135,18.56,11.4,3.423.6,7.341,1.084,8-2.735.355-2.057-2.509-5.63-4.821-7C384.3,443.432,377.217,444.828,368.938,445.552Z" transform="translate(0 6.257)" fill="#fff"/>
    <path id="Path_543" data-name="Path 543" d="M676.225,293.525c-6.281,12.208-11.547,24.456-25.316,31.645-27.66,14.443-53.614,31.784-76.565,53.131-8.091,7.525-15.269,16.036-22.8,24.158a41.7,41.7,0,0,0-3.275,4.9q13.358,2.6,24.162-2.378a104.212,104.212,0,0,0,20.75-12.889c7.03-5.54,13.056-12.337,19.742-18.337,1.31-1.176,3.642-1.212,5.5-1.774a26.346,26.346,0,0,1,1.241,5.263c.116,3.6-.78,7.328-.122,10.79,1.781,9.376,9.087,13.978,22.518,14.437,8.217.28,16.452-.016,24.674.151,10.359.211,20.06,2.706,28.371,9.23,10.948,8.595,14.948,19.834,16.062,33.8,4.419,55.322-45.555,101.06-84.414,110.039-17.9,4.137-36.018,5.267-54.016,1.381-29.263-6.316-45.527-25.481-51.291-54.219-4.937-24.612-2.97-49.014,2.521-73.3.558-2.473,1.13-5.7.044-7.664-7.038-12.731-8.09-26.92-10.639-40.755-.516-2.805-1.007-5.616-1.54-8.594-.575.33-1.366.521-1.442.866-4.107,18.808-16.81,31.89-30.2,44.2-19.312,17.746-40.76,32.334-66.5,39.138a85.334,85.334,0,0,1-22.62,2.773c-13.074-.164-23.145-11.073-24.6-25.613-2.243-22.332,2.08-43.7,10.051-64.449.961-2.5,2.764-4.675,4.176-7l1.594.687c-1.623,6.866-3.623,13.67-4.78,20.613-1.744,10.482-3.9,21.049-4.036,31.6-.146,11.615,7.547,18.139,19.151,18.146,18.462.009,35.185-6.1,51.046-15.042,19.163-10.8,35.66-24.763,50.728-40.79,9.657-10.272,11.672-21.227,9.388-34.677-4.913-28.921-16.069-55.571-27.824-82.084-5.085-11.472-1.5-22.038,2.687-33.7,10.963,12.6,17.67,26.206,23.255,40.445,9.391,23.937,13.909,49.079,18.4,74.239q4.221,23.635,9.108,47.148c.823,3.927,3.021,7.565,5.221,12.863a151.043,151.043,0,0,1,38.024-47.216c-3.635-1.721-5.883-2.909-8.221-3.875-20.194-8.339-34.6-22.733-41.733-43.188-11.406-32.72,9.78-57.266,38.435-63.236,25.074-5.224,47.091,2.829,66.58,18.694a5.84,5.84,0,0,1,1.454,1.727,9.278,9.278,0,0,1,.252,2.554c-2.219-.47-4.156-.712-5.984-1.293-29.781-9.445-58-4.7-85.295,9.157-4.41,2.239-5.4,5.221-4.066,9.752,8.248,28.074,42.587,54.9,76.794,40.762,16.3-6.737,31.271-16.717,46.831-25.251,4.019-2.2,7.934-4.607,12.016-6.685a32.029,32.029,0,0,1,5.657-1.708ZM534.254,431.6c-.953,2.459-1.911,4.524-2.566,6.683-4.037,13.308-3.345,27-1.56,40.371,2.608,19.526,11,36.178,29.315,45.9a77.812,77.812,0,0,0,33.508,8.837c33.176,1.38,61.846-9.834,86.219-32.053,9.314-8.491,18.216-17.529,22.594-29.845,4.837-13.606,1.231-26.73-11.062-33.944-6.67-3.914-14.791-6.164-22.526-7.259-11.3-1.6-22.881-1.1-34.274-2.2-13.766-1.332-20.314-7.856-22.937-21.437-.482-2.488-1.159-4.939-2.178-9.218-4.413,5.015-7.686,8.637-10.853,12.35C581.208,429.384,561.558,440.576,534.254,431.6Z" transform="translate(50.052 30.348)" fill="#fff"/>
    <path id="Path_544" data-name="Path 544" d="M413.393,309.331c0-5.636.028-11.271-.006-16.906-.089-15.041.357-30.11-.432-45.114-1.337-25.366-3.54-50.685-5.232-76.034-2.113-31.635-3.969-63.289-6.176-94.918a251.753,251.753,0,0,0-3.258-26.49c-1.778-10.007,4.422-17.3,8.012-26.065,8.312,19.641,19.031,38.1,22.168,59.363L427.063,84.4l-10.221-8.458c0,4.732-.249,8.795.039,12.819,2.878,40.192,5.945,80.371,8.747,120.568,1.527,21.9,3.746,43.825.255,65.756C423.961,287.169,420.706,298.809,413.393,309.331Z" transform="translate(54.842 0)" fill="#fff"/>
    <path id="Path_545" data-name="Path 545" d="M268.755,125.359,261,119.473c-1.97,5.025-3.995,9.206-5.244,13.607-1.869,6.577-3.382,13.274-4.6,20-.273,1.514.865,3.867,2.117,4.961,3.579,3.127,8.067,5.345,11.178,8.829,1.948,2.18,3.458,6.5,2.591,8.95-.861,2.429-4.731,4.3-7.664,5.377-5.113,1.867-10.635,2.608-15.772,4.423-5.227,1.848-6.46,5.564-4.451,10.99a254.715,254.715,0,0,1,8.8,27.085c3.609,14.6.713,34.341-5.716,43.914-.2-.6-.581-1.116-.46-1.451,6.673-18.46,2.667-36.024-4.374-53.357-1.073-2.643-1.952-5.366-2.936-8.047-5.131-13.982-.522-25,13.147-31.491A17.3,17.3,0,0,0,249.9,171.7c-2.739-2.806-2.739-2.806-12.688.284-1.256-5.317,2.3-8.709,5.2-11.811,3.384-3.613,3.877-7.05,2.108-11.382-1.509-3.691-2.655-7.531-4.059-11.268-1.491-3.969-3.682-6.282-8.612-6.865-2.986-.354-7.738-4.33-7.755-6.708-.023-3.253,3.078-7.5,6.064-9.412,1.608-1.026,6.814,1.11,8.552,3.29,3.24,4.061,5.228,9.151,7.543,13.906a61.234,61.234,0,0,1,2.4,6.773c2.6-7.87,4.623-15.569,7.705-22.816,2.876-6.762,6.669-8.181,10.871-5.507C272.337,113.43,273.126,119.589,268.755,125.359Z" transform="translate(28.899 12.698)" fill="#fff"/>
    <path id="Path_546" data-name="Path 546" d="M214.485,285.167c-.588-9.711,2.208-14.25,10.917-17.682q34.876-13.74,69.888-27.137c19.062-7.305,38.2-14.413,57.311-21.592,1.534-.577,3.115-1.029,5.441-1.788-2.142,7.658-4.639,13.288-12.4,16.251-35.117,13.407-70.045,27.311-105,41.144-6.383,2.525-12.546,5.6-18.856,8.314C219.594,283.619,217.261,284.232,214.485,285.167Z" transform="translate(27.454 28.82)" fill="#fff"/>
    <path id="Path_547" data-name="Path 547" d="M492.648,230.985c-.429-9.46,1.418-12.958,9.3-16.043q57.761-22.6,115.621-44.957c5.775-2.243,11.546-4.5,18.079-7.041-1.188,7.8-3.889,13.265-10.7,15.9C604.508,186.755,584,194.5,563.646,202.6c-21.771,8.668-43.4,17.69-65.11,26.518C496.682,229.873,494.71,230.339,492.648,230.985Z" transform="translate(68.958 20.759)" fill="#fff"/>
    <path id="Path_548" data-name="Path 548" d="M233.76,447.416c3.849-5.917,7.378-11.091,10.629-16.434,2.065-3.395,4.244-4.446,7.9-2.166,6.581,4.106,13.333,7.939,20.553,12.206-5.175,8.06-9.865,15.364-14.838,23.112l-25.185-14.789c-3.708,5.963-7.2,11.4-10.5,16.945-1.807,3.038-3.99,3.966-7.066,2.024-5.639-3.558-11.191-7.259-16.9-10.7-3.946-2.381-3.682-5.057-1.382-8.423,3.117-4.562,6.137-9.2,9-13.922,2.083-3.434,4.306-3.583,7.482-1.376C219.99,438.431,226.692,442.729,233.76,447.416Z" transform="translate(24.603 60.246)" fill="#fff"/>
    <path id="Path_549" data-name="Path 549" d="M91.244,245.658c1.438-.994,2.841-2.042,4.318-2.973,17.3-10.9,34.631-21.736,51.9-32.671a57.558,57.558,0,0,0,21.114-23.633c2.842-5.754,5.284-6.407,10.889-3.07,7.409,4.413,10.594,11.761,13.24,19.428,1.079,3.129,1.969,6.324,4.045,9.453,1.73-7.087,3.022-14.32,5.335-21.211A47.141,47.141,0,0,1,209.344,177c3.456-4.4,7.658-3.657,11.623.83,3.868,4.38,4.539,12.168.879,14.481-.941.6-3.825-.491-4.847-1.655-4.834-5.5-7.019-5.66-9.288,1.237-3.322,10.1-5.406,20.605-8.2,30.889-1.04,3.829-2.589,7.52-3.906,11.274l-1.8-.307q-.579-1.693-1.157-3.387c-2.514-7.371-4.842-14.813-7.613-22.085-1.678-4.4-3.36-9.2-10.191-6.7-1.354.5-3.958-1.7-5.666-3.06-2.336-1.858-4.358-1.816-5.645.762-12.825,25.687-36.805,35.9-61.8,44.737-3.228,1.141-6.5,2.171-9.746,3.252Z" transform="translate(9.078 22.417)" fill="#fff"/>
    <path id="Path_550" data-name="Path 550" d="M442.12,137.624l54.557-35.393c-3.676-3.129-5.941-5.1-8.252-7.011-2.981-2.471-3.86-5.391-2.656-9.181,2.156-6.786,6.247-11.825,12.87-14.437,5.293-2.087,8.619.036,9.167,5.713a21.8,21.8,0,0,1-.431,7.948c-1.312,4.55-1.187,8.319,1.971,12.307,1.245,1.572.78,4.989.255,7.381-1.627,7.4-3.723,14.688-5.476,22.059a7.958,7.958,0,0,0,.194,4.527c.722,1.8,1.8,3.949,3.337,4.736.891.455,3.1-1.332,4.522-2.38.981-.726,1.62-1.915,2.99-2.634.365,5.425-.988,10.392-4.675,14.288a6.192,6.192,0,0,1-10.51-3.623,61.386,61.386,0,0,1,.336-16.324c.707-5.05,2.864-9.883,3.8-14.92.348-1.872-.96-4.052-1.512-6.092-1.72.792-3.906,1.155-5.09,2.441C483.5,122.263,466.2,131.788,446.326,136.94,445.471,137.162,444.576,137.231,442.12,137.624Zm61.436-50.9c-2.505-2.45-4.295-4.642-6.567-6.056-.463-.288-2.744,2.341-4.187,3.626,2.288,2.02,4.523,4.111,6.963,5.928C499.953,90.358,501.577,88.57,503.556,86.722Z" transform="translate(61.428 7.014)" fill="#fff"/>
    <path id="Path_551" data-name="Path 551" d="M270.167,357.465q-3.884-10.008-7.772-20.014c-1.3-3.338-3.595-4.521-7.3-5.175-3.249-.573-7.937-3.168-8.549-5.7-.641-2.652,2.089-7.2,4.669-9.279,3.309-2.663,7.574-.981,10.124,2.278a71.5,71.5,0,0,1,6.794,11.12c1.376,2.637,2.146,5.591,3.684,9.753,1.726-6.031,2.713-10.92,4.551-15.464a44.921,44.921,0,0,1,6.254-10.7c2.4-3.06,6.471-3.9,9.007-.865a17.117,17.117,0,0,1,3.636,10.031c.044,2.719-2.93,3.327-5.746,1.788-5.734-3.132-6.6-2.926-8.774,3.5-1.885,5.568-2.845,11.441-4.549,17.079-1.235,4.09-3.016,8.016-4.553,12.014Z" transform="translate(32.234 42.927)" fill="#fff"/>
    <path id="Path_552" data-name="Path 552" d="M625.476,260.648c2.128-6.858,3.6-12.355,5.575-17.663a30.088,30.088,0,0,1,4.549-7.82c2.159-2.767,5.1-4.189,8.535-1.981s5.8,5.194,4.771,9.521c-.78,3.279-2.725,5.483-6.046,2.428-4.2-3.867-6.532-1.759-7.9,2.374-2.615,7.934-4.809,16.007-7.379,23.957-.634,1.964-2.038,3.68-3.669,6.525-2.5-6.569-4.39-11.855-6.514-17.047-1.995-4.875-4.2-9.128-11.013-8.674-2.17.144-6.2-3.1-6.479-5.183-.371-2.807,1.394-6.664,3.526-8.774,1.5-1.482,6.093-2.035,7.625-.845a43.612,43.612,0,0,1,9.576,10.85C622.72,251.558,623.563,255.594,625.476,260.648Z" transform="translate(84.962 31.077)" fill="#fff"/>
    <path id="Path_553" data-name="Path 553" d="M107.831,340.05c2.852-8.039,4.84-15.259,8.042-21.893,1.328-2.753,5.171-5.726,8.015-5.876,2.379-.124,5.887,3.271,7.173,5.938,1.063,2.2-.391,5.622-.732,8.524-1.94-.308-2.391-.249-2.666-.442-7.2-5.061-8.305-4.893-11.225,3.694-2.141,6.293-3.271,12.924-5.17,19.309-.811,2.727-2.435,5.213-3.69,7.809l-1.554-.234c-.573-1.684-1.1-3.387-1.731-5.047-1.9-4.969-3.4-10.177-5.982-14.767-1.228-2.178-4.43-4.058-7-4.481-4.355-.717-8.759-2.061-8.913-6.379-.111-3.105,2.583-7.921,5.262-9.053,2.564-1.084,7.818.582,9.933,2.858,3.508,3.776,5.535,8.965,8,13.654A48.549,48.549,0,0,1,107.831,340.05Z" transform="translate(7.758 43.039)" fill="#fff"/>
    <path id="Path_554" data-name="Path 554" d="M317.917,200.607c-2.98-7.547-5.485-14.026-8.1-20.46-1.493-3.672-3.8-5.439-8.313-5.366-2.529.041-6.462-2.482-7.288-4.751-.84-2.308.642-6.336,2.459-8.451,1.4-1.63,5.241-2.531,7.361-1.83a14.549,14.549,0,0,1,7.258,5.828c3.14,5.132,5.4,10.8,8.295,16.821,1.179-4.295,2.037-8.431,3.473-12.356,1.419-3.882,2.93-7.9,5.279-11.237,4.088-5.809,6.57-5.99,11.06-2,4.763,4.228,4.792,7.467.109,12.34-8.634-4.612-10.2-3.864-12.873,6.333-1.588,6.061-2.89,12.2-4.689,18.2C321.267,195.93,319.548,197.873,317.917,200.607Z" transform="translate(39.324 19.437)" fill="#fff"/>
    <path id="Path_555" data-name="Path 555" d="M294.914,117.289c9.872-7.046,21.743-9.207,30.53-18.255-10.8-5.984-20.565-.319-30.256-.3-1.651-5.824,1.255-11.022,8.586-12.6,9.906-2.127,20.048-2.756,30.023.294,3.233.989,3.989,3.11,3.026,6.219C332.881,105.384,308.33,120.346,294.914,117.289Z" transform="translate(39.439 9.032)" fill="#fff"/>
    <path id="Path_556" data-name="Path 556" d="M534.5,155.67l29.729-15.96-.663-2.47c-9.769-4.7-19.817-.6-29.723.5-1.215-6.785,3.966-13.171,11.688-13.608a239.892,239.892,0,0,1,24.6.041c5.633.261,7.517,3.97,5.26,9.083C569.918,145.632,548.658,157.938,534.5,155.67Z" transform="translate(75.086 14.924)" fill="#fff"/>
    <path id="Path_557" data-name="Path 557" d="M332.86,450.718c-2.324,2.406-4.2,5.832-7.038,7.057-24.3,10.506-48.771,20.615-73.2,30.82-.306.128-.734-.043-1.474-.1-1.779-5.187.8-8.166,5.308-9.974q23.071-9.246,46.21-18.33c9.535-3.758,19.1-7.439,28.652-11.155Z" transform="translate(32.851 63.443)" fill="#fff"/>
    <path id="Path_558" data-name="Path 558" d="M205.158,298.931c2.188,7.223-2.906,20.457-8.776,23.4-3.607,1.806-7.505,1.652-9.76-1.771-2.226-3.381-4.745-7.535-4.669-11.3.359-17.769,5.649-34.25,14.49-49.541l1.379.376c-2.255,8.47-4.982,16.85-6.6,25.438-1.1,5.834-1.709,12.171-.593,17.9,1.318,6.764,5.223,7.214,9.864,2.012A76.964,76.964,0,0,0,205.158,298.931Z" transform="translate(22.611 35.198)" fill="#fff"/>
    <path id="Path_559" data-name="Path 559" d="M461.967,148.4c-2.7,11.016-5.671,21.977-7.939,33.081-.768,3.76-.232,7.985.571,11.815,1.022,4.874,5.589,5.882,9.067,2.188a80.8,80.8,0,0,0,5.524-7.331c2.088,6.706-2.822,20.058-8.328,23.16-5.976,3.366-13.947-2.054-14.472-10.428-.332-5.275-.357-10.9,1.1-15.89,3.286-11.26,7.543-22.238,11.506-33.295a18.013,18.013,0,0,1,2.382-3.611Z" transform="translate(62.037 18.543)" fill="#fff"/>
    <path id="Path_560" data-name="Path 560" d="M647.126,317.373c-2.506,9.825-5.446,19.567-7.332,29.51a36.566,36.566,0,0,0,.525,15c1.249,5.146,4.577,5.657,8.427,1.924a86.487,86.487,0,0,0,6.416-7.762l1.851.844c-2.531,6.484-4.473,13.287-7.762,19.362a7.847,7.847,0,0,1-14.026.167c-2.354-4.273-4.158-9.769-3.719-14.49a109.62,109.62,0,0,1,13.141-42.8,16.191,16.191,0,0,1,1.649-2.109Z" transform="translate(89.674 43.747)" fill="#fff"/>
    <path id="Path_561" data-name="Path 561" d="M395.247,352.782c2.548-8.827,14.695-12.5,19.367-6.56,1.382,1.757.549,6.693-1,9.02-3.245,4.874-7.787,8.864-11.488,13.464-1.453,1.805-2.082,4.273-3.088,6.439,2.194.755,4.407,2.2,6.577,2.139,7.552-.216,15.09-.954,22.361-1.474-4.849,8.086-21.31,12.923-29.494,7.767-2.078-1.309-4.124-5.209-3.688-7.427A34.054,34.054,0,0,1,400.278,364c2.5-3.671,6.071-6.612,10.452-11.219Z" transform="translate(54.358 47.671)" fill="#fff"/>
    <path id="Path_562" data-name="Path 562" d="M343.8,511.122c-2.005-11.238-3.814-22.111-5.915-32.926-1.753-9.021-4.175-18.076,8.466-22.582q-.783-.483-1.568-.963l-7.451,2.729c1.942-4.458,2.708-8.035,4.846-10.335,1.026-1.1,4.961-.425,7.032.575,3.671,1.773,8.451,3.8,7.509,8.82-.457,2.437-3.586,5.394-6.132,6.249-12.369,4.154-10.322,3.423-8.221,15.152,1.723,9.618,2.195,19.46,3.136,29.213a6.528,6.528,0,0,1-.721,2.713A6.458,6.458,0,0,1,343.8,511.122Z" transform="translate(45.664 63.062)" fill="#fff"/>
    <path id="Path_563" data-name="Path 563" d="M367.41,36.482c2.105,3.005,4.21,6.01,6.809,9.722,2.576-2.269,4.788-4.211,6.994-6.16,1.564-1.381,2.928-3.495,4.73-3.977,2.321-.622,5.541-.752,7.325.456,1.272.863,1.779,4.776.916,6.439a17.683,17.683,0,0,1-6.6,7.094,42.344,42.344,0,0,1-11.869,3.929c-1.82.383-3.956-.73-6.508-1.286-2.445,4.052-6.781,4.617-11.9,3.97-2.413-.306-5.013.861-7.551,1.364-1.335-5.3,1.142-9.024,6.575-9.377a37.156,37.156,0,0,1,4.575.148c4.013.237,7.108-.008,4.9-5.576-.719-1.817.07-4.23.17-6.371ZM390.6,43.427l-1.112-2.712-9.861,3.849q.481,1.265.964,2.531Z" transform="translate(47.595 1.76)" fill="#fff"/>
    <path id="Path_564" data-name="Path 564" d="M461.268,457.416c3.126-4.264,5.653-7.7,8.165-11.143.9-1.235,2.173-2.38,2.57-3.767,1.092-3.81,1.809-7.725,2.674-11.6h-10.03c1.712-3.934,4.512-7.81,9.646-9,5.825-1.353,9.313,2.046,8.63,7.905C481.785,439.583,471.879,452.645,461.268,457.416Z" transform="translate(64.285 59.352)" fill="#fff"/>
    <path id="Path_565" data-name="Path 565" d="M139.443,453.115c2.975-4.144,6.033-8.233,8.891-12.456,1.378-2.035,2.922-4.215,3.387-6.531a8.059,8.059,0,0,0-1.318-6.1c-.711-.84-3.645,0-5.506.413a16.732,16.732,0,0,0-3.622,1.825c.944-6.034,5.886-10.813,11.283-10.927,3.952-.084,7.207,1.7,6.608,5.969-.641,4.58-1.623,9.592-4.1,13.325-3.893,5.863-9.166,10.812-13.856,16.149Z" transform="translate(16.269 59.012)" fill="#fff"/>
    <path id="Path_566" data-name="Path 566" d="M386.68,42.763,376.67,46.43q-.483-1.265-.964-2.531l9.861-3.849Z" transform="translate(51.519 2.424)" fill="#fff"/>
    <path id="Path_567" data-name="Path 567" d="M603.217,438.5c-4.034-3.333-4.748-6.725-2.235-10.893,3.287-5.452,6.3-11.21,13.6-11.708,1.508-.1,4.416,1.514,4.475,2.471.178,2.968-.7,6-1.271,9.619-4.622-2.026-8.183-5.946-11.976-.5,5.888,7.824,12.392,1.1,18.5.634-.161,5.274-1.187,6.53-7.114,9.52-8,4.034-16.4,7.569-20.845,16.189-.17.331-.267.7-.506,1.339,2.91,4.845,7.671,6.394,13,6.336,15.985-.172,28.961-7.177,40.112-18.131.939-.922,1.811-1.913,2.737-2.85.085-.086.336-.011,1.026-.011-3.789,9.111-10.52,15.364-18.249,20.571-9.234,6.221-19.331,9.665-30.741,8.757-11.747-.935-16.254-9.666-9.662-19.613C596.686,446.283,599.892,442.727,603.217,438.5Z" transform="translate(83.644 58.499)" fill="#fff"/>
    <path id="Path_568" data-name="Path 568" d="M568.242,444.957l-22.922-15.15,12.934-21.371c6.648,4.6,12.889,8.635,18.746,13.171,1.346,1.042,2.479,4.361,1.812,5.656C575.786,433.145,572.083,438.678,568.242,444.957Z" transform="translate(76.825 57.386)" fill="#fff"/>
  </g>
</svg>
