<svg xmlns="http://www.w3.org/2000/svg" width="280.717" height="318.195" viewBox="0 0 280.717 318.195">
  <g id="Group_179" data-name="Group 179" transform="translate(-150.254 -235.478)">
    <path id="Path_92" data-name="Path 92" d="M346.083,371.3q-24.092-13.534-48.155-27.125a2.53,2.53,0,0,0-2.94.057q-23.794,14.178-47.659,28.239a2.4,2.4,0,0,0-1.376,2.423q.376,27.875.635,55.75a2.261,2.261,0,0,0,1.331,2.258q24.328,13.617,48.594,27.338a2.4,2.4,0,0,0,2.788-.065q23.731-14.129,47.524-28.152a2.76,2.76,0,0,0,1.6-2.794q-.387-27.549-.652-55.1a14.43,14.43,0,0,1,.23-1.885l-.167-.281A12.168,12.168,0,0,1,346.083,371.3Zm-15.336,37.565c-1.076-1.457-2.074-.516-3.106.155.324-2.9.727-3.231,4.647-3.588a6.269,6.269,0,0,0-1.392,1.44,6.576,6.576,0,0,0-.148,1.993Zm8.707,8.439c.591.614.363,2.01.511,3.086-2.915.024-3.081-.084-3.926-2.4-.475-1.309-.933-2.627-1.4-3.937.074-.066.151-.135.23-.2a33.128,33.128,0,0,1,4.583,3.453Zm-2.81,6.715c-2.124,1.107-3.557.927-4.786-.792a34.325,34.325,0,0,0-3.008-3.215,34.979,34.979,0,0,1,5.906,1.367c.838.347,1.26,1.706,1.888,2.639Zm-23.457,5.138a2.752,2.752,0,0,1-3.519-.834c-.338-.56.4-2.929,1.144-3.019a4.919,4.919,0,0,1,3.211.439c.961.706.315,2.713-.834,3.419Zm2.274-.222c.862,2.351,2.932,4.148,1.632,6.8-3.021.025-3.559-2.809-5.441-4.66,1.85-.044,3.216-.413,3.813-2.136Zm-28.593,6.109c-1.032-1.634-2.256-.951-3.48-.546,1.421-3.058,1.542-3.116,5.28-2.513-1.027.862-2.73,1.081-1.8,3.064Zm6.049,13.149c-2.773-.779-2.775-.777-3.095-3.345-.164-1.277-.319-2.556-.473-3.833a1.929,1.929,0,0,1,.121-.373c1.277,1.4,2.457,2.7,3.641,3.993s.009,2.378-.188,3.561Zm-19.533-9.074c2.189.452,2.22-1.2,2.885-2.406.195.617.346,1.082.531,1.67.478-.1.925-.195,1.257-.266-.2,1.053-.414,2.146-.621,3.21-1.15-.89-1.92.459-2.912,1.281-.145-1.235,1.224-2.748-1.137-3.485Zm2.08-4.848a10.488,10.488,0,0,1-.445,1.05,3.153,3.153,0,0,1-5.081,1.421c-1.79-1.22-3.555-2.465-5.325-3.706a1.943,1.943,0,0,1-.26-.438,65.774,65.774,0,0,1,7.081-3.092c2.465-.764,4.833,2.193,4.031,4.767Zm-18.583-30.36c-1.3.126-2.787-.765-3.389,1.215.17-1.929-1.358-1.877-2.7-2.369.929-.373,1.6-.643,2.308-.931.071-.458.143-.931.169-1.093q1.646.493,3.254.97c-.183.192-.523.546-.934.971.436.417.8.762,1.291,1.238Zm-1.748,1.635c2.008.2,3.944-.079,5.509,1.554a3.219,3.219,0,0,1,.233,4.545,3.158,3.158,0,0,1-.376.355c-1.866,1.481-3.778,2.9-5.948,4.565-.287-2.76-.712-5.224-.727-7.7,0-1.084.828-2.167,1.31-3.32Zm26.053-30.29a2.623,2.623,0,0,1,3.513.814c.309.54-.462,2.716-1.1,3.127-.688.439-3.041.031-3.368-.58a2.706,2.706,0,0,1,.958-3.359Zm-2.535-.212c-.655-1.923-2.636-3.743-1.388-6.408,3.04.027,3.572,2.857,5.044,4.241Zm28.864-5.639c1.024,1.6,2.261.858,3.652.479-2.025,3.12-2.025,3.12-5.449,2.5.809-.848,2.661-1.009,1.8-2.977Zm-6.366-9.943c-.481-.793-.022-2.149.016-3.33,3.043.8,3.051.8,3.378,3.372.17,1.33.31,2.662.453,3.992,0,.02-.084.049-.206.122a29.042,29.042,0,0,1-3.641-4.156Zm31.112,38.664c-4.143-.187-3.615.333-4.9-3.36,1.117.219,2.166,1.793,3.417-.041-.888,1.827.446,2.5,1.486,3.4Zm-34.794,34.639c.047-2.252-1.665-1.715-2.834-2.031,2.5-2.175,2.923-2.187,6.014.038-1.66-.034-2.946.038-3.178,1.992Zm6.245-.4c.329-.008.669.329,1,.519,2.16,1.213,2.525,3.262.9,5.19-1.459,1.73-2.948,3.44-4.645,5.417a70.388,70.388,0,0,1-2.242-7.3c-.216-1.094.088-2.982.807-3.408,1.094-.658,2.759-.384,4.181-.414Zm-28.533-4.132c.388-.939.807-1.961,1.192-2.9,2.162,1.937,2.2,2.218.486,5.529-.553-1.068-.129-2.883-1.676-2.63Zm-4-10.728c.893-1.17.893-1.17.018-3.141,2.679.4,3.222,1.229,3.046,5.1a6.335,6.335,0,0,0-1.247-1.635,5.205,5.205,0,0,0-1.815-.329Zm40.3-36.77c1.415-.3,3.562.626,3.651-2.053a8.411,8.411,0,0,1,3.127,8.774,10.183,10.183,0,0,1-6.771-6.725Zm6.9,11.776c-.4-.573-.673-.971-1.062-1.529l-1.079.145c0-.9.008-1.812.01-2.628,2.3.963,2.3.963,2.133,4.011Zm-5.23-13.686c-.779.78-3,0-3.658-1.122-.706-1.19-.492-2.5.49-3,1.009-.519,2.862.33,3.692,1.556.738,1.088.094,1.947-.524,2.563Zm-4.924-.031a10.063,10.063,0,0,1-9.376-2.275,8.411,8.411,0,0,1,9.063-1.924c-1.86,1.443-.627,2.763.315,4.2Zm10.3,20.649a1.47,1.47,0,0,1-.85.96,6.39,6.39,0,0,1-4.405.294c-1.722-.6-3.535-.921-5.544-1.423,1.808-1.841,3.317-3.616,5.081-5.081a9.149,9.149,0,0,1,3.292-1.174.962.962,0,0,1,.762.371,7.908,7.908,0,0,1,1.665,6.052Zm2.015,4.663c-.346-.7-.744-1.49-1.065-2.15.313-.694.675-1.5,1.011-2.246,1.619,2.234,1.619,2.234.056,4.394Zm-15.551,10.447c-2.936-1.4-4.414-3.694-3.779-5.629,3.5.44,2.046,3.757,3.78,5.627Zm-4.994-7.66c-.239.787-.48,1.59-.763,2.516-.69-.6-1.292-1.124-1.983-1.728l-1.876,1.763c-.28-.807-.537-1.54-.852-2.442-.776.168-1.6.346-2.53.543.168-.861.322-1.69.494-2.573-.841-.246-1.6-.471-2.517-.743.635-.71,1.185-1.324,1.763-1.974-.6-.641-1.131-1.215-1.8-1.932l2.48-.764c-.173-.819-.344-1.624-.55-2.594.9.2,1.671.369,2.561.568.23-.77.455-1.529.746-2.494.685.585,1.269,1.085,1.969,1.68l1.893-1.732c.3.852.552,1.584.854,2.452.833-.194,1.637-.382,2.591-.6-.208.913-.379,1.686-.575,2.565l2.506.8-1.717,1.935c.58.646,1.11,1.232,1.758,1.956l-2.462.772c.182.819.358,1.6.575,2.558-.9-.19-1.658-.348-2.566-.536Zm-2.431,9.479c-1.8-2.844-1.868-4.959-.185-6.294,2.73,2.164-.118,4.24.188,6.292Zm-9.62,7.1c-2.421.627-2.516.58-4.362-2.257,1.057.14,2.116,1.444,3.093-.2-.957,1.772.541,1.887,1.271,2.46Zm-2.51-3.877c-.143.154-.616.133-.87.031a7.626,7.626,0,0,1-4.483-4.371c-.112-.279-.107-.828.072-.975a15.037,15.037,0,0,1,3.411-2.511,50.265,50.265,0,0,1,6.035-1.723,67.62,67.62,0,0,1-1.865,6.732,10.338,10.338,0,0,1-2.3,2.816Zm-9.565-14.737a1.284,1.284,0,0,1,.756-.835,6.8,6.8,0,0,1,4.559-.3c1.662.6,3.433.9,5.469,1.4a69.716,69.716,0,0,1-5.125,5.181,8.877,8.877,0,0,1-3.315,1.091c-.171.045-.487-.174-.629-.356a7.691,7.691,0,0,1-1.716-6.179Zm-1.978-4.356c.307.626.632,1.3.976,1.987l-.945,2.138c-1.7-2.046-1.7-2.751-.033-4.126Zm15.621,1.635c-2.329,2.951-4.4.166-6.5.112a37.188,37.188,0,0,1,4.556-1.227c.532-.077,1.193.661,1.947,1.113Zm-4.807-6.691c.058-.137.112-.267.165-.4a34.064,34.064,0,0,1,4.45,1.287c.548.232.782,1.205,1.256,2.006-3.519,1.309-3.923-2.1-5.872-2.894Zm5.745,10.8c-.32,3.527-3.667,2.026-5.261,3.4l-.212-.358a33.591,33.591,0,0,0,2.337-2.447,2.128,2.128,0,0,1,2.916-.743,2.057,2.057,0,0,1,.219.15Zm2.821,2.884c.9,1.82.164,3.152-2.845,5.154.06-3.452.834-4.852,2.842-5.153Zm-3.4-18.99c3.433,2.2,4.036,3.194,3.25,5.352-3.388-.556-2.081-3.665-3.256-5.352Zm16.537-9.242c3.041-.292,3.041-.292,4.283,2.328-1-.309-2.027-1.429-2.868.25a1.8,1.8,0,0,0-.835-2.408,1.784,1.784,0,0,0-.585-.169Zm2.612,3.875c.172-.164.772.066,1.147.2a7.592,7.592,0,0,1,4.381,4.7c-2.083,3.792-6.18,3.324-9.847,4.806.715-2.621,1.177-4.917,2.006-7.07a8.422,8.422,0,0,1,2.308-2.632Zm.75,9.974a37.656,37.656,0,0,1-3.506,3.541c-.492.381-1.453.155-2.223.2-.174-1.721.476-2.483,1.949-2.737,1.105-.19,2.182-.576,3.773-1.011Zm-6.642-.6c-.255.621-1.176.967-1.952,1.554-.873-2.491-.439-3.23,3.112-5.961a32.11,32.11,0,0,1-1.166,4.4Zm-5.873.179a1.987,1.987,0,0,1-1.411-2.432,1.967,1.967,0,0,1,.149-.391,34.618,34.618,0,0,0,.874-3.437l.413-.041c-.217,2.083,2.5,4.079-.033,6.3Zm6.587,11.961c2.2-1.211,1.779-1.373,5.86,2.993a36.96,36.96,0,0,1-4.6-1.209c-.573-.224-.848-1.157-1.271-1.784Zm1.115-3.779c.753-1.585,1.579-2.029,2.975-1.524a33.007,33.007,0,0,0,3.586.888l-.012.273a33.229,33.229,0,0,1-4.319,1.133c-.676.087-1.437-.473-2.24-.77Zm-11.034-28.8c1.288-.207,2.8.017,2.934-1.971.135,1.987,1.68,1.684,2.917,1.937-3.181,2.328-2.561,2.259-5.861.034Zm1.852-5.063c.2.962-.283,2.755-.96,3.072a10.389,10.389,0,0,1-4.222.277c-.381,0-.759-.385-1.134-.6a3.067,3.067,0,0,1-.961-4.734c1.523-1.889,3.153-3.676,4.937-5.748.844,2.707,1.8,5.175,2.331,7.729Zm3.743,10.421-1.971.068c-.167.437-.346.918-.531,1.4-.113-1.7-1.369-1.356-2.394-1.414,2.065-1.885,2.08-1.885,4.885-.058Zm-.651,1.847a7.836,7.836,0,0,1,7.131,1.8c-.028,4.243-3.683,5.937-6.153,9.026-.619-3.912-3.011-7.148-.987-10.822ZM294.3,391.683a72.373,72.373,0,0,1-5.157-5.118,8.633,8.633,0,0,1-1.16-3.316c-.055-.207.341-.6.607-.819a7.9,7.9,0,0,1,6.468-1.521c2.077,3.751-.246,7.019-.766,10.777Zm-8.073-8.462c-.879-.035-1.8-.066-2.735-.1.956-2.365,1.081-2.439,3.993-2.032-.712.675-2.242.912-1.269,2.143Zm-1.494,1.647c3.644,2.083,3.245,6.111,4.82,9.8-3.709-1.431-7.724-.933-9.967-4.565a7.735,7.735,0,0,1,5.135-5.224Zm1.889,14.65c-3.8.656-7.048,3.049-10.769.989a7.706,7.706,0,0,1,1.377-6.378,1.843,1.843,0,0,1,1.367-.6,6.115,6.115,0,0,1,4.089,2.059c1.12,1.308,2.418,2.452,3.924,3.939Zm-8.8-8.019-.971-.091-.882,1.453c-.809-2.359-.523-2.914,1.884-3.948-.026.857-.033,1.673-.044,2.594Zm-7.216-4.238c1.82.849,2.377-.535,3.144-1.584.666,3.346.666,3.346-2.746,5.2.144-1.254,1.438-2.578-.414-3.605Zm-7.8-8.225a58.886,58.886,0,0,1,7-1.384c1.279-.1,3.216.224,3.774,1.069.645.98.282,2.78.007,4.157a6.553,6.553,0,0,1-1.537,2.247c-.456.589-2.98.412-3.807-.4-1.807-1.76-3.5-3.626-5.449-5.684Zm11.058,12.171a10.3,10.3,0,0,1-2.421,9.368c-.851-1.335-1.341-3.364-3.694-2.071,1.122-4.271,1.73-4.98,6.1-7.29ZM278.73,416.1c-2.761-1.066-2.761-1.066-2.808-4.221.765.78,1.139,2.224,2.68,1.28-1.092.97-.944,1.872.115,2.949Zm-4.592-2.531a8.4,8.4,0,0,1-6.221-6.967c2.329,1.018,2.7-.9,3.531-2.2a10.064,10.064,0,0,1,2.68,9.173ZM269.771,401.2c.685,1.157.354,3.413-.725,3.752a1.88,1.88,0,0,1-2.519-.732c-.752-1.417-.525-3.532.515-4.08,1-.525,2.007-.131,2.718,1.067Zm-5.349,3.472c-1.987-.4-4.589.382-6.272-2.01,1.623-2.582,4.276-1.747,6.263-2.216-.008,1.453,0,2.778,0,4.234Zm-2.131,1.642c3.771.057,3.521-.321,4.721,3.293-1.108-.156-2.148-1.877-3.444.007,1.164-1.914-.6-2.357-1.288-3.292Zm2.959,4.583a7.534,7.534,0,0,1,3.523,2.272,6.142,6.142,0,0,1,1.087,2.328c.286.753-1.315,2.763-2.459,3.125-.306.1-.626.159-.942.236-2.076.486-4.156.979-6.485,1.525a68.317,68.317,0,0,1,2.5-7.362c.443-.966,1.914-2.224,2.765-2.112Zm10.891,6.061a10.031,10.031,0,0,1,6.734,6.683c-1.342.4-3.579-.733-3.544,2.152a8.343,8.343,0,0,1-3.2-8.823Zm4.579,11.04a2.848,2.848,0,0,1,.619-2.474c.856-.785,2.885.066,3.583,1.257.685,1.168.487,2.326-.495,2.866a3.049,3.049,0,0,1-3.716-1.636Zm5.464-2.425a10.059,10.059,0,0,1,9.314,2.278,8.381,8.381,0,0,1-9.006,1.948c1.71-1.4.8-2.8-.317-4.214Zm11.691,1.276a11.131,11.131,0,0,1-2.08-1.162l2.278-.793c.062-.432,1.326,1.065,1.632,1.043s-.9,1.278-1.838.928Zm-1.9-4.339a1.45,1.45,0,0,1-1.445,1.134,8.212,8.212,0,0,1-6.1-1.938c.007-4.284,3.64-5.939,5.993-8.642.614,3.182,2.8,5.99,1.55,9.461Zm4.262-9.526c2.329,2.676,6.049,4.183,6.153,8.451a7.727,7.727,0,0,1-7.051,1.989c-2.181-3.611.234-6.925.892-10.425Zm8.369,8.111c.58,1.094,1.437.249,2.306-.3-.349,2.342-.933,2.727-3.728,2.588Zm.459-2.041a6.393,6.393,0,0,1-2.6-3.933c-.307-1.677-.885-3.3-1.456-5.364,3.586,1.358,7.546.889,9.8,4.484a7.56,7.56,0,0,1-4.526,4.982,1.463,1.463,0,0,1-1.227-.148Zm-1.446-14.2c3.91-.624,7.133-3.066,10.888-1.014a7.8,7.8,0,0,1-1.857,7.1c-4.172.022-5.873-3.611-9.036-6.068Zm8.317,7.839,1.624.3c.307-.55.6-1.059.906-1.615.638,2.72.533,2.922-2.268,4.239.28-.615.5-1.071.754-1.634-.284-.338-.6-.728-1.023-1.266Zm5.632,7.628a2.945,2.945,0,0,1,4.569-.662c1.864,1.7,3.509,3.622,5.437,5.656a73.762,73.762,0,0,1-7.716,1.556c-1.042.106-2.838-.511-3.131-1.256-.475-1.217-.05-2.812.106-4.234.04-.357.479-.686.731-1.039Zm2.731-3.106-3.326,1.6s.288-.322-.125-1.148a2.733,2.733,0,0,1,.154-2.015s1-1.768,1.913-1.505,1.382,3.086,1.382,3.086Zm-3.8-4.206a10.006,10.006,0,0,1,2.484-9.224c.912,1.179,1.228,3.333,3.586,2.107a8.3,8.3,0,0,1-6.072,7.136Zm4.13-9.789c-.692-1.168-.336-3.462.659-3.8a1.915,1.915,0,0,1,2.617.839c.657,1.311.473,3.494-.555,3.915-1.191.5-2.367.5-2.723-.934Zm-1.749-3.342a10.063,10.063,0,0,1-2.639-9.121c4.024,1.607,4.6,2.225,6.267,6.823-1.988-.02-1.988-.02-3.63,2.316Zm-2.722-14.969c.882,1.192,1.36,2.6,3.132,1.752-1.543,1.181-.554,2.309-.022,3.481-3.222-1-3.378-1.251-3.112-5.214Zm-.226-8.657c-2.116.27-1.572,1.739-1.6,3.2-2.88-3.253-2.421-2.349-.8-6.045.458,1.261.254,2.946,2.4,2.863Zm9.254,17.181a6.559,6.559,0,0,1-3.487-2.055,6.689,6.689,0,0,1-1.239-2.624c-.279-.771,1.575-2.8,2.834-3.106,2.255-.554,4.524-1.067,7.12-1.679a67.205,67.205,0,0,1-2.459,7.288,3.963,3.963,0,0,1-2.774,2.2Zm-3.34-9.562c-.855.741-2.7,1.37-3.477.937-1.093-.616-1.64-2.242-2.34-3.479-.169-.287-.038-.743-.044-1.119a3,3,0,0,1,3.385-3.356c2.494.291,4.952.9,7.658,1.412a64.7,64.7,0,0,1-5.177,5.636Zm-6-9.665c-.828-.929-.668-2.77-.875-4.225-.037-.274.21-.605.371-.885.414-.709.812-1.953,1.291-1.989a7.368,7.368,0,0,1,3.827.631,62.757,62.757,0,0,1,5.827,3.939,58.917,58.917,0,0,1-6.545,2.778c-1.227.392-3.255.491-3.895-.219Zm-4.732.433-3.695-2.1c1.38-1.482,1.891-4.262,4.9-4.375,1.4,2.664-.645,4.537-1.206,6.5Zm-13.052-2.53c-.431,0-.862-.074-1.293-.115a3.057,3.057,0,0,1-2.923-3.773c.583-2.406,1.4-4.754,2.187-7.4a73.051,73.051,0,0,1,5.289,5.968c1.53,2.171-.52,5.339-3.261,5.351Zm-3.929-10.656a41.864,41.864,0,0,0-1.354,4.4A36.8,36.8,0,0,1,295,360.037c-.122-.884.8-1.911,1.3-3,1.935,1.3,2.673,2.524,1.826,4.443Zm-7.094-.337a32.963,32.963,0,0,0-2.652,3.032,39.962,39.962,0,0,1,.779-6.319c.214-.753,1.609-1.171,2.451-1.73,1.506,2.155,1,3.65-.577,5.047Zm-4.614,4.77c-.242,1.069-1.363,2.628-2.206,2.711-1.265.131-2.655-.812-3.967-1.363-.254-.111-.381-.514-.58-.768a3.178,3.178,0,0,1,1.311-5.235c2.017-.929,4.034-1.875,6.35-2.954a67.034,67.034,0,0,1-.907,7.639Zm1.447,6.483c-2.666,1.212-3.177,1.01-5.57-2.4a7.286,7.286,0,0,0,2.2.671,4.493,4.493,0,0,0,1.6-.885c-.616,1.593.646,2.066,1.77,2.646Zm-2.132,2.44c3.55-1.167,6.581-.758,9.156,1.749a10.147,10.147,0,0,1-9.273,2.5c.868-1.417,2.147-2.782.116-4.224Zm-3.293,6.122a10.146,10.146,0,0,1-6.635,6.948,8.373,8.373,0,0,1,2.863-8.852c.3,2.472,2.138,1.957,3.775,1.94Zm-8.586-4.167c2.108.037,1.934-1.552,2.293-2.8,1.875,2.93,1.868,2.949-.529,5.971-.225-1.293.418-2.859-1.758-3.137Zm.957-5.283a6.29,6.29,0,0,1-.471,2.7c-.207.791-2.528,1.649-3.681,1.222-2.369-.881-4.678-1.91-7.243-2.971,2.021-1.475,3.82-2.7,5.5-4.066a3.822,3.822,0,0,1,4.238-.563c.971.625,1.363,2.391,1.664,3.717Zm-7.445,4.411a3.452,3.452,0,0,1,.44.339,34.609,34.609,0,0,1-5.792,1.117c-.861.027-1.75-1.077-2.663-1.677,2.081-2.238,2.171-2.259,4.567-1.244q1.732.76,3.453,1.5Zm-2.214,8.065-.126.287a29.451,29.451,0,0,1-5.475-1.282c-.81-.347-1.157-1.777-1.692-2.682,2.11-1.2,3.538-.72,4.776.968a29.881,29.881,0,0,0,2.522,2.74Zm1.8,2.5c1.081.375,2.551,1.66,2.573,2.561.028,1.258-1.1,2.569-1.809,3.811-.161.284-.627.4-.953.6a3.154,3.154,0,0,1-4.821-1.872c-.768-2.174-1.529-4.348-2.375-6.75a63.287,63.287,0,0,1,7.388,1.685Zm-.193,8.908c-.379,3.017-.933,3.452-4.485,3.458.663-.972,2.252-1.584,1.185-3.282,1.323,1.592,2.275.262,3.305-.144Zm-8.325-8.795a34.62,34.62,0,0,0,1.432,4.192,40.4,40.4,0,0,1-5.141-3.855c-.534-.542-.158-1.978-.2-3,2.194-.085,3.5.578,3.912,2.693Zm2.069,6.8c1.99,1.716.924,5.182-1.756,5.954-.972.28-2.325.713-2.976.279a8.8,8.8,0,0,1-2.135-3.052c-.16-.269.013-.74.046-1.115.182-2.145.363-4.292.563-6.675,2.214,1.645,4.359,3,6.262,4.642ZM256.647,417a31.624,31.624,0,0,0,3.461-2.607,37.735,37.735,0,0,1-2,5.928c-.374.72-1.81.884-2.838,1.333-.812-2.161-.483-3.591,1.384-4.622Zm5,4.7c1.2-.288,2.409-.564,3.614-.844a2.316,2.316,0,0,1,.468.042,33.6,33.6,0,0,1-4,4.288c-.692.536-2.072.177-3.181.226.446-3.043.444-3.046,3.11-3.68Zm2.785,6.289A18.17,18.17,0,0,1,268.177,429a37.284,37.284,0,0,1-5.5,2.316c-.707.184-1.73-.856-2.614-1.346,1.684-2.484,1.684-2.484,4.376-1.952Zm6.2-.542c-2.351-.368-4.677-.875-7.284-1.376a56.7,56.7,0,0,1,4.78-5.207c.982-.84,2.813-1.765,3.693-1.376,1.145.509,1.76,2.267,2.525,3.532.171.278.042.741.047,1.122a3.122,3.122,0,0,1-3.753,3.334Zm8.613,2.306,3.721,2.027c-1.35,1.478-1.889,4.144-4.9,4.426-1.383-2.549.59-4.462,1.186-6.42Zm13.074,2.472a13.4,13.4,0,0,1,1.458.13,3.017,3.017,0,0,1,2.854,3.173,3.089,3.089,0,0,1-.092.6c-.6,2.41-1.405,4.769-2.187,7.37-1.877-2.068-3.785-3.859-5.311-5.929s.568-5.292,3.283-5.311Zm3.9,10.826c.42-1.384.846-2.766,1.39-4.55a36.694,36.694,0,0,1,1.746,5.791c.12.881-.8,1.9-1.255,2.875-2.393-1.442-2.558-1.843-1.876-4.085Zm7.125.172a31.5,31.5,0,0,0,2.638-3.02,33.8,33.8,0,0,1-.7,5.957c-.264.888-1.574,1.468-2.437,2.206-1.549-2.219-1.09-3.716.5-5.108Zm4.588-4.711a4.117,4.117,0,0,1,2.311-2.811c1.167-.2,2.558.783,3.819,1.334.306.133.479.575.712.871a3.058,3.058,0,0,1-1.023,4.989c-2.106,1.088-4.289,2.029-6.7,3.156a62.356,62.356,0,0,1,.883-7.508Zm-1.112-6.8c3.122-.673,3.412-.545,4.8,2.123l-3.037.316c-.507-.668-1.136-1.539-1.76-2.406Zm1.818-2.17c-3.523,1.144-6.535.76-9.122-1.785a10,10,0,0,1,9.181-2.479c-.681,1.465-2.18,2.85-.059,4.3Zm3.3-6.16a10.069,10.069,0,0,1,6.61-6.914,8.362,8.362,0,0,1-2.828,8.839c-.293-2.373-2.159-1.9-3.78-1.893Zm7.92,3.992L318,430.074c-1.519-2.757-1.519-2.757.743-5.714.265,1.372-.44,2.983,1.122,3.037Zm-.315,5.289c-.117-.359.145-.836.224-1.263a3.023,3.023,0,0,1,3.943-2.458c2.379.807,4.66,1.9,7.218,2.962a63.125,63.125,0,0,1-6.129,4.376c-1.006.558-2.934.823-3.627.243-.956-.766-1.185-2.478-1.628-3.827ZM327,428.439a5.034,5.034,0,0,1-.508-.33,30.524,30.524,0,0,1,5.572-1.1c.984-.018,1.983.984,3.058,1.568-2.112,2.242-2.333,2.3-4.539,1.373q-1.792-.718-3.582-1.482Zm.425-10.565c-1.08-.375-2.547-1.666-2.567-2.572-.026-1.259,1.094-2.571,1.818-3.809.191-.325.72-.456,1.093-.678a3.111,3.111,0,0,1,4.279,1.021,3.147,3.147,0,0,1,.191.363c.923,2.3,1.649,4.684,2.563,7.33a62.4,62.4,0,0,1-7.377-1.624Zm2.508-13.9c.027-1.454.05-2.762.081-4.255,1.931.333,4.5-.453,6.194,1.975-1.538,2.68-4.265,1.7-6.274,2.313Zm3.688-11.436c1.931-1.626,4.023-3.066,6.211-4.712a70.168,70.168,0,0,1,.689,7.587c-.01,1.1-.722,2.931-1.478,3.137-1.289.361-2.873-.245-4.314-.543-.369-.078-.667-.523-.988-.8a3.084,3.084,0,0,1-.39-4.344,2.917,2.917,0,0,1,.272-.287Zm4.077-5.175c-1.078.659-2.051,1.494-3.464,2.543a36.109,36.109,0,0,1,2.019-5.834c.414-.753,1.844-.954,2.776-1.391,1.011,2.339.365,3.676-1.33,4.715Zm-5.092-4.669a28.657,28.657,0,0,0-4.126.927,32.757,32.757,0,0,1,4.051-4.381c.748-.568,2.167-.255,3.306-.343-.155,2.406-.992,3.675-3.231,3.83Zm-2.512-6.32c-1.3-.26-2.612-.5-4.381-.837a31.612,31.612,0,0,1,5.362-2.3c.975-.218,2.166.537,3.356.885-1.747,2.793-1.758,2.793-4.335,2.283Zm.034-6.819q-1.59-1.108-3.177-2.224c-.034-.025-.035-.1-.106-.313a30.613,30.613,0,0,0,3.964-.034,3.01,3.01,0,0,1,3.684,2.133,3.222,3.222,0,0,1,.078.4c-2.249,1.594-2.249,1.594-4.443.068Zm1.483-4.51c-.02.1-.045.2-.066.3-2.4,0-4.8.11-7.192-.041a3.042,3.042,0,0,1-2.7-3.35,2.878,2.878,0,0,1,.046-.293c.111-.575.219-1.154.374-1.987ZM310.82,353.357c3.3,1.849,6.414,3.591,9.691,5.424-.435.425-.707.685-.975.947-2.009,1.936-4.079,1.658-5.534-.753-1.01-1.671-2-3.347-3-5.027a4.185,4.185,0,0,1-.182-.558Zm5.542,9.492c1.61,1.014,2.417-.166,3.457-1.048.207,1.194-1.092,2.68,1.006,3.342-1.974-.283-2.082,1.218-2.707,2.493-.22-.66-.384-1.154-.574-1.717l-1.526.422c.195-1.105,1.994-1.994.344-3.459Zm-1.381,1.384c-.307,1.255-1.646,2.283-2.623,3.333-.254.276-.8.288-1.214.424a3.141,3.141,0,0,1-4.114-2.408c-.408-2.4-.631-4.821-.973-7.54a69.2,69.2,0,0,1,7.036,3.249c.94.589,2.085,2.166,1.888,2.975Zm-5.035-8.842c.486,1.07,1.184,2.041,2.032,3.474a40.054,40.054,0,0,1-5.8-2.727c-.648-.435-.6-1.909-.857-2.855,2.5-.775,3.758.225,4.626,2.138Zm-16.455-8.3c2.166-1.562,3.955-1.688,6.2-.1,2.272,1.61,4.84,2.8,7.6,4.362-1.43.039-2.517.065-3.727.1.14,1.28.271,2.443.417,3.785l-3.561-1.478-1.139,3.63c-.926-.981-1.716-1.814-2.626-2.774-.828.908-1.6,1.765-2.541,2.807-.451-1.231-.853-2.352-1.284-3.538l-3.5,1.471c.116-1.291.217-2.431.335-3.732-1.1-.009-2.145-.015-3.676-.025,2.755-1.6,5.256-2.855,7.5-4.475Zm-5.837,5.94c.382,2.342-.246,3.679-2.246,4.335a41.155,41.155,0,0,0-4,1.827,34.04,34.04,0,0,1,3.115-5.2c.6-.663,2.042-.629,3.128-.931Zm-5.374.869c-1.756,2.4-1.965,5.854-5.137,7.346-1.062.5-1.764.526-2.54-.334-.463-.519-1.019-.952-1.619-1.5Zm-8.387,8.57c.793.619,1.567,1.925,3.109.746-1.224,1.431-.108,2.333.6,3.317l-.242.378-1.758-.885c.1.86.17,1.4.237,1.945-1.029-1.034-1.067-2.68-2.524-2.219.185-1.02.379-2.124.583-3.25Zm-2.577-2.024c.146.528.254.885.34,1.247.619,2.62-.669,4.225-3.455,4.293-2.055.052-4.1.087-6.467.137Zm-8.943,7.333c1.393-.024,2.786-.02,4.178-.02.026,0,.05.084.138.232a32.119,32.119,0,0,1-4.583,3.152c-.807.385-2.058-.17-3.144-.3.721-2.7,1.072-2.992,3.411-3.034Zm-14.659,14.763c-.036-2.38-.1-4.761-.058-7.136a1.971,1.971,0,0,1,.687-1.447c3.128-1.937,6.307-3.783,9.854-5.884-.695,1.272-1.19,2.185-1.746,3.206,1.126.493,2.2.956,3.443,1.5-1.038.828-1.94,1.552-2.96,2.368l2.508,2.825-3.69.843c.371,1.171.727,2.3,1.176,3.7-1.31-.278-2.481-.524-3.756-.794-.132,1.307-.255,2.515-.4,3.874-1.09-.776-2.037-1.445-3.118-2.212-.575,1-1.1,1.912-1.852,3.21-.03-1.571-.074-2.8-.091-4.024Zm1.462,6.483c-.312-.871.427-2.116.68-3.161,2.4.785,3.1,2.169,2.619,4.317a32.181,32.181,0,0,0-.358,4.013,32.788,32.788,0,0,1-2.942-5.137Zm-1.362,1.858c1.277,2.711,4.158,4.617,3.949,8.1-.074,1.2-.39,1.908-1.648,2.116a15.219,15.219,0,0,0-2.166.7c-.049-3.759-.093-7.321-.135-10.883Zm.147,12.851a2.724,2.724,0,0,1,.584.03c1.028.328,2.06.661,2.977.964,1.485,4.192-1.948,6.656-3.417,9.864q-.073-5.358-.144-10.827Zm2.215,11.031a36.027,36.027,0,0,0,2.117-3.792,42.9,42.9,0,0,1,.553,6.376c-.041.749-1.293,1.431-2.011,2.165-1.748-1.586-1.915-3.028-.66-4.719Zm8.708,21.953c-.055.086-.113.169-.164.253-.765-.412-1.535-.816-2.295-1.239-2.407-1.355-4.823-2.691-7.2-4.088a1.834,1.834,0,0,1-.905-1.133c-.108-3.761-.127-7.525.1-11.376l1.662,2.805c1.075-.753,2.021-1.417,3.1-2.169.164,1.308.3,2.462.472,3.769l3.778-.822-1.183,3.69c1.262.253,2.418.487,3.768.756l-2.466,2.925,3.072,2.24c-1.188.557-2.2,1.036-3.393,1.594Zm.929-1.87c1.9-1.567,2.285-1.586,4.262-.208,1.138.794,2.272,1.591,3.8,2.663a34.307,34.307,0,0,0-4.462.034,2.909,2.909,0,0,1-3.536-2.1,3.022,3.022,0,0,1-.066-.355Zm12.308,9.7q-4.714-2.654-9.393-5.281c.016-.1.027-.189.043-.286a61.967,61.967,0,0,1,7.347.078c2.739.356,3.3,2.113,2,5.518Zm11.387,6.142c.012.02-.047.081-.117.2-3.124-1.754-6.243-3.513-9.548-5.371.5-.455.814-.738,1.132-1.035,1.883-1.792,3.943-1.5,5.31.747,1.088,1.846,2.153,3.67,3.224,5.489Zm-4.07-10.6c.117-1.211,1.683-2.31,2.684-3.4.224-.238.706-.23,1.065-.354a3.019,3.019,0,0,1,3.944,1.632,3.053,3.053,0,0,1,.194.69c.437,2.434.651,4.91.994,7.615a52.33,52.33,0,0,1-6.443-2.955c-1.121-.671-2.54-2.187-2.438-3.2Zm5.117,8.98a41.181,41.181,0,0,0-2.1-3.6,43.145,43.145,0,0,1,5.825,2.756c.609.4.531,1.855.767,2.824a3.23,3.23,0,0,1-4.313-1.5,3.184,3.184,0,0,1-.176-.447Zm23.456,3.919c-3.19,1.89-6.37,3.8-9.581,5.639a1.6,1.6,0,0,1-1.321-.052c-3.175-1.734-6.316-3.526-9.467-5.3.032-.106.06-.213.089-.318.958-.026,1.918-.048,3.082-.081-.137-1.242-.27-2.435-.428-3.825l3.521,1.522c.392-1.176.773-2.313,1.211-3.623l2.624,2.756,2.544-2.8c.447,1.281.812,2.33,1.244,3.574,1.122-.487,2.193-.955,3.527-1.533-.123,1.31-.23,2.5-.35,3.769,1.133,0,2.178.007,3.227.008a2.688,2.688,0,0,0,.077.3Zm-1.138-1.735c-.537-2.592-.278-3.173,1.638-4.055,1.349-.617,2.7-1.242,4.451-2.049a39.505,39.505,0,0,1-3.185,5.307c-.528.665-1.911.585-2.9.829Zm4.827-.58c1.363-2.355,2.416-4.421,3.7-6.33,1.494-2.224,3.451-2,5.943.618Zm8.788-8.841c-.777-.473-1.5-1.986-3.086-.752,1.235-1.483,0-2.37-.488-3.616.425.231.857.466,1.345.733l.629-1.788c.8.889.676,2.7,2.168,2.141-.18,1.071-.371,2.178-.567,3.313Zm11.9-3.333-9.271,5.492c-.157-.54-.3-.984-.411-1.437-.569-2.5.736-4.136,3.383-4.216,2.089-.061,4.18-.087,6.27-.127.007.123.02.221.032.316Zm-.922-1.916a36.573,36.573,0,0,0-4.179.055,40.155,40.155,0,0,1,5.186-3.608c.717-.352,1.955.347,2.971.577-.549,2.522-1.9,3.229-3.98,3.006Zm15.158-17.332c.048,3.193.1,6.385.089,9.577a2.036,2.036,0,0,1-.563,1.51c-3.154,1.963-6.37,3.828-9.784,5.546l1.544-2.83-3.431-1.527c1.043-.821,1.946-1.537,2.973-2.341-.835-.939-1.6-1.8-2.515-2.836l3.7-.859c-.391-1.206-.754-2.318-1.211-3.714l3.781.83c.121-1.263.239-2.467.377-3.873,1.1.769,2.077,1.451,3.13,2.19.563-.956,1.05-1.787,1.69-2.876a9.079,9.079,0,0,1,.214,1.234Zm-1.374-3.962c.306.869-.471,2.119-.761,3.2-2.313-.837-3.091-2.167-2.6-4.318a33.047,33.047,0,0,0,.387-4.111,32.565,32.565,0,0,1,2.977,5.258Zm-4.522-6.818c-.167,2.208-.369,4.411-.563,6.617a1.444,1.444,0,0,1-.182.366,65.94,65.94,0,0,1-5.972-4.426c-.816-.742-1.658-2.508-1.3-3.237.583-1.2,2.11-1.957,3.28-2.846.222-.17.627-.093.95-.13a3.129,3.129,0,0,1,3.794,3.684Zm-3.186-5.447,1.2-1.326c-.372-.373-.734-.733-1.234-1.238,1.248-.173,2.869.774,3.385-1.349-.229,2.109,1.449,1.953,2.645,2.542-1.2.547-2.8.544-2.6,2.54-.533-1.878-1.971-1.2-3.4-1.14Zm9.02,10.849a75.212,75.212,0,0,1-3.915-6.73c-.834-1.846.212-3.472,2.177-4.1l1.607-.515c.046,3.793.089,7.338.136,11.374Zm-.155-13.132c-1.2-.385-2.737-.427-3.1-1.1a5.441,5.441,0,0,1-.48-3.934,42.081,42.081,0,0,1,3.156-5.994c.1.028.2.054.305.08.041,3.607.083,7.186.125,10.98Zm-2.142-11.383c-.655,1.207-1.318,2.412-2.178,3.977a36.521,36.521,0,0,1-.551-6.093c.06-.855,1.233-1.634,1.944-2.49,2,2.4,2,2.4.79,4.638Zm1.945-11.612a53.162,53.162,0,0,0-.034,7.267c0,.023-.085.05-.2.116l-1.639-2.766c-1.032.717-2.019,1.4-3.139,2.182-.163-1.294-.314-2.456-.473-3.751-1.244.263-2.391.506-3.727.785.38-1.281.728-2.446,1.1-3.7-1.239-.239-2.393-.453-3.781-.715.9-1.042,1.683-1.942,2.532-2.923l-3.1-2.237c1.193-.567,2.238-1.071,3.393-1.626l-1.664-2.808.2-.248a56.062,56.062,0,0,0,6.411,3.544c3.257,1.338,4.607,3.357,4.124,6.908Z" transform="translate(-6.569 -7.431)" fill="#d5d6d5"/>
    <g id="Group_176" data-name="Group 176" transform="translate(150.254 235.478)">
      <g id="Group_175" data-name="Group 175">
        <path id="Path_152" data-name="Path 152" d="M198.252,319.585a.466.466,0,0,1,.22.617,15.277,15.277,0,0,1-1.037,1.8q-.231.366-1.337,2.031-2.217,3.326-3.019,4.608-.949,1.51-1.621,2.683-1.344,2.346-1.861,3.168-.775,1.235-1.233.948t1.133-2.923a4.345,4.345,0,0,0,.511-1.018q.369-.789-.09-1.078a16.036,16.036,0,0,0-2.265-.657l-3.577-.9q-1.179-.358-4.452-1.136l-.518.823-2.239,3.569q-1.252,1.894-2.511,4.1.659.985,3.143,4.139l2.342,2.873a4.349,4.349,0,0,0,.954.918q.78.488,1.639-.375.189-.2,1.59-2.127c.3-.41.561-.541.791-.4q.388.244-.128,1.067l-4.738,7.55-.373.594q-.4.641-.86.354-.274-.172.523-1.648,1.056-1.886.778-2.763a20.3,20.3,0,0,0-2.809-4.06q-1.742-2.3-5.193-6.765l-11.763-15.1q-.747-1.044-2.439-3.125-1.241-1.479-1.068-1.755t2.736.314q3.275.78,26.376,5.329,2.955.574,6,1.21,2.593.545,3.538.051a7.551,7.551,0,0,0,2.1-2.636C197.726,319.511,197.978,319.413,198.252,319.585Zm-19.836,7.832c-.111-.027-.467-.1-1.07-.228q-6.458-1.488-9.127-2.009-.735-.158-2.134-.485l-1-.2q1.453,2.056,4.184,5.421,3.059,3.762,4.242,5.329l.631-1.006.632-1.008,1.608-2.561Q177.037,329.613,178.416,327.417Z" transform="translate(-150.698 -240.973)" fill="#d5d6d5"/>
        <path id="Path_153" data-name="Path 153" d="M209.588,292.695a12.054,12.054,0,0,1,3.342,11.356,13.619,13.619,0,0,1-3.889,7.2,14.955,14.955,0,0,1-3.841,2.309,7.6,7.6,0,0,0-2.055,1.209,5.124,5.124,0,0,0-1.41,2.829,1.066,1.066,0,0,1-.2.493.377.377,0,0,1-.536.063,19.365,19.365,0,0,1-1.379-1.373l-18.57-19.538c-.1-.105-.335-.352-.707-.744l-.93-.978-1.637-1.723q-.968-1.018-1.633-.984a3.763,3.763,0,0,0-1.9,1.213q-1.044.992-1.3.717c-.173-.182-.1-.425.217-.726a37.731,37.731,0,0,0,6.814-8.341l.636.589,10.978,11.551a6.974,6.974,0,0,1,2.285-6.271,9.864,9.864,0,0,1,7.775-2.879A11.956,11.956,0,0,1,209.588,292.695Zm-5.686,5.7q-7.218-7.6-10.391-4.581a3.747,3.747,0,0,0-1.021,4.1,5.311,5.311,0,0,0,1.024,1.821q.743.9,4.5,4.852l2.27,2.39q3.5,3.68,5.122,4.409a2.649,2.649,0,0,0,3.112-.685,4.043,4.043,0,0,0,.98-4.731Q208.443,303.172,203.9,298.4Z" transform="translate(-151.804 -238.924)" fill="#d5d6d5"/>
        <path id="Path_154" data-name="Path 154" d="M244.825,283.7q.222.372-.538.889a53.423,53.423,0,0,0-5.577,3.937,8.426,8.426,0,0,0-2.129,2.753,1.105,1.105,0,0,1-.4.49c-.123.075-.259-.012-.406-.259l-.625-1.043-.568-.95a6.148,6.148,0,0,0-.491-.713q-1.041,4.841-4.444,6.877a7.105,7.105,0,0,1-5.952.912q-1.826-.546-3.773-3.8l-1.974-3.3-1.64-2.741-3.615-6.04q-.612-1.021-1.048-1.077a4.248,4.248,0,0,0-1.834.719q-1.215.665-1.41.34-.222-.37.427-.76l.51-.3q.7-.416,2.151-1.193t1.964-1.081q.092-.054.909-.638t2.485-1.581l.88-.527,3.01,5.031q2.147,3.586,3.059,5.318t.771,1.5q2.925,4.891,4.277,5.728a2.42,2.42,0,0,0,2.7.032,4.346,4.346,0,0,0,1.844-3.439,2.409,2.409,0,0,0-.139-1.337q-.251-.576-1.5-2.666l-4.784-7.993q-2.028-3.392-2.539-4.035a1.128,1.128,0,0,0-1.67-.2l-1.28.766q-.64.381-.86.012-.168-.278,2.324-1.77,2.167-1.3,6.844-4.159,1.056,1.763,3.385,5.656l5.631,9.409a21.4,21.4,0,0,0,1.634,2.516.929.929,0,0,0,1.013.118A20.925,20.925,0,0,0,244,283.69Q244.6,283.33,244.825,283.7Z" transform="translate(-154.242 -237.669)" fill="#d5d6d5"/>
        <path id="Path_155" data-name="Path 155" d="M272.053,274.775q.12.359-.905.7l-2.309.762a13.025,13.025,0,0,0-4.891,2.932,2.3,2.3,0,0,1-.326.217q-.461.152-.819-.753a7.935,7.935,0,0,0-.577-1.232,7.449,7.449,0,0,1-4.707,4,9.956,9.956,0,0,1-8.54-.873,13.029,13.029,0,0,1-5.723-7.5,12.54,12.54,0,0,1,.184-9.42,10.742,10.742,0,0,1,6.786-5.8,6.818,6.818,0,0,1,5.96.645l-2.375-7.18q-1.527-4.616-2.217-5.326t-2.982.1q-1.334.442-1.451.082c-.08-.238.088-.427.5-.563a30.762,30.762,0,0,0,8.55-4.365,3.438,3.438,0,0,1,.812-.5q.569-.19.976,1.042l.849,2.564,1.628,4.923,8.093,24.463a2.05,2.05,0,0,0,.646,1.094q.514.344,1.932-.183Q271.9,274.315,272.053,274.775Zm-10.962-1.494-3.7-11.18a6.455,6.455,0,0,0-1.911-3.18,3.294,3.294,0,0,0-3.209-.531q-4.954,1.637-1.339,12.562a18.991,18.991,0,0,0,3.758,7.12q2.146,2.249,4.416,1.5a3.628,3.628,0,0,0,2.1-2.034A5.724,5.724,0,0,0,261.091,273.281Z" transform="translate(-156.582 -235.836)" fill="#d5d6d5"/>
        <path id="Path_156" data-name="Path 156" d="M288,273.642q.063.4-1.96.711-.479.075-3,.353-1.285.145-2.509.333-1.171.18-4.345.78l-1.587.3c-.775.155-1.184.092-1.228-.193s.346-.472,1.17-.563q1.876-.235,2.1-.705a9.042,9.042,0,0,0-.2-3.245l-4.336-28.091q-.279-1.813-.712-2.1a4.136,4.136,0,0,0-2.273,0c-.9.139-1.372.076-1.413-.188q-.071-.454,1.3-.724a28.038,28.038,0,0,0,9.443-3.317l2.892,18.739,2.052,13.293a24.99,24.99,0,0,0,.842,4.215q.281.585,1.394.359l1.6-.248Q287.943,273.241,288,273.642Z" transform="translate(-158.318 -235.582)" fill="#d5d6d5"/>
        <path id="Path_157" data-name="Path 157" d="M316.578,273.757c0,.216-.168.321-.492.316l-1.079-.02-1.89-.032L311.766,274a56.535,56.535,0,0,1-5.722-.26l-.864-.015-1.3.139c-.469.028-.7-.112-.7-.418,0-.233.095-.348.276-.345l1.242.021q1.187.074,1.361-.625.116-.43.2-5.4l.139-8.048q.085-5.025-.382-5.95a2.7,2.7,0,0,0-2.654-1.45,3.548,3.548,0,0,0-3.248,1.845,9.292,9.292,0,0,0-.6,3.953l-.146,8.522q-.068,3.961-.074,4.342l-.011.651-.022,1.3q-.068.814,2.21.853c.317,0,.475.117.471.333q-.007.38-.709.368l-.432-.008a3.968,3.968,0,0,0-1.294-.183l-2.376-.041-3.026,0-3.189.053-1.621-.028c-.54-.01-.808-.122-.8-.338a.219.219,0,0,1,.113-.214,1.338,1.338,0,0,1,.487-.046,9.5,9.5,0,0,0,2.433-.121q.38-.155.508-1.233.064-.647.166-6.48l.34-19.822a46.838,46.838,0,0,0-.128-6.728q-.228-.9-2.281-.931c-1.044-.017-1.564-.135-1.561-.35s.615-.35,1.836-.4a33.559,33.559,0,0,0,7.817-1.27,4.025,4.025,0,0,1,1.025-.2q.432.007.378,3.033l-.019,1.08q-.018,1.08-.049,2.863c-.019,1.151-.034,1.944-.04,2.375l-.148,8.588a9.808,9.808,0,0,1,3.1-2.973,8.447,8.447,0,0,1,4.037-.74q5.348.092,6.623,4.436a15.173,15.173,0,0,1,.409,4.546l-.217,12.583q-.022,1.405.429,1.736a4.873,4.873,0,0,0,2.29.363C316.4,273.375,316.582,273.505,316.578,273.757Z" transform="translate(-159.744 -235.478)" fill="#d5d6d5"/>
        <path id="Path_158" data-name="Path 158" d="M342.158,277.944c-.063.285-.434.614-1.107.986a8.138,8.138,0,0,1-6.057.826,4.622,4.622,0,0,1-2.931-1.614,5.512,5.512,0,0,1-.558-3.547q-3.345,3.786-7.455,2.859a5.022,5.022,0,0,1-3.341-2.249,5.162,5.162,0,0,1-.564-4q1.5-6.64,13.153-5.284l.25-1.106a32.781,32.781,0,0,0,1.093-6.564l.007-.276a3.543,3.543,0,0,0-3.148-3.478,3.985,3.985,0,0,0-3.019.37,2.864,2.864,0,0,0-1.494,1.713c-.078.351.294.657,1.122.917q1.861.585,1.374,2.747a2.672,2.672,0,0,1-1.2,1.751,2.738,2.738,0,0,1-2.149.319,3.584,3.584,0,0,1-2.295-1.486,3.165,3.165,0,0,1-.446-2.565,5.414,5.414,0,0,1,3.193-3.6,9.365,9.365,0,0,1,6.371-.5q5.481,1.234,7.2,3.672,1.37,2.026.455,6.083l-2.032,9.012q-.6,2.635-.637,3.068-.236,2.273,1.029,2.557a3.729,3.729,0,0,0,2.5-.766.745.745,0,0,1,.481-.169A.241.241,0,0,1,342.158,277.944Zm-9.6-8.759.582-2.583q-5.337-.149-6.419,4.645-.831,3.688,1.7,4.258a2.111,2.111,0,0,0,2.358-1.129A17.557,17.557,0,0,0,332.561,269.185Z" transform="translate(-161.905 -236.738)" fill="#d5d6d5"/>
        <path id="Path_159" data-name="Path 159" d="M378.906,298.772q-.226.433-.894-.035l-.864-.447-1.391-.721q-1.393-.72-3.358-1.739l-2.685-1.391-.72-.372-1.056-.547-.623-.323q-.672-.349-.521-.638.124-.239,1.274.292,1.442.689,1.868-.135l5.582-10.775a32.315,32.315,0,0,0,2.764-6.166q.243-1.653-1.691-2.654a3.588,3.588,0,0,0-3.6.091,3.046,3.046,0,0,0-1.207,1.147q-.571.867-2.668,4.915l-4.743,9.159q-.749,1.446-.61,1.824t1.675,1.173c.287.15.39.3.306.465q-.2.386-.726.113a5.573,5.573,0,0,1-.743-.445l-9.256-4.916q-.432-.224-.282-.512t1.3.307c.575.3.952.392,1.132.281l.345-.431,6.1-11.781q2.343-4.519,2.3-5.731t-1.673-2.056a3.566,3.566,0,0,0-3.775.124,3.946,3.946,0,0,0-1.071,1.067q-.408.613-2.031,3.747l-4.945,9.545q-1.148,2.219-1,2.572c.1.236.5.535,1.207.9l.719.373c.319.166.435.336.342.514-.107.206-.3.236-.591.086q-.624-.321-1.151-.6l-2.015-1.043q-3.867-1.931-4.121-2.026-2.332-1.134-3.436-1.706l-.672-.347c-.416-.216-.557-.452-.425-.707.116-.224.318-.262.606-.112l1,.763a2.091,2.091,0,0,0,1.543.309q.557-.138,1.433-1.826l4.121-7.957a66.407,66.407,0,0,0,3.529-7.283q-.159-.634-2.749-1.974c-.448-.233-.613-.46-.5-.685q.2-.383.821-.061a20.844,20.844,0,0,0,9.632,2.312,1.743,1.743,0,0,1,.748.084c.16.082.172.251.041.508-.249.481-.473.871-.67,1.174l-1.044,2.015a8.06,8.06,0,0,1,8.375-.225q4.835,2.5,3.661,6.885a8.061,8.061,0,0,1,4.246-1.635,9.347,9.347,0,0,1,4.636,1.248q6.081,3.149,2.586,9.894c-.049.1-.175.337-.374.723s-.367.708-.5.963l-5.266,10.167a9.058,9.058,0,0,0-.853,1.941c-.036.265.159.532.59.8q.911.594,1.677.99Q379.054,298.482,378.906,298.772Z" transform="translate(-163.364 -237.178)" fill="#d5d6d5"/>
        <path id="Path_160" data-name="Path 160" d="M391,310.09c-.163.192-.369.183-.613-.026l-5.449-4.642-3.934-3.349c-.164-.141-.37-.315-.615-.523l-.369-.315q-.492-.419-.266-.682.166-.2,1.14.575,1.433,1.151,1.909,1.092t1.638-1.423l10.1-11.864q1.338-1.57,1.334-2.108t-1.36-1.694a8.084,8.084,0,0,1-.972-.9c-.074-.109-.039-.246.1-.41.162-.191.45-.114.862.237a26.649,26.649,0,0,0,8.922,5.186q-.34.563-2.106,2.89l-4.449,5.222-6.584,7.732q-1.436,1.686-1.374,2.236t1.873,2.091C391.1,309.674,391.168,309.9,391,310.09Zm19.328-28.525a3.587,3.587,0,0,1-2.48,1.293,3.413,3.413,0,0,1-2.636-.825,3.567,3.567,0,0,1-1.312-2.465,3.473,3.473,0,0,1,.882-2.654A3.233,3.233,0,0,1,407.2,275.7a3.821,3.821,0,0,1,2.691,1.015,3.412,3.412,0,0,1,1.263,2.352A3.253,3.253,0,0,1,410.331,281.566Z" transform="translate(-166.004 -238.239)" fill="#d5d6d5"/>
        <path id="Path_161" data-name="Path 161" d="M410.04,331.3q-.291.242-.983-.587l-1.558-1.866a13.034,13.034,0,0,0-4.525-3.47,2.226,2.226,0,0,1-.321-.224q-.312-.373.4-1.038a7.745,7.745,0,0,0,.933-.989,7.45,7.45,0,0,1-5.453-2.906,9.958,9.958,0,0,1-2.327-8.262,13.025,13.025,0,0,1,4.867-8.078,12.543,12.543,0,0,1,8.828-3.292,10.75,10.75,0,0,1,7.89,4.178,6.825,6.825,0,0,1,1.59,5.78l5.8-4.848q3.733-3.117,4.138-4.02t-1.193-2.734q-.9-1.077-.609-1.321c.193-.16.43-.074.71.26a30.7,30.7,0,0,0,7.2,6.346,3.491,3.491,0,0,1,.759.573q.387.461-.609,1.292l-2.072,1.731-3.981,3.324-19.775,16.519a2.024,2.024,0,0,0-.78,1q-.131.6.879,1.728Q410.413,330.988,410.04,331.3ZM407.4,320.555l9.038-7.55a6.457,6.457,0,0,0,2.255-2.947,3.3,3.3,0,0,0-.686-3.181q-3.344-4-12.175,3.373a18.974,18.974,0,0,0-5.241,6.112q-1.3,2.822.231,4.658a3.631,3.631,0,0,0,2.664,1.209A5.722,5.722,0,0,0,407.4,320.555Z" transform="translate(-167.128 -239.739)" fill="#d5d6d5"/>
        <path id="Path_162" data-name="Path 162" d="M429.155,381.5q-.257.068-.4-.474l-1.044-3.946-.31-1.172-.3-1.144c-.1-.381-.075-.591.078-.632s.376.377.671,1.253q.244.7.462.761a4.2,4.2,0,0,0,1.366-.238l8.391-2.219-2.294-8.674-8.154,2.157a3.267,3.267,0,0,0-1.473.606,2.549,2.549,0,0,0,.041,1.437q.14.764-.062.818c-.171.047-.309-.124-.411-.508l-.069-.259q-.183-.692-.385-1.455l-.239-.908q-.108-.4-.32-1.21t-.64-2.421c-.1-.385-.076-.6.077-.637s.3.125.441.5c.085.245.173.5.263.763.151.412.317.656.5.731a7.154,7.154,0,0,0,1.634-.341l15.191-4.016a4.91,4.91,0,0,0,1.491-.534q.194-.19.019-.975-.176-.909-.187-1.077c-.007-.111.059-.184.2-.222.161-.043.276.06.341.31.021.076.054.243.1.5q.131.735.841,3.415.39,1.47.585,2.035a2.622,2.622,0,0,1,.18.506c.091.346.041.544-.152.6-.173.047-.343-.244-.508-.867s-.336-.98-.515-1.066a2.887,2.887,0,0,0-1.422.176l-6.649,1.758,2.294,8.672L445,371.857a4,4,0,0,0,1.745-.708c.143-.2.082-.762-.181-1.679-.076-.288-.028-.455.145-.5s.3.094.39.422l.038.143q.107.4.372,1.412.275,1.037.414,1.555.464,1.757.627,2.378t.21.793c.106.4.074.628-.1.673s-.381-.351-.623-1.191a1.98,1.98,0,0,0-.2-.533.5.5,0,0,0-.414-.277,7.069,7.069,0,0,0-1.372.286l-15.328,4.053a4.964,4.964,0,0,0-1.577.569q-.242.369.119,1.734Q429.443,381.427,429.155,381.5Z" transform="translate(-169.046 -243.852)" fill="#d5d6d5"/>
        <path id="Path_163" data-name="Path 163" d="M431.959,395.56q-.5.067-1.187-.9a4.346,4.346,0,0,1-.814-1.941,1.928,1.928,0,0,1,1.817-2.395,3.693,3.693,0,0,1-2.645-3.178,3,3,0,0,1,.477-2.188,2.524,2.524,0,0,1,1.825-1.079q2.421-.323,4.225,2.389a16.117,16.117,0,0,1,1.4,3.329l.739-.1a13.923,13.923,0,0,0,3.391-.719,2.033,2.033,0,0,0,1.226-2.327,2.679,2.679,0,0,0-.791-1.654,1.764,1.764,0,0,0-1.51-.508c-.157.022-.221.155-.186.4a.87.87,0,0,1-.267.712,1.228,1.228,0,0,1-.759.4,1.159,1.159,0,0,1-1.472-1.128,1.509,1.509,0,0,1,.309-1.184,1.624,1.624,0,0,1,1.109-.6,3.164,3.164,0,0,1,2.537.776,4.885,4.885,0,0,1,1.54,3.223q.432,3.251-1.244,4.224a8.835,8.835,0,0,1-2.652.623l-5.526.732q-1.359.179-1.591.24-1.045.288-.95,1a1.757,1.757,0,0,0,.77,1.28c.243.169.371.3.385.4S432.077,395.545,431.959,395.56Zm2.443-5.614,2.155-.286a7.526,7.526,0,0,0-1.728-2.956,2.738,2.738,0,0,0-2.3-.658,2.265,2.265,0,0,0-1.48.744,1.75,1.75,0,0,0-.427,1.434,2.285,2.285,0,0,0,1.685,1.821A6.59,6.59,0,0,0,434.4,389.946Z" transform="translate(-169.396 -245.596)" fill="#d5d6d5"/>
        <path id="Path_164" data-name="Path 164" d="M431.1,415.391c-.149,0-.224-.169-.225-.506,0-.04,0-.252,0-.642s-.006-.909-.009-1.565q0-.089-.016-3.158c0-.259.063-.389.194-.389.147,0,.222.108.223.327l0,.238,0,.746c.02.3.09.47.21.519a5.394,5.394,0,0,0,1.255.069l7.41-.038a4.885,4.885,0,0,0,2.462-.471,1.69,1.69,0,0,0,.725-1.558,2.476,2.476,0,0,0-.469-1.434,2.45,2.45,0,0,0-1.183-.926,23.01,23.01,0,0,0-3.308-.1l-5.632.029a11.313,11.313,0,0,0-1.133.034.472.472,0,0,0-.355.53l0,.85c0,.253-.074.382-.22.382-.13,0-.2-.148-.2-.445l0-.209q0-.3-.01-2.027c0-.4,0-.93-.008-1.6s-.006-1.067-.006-1.206l0-.328c0-.238.078-.359.237-.359.1,0,.158.06.18.178s.033.516.036,1.193c.021.318.121.485.3.5l.417.027,8.3-.043a4.654,4.654,0,0,0,2.375-.442,1.685,1.685,0,0,0,.647-1.527,2.545,2.545,0,0,0-.694-1.817,2.273,2.273,0,0,0-1.729-.717l-8.442.045a2.31,2.31,0,0,0-1.055.137c-.109.088-.162.378-.159.867v.235a1.976,1.976,0,0,1,.032.322c0,.215-.078.323-.237.323q-.208,0-.21-.387l0-.3q.027-.717-.011-2.235l-.016-2.921q0-.418.236-.419c.14,0,.21.128.21.387a4.266,4.266,0,0,0,.111,1.31.455.455,0,0,0,.373.207l7.728-.04a19.547,19.547,0,0,0,2.616-.1q.386-.092.382-.866l0-.418c0-.178,0-.367,0-.565q0-.387.206-.387c.12,0,.19.043.209.132s.052.413.1.97a6.8,6.8,0,0,0,.367,1.714,2.594,2.594,0,0,0,.572,1.177c.219.218.329.375.33.476s-.078.159-.237.18-.714.044-1.669.068a4.031,4.031,0,0,1,1.927,3.663q.014,2.654-1.979,3.234a4,4,0,0,1,2.015,3.721,3.006,3.006,0,0,1-1.565,2.994,6.676,6.676,0,0,1-2.768.432l-7.362.037a2.909,2.909,0,0,0-1.117.108,2.273,2.273,0,0,0-.16.925l0,.529C431.314,415.282,431.249,415.39,431.1,415.391Z" transform="translate(-169.511 -246.409)" fill="#d5d6d5"/>
        <path id="Path_165" data-name="Path 165" d="M429.972,423.053c-.178-.019-.249-.2-.213-.532q0,.029.133-.705.154-.883.215-1.476l.324-3.081a.57.57,0,0,1-.081-.37c.022-.217.107-.318.253-.3q.316.032.252.626a2.774,2.774,0,0,0,.034,1.248,3.591,3.591,0,0,0,1.219.233l8.98.943a5.17,5.17,0,0,0,.884.019c.091-.021.148-.14.172-.356l.089-.86c.009-.08.019-.178.032-.3.022-.219.1-.319.241-.3.121.013.172.185.155.519a7.105,7.105,0,0,0,.571,3.46l.142.31a3.885,3.885,0,0,1-1.652.063l-.294-.032c-.237-.023-.621-.065-1.154-.121l-8.073-.848a11.338,11.338,0,0,0-1.394-.1.36.36,0,0,0-.3.284,5.446,5.446,0,0,0-.255,1.291C430.223,422.94,430.129,423.07,429.972,423.053Zm18.7-.28a1.187,1.187,0,0,1-1.193-1.474,1.324,1.324,0,0,1,.47-.911,1.359,1.359,0,0,1,2.2,1.189A1.187,1.187,0,0,1,448.67,422.773Z" transform="translate(-169.441 -247.91)" fill="#d5d6d5"/>
        <path id="Path_166" data-name="Path 166" d="M427.793,437.227c-.138-.027-.18-.176-.127-.449l.027-.147c.029-.156.061-.321.1-.5l.046-.235a4.949,4.949,0,0,0-.1-2.536,1.908,1.908,0,0,1-.13-.542c.034-.176.168-.24.4-.2l.9.2a4.149,4.149,0,0,1-.69-3.225,5.161,5.161,0,0,1,2.669-3.694,7.382,7.382,0,0,1,5.141-.674,7.459,7.459,0,0,1,4.606,2.53,5.3,5.3,0,0,1,1.088,4.531,3.453,3.453,0,0,1-2,2.712l4.567.87a10.823,10.823,0,0,0,2.789.323c.315-.062.484-.208.509-.442q.071-.854.1-1.027c.048-.25.16-.359.335-.325s.242.156.2.37l-.229,1.041a6.792,6.792,0,0,0,.31,2.832.508.508,0,0,1,.02.216q-.057.291-.759.156l-.615-.117-.82-.156-10.1-1.925q-6.939-1.322-7.458-1.3c-.145.013-.3.459-.468,1.336C428.052,437.134,427.948,437.255,427.793,437.227Zm8.174-2.933q2.812.534,3.718.071a2.516,2.516,0,0,0,1.381-1.831,2.88,2.88,0,0,0-1.16-2.83,8.989,8.989,0,0,0-4.213-1.772,11.4,11.4,0,0,0-4.665-.04,3.291,3.291,0,0,0-1.5.791,2.409,2.409,0,0,0-.783,1.323,2.741,2.741,0,0,0,.23,1.742,2.5,2.5,0,0,0,1.12,1.2A40.475,40.475,0,0,0,435.966,434.294Z" transform="translate(-169.293 -248.492)" fill="#d5d6d5"/>
        <path id="Path_167" data-name="Path 167" d="M401.8,489.207a.466.466,0,0,1-.227-.613,15.246,15.246,0,0,1,1.016-1.817q.225-.37,1.311-2.046,2.177-3.357,2.965-4.646.929-1.523,1.587-2.7,1.316-2.362,1.822-3.192.76-1.243,1.222-.963t-1.1,2.937a4.478,4.478,0,0,0-.5,1.025q-.358.792.1,1.076a16.042,16.042,0,0,0,2.274.63l3.587.861q1.183.344,4.467,1.082l.507-.83,2.2-3.6q1.227-1.908,2.46-4.131-.671-.978-3.192-4.1l-2.378-2.844a4.323,4.323,0,0,0-.966-.905q-.785-.481-1.634.395-.184.2-1.564,2.145c-.292.414-.554.548-.786.407q-.393-.24.115-1.07l4.646-7.606.366-.6q.4-.647.855-.364c.185.113.016.664-.5,1.655q-1.035,1.9-.745,2.773a20.331,20.331,0,0,0,2.858,4.024q1.771,2.283,5.275,6.7l11.946,14.953q.761,1.035,2.477,3.1,1.257,1.463,1.089,1.741t-2.741-.28q-3.282-.74-26.436-5.008-2.963-.542-6.014-1.139-2.6-.511-3.538-.008a7.548,7.548,0,0,0-2.069,2.661Q402.211,489.46,401.8,489.207Zm19.741-8.073q.165.041,1.071.217,6.477,1.408,9.151,1.9c.494.1,1.2.25,2.14.458l1.007.192q-1.475-2.038-4.249-5.37-3.1-3.724-4.306-5.278-.254.415-.619,1.014l-.619,1.014-1.577,2.583Q422.887,478.921,421.536,481.134Z" transform="translate(-167.503 -250.73)" fill="#d5d6d5"/>
        <path id="Path_168" data-name="Path 168" d="M390.867,516.46a12.054,12.054,0,0,1-3.479-11.316,13.6,13.6,0,0,1,3.8-7.245A14.924,14.924,0,0,1,395,495.545a7.574,7.574,0,0,0,2.041-1.235,5.112,5.112,0,0,0,1.376-2.845,1.07,1.07,0,0,1,.2-.5.378.378,0,0,1,.536-.069,19.04,19.04,0,0,1,1.4,1.355l18.8,19.314.715.736.943.968,1.657,1.7c.653.672,1.2.991,1.645.963A3.755,3.755,0,0,0,426.2,514.7q1.031-1,1.3-.734t-.208.73a37.716,37.716,0,0,0-6.714,8.421l-.642-.581-11.117-11.418a6.97,6.97,0,0,1-2.21,6.3,9.871,9.871,0,0,1-7.739,2.973A11.963,11.963,0,0,1,390.867,516.46Zm5.615-5.77q7.311,7.509,10.446,4.456a3.746,3.746,0,0,0,.971-4.113,5.324,5.324,0,0,0-1.045-1.809q-.753-.89-4.559-4.8l-2.3-2.36q-3.541-3.639-5.174-4.348a2.654,2.654,0,0,0-3.105.722,4.046,4.046,0,0,0-.923,4.743Q391.885,505.969,396.482,510.69Z" transform="translate(-166.514 -253.006)" fill="#d5d6d5"/>
        <path id="Path_169" data-name="Path 169" d="M356.029,526.087q-.228-.367.528-.895a53.137,53.137,0,0,0,5.529-4,8.434,8.434,0,0,0,2.1-2.779,1.093,1.093,0,0,1,.393-.495c.122-.076.259.009.41.254q.4.644.636,1.036l.58.943a6.471,6.471,0,0,0,.5.708q.982-4.853,4.362-6.929a7.1,7.1,0,0,1,5.942-.983q1.832.525,3.817,3.753l2.014,3.276q.339.552,1.672,2.721t3.687,6q.625,1.016,1.061,1.065a4.272,4.272,0,0,0,1.824-.74q1.208-.682,1.406-.358c.151.246.011.5-.418.765l-.506.31q-.691.425-2.136,1.219t-1.952,1.1q-.092.057-.9.65t-2.465,1.61l-.875.537-3.07-4.994q-2.189-3.562-3.12-5.282t-.791-1.49q-2.984-4.855-4.346-5.676a2.416,2.416,0,0,0-2.694,0,4.346,4.346,0,0,0-1.8,3.461,2.417,2.417,0,0,0,.155,1.335q.256.573,1.533,2.65l4.878,7.934q2.07,3.368,2.587,4a1.129,1.129,0,0,0,1.673.18l1.269-.781c.424-.261.71-.267.861-.022q.172.277-2.3,1.8-2.15,1.322-6.792,4.241-1.077-1.749-3.453-5.614l-5.745-9.341a21.427,21.427,0,0,0-1.662-2.5.929.929,0,0,0-1.015-.105,20.921,20.921,0,0,0-2.541,1.436C356.455,526.333,356.179,526.333,356.029,526.087Z" transform="translate(-164.376 -254.506)" fill="#d5d6d5"/>
        <path id="Path_170" data-name="Path 170" d="M329.4,534.461c-.083-.238.218-.474.9-.709l2.3-.791a13,13,0,0,0,4.855-2.99,2.427,2.427,0,0,1,.323-.222q.461-.158.828.744a7.8,7.8,0,0,0,.592,1.224,7.452,7.452,0,0,1,4.659-4.06,9.96,9.96,0,0,1,8.549.771,13.029,13.029,0,0,1,5.813,7.427,12.535,12.535,0,0,1-.072,9.422,10.743,10.743,0,0,1-6.716,5.882,6.819,6.819,0,0,1-5.968-.576l2.462,7.152q1.581,4.6,2.28,5.3t2.98-.14c.887-.306,1.369-.338,1.451-.1s-.083.428-.495.57a30.671,30.671,0,0,0-8.5,4.467,3.535,3.535,0,0,1-.807.506q-.569.194-.99-1.031l-.877-2.554-1.689-4.9L332.9,535.486a2.041,2.041,0,0,0-.659-1.087q-.517-.337-1.929.207Q329.56,534.92,329.4,534.461Zm10.981,1.364,3.832,11.135a6.465,6.465,0,0,0,1.949,3.156,3.3,3.3,0,0,0,3.217.493q4.933-1.7,1.188-12.577a19.009,19.009,0,0,0-3.843-7.076q-2.174-2.223-4.435-1.445a3.628,3.628,0,0,0-2.079,2.058A5.732,5.732,0,0,0,340.383,535.824Z" transform="translate(-162.551 -255.493)" fill="#d5d6d5"/>
        <path id="Path_171" data-name="Path 171" d="M314.138,535.936q-.067-.4,1.95-.735.478-.08,2.991-.389,1.284-.161,2.5-.362,1.169-.2,4.335-.832l1.584-.318q1.159-.249,1.23.177t-1.163.577q-1.875.257-2.1.731a9.023,9.023,0,0,0,.238,3.241l4.669,28.037q.3,1.809.738,2.092a4.144,4.144,0,0,0,2.273-.022c.9-.15,1.372-.094,1.416.171q.075.451-1.294.739a28,28,0,0,0-9.4,3.427q-.268-1.6-3.116-18.7L318.786,540.5a25.2,25.2,0,0,0-.892-4.206q-.288-.581-1.4-.342l-1.6.266Q314.206,536.335,314.138,535.936Z" transform="translate(-161.504 -255.916)" fill="#d5d6d5"/>
        <path id="Path_172" data-name="Path 172" d="M284.984,536.228c0-.216.164-.323.488-.321l1.08.006,1.89.01,1.351.008a56.05,56.05,0,0,1,5.725.192l.863,0,1.3-.156q.7-.051.7.411c0,.233-.091.349-.272.347l-1.242-.007q-1.187-.06-1.354.642-.109.43-.136,5.4l-.042,8.048q-.028,5.024.452,5.945a2.7,2.7,0,0,0,2.671,1.418,3.548,3.548,0,0,0,3.227-1.883,9.3,9.3,0,0,0,.557-3.96l.045-8.522q.02-3.962.021-4.344l0-.651.007-1.3q.059-.814-2.22-.825c-.318,0-.477-.112-.475-.329q0-.38.7-.376l.432,0a3.9,3.9,0,0,0,1.3.17l2.375.013,3.027-.039,3.187-.091,1.621.008c.539,0,.81.113.809.328a.219.219,0,0,1-.11.216,1.354,1.354,0,0,1-.486.051,9.671,9.671,0,0,0-2.432.149q-.379.162-.493,1.24-.057.648-.088,6.481l-.1,19.826a46.585,46.585,0,0,0,.209,6.725q.239.894,2.291.9c1.045.006,1.565.116,1.564.332s-.61.357-1.829.423a33.58,33.58,0,0,0-7.8,1.364,3.892,3.892,0,0,1-1.023.21q-.432,0-.414-3.027l.007-1.08q0-1.083.014-2.862.01-1.731.012-2.378l.046-8.589a9.783,9.783,0,0,1-3.068,3.009,8.426,8.426,0,0,1-4.028.789q-5.349-.028-6.676-4.355a15.14,15.14,0,0,1-.462-4.541l.065-12.586q.008-1.4-.451-1.731a4.892,4.892,0,0,0-2.293-.335C285.163,536.607,284.982,536.48,284.984,536.228Z" transform="translate(-159.503 -256.102)" fill="#d5d6d5"/>
        <path id="Path_173" data-name="Path 173" d="M259.844,533.264q.092-.429,1.1-1a8.136,8.136,0,0,1,6.047-.9,4.628,4.628,0,0,1,2.951,1.58,5.519,5.519,0,0,1,.6,3.539q3.3-3.826,7.422-2.95a5.026,5.026,0,0,1,3.368,2.207,5.162,5.162,0,0,1,.613,4q-1.415,6.657-13.086,5.444l-.237,1.109a32.8,32.8,0,0,0-1.013,6.577l0,.277a3.542,3.542,0,0,0,3.189,3.439,3.981,3.981,0,0,0,3.014-.407,2.866,2.866,0,0,0,1.472-1.73q.113-.528-1.133-.9-1.868-.562-1.406-2.729a2.673,2.673,0,0,1,1.175-1.766,2.75,2.75,0,0,1,2.145-.345,3.575,3.575,0,0,1,2.313,1.459,3.162,3.162,0,0,1,.478,2.559,5.42,5.42,0,0,1-3.15,3.638,9.376,9.376,0,0,1-6.364.578q-5.493-1.169-7.245-3.586-1.394-2.007-.528-6.077l1.921-9.035q.563-2.642.6-3.075.208-2.276-1.061-2.544a3.715,3.715,0,0,0-2.489.8.747.747,0,0,1-.48.174A.242.242,0,0,1,259.844,533.264Zm9.7,8.642L269,544.494q5.339.087,6.363-4.721.785-3.7-1.75-4.239a2.115,2.115,0,0,0-2.345,1.159A17.567,17.567,0,0,0,269.548,541.906Z" transform="translate(-157.776 -255.775)" fill="#d5d6d5"/>
        <path id="Path_174" data-name="Path 174" d="M221.28,511.963q.219-.436.9.025l.868.437,1.4.7,3.378,1.7,2.7,1.359c.1.047.338.169.725.363l1.061.535.628.315c.452.227.627.437.53.631q-.122.242-1.278-.277-1.452-.668-1.866.158l-5.452,10.843a32.412,32.412,0,0,0-2.691,6.2q-.221,1.655,1.724,2.633a3.585,3.585,0,0,0,3.6-.133,3.046,3.046,0,0,0,1.195-1.161q.56-.873,2.608-4.948l4.633-9.213q.732-1.456.59-1.832t-1.689-1.153c-.289-.145-.394-.3-.312-.46q.2-.388.726-.121A5.546,5.546,0,0,1,236,519l9.315,4.8c.29.146.385.315.288.508s-.531.1-1.3-.29q-.868-.439-1.134-.268l-.34.435-5.96,11.853q-2.286,4.547-2.229,5.759t1.7,2.035a3.567,3.567,0,0,0,3.774-.169,3.976,3.976,0,0,0,1.055-1.08q.4-.619,1.987-3.771l4.83-9.605q1.122-2.232.966-2.584a2.772,2.772,0,0,0-1.218-.886l-.723-.363c-.321-.161-.439-.332-.348-.509.1-.209.3-.239.591-.094l1.158.582,2.027,1.019q3.892,1.885,4.146,1.975,2.346,1.108,3.456,1.665l.675.341q.627.314.433.7c-.112.225-.315.266-.6.119l-1.012-.75a2.1,2.1,0,0,0-1.548-.292q-.557.145-1.41,1.843l-4.025,8.006a66.707,66.707,0,0,0-3.442,7.327q.168.632,2.774,1.941c.45.227.618.452.507.677q-.2.387-.822.071a20.872,20.872,0,0,0-9.658-2.2,1.747,1.747,0,0,1-.749-.073c-.161-.082-.176-.251-.048-.508q.363-.725.655-1.183l1.019-2.026a8.061,8.061,0,0,1-8.37.325q-4.864-2.446-3.743-6.84a8.066,8.066,0,0,1-4.227,1.687,9.357,9.357,0,0,1-4.65-1.191q-6.118-3.076-2.706-9.863c.048-.1.169-.339.365-.727s.358-.712.488-.969l5.142-10.228a9.077,9.077,0,0,0,.83-1.952q.05-.4-.6-.788a19.194,19.194,0,0,0-1.689-.969Q221.135,512.255,221.28,511.963Z" transform="translate(-154.758 -254.443)" fill="#d5d6d5"/>
        <path id="Path_175" data-name="Path 175" d="M190.953,529.839a3.591,3.591,0,0,1,2.464-1.324,3.415,3.415,0,0,1,2.645.794,3.56,3.56,0,0,1,1.341,2.45,3.469,3.469,0,0,1-.849,2.666,3.233,3.233,0,0,1-2.4,1.241,3.831,3.831,0,0,1-2.7-.984,3.413,3.413,0,0,1-1.291-2.336A3.258,3.258,0,0,1,190.953,529.839Zm18.979-28.757c.161-.195.366-.187.615.018l5.505,4.575,3.974,3.3.621.517.372.309c.331.275.424.5.277.679-.111.132-.493-.054-1.15-.562q-1.446-1.132-1.92-1.067t-1.621,1.443l-9.96,11.986q-1.317,1.586-1.309,2.124t1.38,1.677a8.092,8.092,0,0,1,.983.887c.075.108.042.245-.1.411-.16.193-.45.118-.864-.226a26.623,26.623,0,0,0-8.985-5.079q.331-.566,2.07-2.914l4.384-5.277,6.491-7.81q1.417-1.7,1.346-2.254t-1.9-2.068C209.843,501.5,209.772,501.274,209.933,501.082Z" transform="translate(-152.992 -253.701)" fill="#d5d6d5"/>
        <path id="Path_176" data-name="Path 176" d="M189.994,480.162q.289-.246.99.575l1.581,1.847A13.029,13.029,0,0,0,197.13,486a2.448,2.448,0,0,1,.326.22q.316.369-.388,1.042a7.9,7.9,0,0,0-.92,1,7.454,7.454,0,0,1,5.488,2.84,9.957,9.957,0,0,1,2.427,8.233,13.031,13.031,0,0,1-4.769,8.135,12.537,12.537,0,0,1-8.788,3.4,10.736,10.736,0,0,1-7.939-4.082,6.821,6.821,0,0,1-1.662-5.76l-5.745,4.918q-3.692,3.16-4.09,4.069t1.226,2.72q.915,1.067.627,1.313c-.191.163-.429.08-.712-.251a30.735,30.735,0,0,0-7.278-6.258,3.432,3.432,0,0,1-.767-.564q-.391-.455.593-1.3l2.053-1.756,3.939-3.372,19.574-16.757a2.038,2.038,0,0,0,.768-1.013q.123-.6-.9-1.717Q189.626,480.478,189.994,480.162Zm2.772,10.712-8.947,7.659a6.455,6.455,0,0,0-2.218,2.973,3.294,3.294,0,0,0,.725,3.171q3.393,3.965,12.133-3.52a18.981,18.981,0,0,0,5.166-6.175q1.269-2.839-.287-4.655a3.63,3.63,0,0,0-2.678-1.177A5.727,5.727,0,0,0,192.766,490.874Z" transform="translate(-151.202 -252.271)" fill="#d5d6d5"/>
        <path id="Path_177" data-name="Path 177" d="M171.4,430.9c.171-.047.308.11.408.469L172.9,435.3c.075.266.182.656.324,1.169s.247.893.317,1.14c.105.38.081.59-.072.633s-.382-.373-.685-1.246q-.254-.693-.472-.754a4.237,4.237,0,0,0-1.363.255l-8.364,2.319,2.4,8.646,8.128-2.255a3.28,3.28,0,0,0,1.467-.622,2.577,2.577,0,0,0-.06-1.438q-.148-.763.051-.819c.173-.047.313.121.418.5l.072.258q.191.69.4,1.451c.141.508.224.808.251.905q.112.4.334,1.206t.669,2.411c.106.384.084.6-.069.639s-.3-.123-.447-.5c-.088-.243-.178-.5-.272-.76-.156-.41-.326-.652-.51-.724a7.152,7.152,0,0,0-1.63.359l-15.142,4.2a4.949,4.949,0,0,0-1.483.55q-.194.194-.007.977.186.908.2,1.073c.008.112-.057.187-.2.226q-.242.067-.346-.306c-.021-.076-.057-.242-.108-.5q-.14-.733-.882-3.405c-.27-.977-.473-1.651-.607-2.028a2.581,2.581,0,0,1-.187-.5c-.1-.345-.047-.544.145-.6q.258-.073.519.862c.171.621.347.975.525,1.059a2.857,2.857,0,0,0,1.42-.193l6.628-1.837-2.4-8.645-6.194,1.717a3.985,3.985,0,0,0-1.737.729q-.211.306.2,1.675c.078.288.033.455-.141.5s-.305-.091-.4-.416l-.04-.143q-.11-.4-.389-1.408c-.192-.688-.335-1.206-.429-1.55q-.486-1.752-.658-2.37l-.218-.79c-.112-.4-.082-.627.091-.674s.385.347.637,1.184a1.923,1.923,0,0,0,.209.529.5.5,0,0,0,.415.271,7.023,7.023,0,0,0,1.37-.3l15.278-4.237a4.935,4.935,0,0,0,1.57-.588q.237-.37-.141-1.732C171.175,431.122,171.21,430.948,171.4,430.9Z" transform="translate(-150.36 -248.892)" fill="#d5d6d5"/>
        <path id="Path_178" data-name="Path 178" d="M169.243,417.694q.5-.071,1.2.89a4.368,4.368,0,0,1,.835,1.932,1.927,1.927,0,0,1-1.788,2.416,3.7,3.7,0,0,1,2.684,3.147,2.994,2.994,0,0,1-.451,2.192,2.526,2.526,0,0,1-1.812,1.1q-2.42.349-4.254-2.339a16.165,16.165,0,0,1-1.442-3.312l-.739.106a13.888,13.888,0,0,0-3.382.762,2.032,2.032,0,0,0-1.2,2.34,2.685,2.685,0,0,0,.81,1.645,1.763,1.763,0,0,0,1.516.487c.157-.021.218-.156.183-.4a.865.865,0,0,1,.258-.715,1.229,1.229,0,0,1,.754-.411,1.159,1.159,0,0,1,1.485,1.11,1.508,1.508,0,0,1-.3,1.187,1.62,1.62,0,0,1-1.1.611,3.171,3.171,0,0,1-2.547-.746,4.886,4.886,0,0,1-1.577-3.2q-.471-3.247,1.193-4.239a8.854,8.854,0,0,1,2.646-.654l5.515-.8c.9-.13,1.435-.217,1.589-.259q1.041-.3.938-1.01a1.76,1.76,0,0,0-.786-1.271c-.245-.165-.375-.3-.388-.4S169.124,417.711,169.243,417.694Zm-2.376,5.644-2.153.311a7.529,7.529,0,0,0,1.765,2.936,2.74,2.74,0,0,0,2.305.631,2.268,2.268,0,0,0,1.471-.762,1.751,1.751,0,0,0,.409-1.439,2.283,2.283,0,0,0-1.706-1.8A6.558,6.558,0,0,0,166.867,423.338Z" transform="translate(-150.805 -247.986)" fill="#d5d6d5"/>
        <path id="Path_179" data-name="Path 179" d="M169.885,397.278c.149,0,.225.166.231.5q0,.06.011.641t.027,1.565q0,.089.054,3.158.007.387-.187.39-.222.006-.228-.324l0-.238-.013-.745q-.036-.447-.218-.518a5.446,5.446,0,0,0-1.255-.053l-7.409.128a4.878,4.878,0,0,0-2.456.5,1.689,1.689,0,0,0-.705,1.567,2.474,2.474,0,0,0,.487,1.428,2.446,2.446,0,0,0,1.192.913,23.184,23.184,0,0,0,3.31.061l5.632-.1a11.315,11.315,0,0,0,1.132-.049.472.472,0,0,0,.349-.535l-.015-.85c-.006-.252.068-.382.216-.385.129,0,.2.146.2.445l0,.208q0,.3.035,2.026.01.6.027,1.594c.012.666.018,1.069.02,1.207l.006.328q.007.358-.231.361c-.1,0-.16-.056-.182-.175s-.038-.516-.05-1.191c-.025-.318-.128-.485-.305-.5l-.417-.024-8.295.143a4.666,4.666,0,0,0-2.369.47,1.687,1.687,0,0,0-.628,1.537,2.545,2.545,0,0,0,.714,1.809,2.268,2.268,0,0,0,1.737.7l8.441-.146a2.312,2.312,0,0,0,1.053-.15c.108-.09.157-.379.149-.869l0-.235a1.911,1.911,0,0,1-.035-.321c0-.216.074-.324.232-.327.139,0,.211.126.215.384l.006.3q-.017.715.038,2.235l.051,2.921c0,.278-.072.418-.231.42q-.208,0-.214-.383a4.268,4.268,0,0,0-.127-1.31.457.457,0,0,0-.376-.2l-7.726.134a19.617,19.617,0,0,0-2.614.134q-.386.1-.372.871l.007.417c0,.179.007.368.009.566.006.258-.061.389-.2.391-.119,0-.19-.042-.21-.131s-.057-.412-.106-.968a6.821,6.821,0,0,0-.388-1.71,2.613,2.613,0,0,0-.585-1.17c-.223-.214-.335-.372-.337-.472s.077-.16.236-.183.714-.052,1.667-.089a4.026,4.026,0,0,1-1.97-3.638q-.046-2.654,1.941-3.258a4,4,0,0,1-2.061-3.7,3.007,3.007,0,0,1,1.527-3.012,6.644,6.644,0,0,1,2.763-.465l7.361-.128a2.853,2.853,0,0,0,1.116-.122,2.264,2.264,0,0,0,.147-.927l-.009-.528C169.672,397.389,169.735,397.281,169.885,397.278Z" transform="translate(-150.703 -246.585)" fill="#d5d6d5"/>
        <path id="Path_180" data-name="Path 180" d="M151.723,391.18a1.185,1.185,0,0,1,1.212,1.459,1.328,1.328,0,0,1-.458.916,1.36,1.36,0,0,1-2.212-1.163A1.185,1.185,0,0,1,151.723,391.18Zm18.7-.511c.178.017.251.194.22.529,0-.019-.039.216-.125.707q-.142.886-.2,1.478l-.287,3.086a.556.556,0,0,1,.087.367q-.029.327-.251.306c-.209-.019-.3-.226-.26-.623a2.767,2.767,0,0,0-.048-1.246,3.548,3.548,0,0,0-1.222-.218l-8.991-.835a5.161,5.161,0,0,0-.883-.007c-.091.021-.148.141-.168.358l-.08.862c-.007.078-.017.178-.027.3q-.031.326-.237.306c-.121-.011-.176-.183-.162-.517a7.133,7.133,0,0,0-.612-3.453l-.147-.309a3.894,3.894,0,0,1,1.65-.083l.3.027,1.155.108,8.084.749a11.247,11.247,0,0,0,1.4.085.359.359,0,0,0,.3-.287,5.358,5.358,0,0,0,.239-1.295C170.167,390.785,170.259,390.655,170.418,390.669Z" transform="translate(-150.254 -246.131)" fill="#d5d6d5"/>
        <path id="Path_181" data-name="Path 181" d="M172.394,375.927c.138.023.182.173.132.447l-.026.146c-.028.157-.057.323-.089.5l-.042.235a4.934,4.934,0,0,0,.132,2.536,1.854,1.854,0,0,1,.138.539c-.031.176-.165.243-.4.2l-.9-.191a4.154,4.154,0,0,1,.73,3.217,5.162,5.162,0,0,1-2.625,3.726,7.384,7.384,0,0,1-5.132.737,7.467,7.467,0,0,1-4.637-2.475,5.306,5.306,0,0,1-1.143-4.517,3.456,3.456,0,0,1,1.971-2.737l-4.577-.814a10.891,10.891,0,0,0-2.8-.289q-.471.1-.5.448c-.041.57-.073.913-.092,1.028q-.067.377-.332.33t-.207-.368l.215-1.045a6.8,6.8,0,0,0-.344-2.828.477.477,0,0,1-.022-.214q.053-.292.755-.167l.617.11.821.146,10.124,1.8q6.954,1.238,7.474,1.209c.143-.015.293-.461.451-1.343C172.135,376.022,172.238,375.9,172.394,375.927Zm-8.137,3.032q-2.816-.5-3.719-.027a2.514,2.514,0,0,0-1.358,1.848,2.875,2.875,0,0,0,1.194,2.815,9,9,0,0,0,4.235,1.722,11.386,11.386,0,0,0,4.665-.018,3.281,3.281,0,0,0,1.49-.809,2.381,2.381,0,0,0,.766-1.332,2.727,2.727,0,0,0-.25-1.74,2.51,2.51,0,0,0-1.136-1.186A40.289,40.289,0,0,0,164.257,378.959Z" transform="translate(-150.363 -245.01)" fill="#d5d6d5"/>
      </g>
    </g>
    <g id="Group_178" data-name="Group 178" transform="translate(213.821 313.636)">
      <g id="Group_177" data-name="Group 177">
        <path id="Path_182" data-name="Path 182" d="M285,332.965l-2.006-9.3-2.267.488-.187-.866a7.075,7.075,0,0,0,1.575-.49,1.425,1.425,0,0,0,.7-.608,1.3,1.3,0,0,0,.08-.808l.915-.2,2.482,11.5Z" transform="translate(-222.765 -319.52)" fill="#14ff00"/>
        <path id="Path_183" data-name="Path 183" d="M293.225,331.815a4.356,4.356,0,0,1-1.788-.184,3.669,3.669,0,0,1-1.46-.879,3.222,3.222,0,0,1-.848-1.512l1.24-.12a2.423,2.423,0,0,0,1.028,1.26,2.627,2.627,0,0,0,1.68.354,3.017,3.017,0,0,0,1.806-.761,3.445,3.445,0,0,0,.971-1.9,9.131,9.131,0,0,0-.015-3.105,3.023,3.023,0,0,1-.529,1.234,3.209,3.209,0,0,1-1.011.9,3.418,3.418,0,0,1-1.373.425,4.384,4.384,0,0,1-2.065-.251,3.27,3.27,0,0,1-1.483-1.163,4.034,4.034,0,0,1-.685-1.98,4.426,4.426,0,0,1,.27-2.127,3.483,3.483,0,0,1,1.219-1.541,4.171,4.171,0,0,1,2.064-.718,3.853,3.853,0,0,1,2.364.476,4.479,4.479,0,0,1,1.7,1.86,8.432,8.432,0,0,1,.838,3.1,9.456,9.456,0,0,1-.2,3.371,4.55,4.55,0,0,1-1.325,2.274A4.1,4.1,0,0,1,293.225,331.815Zm-.309-5.4a2.873,2.873,0,0,0,2.191-1.408,2,2,0,0,0,.273-1.228,3.857,3.857,0,0,0-.49-1.628,2.724,2.724,0,0,0-1.065-1.052,2.519,2.519,0,0,0-1.481-.277,2.474,2.474,0,0,0-1.3.492,2.449,2.449,0,0,0-.8,1.091,3.3,3.3,0,0,0-.178,1.526,2.946,2.946,0,0,0,.843,1.929A2.435,2.435,0,0,0,292.916,326.417Z" transform="translate(-223.323 -319.42)" fill="#14ff00"/>
        <path id="Path_184" data-name="Path 184" d="M304.536,319.4a4.26,4.26,0,0,1,1.726.422,3.5,3.5,0,0,1,1.288,1.069,3.334,3.334,0,0,1,.616,1.633l-1.213-.048a2.537,2.537,0,0,0-.834-1.41,2.565,2.565,0,0,0-1.61-.577,2.738,2.738,0,0,0-1.844.541,3.546,3.546,0,0,0-1.142,1.783,9.573,9.573,0,0,0-.367,2.982,3.077,3.077,0,0,1,.716-1.12,3.2,3.2,0,0,1,1.12-.726,3.393,3.393,0,0,1,1.372-.218,4.329,4.329,0,0,1,2,.527,3.246,3.246,0,0,1,1.293,1.342,3.97,3.97,0,0,1,.4,2.031,4.382,4.382,0,0,1-.563,2.07,3.481,3.481,0,0,1-1.43,1.36,4.218,4.218,0,0,1-2.15.427,3.871,3.871,0,0,1-2.282-.8,4.484,4.484,0,0,1-1.439-2.08,8.366,8.366,0,0,1-.412-3.184,9.518,9.518,0,0,1,.643-3.255,4.674,4.674,0,0,1,1.6-2.107A3.96,3.96,0,0,1,304.536,319.4Zm-.369,5.392a2.886,2.886,0,0,0-2.365,1.094,2.007,2.007,0,0,0-.437,1.18,3.822,3.822,0,0,0,.264,1.676,2.757,2.757,0,0,0,.909,1.185,2.505,2.505,0,0,0,1.423.475,2.553,2.553,0,0,0,1.366-.3,2.459,2.459,0,0,0,.963-.971,3.239,3.239,0,0,0,.393-1.483,3.365,3.365,0,0,0-.237-1.475,2.148,2.148,0,0,0-.846-.986A2.882,2.882,0,0,0,304.167,324.793Z" transform="translate(-224.085 -319.397)" fill="#14ff00"/>
        <path id="Path_185" data-name="Path 185" d="M310.067,331.741l.151-.841.078-.441a3.372,3.372,0,0,1,.61-1.482,3.948,3.948,0,0,1,1.088-.981,8.085,8.085,0,0,1,1.356-.658c.481-.182.962-.357,1.441-.525a11.861,11.861,0,0,0,1.338-.559,3.617,3.617,0,0,0,1.049-.764,2.215,2.215,0,0,0,.554-1.162,1.954,1.954,0,0,0-.391-1.635,2.63,2.63,0,0,0-1.671-.9,2.726,2.726,0,0,0-2.042.332,2.59,2.59,0,0,0-1.1,1.622l-1.266-.225a3.783,3.783,0,0,1,.806-1.7,3.467,3.467,0,0,1,1.585-1.061,4.545,4.545,0,0,1,2.273-.1,4.5,4.5,0,0,1,1.883.752,3.1,3.1,0,0,1,1.088,1.363,3.191,3.191,0,0,1,.153,1.787,3.34,3.34,0,0,1-.605,1.475,3.858,3.858,0,0,1-1.072.966,7.625,7.625,0,0,1-1.336.643q-.713.261-1.429.5a10.736,10.736,0,0,0-1.325.533,3.456,3.456,0,0,0-1.03.746,2.231,2.231,0,0,0-.544,1.155l-.047.265,6.16,1.1-.2,1.138Z" transform="translate(-224.792 -319.478)" fill="#14ff00"/>
        <path id="Path_186" data-name="Path 186" d="M356.712,356.6l7.143-6.279-1.531-1.742.666-.586a7.126,7.126,0,0,0,1.195,1.137,1.434,1.434,0,0,0,.872.313,1.309,1.309,0,0,0,.743-.324l.618.7-8.836,7.768Z" transform="translate(-227.994 -321.36)" fill="#d5d6d5"/>
        <path id="Path_187" data-name="Path 187" d="M361.643,363.244a4.363,4.363,0,0,1-.708-1.652,3.668,3.668,0,0,1,.059-1.7,3.2,3.2,0,0,1,.908-1.474l.709,1.023a2.429,2.429,0,0,0-.6,1.51,2.621,2.621,0,0,0,.509,1.642,3.011,3.011,0,0,0,1.542,1.208,3.444,3.444,0,0,0,2.13-.074A9.133,9.133,0,0,0,368.9,362.2a3.016,3.016,0,0,1-1.334.137,3.165,3.165,0,0,1-1.278-.445,3.384,3.384,0,0,1-1.039-.993,4.341,4.341,0,0,1-.783-1.926,3.249,3.249,0,0,1,.293-1.861,4.028,4.028,0,0,1,1.4-1.562,4.423,4.423,0,0,1,1.991-.8,3.484,3.484,0,0,1,1.939.315,4.173,4.173,0,0,1,1.631,1.454,3.866,3.866,0,0,1,.734,2.3,4.484,4.484,0,0,1-.8,2.393,8.449,8.449,0,0,1-2.3,2.242,9.479,9.479,0,0,1-3.041,1.467,4.545,4.545,0,0,1-2.634-.052A4.1,4.1,0,0,1,361.643,363.244Zm4.566-2.895a2.884,2.884,0,0,0,2.3,1.23,2.01,2.01,0,0,0,1.206-.359A3.859,3.859,0,0,0,370.9,360a2.751,2.751,0,0,0,.4-1.442,2.686,2.686,0,0,0-1.54-2.324,2.459,2.459,0,0,0-1.345-.171,3.282,3.282,0,0,0-1.419.587,2.941,2.941,0,0,0-1.275,1.675A2.435,2.435,0,0,0,366.21,360.349Z" transform="translate(-228.279 -321.822)" fill="#d5d6d5"/>
        <path id="Path_188" data-name="Path 188" d="M375.663,362.845l3.693,7.222-1,.51a22.157,22.157,0,0,0-2.382-.207q-1.285-.046-2.616,0t-2.576.18q-1.245.13-2.282.327a12.264,12.264,0,0,0-1.719.435l-.63-1.23a19.105,19.105,0,0,1,2.049-.481q1.242-.233,2.779-.38t3.253-.142a28.757,28.757,0,0,1,3.472.221l-3.041-5.947Z" transform="translate(-228.642 -322.38)" fill="#d5d6d5"/>
        <path id="Path_189" data-name="Path 189" d="M382.188,377.022a5.072,5.072,0,0,1,.313,2,3.216,3.216,0,0,1-.558,1.669,2.88,2.88,0,0,1-1.458,1.055,2.548,2.548,0,0,1-1.708.057,3.242,3.242,0,0,1-1.4-.952,2.61,2.61,0,0,1-.136,1.283,3.588,3.588,0,0,1-.715,1.211,2.7,2.7,0,0,1-1.126.77,2.929,2.929,0,0,1-1.842.074,3.523,3.523,0,0,1-1.615-1.064,6.069,6.069,0,0,1-1.172-2.067,5.977,5.977,0,0,1-.383-2.325,3.524,3.524,0,0,1,.587-1.839,2.925,2.925,0,0,1,1.478-1.1,2.7,2.7,0,0,1,1.359-.114,3.512,3.512,0,0,1,1.316.487,2.631,2.631,0,0,1,.914.911,3.344,3.344,0,0,1,.483-1.621,2.508,2.508,0,0,1,1.361-1.042,2.853,2.853,0,0,1,1.8-.093,3.236,3.236,0,0,1,1.486.954A5.034,5.034,0,0,1,382.188,377.022Zm-10.414,3.687A3.615,3.615,0,0,0,373.1,382.6a1.968,1.968,0,0,0,1.838.229,2.046,2.046,0,0,0,1.021-.762,2.542,2.542,0,0,0,.437-1.277,3.9,3.9,0,0,0-.252-1.624,3.826,3.826,0,0,0-.82-1.4,2.529,2.529,0,0,0-1.142-.717,2.046,2.046,0,0,0-1.273.05,1.961,1.961,0,0,0-1.283,1.334A3.562,3.562,0,0,0,371.774,380.71Zm5.474-1.939a2.959,2.959,0,0,0,1.14,1.573,1.84,1.84,0,0,0,1.69.153,1.909,1.909,0,0,0,1.244-1.2,3.267,3.267,0,0,0-1.239-3.488,1.913,1.913,0,0,0-1.72-.151,1.834,1.834,0,0,0-1.214,1.189A2.959,2.959,0,0,0,377.248,378.771Z" transform="translate(-228.933 -323.161)" fill="#d5d6d5"/>
        <path id="Path_190" data-name="Path 190" d="M371.788,428.7l9.059,2.9.706-2.209.844.27a7.131,7.131,0,0,0-.36,1.61,1.445,1.445,0,0,0,.179.908,1.319,1.319,0,0,0,.661.471l-.285.89-11.205-3.583Z" transform="translate(-229.001 -326.901)" fill="#d5d6d5"/>
        <path id="Path_191" data-name="Path 191" d="M368.657,436.221a4.372,4.372,0,0,1,1.052-1.458,3.657,3.657,0,0,1,1.489-.828,3.2,3.2,0,0,1,1.732.02l-.512,1.134a2.423,2.423,0,0,0-1.6.262,2.628,2.628,0,0,0-1.146,1.282,3.006,3.006,0,0,0-.238,1.945,3.429,3.429,0,0,0,1.16,1.788,9.111,9.111,0,0,0,2.7,1.535,3.035,3.035,0,0,1-.807-1.073,3.192,3.192,0,0,1-.276-1.326,3.372,3.372,0,0,1,.316-1.4,4.352,4.352,0,0,1,1.247-1.663,3.25,3.25,0,0,1,1.746-.707,4.021,4.021,0,0,1,2.059.394,4.4,4.4,0,0,1,1.709,1.295,3.454,3.454,0,0,1,.729,1.824,4.149,4.149,0,0,1-.407,2.146,3.838,3.838,0,0,1-1.59,1.813,4.471,4.471,0,0,1-2.461.549,8.466,8.466,0,0,1-3.108-.817,9.478,9.478,0,0,1-2.824-1.852,4.551,4.551,0,0,1-1.313-2.283A4.12,4.12,0,0,1,368.657,436.221Zm4.835,2.423a2.881,2.881,0,0,0,.129,2.6,2,2,0,0,0,.93.848,3.861,3.861,0,0,0,1.655.386,2.737,2.737,0,0,0,1.443-.4,2.512,2.512,0,0,0,.978-1.147,2.42,2.42,0,0,0-.326-2.611,3.3,3.3,0,0,0-1.233-.914,2.947,2.947,0,0,0-2.093-.23A2.437,2.437,0,0,0,373.491,438.645Z" transform="translate(-228.785 -327.253)" fill="#d5d6d5"/>
        <path id="Path_192" data-name="Path 192" d="M373.807,452.126a5.051,5.051,0,0,1-1.381,1.486,3.215,3.215,0,0,1-1.655.6,2.871,2.871,0,0,1-1.729-.492,2.554,2.554,0,0,1-1.106-1.307,3.268,3.268,0,0,1-.116-1.685,2.607,2.607,0,0,1-1.091.686,3.563,3.563,0,0,1-1.393.188,2.7,2.7,0,0,1-1.3-.408,2.918,2.918,0,0,1-1.2-1.4,3.505,3.505,0,0,1-.164-1.927,6.036,6.036,0,0,1,.9-2.2,5.965,5.965,0,0,1,1.588-1.739,3.526,3.526,0,0,1,1.809-.678,2.921,2.921,0,0,1,1.78.48,2.72,2.72,0,0,1,.93,1,3.5,3.5,0,0,1,.432,1.336,2.615,2.615,0,0,1-.149,1.281,3.341,3.341,0,0,1,1.572-.624,2.517,2.517,0,0,1,1.662.424,2.86,2.86,0,0,1,1.184,1.354,3.231,3.231,0,0,1,.17,1.758A5.039,5.039,0,0,1,373.807,452.126Zm-9.343-5.9a3.6,3.6,0,0,0-.657,2.21,1.962,1.962,0,0,0,.956,1.585,2.044,2.044,0,0,0,1.231.33,2.528,2.528,0,0,0,1.272-.448,3.914,3.914,0,0,0,1.121-1.2,3.858,3.858,0,0,0,.59-1.508,2.531,2.531,0,0,0-.143-1.341,2.055,2.055,0,0,0-.827-.969,1.962,1.962,0,0,0-1.842-.182A3.561,3.561,0,0,0,364.463,446.23Zm4.913,3.1a2.951,2.951,0,0,0-.53,1.868,1.835,1.835,0,0,0,.926,1.422,1.907,1.907,0,0,0,1.713.234,3.265,3.265,0,0,0,1.974-3.132,1.912,1.912,0,0,0-.946-1.444,1.83,1.83,0,0,0-1.686-.217A2.948,2.948,0,0,0,369.376,449.33Z" transform="translate(-228.399 -327.899)" fill="#d5d6d5"/>
        <path id="Path_193" data-name="Path 193" d="M366.779,461.815a3.512,3.512,0,0,1-3.079,1.293,9.773,9.773,0,0,1-6.938-5.846,3.718,3.718,0,0,1,3.849-4.576,7.582,7.582,0,0,1,4.158,2.059,9.7,9.7,0,0,1,2.253,2.567,4.308,4.308,0,0,1,.634,2.409A3.548,3.548,0,0,1,366.779,461.815Zm-8.393-7.07a2.2,2.2,0,0,0-.408,2.274,7.613,7.613,0,0,0,2.415,2.942,7.737,7.737,0,0,0,3.358,1.918,2.216,2.216,0,0,0,2.188-.783,2.243,2.243,0,0,0,.4-2.3A7.609,7.609,0,0,0,363.9,455.8a7.4,7.4,0,0,0-3.319-1.864A2.261,2.261,0,0,0,358.386,454.745Z" transform="translate(-227.989 -328.547)" fill="#d5d6d5"/>
        <path id="Path_194" data-name="Path 194" d="M319.18,478.254l2.317,9.224,2.248-.564.216.86a7.009,7.009,0,0,0-1.558.542,1.425,1.425,0,0,0-.675.631,1.294,1.294,0,0,0-.053.809l-.907.229-2.867-11.41Z" transform="translate(-225.329 -330.302)" fill="#d5d6d5"/>
        <path id="Path_195" data-name="Path 195" d="M310.781,479.659a4.343,4.343,0,0,1,1.793.124,3.655,3.655,0,0,1,1.488.83,3.217,3.217,0,0,1,.9,1.481l-1.234.163a2.433,2.433,0,0,0-1.069-1.225,2.636,2.636,0,0,0-1.693-.3,3.026,3.026,0,0,0-1.778.822,3.438,3.438,0,0,0-.907,1.93,9.122,9.122,0,0,0,.119,3.1,3.027,3.027,0,0,1,.486-1.25,3.188,3.188,0,0,1,.981-.934,3.376,3.376,0,0,1,1.358-.47,4.378,4.378,0,0,1,2.072.181,3.28,3.28,0,0,1,1.522,1.113,4.028,4.028,0,0,1,.749,1.956,4.388,4.388,0,0,1-.2,2.135A3.47,3.47,0,0,1,314.2,490.9a4.165,4.165,0,0,1-2.038.786,3.843,3.843,0,0,1-2.379-.395,4.482,4.482,0,0,1-1.764-1.8,8.422,8.422,0,0,1-.943-3.072,9.449,9.449,0,0,1,.082-3.375,4.551,4.551,0,0,1,1.249-2.319A4.1,4.1,0,0,1,310.781,479.659Zm.49,5.384a2.883,2.883,0,0,0-2.143,1.481,2.01,2.01,0,0,0-.231,1.237,3.856,3.856,0,0,0,.545,1.611,2.771,2.771,0,0,0,1.1,1.016,2.519,2.519,0,0,0,1.491.225,2.489,2.489,0,0,0,1.279-.535,2.457,2.457,0,0,0,.767-1.12,3.3,3.3,0,0,0,.126-1.53,2.952,2.952,0,0,0-.906-1.9A2.439,2.439,0,0,0,311.271,485.043Z" transform="translate(-224.579 -330.396)" fill="#d5d6d5"/>
        <path id="Path_196" data-name="Path 196" d="M299.954,492.449a5.063,5.063,0,0,1-1.988-.393,3.2,3.2,0,0,1-1.377-1.094,2.878,2.878,0,0,1-.493-1.729,2.543,2.543,0,0,1,.531-1.626,3.242,3.242,0,0,1,1.372-.984,2.625,2.625,0,0,1-1.158-.567,3.563,3.563,0,0,1-.893-1.087,2.691,2.691,0,0,1-.339-1.321,2.927,2.927,0,0,1,.562-1.757,3.5,3.5,0,0,1,1.553-1.153,6.741,6.741,0,0,1,4.658.042,3.531,3.531,0,0,1,1.527,1.181,2.926,2.926,0,0,1,.528,1.768,2.729,2.729,0,0,1-.358,1.314,3.522,3.522,0,0,1-.908,1.069,2.627,2.627,0,0,1-1.17.547,3.331,3.331,0,0,1,1.358,1.01,2.5,2.5,0,0,1,.513,1.635,2.859,2.859,0,0,1-.527,1.721,3.249,3.249,0,0,1-1.405,1.068A5.031,5.031,0,0,1,299.954,492.449Zm.1-11.048a3.618,3.618,0,0,0-2.227.6,1.967,1.967,0,0,0-.845,1.648,2.04,2.04,0,0,0,.367,1.219,2.545,2.545,0,0,0,1.05.848,3.934,3.934,0,0,0,1.612.32,3.887,3.887,0,0,0,1.594-.291,2.539,2.539,0,0,0,1.064-.829,2.047,2.047,0,0,0,.388-1.213,1.965,1.965,0,0,0-.814-1.663A3.57,3.57,0,0,0,300.055,481.4ZM300,487.209a2.953,2.953,0,0,0-1.867.532,1.841,1.841,0,0,0-.723,1.536,1.907,1.907,0,0,0,.7,1.581,3.263,3.263,0,0,0,3.7.03,1.912,1.912,0,0,0,.732-1.564,1.832,1.832,0,0,0-.7-1.548A2.952,2.952,0,0,0,300,487.209Z" transform="translate(-223.799 -330.446)" fill="#d5d6d5"/>
        <path id="Path_197" data-name="Path 197" d="M287.647,491.449a5.027,5.027,0,0,1-1.912-.673,3.2,3.2,0,0,1-1.207-1.281,2.885,2.885,0,0,1-.24-1.782,2.56,2.56,0,0,1,.758-1.533,3.234,3.234,0,0,1,1.5-.778,2.632,2.632,0,0,1-1.065-.729,3.586,3.586,0,0,1-.729-1.2,2.692,2.692,0,0,1-.144-1.356,2.925,2.925,0,0,1,.807-1.658,3.512,3.512,0,0,1,1.7-.919,6.054,6.054,0,0,1,2.374-.054,5.974,5.974,0,0,1,2.228.764,3.507,3.507,0,0,1,1.342,1.388,2.913,2.913,0,0,1,.271,1.824,2.725,2.725,0,0,1-.542,1.251,3.525,3.525,0,0,1-1.052.928,2.628,2.628,0,0,1-1.236.374,3.333,3.333,0,0,1,1.2,1.192,2.515,2.515,0,0,1,.274,1.693,2.86,2.86,0,0,1-.768,1.626,3.25,3.25,0,0,1-1.544.858A5.038,5.038,0,0,1,287.647,491.449Zm.8-5.178a2.953,2.953,0,0,0-1.925.26,1.832,1.832,0,0,0-.933,1.416,1.9,1.9,0,0,0,.467,1.664,3.264,3.264,0,0,0,3.659.56,1.909,1.909,0,0,0,.946-1.443,1.83,1.83,0,0,0-.474-1.633A2.939,2.939,0,0,0,288.445,486.271Zm.884-5.741a3.615,3.615,0,0,0-2.289.277,1.968,1.968,0,0,0-1.073,1.51,2.05,2.05,0,0,0,.189,1.26,2.536,2.536,0,0,0,.918.989,3.911,3.911,0,0,0,1.549.548,3.84,3.84,0,0,0,1.619-.06,2.548,2.548,0,0,0,1.173-.667,2.051,2.051,0,0,0,.558-1.146,1.969,1.969,0,0,0-.567-1.762A3.579,3.579,0,0,0,289.329,480.53Z" transform="translate(-223.019 -330.381)" fill="#d5d6d5"/>
        <path id="Path_198" data-name="Path 198" d="M244.481,455.086l-7.172,6.245,1.522,1.749-.67.582a7.081,7.081,0,0,0-1.188-1.144,1.432,1.432,0,0,0-.869-.317,1.307,1.307,0,0,0-.747.321l-.615-.706,8.875-7.725Z" transform="translate(-219.621 -328.644)" fill="#d5d6d5"/>
        <path id="Path_199" data-name="Path 199" d="M239.444,448.353a4.345,4.345,0,0,1,.7,1.656,3.655,3.655,0,0,1-.066,1.7,3.21,3.21,0,0,1-.916,1.47l-.7-1.027a2.419,2.419,0,0,0,.61-1.507,2.637,2.637,0,0,0-.5-1.644,3.019,3.019,0,0,0-1.537-1.215,3.448,3.448,0,0,0-2.132.063,9.138,9.138,0,0,0-2.714,1.509,3.04,3.04,0,0,1,1.336-.13,3.19,3.19,0,0,1,1.275.453,3.394,3.394,0,0,1,1.034,1,4.368,4.368,0,0,1,.774,1.931,3.267,3.267,0,0,1-.3,1.86,4.025,4.025,0,0,1-1.406,1.554,4.439,4.439,0,0,1-1.994.788,3.475,3.475,0,0,1-1.936-.324,4.143,4.143,0,0,1-1.622-1.463,3.836,3.836,0,0,1-.724-2.3,4.461,4.461,0,0,1,.809-2.389,8.422,8.422,0,0,1,2.313-2.23,9.472,9.472,0,0,1,3.048-1.453,4.562,4.562,0,0,1,2.634.065A4.1,4.1,0,0,1,239.444,448.353Zm-4.58,2.871a2.882,2.882,0,0,0-2.291-1.242,2.005,2.005,0,0,0-1.207.353,3.882,3.882,0,0,0-1.19,1.216,2.733,2.733,0,0,0-.409,1.439,2.518,2.518,0,0,0,.471,1.431,2.422,2.422,0,0,0,2.4,1.078,3.3,3.3,0,0,0,1.421-.579,2.949,2.949,0,0,0,1.283-1.668A2.442,2.442,0,0,0,234.864,451.224Z" transform="translate(-219.2 -328.122)" fill="#d5d6d5"/>
        <path id="Path_200" data-name="Path 200" d="M234.231,439.63a4.3,4.3,0,0,1,.466,1.735,3.645,3.645,0,0,1-.3,1.677,3.214,3.214,0,0,1-1.107,1.331l-.557-1.114a2.422,2.422,0,0,0,.81-1.409,2.634,2.634,0,0,0-.269-1.7,3.022,3.022,0,0,0-1.357-1.414,3.428,3.428,0,0,0-2.118-.229,9.091,9.091,0,0,0-2.9,1.122,3.032,3.032,0,0,1,1.342.053,3.224,3.224,0,0,1,1.2.623,3.421,3.421,0,0,1,.886,1.131,4.361,4.361,0,0,1,.5,2.017,3.262,3.262,0,0,1-.557,1.8,4.03,4.03,0,0,1-1.6,1.347,4.409,4.409,0,0,1-2.083.508,3.462,3.462,0,0,1-1.875-.588,4.158,4.158,0,0,1-1.407-1.67,3.841,3.841,0,0,1-.4-2.379,4.482,4.482,0,0,1,1.129-2.254,8.448,8.448,0,0,1,2.6-1.893,9.447,9.447,0,0,1,3.219-1.019,4.538,4.538,0,0,1,2.6.426A4.091,4.091,0,0,1,234.231,439.63Zm-4.931,2.216a2.78,2.78,0,0,0-.873-1.029,2.827,2.827,0,0,0-1.226-.516,2.007,2.007,0,0,0-1.243.185,3.876,3.876,0,0,0-1.347,1.039,2.749,2.749,0,0,0-.6,1.37,2.515,2.515,0,0,0,.272,1.482,2.417,2.417,0,0,0,2.229,1.4,3.284,3.284,0,0,0,1.489-.379,2.943,2.943,0,0,0,1.5-1.476A2.436,2.436,0,0,0,229.3,441.845Z" transform="translate(-218.805 -327.489)" fill="#d5d6d5"/>
        <path id="Path_201" data-name="Path 201" d="M218.719,433.922a3.51,3.51,0,0,1,.482-3.3,9.766,9.766,0,0,1,8.586-2.927,3.715,3.715,0,0,1,1.934,5.658,7.578,7.578,0,0,1-3.909,2.5,9.7,9.7,0,0,1-3.361.606,4.321,4.321,0,0,1-2.39-.7A3.556,3.556,0,0,1,218.719,433.922Zm10.387-3.543a2.206,2.206,0,0,0-1.739-1.524,7.623,7.623,0,0,0-3.765.551,7.744,7.744,0,0,0-3.376,1.888,2.221,2.221,0,0,0-.458,2.278,2.247,2.247,0,0,0,1.763,1.532,7.589,7.589,0,0,0,3.824-.546,7.392,7.392,0,0,0,3.308-1.881A2.265,2.265,0,0,0,229.107,430.379Z" transform="translate(-218.506 -326.817)" fill="#d5d6d5"/>
        <path id="Path_202" data-name="Path 202" d="M232.581,375.584l-8.669-3.909-.954,2.113-.808-.365a7.022,7.022,0,0,0,.542-1.558,1.433,1.433,0,0,0-.075-.921,1.32,1.32,0,0,0-.6-.545l.385-.852,10.723,4.837Z" transform="translate(-218.747 -322.84)" fill="#d5d6d5"/>
        <path id="Path_203" data-name="Path 203" d="M236.531,368.134a4.341,4.341,0,0,1-1.21,1.33,3.67,3.67,0,0,1-1.573.653,3.207,3.207,0,0,1-1.719-.215l.638-1.069a2.428,2.428,0,0,0,1.623-.078,2.634,2.634,0,0,0,1.284-1.144,3.026,3.026,0,0,0,.458-1.9,3.434,3.434,0,0,0-.953-1.908,9.11,9.11,0,0,0-2.505-1.831,3.045,3.045,0,0,1,.677,1.158,3.151,3.151,0,0,1,.125,1.348,3.385,3.385,0,0,1-.473,1.357,4.354,4.354,0,0,1-1.427,1.513,3.262,3.262,0,0,1-1.815.5,4.024,4.024,0,0,1-2-.625,4.418,4.418,0,0,1-1.553-1.479,3.485,3.485,0,0,1-.518-1.9,4.18,4.18,0,0,1,.647-2.087,3.853,3.853,0,0,1,1.785-1.621,4.482,4.482,0,0,1,2.508-.266,8.477,8.477,0,0,1,3,1.165,9.512,9.512,0,0,1,2.6,2.159,4.547,4.547,0,0,1,1.045,2.418A4.1,4.1,0,0,1,236.531,368.134ZM232,365.179a2.883,2.883,0,0,0,.168-2.6,2.006,2.006,0,0,0-.828-.947,3.861,3.861,0,0,0-1.6-.572,2.747,2.747,0,0,0-1.479.231,2.526,2.526,0,0,0-1.1,1.03,2.421,2.421,0,0,0,.028,2.631A3.285,3.285,0,0,0,228.312,366a2.938,2.938,0,0,0,2.053.466A2.436,2.436,0,0,0,232,365.179Z" transform="translate(-218.993 -322.171)" fill="#d5d6d5"/>
        <path id="Path_204" data-name="Path 204" d="M242.287,359.733a4.361,4.361,0,0,1-1.379,1.153,3.656,3.656,0,0,1-1.648.433,3.2,3.2,0,0,1-1.675-.446l.778-.972a2.422,2.422,0,0,0,1.619.142,2.627,2.627,0,0,0,1.428-.959,3.024,3.024,0,0,0,.712-1.825,3.442,3.442,0,0,0-.684-2.019,9.146,9.146,0,0,0-2.236-2.155,3.036,3.036,0,0,1,.515,1.24,3.213,3.213,0,0,1-.059,1.352,3.4,3.4,0,0,1-.655,1.281,4.335,4.335,0,0,1-1.618,1.3,3.262,3.262,0,0,1-1.867.252,4.008,4.008,0,0,1-1.9-.889,4.412,4.412,0,0,1-1.337-1.676,3.482,3.482,0,0,1-.256-1.947,4.2,4.2,0,0,1,.923-1.98,3.862,3.862,0,0,1,1.99-1.364,4.479,4.479,0,0,1,2.52.076,8.431,8.431,0,0,1,2.81,1.561,9.468,9.468,0,0,1,2.279,2.491,4.562,4.562,0,0,1,.707,2.537A4.1,4.1,0,0,1,242.287,359.733ZM238.2,356.19a2.874,2.874,0,0,0,.519-2.553,2.012,2.012,0,0,0-.69-1.051,3.886,3.886,0,0,0-1.51-.783,2.743,2.743,0,0,0-1.5.03,2.517,2.517,0,0,0-1.23.87,2.483,2.483,0,0,0-.552,1.271,2.456,2.456,0,0,0,.223,1.339,3.321,3.321,0,0,0,.97,1.19,2.942,2.942,0,0,0,1.971.74A2.437,2.437,0,0,0,238.2,356.19Z" transform="translate(-219.432 -321.533)" fill="#d5d6d5"/>
        <path id="Path_205" data-name="Path 205" d="M248.035,353.091l-6.7-6.747-1.644,1.635-.625-.63a7.1,7.1,0,0,0,1.063-1.262,1.427,1.427,0,0,0,.258-.888,1.305,1.305,0,0,0-.368-.724l.664-.659,8.29,8.346Z" transform="translate(-219.918 -321.074)" fill="#d5d6d5"/>
      </g>
    </g>
  </g>
</svg>
