<svg id="Group_584" data-name="Group 584" xmlns="http://www.w3.org/2000/svg" xmlns:xlink="http://www.w3.org/1999/xlink" width="19.181" height="19.183" viewBox="0 0 19.181 19.183">
  <defs>
    <clipPath id="clip-path">
      <rect id="Rectangle_333" data-name="Rectangle 333" width="19.181" height="19.183" fill="none"/>
    </clipPath>
  </defs>
  <g id="Group_577" data-name="Group 577" clip-path="url(#clip-path)">
    <path id="Path_1170" data-name="Path 1170" d="M75.927,152.838h0a2.272,2.272,0,1,1,2.272-2.272,2.272,2.272,0,0,1-2.272,2.272" transform="translate(-66.385 -133.657)" fill="red"/>
    <rect id="Rectangle_329" data-name="Rectangle 329" width="4.544" height="4.544" transform="translate(7.27 0)" fill="#231f20"/>
    <rect id="Rectangle_330" data-name="Rectangle 330" width="4.544" height="4.544" transform="translate(7.27 7.318)" fill="#231f20"/>
    <rect id="Rectangle_331" data-name="Rectangle 331" width="4.544" height="4.544" transform="translate(0 7.27)" fill="#231f20"/>
    <path id="Path_1171" data-name="Path 1171" d="M148.293,75.928h0a2.272,2.272,0,1,1,2.272,2.272,2.272,2.272,0,0,1-2.272-2.272" transform="translate(-133.656 -66.386)" fill="red"/>
    <path id="Path_1172" data-name="Path 1172" d="M73.642,150.579h0a2.272,2.272,0,1,1,2.272,2.272,2.272,2.272,0,0,1-2.272-2.272" transform="translate(-66.373 -133.669)" fill="red"/>
    <rect id="Rectangle_332" data-name="Rectangle 332" width="4.544" height="4.544" transform="translate(7.318 7.27)" fill="#231f20"/>
  </g>
</svg>
