<?xml version="1.0" encoding="UTF-8"?><svg id="Layer_1" xmlns="http://www.w3.org/2000/svg" viewBox="0 0 487.3 49.1"><defs><style>.cls-1{fill:#fff;}</style></defs><path class="cls-1" d="M0,48.6V.3H20.8c2.4,0,4.5,.5,6.5,1.5,2,1,3.7,2.2,5.1,3.8s2.6,3.4,3.4,5.4c.8,2,1.2,4,1.2,6.1s-.4,4.2-1.2,6.2c-.8,2-1.8,3.8-3.2,5.4-1.4,1.6-3.1,2.8-5,3.7-2,.9-4.1,1.4-6.5,1.4h-7.9v14.8H0ZM13.3,22.2h7c.8,0,1.6-.4,2.3-1.1,.7-.7,1.1-2.1,1.1-4s-.4-3.4-1.2-4.1c-.8-.7-1.6-1.1-2.4-1.1h-6.7v10.3Z"/><path class="cls-1" d="M65.5,49.1c-3.7,0-7-.7-10-2.1-3-1.4-5.6-3.3-7.7-5.5-2.1-2.3-3.8-4.9-5-7.9-1.2-2.9-1.8-6-1.8-9.1s.6-6.2,1.8-9.2c1.2-2.9,2.9-5.5,5.1-7.8,2.2-2.2,4.8-4,7.8-5.4C58.9,.7,62.2,0,65.8,0s7,.7,10,2.1c3,1.4,5.6,3.3,7.7,5.6s3.8,4.9,4.9,7.9c1.2,2.9,1.7,6,1.7,9s-.6,6.2-1.8,9.2c-1.2,2.9-2.9,5.5-5.1,7.8-2.2,2.2-4.8,4-7.8,5.4-3,1.4-6.3,2-9.9,2m-11-24.5c0,1.6,.2,3.2,.7,4.7,.5,1.5,1.1,2.9,2,4,.9,1.2,2.1,2.1,3.4,2.9,1.4,.7,3,1.1,4.9,1.1s3.6-.4,5-1.1c1.4-.7,2.6-1.7,3.4-2.9,.9-1.2,1.5-2.6,2-4.1,.4-1.5,.6-3.1,.6-4.7s-.2-3.2-.7-4.7c-.5-1.5-1.1-2.9-2.1-4-.9-1.2-2.1-2.1-3.5-2.8-1.4-.7-3-1.1-4.9-1.1s-3.5,.4-4.9,1.1c-1.4,.7-2.5,1.7-3.4,2.9-.9,1.2-1.6,2.6-2,4.1-.4,1.5-.6,3.1-.6,4.7"/><polygon class="cls-1" points="134 11.9 120.1 11.9 120.1 48.6 106.9 48.6 106.9 11.9 92.9 11.9 92.9 .3 134 .3 134 11.9"/><path class="cls-1" d="M161.2,49.1c-3.7,0-7-.7-10-2.1-3-1.4-5.6-3.3-7.7-5.5-2.1-2.3-3.8-4.9-5-7.9-1.2-2.9-1.8-6-1.8-9.1s.6-6.2,1.8-9.2c1.2-2.9,2.9-5.5,5.1-7.8,2.2-2.2,4.8-4,7.8-5.4,3-1.3,6.3-2,9.9-2s7,.7,10,2.1c3,1.4,5.6,3.3,7.7,5.6,2.1,2.3,3.8,4.9,4.9,7.9,1.2,2.9,1.7,6,1.7,9s-.6,6.2-1.8,9.2c-1.2,2.9-2.9,5.5-5.1,7.8-2.2,2.2-4.8,4-7.8,5.4-3,1.4-6.3,2-9.9,2m-11-24.5c0,1.6,.2,3.2,.7,4.7,.5,1.5,1.1,2.9,2,4,.9,1.2,2.1,2.1,3.4,2.9,1.4,.7,3,1.1,4.9,1.1s3.6-.4,5-1.1c1.4-.7,2.6-1.7,3.4-2.9,.9-1.2,1.5-2.6,2-4.1,.4-1.5,.6-3.1,.6-4.7s-.2-3.2-.7-4.7c-.5-1.5-1.1-2.9-2.1-4-.9-1.2-2.1-2.1-3.5-2.8-1.4-.7-3-1.1-4.9-1.1s-3.5,.4-4.9,1.1c-1.4,.7-2.5,1.7-3.4,2.9-.9,1.2-1.6,2.6-2,4.1-.4,1.5-.6,3.1-.6,4.7"/><path class="cls-1" d="M214.6,49.1c-3.7,0-7-.7-10-2.1-3-1.4-5.6-3.3-7.7-5.5-2.1-2.3-3.8-4.9-5-7.9-1.2-2.9-1.8-6-1.8-9.1s.6-6.2,1.8-9.2c1.2-2.9,2.9-5.5,5.1-7.8,2.2-2.2,4.8-4,7.8-5.4,3-1.3,6.3-2,9.9-2s7,.7,10,2.1c3,1.4,5.6,3.3,7.7,5.6,2.1,2.3,3.8,4.9,4.9,7.9,1.2,2.9,1.7,6,1.7,9s-.6,6.2-1.8,9.2c-1.2,2.9-2.9,5.5-5.1,7.8-2.2,2.2-4.8,4-7.8,5.4-3,1.4-6.3,2-9.9,2m-11-24.5c0,1.6,.2,3.2,.7,4.7,.5,1.5,1.1,2.9,2,4,.9,1.2,2.1,2.1,3.4,2.9,1.4,.7,3,1.1,4.9,1.1s3.6-.4,5-1.1c1.4-.7,2.6-1.7,3.4-2.9,.9-1.2,1.5-2.6,2-4.1,.4-1.5,.6-3.1,.6-4.7s-.2-3.2-.7-4.7c-.5-1.5-1.1-2.9-2.1-4-.9-1.2-2.1-2.1-3.5-2.8-1.4-.7-3-1.1-4.9-1.1s-3.5,.4-4.9,1.1c-1.4,.7-2.5,1.7-3.4,2.9-.9,1.2-1.6,2.6-2,4.1-.4,1.5-.6,3.1-.6,4.7"/><path class="cls-1" d="M283,11.7c-.5-.5-1.1-1-2-1.6-.9-.6-1.9-1.1-3-1.6-1.2-.5-2.4-.9-3.8-1.2-1.4-.3-2.8-.5-4.3-.5-3.2,0-5.6,.6-7.1,1.8-1.5,1.2-2.3,2.8-2.3,4.9s.2,2.1,.7,2.9c.5,.7,1.2,1.4,2.2,2,1,.6,2.2,1.1,3.7,1.5,1.5,.4,3.2,.9,5.2,1.4,2.4,.6,4.7,1.2,6.6,2,2,.7,3.6,1.6,5,2.7,1.4,1,2.4,2.3,3.2,3.8,.7,1.5,1.1,3.4,1.1,5.5s-.5,4.6-1.4,6.3c-.9,1.8-2.2,3.2-3.8,4.3-1.6,1.1-3.5,1.9-5.6,2.4-2.1,.5-4.4,.8-6.9,.8-3.7,0-7.2-.6-10.6-1.7-3.4-1.1-6.5-2.7-9.3-4.9l3.5-6.5c.6,.6,1.4,1.2,2.6,2,1.1,.7,2.4,1.4,3.9,2,1.5,.6,3.1,1.1,4.8,1.6,1.7,.4,3.5,.6,5.4,.6,3,0,5.3-.5,6.9-1.6,1.6-1,2.4-2.6,2.4-4.6s-.3-2.2-.9-3.1c-.6-.8-1.5-1.5-2.6-2.1-1.1-.6-2.5-1.2-4.1-1.7-1.6-.5-3.5-1-5.6-1.6-2.4-.6-4.5-1.3-6.3-2-1.8-.7-3.3-1.6-4.5-2.6-1.2-1-2.1-2.2-2.7-3.5-.6-1.3-.9-3-.9-4.9s.5-4.5,1.4-6.3c.9-1.8,2.1-3.4,3.7-4.6,1.6-1.2,3.4-2.2,5.5-2.8C265.3,.3,267.6,0,270.1,0s6.3,.5,9,1.6c2.8,1,5.2,2.3,7.3,3.9l-3.5,6.3Z"/><polygon class="cls-1" points="328.7 7.1 312.6 7.1 312.6 48.6 305 48.6 305 7.1 288.8 7.1 288.8 .3 328.7 .3 328.7 7.1"/><path class="cls-1" d="M352.9,42.1c2.5,0,4.6-.5,6.3-1.5,1.7-1,3-2.3,4-3.9,1-1.6,1.7-3.4,2.2-5.5,.4-2.1,.6-4.2,.6-6.4V.3h7.7V24.8c0,3.3-.4,6.4-1.2,9.4-.8,2.9-2,5.5-3.7,7.7-1.7,2.2-3.8,3.9-6.5,5.2-2.7,1.3-5.8,1.9-9.6,1.9s-7.1-.7-9.8-2c-2.7-1.3-4.8-3.1-6.4-5.4-1.6-2.2-2.8-4.8-3.5-7.7-.7-2.9-1.1-5.9-1.1-9V.3h7.6V24.8c0,2.2,.2,4.4,.6,6.4,.4,2.1,1.2,3.9,2.2,5.5,1,1.6,2.4,2.9,4.1,3.9,1.7,1,3.8,1.5,6.3,1.5"/><path class="cls-1" d="M381.6,48.6V.3h17.1c3.9,0,7.3,.6,10.2,1.9,2.9,1.3,5.4,3,7.3,5.2,2,2.2,3.5,4.7,4.5,7.7,1,2.9,1.5,6,1.5,9.4s-.6,7-1.7,10c-1.1,3-2.7,5.5-4.7,7.6-2,2.1-4.5,3.7-7.4,4.9-2.9,1.2-6.1,1.7-9.7,1.7h-17.1Zm32.9-24.2c0-2.5-.4-4.9-1.1-7-.7-2.1-1.7-4-3.1-5.5-1.4-1.5-3-2.7-5-3.6-2-.9-4.2-1.3-6.7-1.3h-9.5V41.9h9.5c2.5,0,4.8-.4,6.8-1.3,2-.9,3.6-2.1,5-3.7,1.3-1.6,2.3-3.4,3-5.5,.7-2.1,1-4.4,1-6.9"/><rect class="cls-1" x="427.9" y=".3" width="7.6" height="48.3"/><path class="cls-1" d="M464.1,49c-3.4,0-6.6-.7-9.4-2.1-2.8-1.4-5.3-3.2-7.3-5.5-2-2.3-3.6-4.9-4.7-7.9-1.1-2.9-1.7-6-1.7-9s.6-6.3,1.8-9.3c1.2-2.9,2.8-5.6,4.9-7.8,2.1-2.3,4.5-4.1,7.3-5.4,2.8-1.3,5.9-2,9.3-2s6.6,.7,9.4,2.1c2.8,1.4,5.3,3.3,7.3,5.6,2,2.3,3.6,4.9,4.7,7.9,1.1,2.9,1.7,5.9,1.7,8.9s-.6,6.3-1.7,9.3c-1.2,2.9-2.8,5.5-4.9,7.8-2.1,2.2-4.5,4-7.4,5.4-2.8,1.3-5.9,2-9.2,2m-15.4-24.5c0,2.3,.4,4.5,1.1,6.6,.7,2.1,1.8,4,3.1,5.6,1.3,1.6,3,2.9,4.9,3.9,1.9,1,4,1.5,6.4,1.5s4.6-.5,6.5-1.5c1.9-1,3.5-2.4,4.8-4,1.3-1.7,2.3-3.6,3-5.6,.7-2.1,1-4.2,1-6.4s-.4-4.5-1.1-6.6c-.7-2.1-1.8-4-3.1-5.6-1.3-1.6-2.9-2.9-4.8-3.9-1.9-1-4-1.5-6.3-1.5s-4.6,.5-6.5,1.5c-1.9,1-3.5,2.3-4.8,4-1.3,1.6-2.3,3.5-3,5.6-.7,2.1-1.1,4.3-1.1,6.4"/></svg>