<?xml version="1.0" encoding="utf-8"?>
<!-- Generator: Adobe Illustrator 25.4.1, SVG Export Plug-In . SVG Version: 6.00 Build 0)  -->
<svg version="1.1" id="Layer_1" xmlns="http://www.w3.org/2000/svg" xmlns:xlink="http://www.w3.org/1999/xlink" x="0px" y="0px"
	 viewBox="0 0 70.7 71.1" style="enable-background:new 0 0 70.7 71.1;" xml:space="preserve">
<style type="text/css">
	.st0{fill:#7C7878;}
	.st1{fill:#FFFFFF;}
</style>
<g id="behance-1" transform="translate(1.067 1.067)">
	<circle id="background" class="st0" cx="34.3" cy="34.5" r="34.5"/>
	<path id="behance" class="st1" d="M24.3,19.2c1.3,0,2.6,0.1,3.9,0.4c1.1,0.2,2.1,0.6,3,1.2c0.8,0.6,1.5,1.4,2,2.3
		c0.5,1.1,0.7,2.3,0.7,3.5c0,1.3-0.3,2.7-1,3.8c-0.8,1.1-1.8,1.9-3.1,2.5c1.7,0.4,3.1,1.4,4.2,2.8c1.6,2.7,1.8,6,0.5,8.8
		c-0.6,1.1-1.4,2-2.4,2.7c-1,0.7-2.2,1.2-3.4,1.6c-1.3,0.3-2.6,0.5-3.9,0.5H10.2V19.2H24.3z M23.5,31.4c1,0,2.1-0.3,2.9-0.8
		c0.8-0.7,1.2-1.7,1.1-2.7c0-0.6-0.1-1.2-0.4-1.7c-0.2-0.4-0.6-0.8-1-1.1c-0.4-0.3-0.9-0.4-1.5-0.5c-0.6-0.1-1.1-0.1-1.7-0.1h-6.2v7
		L23.5,31.4L23.5,31.4z M23.9,44.2c0.6,0,1.2-0.1,1.9-0.2c0.6-0.1,1.1-0.3,1.6-0.6c0.5-0.3,0.8-0.7,1.1-1.2c0.3-0.6,0.4-1.3,0.4-1.9
		c0.1-1.2-0.4-2.5-1.3-3.3c-1-0.7-2.2-1.1-3.5-1h-7.2v8.3L23.9,44.2z M43.7,43.5c2,1.6,4.8,1.7,7,0.4c0.7-0.4,1.3-1.1,1.6-1.9h5.3
		c-0.6,2.3-2,4.3-3.9,5.6c-1.9,1.2-4.1,1.8-6.3,1.7c-1.6,0-3.2-0.3-4.6-0.8c-1.3-0.5-2.5-1.3-3.5-2.3c-1-1-1.7-2.3-2.2-3.6
		c-0.5-1.5-0.8-3.1-0.8-4.6c0-1.6,0.3-3.1,0.8-4.6c1-2.7,3.1-4.9,5.8-6.1c1.4-0.6,3-0.9,4.5-0.9c1.7,0,3.3,0.3,4.9,1.1
		c1.3,0.7,2.5,1.7,3.4,2.9c0.9,1.2,1.6,2.6,1.9,4.1c0.4,1.6,0.5,3.2,0.4,4.8H42.2C42.2,40.9,42.7,42.4,43.7,43.5L43.7,43.5z
		 M50.5,32.1c-0.9-0.8-2.1-1.3-3.3-1.2c-0.8,0-1.6,0.1-2.4,0.5c-0.6,0.3-1.1,0.7-1.5,1.2c-0.4,0.4-0.6,1-0.8,1.5
		c-0.1,0.5-0.2,0.9-0.3,1.4H52C51.8,34.3,51.3,33.1,50.5,32.1L50.5,32.1z M41.2,20.7h12.2v3.4H41.2V20.7z"/>
</g>
</svg>
