<?xml version="1.0" encoding="utf-8"?>
<!-- Generator: Adobe Illustrator 26.0.3, SVG Export Plug-In . SVG Version: 6.00 Build 0)  -->
<svg version="1.1" id="Layer_1" xmlns="http://www.w3.org/2000/svg" xmlns:xlink="http://www.w3.org/1999/xlink" x="0px" y="0px"
	 viewBox="0 0 56.1 149.1" style="enable-background:new 0 0 56.1 149.1;" xml:space="preserve">
<style type="text/css">
	.st0{fill:#FCFDFF;}
</style>
<g>
	<path class="st0" d="M45.7,81.4c0,0-0.1,0-0.2,0c0,0-0.7-1-0.7-1.1c-0.3-0.5-0.6-0.9-0.9-1.4c-0.6-0.9-1.2-1.7-2.1-2.2
		c-0.9-0.6-1.9-0.8-2.9-0.5c-2.1,0.7-3,3.7-2.9,5.7c0-0.6-0.4-1.2-0.6-1.7c-0.3-0.6-0.6-1.1-1-1.6c-0.6-0.9-1.6-1.6-2.7-1.8
		c-2.4-0.4-3.8,1.9-5.3,3.2c-0.6,0.5-1.2,0.8-2,0.5c-0.6-0.2-1-0.6-1.4-1c-0.4-0.4-0.8-0.9-1.2-1.3c-0.1-0.1-0.3-0.2-0.4-0.2
		c0.1,0.3,0.3,0.5,0.5,0.7c0.2,0.2,0.4,0.6,0.6,0.8c0.9,1.2,2.3,2.5,3.9,2.3c0.7-0.1,1.3-0.5,1.8-0.9c1-0.9,2.1-2.5,3.6-2.1
		c0.4,0.1,0.8,0.4,1.1,0.6c1.3,1,2.2,2.5,3.1,3.8c0.1,0.1,0.1,0.1,0.2,0.1c0.1,0,0.1-0.1,0.1-0.1c0.2-1.1,0.5-2.2,0.9-3.3
		c0.4-0.8,0.9-1.9,1.8-2.2c0.6-0.2,1.2-0.1,1.8,0.1c0.7,0.3,1.2,0.8,1.8,1.3c0.5,0.4,0.9,0.8,1.4,1.3c0.4,0.4,0.8,0.9,1.2,1.3
		c0.1,0.1,0.2,0.1,0.3,0C45.8,81.5,45.8,81.4,45.7,81.4z"/>
	<path class="st0" d="M44.4,42.4"/>
	<path class="st0" d="M48.2,31.1c-0.8,1.7-1.6,2.2-1.6,2.2s3.2-6.2-8.2-6.5c-12.6-0.4-13.5-0.4-13.5-0.4s2,0,3.3-0.1
		c3.9-0.1,14.2-2.4,17.1-1.3C48.2,26,49.4,28.5,48.2,31.1z"/>
	<path class="st0" d="M35.2,23c0,0-3.4,1.6-5,1.3c-3.7-0.7-3.3-3.7-3.3-3.7s0.1-3.9,4.5-4.1C35.8,16.4,35.2,23,35.2,23z"/>
	<path class="st0" d="M14.5,30c1.8-8,4.3-18.7,13.6-21.1c8.6-2.2,14-5.7,14-5.8c0,0.2-3.2,8.1,2.8,10.3c5.1,1.8,9-0.1,9.1-0.1
		c0.1,0.2-1.2,6.9,0.4,10c1.6,3.2-0.7,6.1-1.9,6.8c-3.4,2.3-6.6,9.5-8.1,12.3c1.4-2.9,2.3-6,3.9-8.9c0.9-1.5,2-2.9,3.3-4.1
		c0,0,0.1-0.1,0.1-0.1c0,0,0-0.1-0.1-0.1c-0.5-0.5-0.9-1-1.4-1.5c-0.1-0.1-0.3-0.3-0.3-0.4c0-0.1,0-0.2,0.1-0.3
		c0.2-0.6,0.4-1.2,0.7-1.6c0.1-0.2,0.3-0.4,0.5-0.5c0.2-0.1,0.3-0.3,0.3-0.5c0-0.9-0.2-1.9-0.5-2.8c-0.3-0.9-0.5-1.6-1-2.7
		c0,0-2.5,0-6.4-1.7c-3.8-1.6-6.5-5.1-6.5-5.1s-7.6-0.3-14.4,6.4c-2.6,2.6-4.7,8.5-6.7,13c-1.1,2.3-5.2,8.3-6,9.6
		c-0.8,1.3-0.8,1.4-1.2,2.1C8.5,43.9,3,57.7,6.6,73.2c0.8,3.3,1.6,6.6,2.8,9.8c1.2,3.2,3,6.3,4.9,9.2c0-0.1-0.3-1.1-0.2-2.1
		c-0.1-2,0.5-3.2,0.5-3.2l0.8,3.2c0.4,1.4,1.3,3.5,1.6,4.2c1.1,2.3,2.2,4,3.7,6.1c0.2,0.3,0.4,0.5,0.6,0.8c0,0,3.4,4.8,4.5,2.6
		c0.1-0.2,5.3,12.6,8.9,16.1c0.9,1.1,1.9,2.3,2.7,3.6c-0.6-5.7-0.2-11.4,1.2-16.9c1.8-7.1,5.9-13.4,8.6-20.3
		c2.4-6,3.9-12.6,2.8-18.9c0.9,5,1.3,10.2,0.6,15.2c-0.8,4.9-2.7,9.6-4.6,14.2c-0.4,1-0.8,2.1-1.2,3.1c-1.6,4.4-2.9,9.1-2.5,13.9
		c0.3,4.2,2.6,7.9,4.1,11.8c1.7,4.5,3.8,8.9,4.3,13.8c0.1,0.5-0.1,1.2-0.2,1.7c0,0.1-0.1,0.2-0.1,0.3c0.9,1.3,0.7,2.6,0.5,3.1
		c-0.1,0.2-0.3,0.6-1,1c-0.6,0.3-2,0.6-3.2,0.6c-9.3-0.3-16.4-9.6-20.7-17.2c-0.4-0.7-0.8-1.4-1.1-2.1c-2.3-4.5-3.9-9.4-6.2-14
		c-2.4-4.7-4.9-9.3-7.6-13.9c-2.5-4.4-4.4-9.4-6-14.2c-0.6-1.8-1.2-3.6-1.7-5.4c-1.2-4.4-2-9-2-13.6c-0.1-11.5,6.5-21.9,7-22.7
		c0.5-0.8,1.3-2.1,1.3-2.1S13.3,35.5,14.5,30z"/>
</g>
</svg>
