<?xml version="1.0" encoding="utf-8"?>
<!-- Generator: Adobe Illustrator 25.3.1, SVG Export Plug-In . SVG Version: 6.00 Build 0)  -->
<svg version="1.1" id="Layer_1" xmlns="http://www.w3.org/2000/svg" xmlns:xlink="http://www.w3.org/1999/xlink" x="0px" y="0px"
	 viewBox="0 0 56.1 149.1" style="enable-background:new 0 0 56.1 149.1;" xml:space="preserve">
<style type="text/css">
	.st0{fill:#FFFDFD;}
</style>
<g>
	<path class="st0" d="M46.5,80.3c0,0-0.1,0-0.2,0c0,0-0.7-1.1-0.7-1.2c-0.3-0.5-0.6-1-0.9-1.4c-0.6-0.9-1.2-1.7-2.1-2.2
		c-0.9-0.6-2-0.8-3-0.5c-2.1,0.7-3,3.8-2.9,5.8c0-0.6-0.4-1.3-0.6-1.7c-0.3-0.6-0.6-1.1-1-1.7c-0.7-0.9-1.6-1.6-2.7-1.8
		c-2.4-0.4-3.8,1.9-5.4,3.3c-0.6,0.5-1.3,0.8-2,0.5c-0.6-0.2-1-0.6-1.4-1c-0.4-0.4-0.8-0.9-1.2-1.3c-0.1-0.1-0.3-0.2-0.4-0.2
		c0.2,0.3,0.3,0.5,0.5,0.7c0.2,0.2,0.4,0.6,0.6,0.8c0.9,1.2,2.3,2.6,4,2.3c0.7-0.1,1.3-0.5,1.8-1c1-0.9,2.2-2.5,3.7-2.1
		c0.4,0.1,0.8,0.4,1.1,0.6c1.3,1.1,2.2,2.5,3.2,3.8c0.1,0.1,0.1,0.2,0.2,0.1c0.1,0,0.1-0.1,0.1-0.2c0.2-1.1,0.5-2.3,1-3.4
		c0.4-0.8,1-1.9,1.9-2.3c0.6-0.2,1.2-0.1,1.8,0.2c0.7,0.3,1.3,0.8,1.8,1.3c0.5,0.4,1,0.8,1.4,1.3c0.4,0.4,0.8,0.9,1.3,1.3
		c0.1,0.1,0.2,0.1,0.3,0C46.6,80.4,46.6,80.3,46.5,80.3z"/>
	<path class="st0" d="M45.2,40.6L45.2,40.6z"/>
	<path class="st0" d="M49.1,29c-0.8,1.8-1.6,2.2-1.6,2.2s3.2-6.3-8.3-6.7c-12.9-0.4-13.8-0.4-13.8-0.4s2,0,3.4-0.1
		c4-0.1,14.5-2.4,17.4-1.3C49.1,23.8,50.3,26.4,49.1,29z"/>
	<path class="st0" d="M35.8,20.8c0,0-3.5,1.7-5.1,1.3c-3.8-0.7-3.3-3.8-3.3-3.8s0.1-4,4.6-4.1C36.5,14.1,35.8,20.8,35.8,20.8z"/>
	<path class="st0" d="M15,28c0.8-7.2,1.5-16.2,13.7-19c8.2-1.9,12.8-5.6,12.9-5.7c-0.1,0.2-2.5,6.9,3.6,9.3c5.2,2,8.7-0.2,8.7-0.3
		c0,0.1-1.3,5.7,0.2,8.9c1.6,3.2,0.5,6.2-0.7,7c-3.5,2.3-6.8,9.7-8.3,12.6c1.5-3,2.3-6.2,4-9c0.9-1.6,2.1-2.9,3.4-4.2
		c0,0,0.1-0.1,0.1-0.1c0,0,0-0.1-0.1-0.1c-0.5-0.5-1-1-1.5-1.5c-0.1-0.1-0.3-0.3-0.3-0.4c0-0.1,0-0.2,0.1-0.3
		c0.2-0.6,0.4-1.2,0.7-1.7c0.2-0.2,0.3-0.4,0.5-0.5c0.2-0.1,0.3-0.3,0.3-0.5c-0.2-0.9-0.4-1.8-0.7-2.6c-0.3-1-0.5-2-0.8-2.9
		c0,0-2.6,0.4-6.6-1.3c-3.8-1.7-6.8-4.8-6.8-4.8s-9.5-0.2-16.4,6.6c-2.7,2.6-2.7,7.8-4.8,12.4c-1.1,2.4-5.3,8.5-6.1,9.8
		S9.3,40.8,9,41.5C8.6,42.2,3,56.1,6.7,72c0.8,3.4,1.6,6.7,2.9,9.9c1.3,3.3,3,6.5,5,9.4c0-0.1-0.3-1.1-0.2-2.1
		c-0.1-2,0.5-3.2,0.5-3.2l0.8,3.3c0.4,1.4,1.3,3.6,1.6,4.2c1.1,2.3,2.2,4.1,3.8,6.2c0.2,0.3,0.4,0.5,0.6,0.8c0,0,3.5,4.9,4.6,2.7
		c0.1-0.2,5.4,12.8,9.1,16.4c1,1.1,2,2.3,2.8,3.7c-0.6-5.8-0.2-11.6,1.3-17.2c1.9-7.2,6-13.7,8.7-20.6c2.4-6.1,3.9-12.8,2.8-19.3
		c0.9,5.1,1.4,10.4,0.6,15.5c-0.8,5-2.8,9.8-4.7,14.4c-0.4,1.1-0.8,2.1-1.2,3.2c-1.7,4.5-2.9,9.3-2.6,14.1c0.3,4.3,2.6,8.1,4.1,12
		c1.7,4.6,3.8,9.1,4.4,14c0.1,0.5-0.1,1.3-0.2,1.7c0,0.1-0.1,0.2-0.1,0.3c0.9,1.3,0.7,2.7,0.5,3.2c-0.1,0.2-0.3,0.6-1,1
		c-0.6,0.3-2.1,0.6-3.3,0.6c-9.5-0.3-16.7-9.8-21.1-17.5c-0.4-0.7-0.8-1.4-1.1-2.1c-2.4-4.6-4-9.6-6.3-14.2c-2.4-4.8-5-9.5-7.7-14.1
		C8.6,93.6,6.6,88.5,5,83.7c-0.6-1.8-1.2-3.7-1.7-5.5C2,73.6,1.2,69,1.2,64.3C1.1,52.6,8.4,42,8.9,41.2c0.5-0.8,1.3-2.2,1.3-2.2
		S14.7,30.8,15,28z"/>
</g>
</svg>
