<svg id="Layer_1" data-name="Layer 1" xmlns="http://www.w3.org/2000/svg" viewBox="0 0 1508.6 252.9"><defs><style>.cls-1{fill:#fff;}</style></defs><path class="cls-1" d="M293.5,373.1l.5,1.5-9.8,25.8-13.5,35.2h27l-6.5-16.7,9.8-25.8,31.2,82.5H312.1l-7.4-21h-41l-8.4,21H235.7l38.7-102.5Z" transform="translate(-235.7 -373.1)"/><path class="cls-1" d="M412.7,475.6H392.1l-18.2-35H362.8v35H343.7V373.1h36.7a30.8,30.8,0,0,1,22.8,9.7,32.1,32.1,0,0,1,9.5,23.4v1c0,13.8-6.5,24-19.6,30.6Zm-34.2-54.1a13.4,13.4,0,0,0,9.9-4.4,14.6,14.6,0,0,0,4.2-10.5,14.2,14.2,0,0,0-14.1-14.3H362.8v29.2Z" transform="translate(-235.7 -373.1)"/><path class="cls-1" d="M490.9,373.1v19.2H463.5v83.3H443.9V392.3H417V373.1Z" transform="translate(-235.7 -373.1)"/><path class="cls-1" d="M499.1,373.1h18.7V475.6H499.1Z" transform="translate(-235.7 -373.1)"/><path class="cls-1" d="M581.3,458a33.3,33.3,0,0,0,7.8-.9,33.9,33.9,0,0,0,7.1-2.8,37.5,37.5,0,0,0,6.2-4.2,33.9,33.9,0,0,0,5.1-5.6l13,11.5a53.6,53.6,0,0,1-7.8,8,46.1,46.1,0,0,1-9.3,6.3,47.2,47.2,0,0,1-10.5,3.9,44.4,44.4,0,0,1-11.6,1.4,49.4,49.4,0,0,1-35.4-15,50.5,50.5,0,0,1-7.8-10.4A52.5,52.5,0,0,1,533,438a51.3,51.3,0,0,1-1.8-13.6,50.7,50.7,0,0,1,1.8-13.6,51.4,51.4,0,0,1,5.1-12.3,53.3,53.3,0,0,1,7.8-10.4A48.5,48.5,0,0,1,568,375a45.5,45.5,0,0,1,13.3-1.9,49.1,49.1,0,0,1,11.6,1.4,53,53,0,0,1,10.5,4,45.7,45.7,0,0,1,9.3,6.2,53.6,53.6,0,0,1,7.8,8l-13,11.5a38.5,38.5,0,0,0-5.1-5.6,37.5,37.5,0,0,0-6.2-4.2,32.8,32.8,0,0,0-14.9-3.7,31.3,31.3,0,0,0-12.8,2.7,30.3,30.3,0,0,0-10.4,7.2,32.8,32.8,0,0,0-7.1,10.7,33.3,33.3,0,0,0-2.6,13.1,33.8,33.8,0,0,0,9.7,23.8,33.4,33.4,0,0,0,10.4,7.2A31.2,31.2,0,0,0,581.3,458Z" transform="translate(-235.7 -373.1)"/><path class="cls-1" d="M683.6,373.1h18.7v65a37.3,37.3,0,0,1-2.9,14.6,39.3,39.3,0,0,1-7.9,11.9,36.4,36.4,0,0,1-11.7,8,35.6,35.6,0,0,1-28.6,0,35.9,35.9,0,0,1-11.6-8,39.3,39.3,0,0,1-7.9-11.9,37.3,37.3,0,0,1-2.9-14.6v-65h18.7v65.4a18.9,18.9,0,0,0,1.4,7.2,20.2,20.2,0,0,0,3.9,5.9,16.1,16.1,0,0,0,5.7,3.9,16.6,16.6,0,0,0,7,1.5,17.1,17.1,0,0,0,7.1-1.5,16.1,16.1,0,0,0,5.7-3.9,20.2,20.2,0,0,0,3.9-5.9,18.9,18.9,0,0,0,1.4-7.2Z" transform="translate(-235.7 -373.1)"/><path class="cls-1" d="M736.6,373.1V457h37v18.6H718.1V373.1Z" transform="translate(-235.7 -373.1)"/><path class="cls-1" d="M842.1,373.1l.5,1.5-9.8,25.8-13.5,35.2h27l-6.5-16.7,9.8-25.8,31.2,82.5H860.7l-7.4-21h-41l-8.4,21H784.4L823,373.1Z" transform="translate(-235.7 -373.1)"/><path class="cls-1" d="M945.4,373.1v19.2H918v83.3H898.4V392.3H871.5V373.1Z" transform="translate(-235.7 -373.1)"/><path class="cls-1" d="M1013.7,373.1v19.1H972.2v22.9h41.5v18.6H972.2v22.8h41.5v19.1H953.6V373.1Z" transform="translate(-235.7 -373.1)"/><path class="cls-1" d="M1104.1,397a45.6,45.6,0,0,1,4.7,12.5,76.2,76.2,0,0,1,1.7,14.9,75.2,75.2,0,0,1-1.7,14.8,44.4,44.4,0,0,1-4.7,12.5c-4.8,8.5-10.7,14.6-17.7,18.2s-17.7,5.7-32.1,5.7h-26.2V373.1h26.2c14.4,0,25.1,1.9,32.1,5.8S1099.3,388.5,1104.1,397Zm-47,59.5q33.8,0,34.4-32.1t-34.4-32.2h-9.9v64.3Z" transform="translate(-235.7 -373.1)"/><path class="cls-1" d="M235.7,523.5h18.7V626H235.7Z" transform="translate(-235.7 -373.1)"/><path class="cls-1" d="M372.5,523.5,389.2,626H371.1l-10.7-64.8-21,64.8H322.7l-21.5-64.8L290.5,626H271.9l17.2-102.5h18.6L331,595l23.3-71.5Z" transform="translate(-235.7 -373.1)"/><path class="cls-1" d="M423.3,626H404.2V523.5h36.7a30.6,30.6,0,0,1,22.8,9.7,31.5,31.5,0,0,1,9.7,23.3v1.3a31.6,31.6,0,0,1-9.7,23.3,31.1,31.1,0,0,1-22.8,9.6H423.3ZM439,571.6a13.2,13.2,0,0,0,9.9-4.1,13.4,13.4,0,0,0,4-10.1,14.8,14.8,0,0,0-4-10.5,12.7,12.7,0,0,0-9.9-4.3H423.3v29Z" transform="translate(-235.7 -373.1)"/><path class="cls-1" d="M558.1,626H537.5l-18.2-35H508.2v35H489V523.5h36.8a30.4,30.4,0,0,1,22.8,9.7,32.1,32.1,0,0,1,9.5,23.3v1c0,13.9-6.6,24.1-19.6,30.7Zm-34.2-54.1a13.4,13.4,0,0,0,9.9-4.4A14.6,14.6,0,0,0,538,557a13.6,13.6,0,0,0-4.2-10.2,13.1,13.1,0,0,0-9.9-4.1H508.2v29.2Z" transform="translate(-235.7 -373.1)"/><path class="cls-1" d="M631.2,523.5v19.1H589.7v22.9h41.5V584H589.7v22.9h41.5V626H571.1V523.5Z" transform="translate(-235.7 -373.1)"/><path class="cls-1" d="M680.2,626c-13.4,0-23.6-7.1-30.6-21.4l15.6-9.5c4.6,8.8,9.8,13.2,15.5,13.2a12,12,0,0,0,8-2.8,8.7,8.7,0,0,0,3.1-6.3,13,13,0,0,0-2.2-6.8,39,39,0,0,0-4.1-4.1c-1.7-1.7-3.9-3.6-6.6-5.9-5.1-4.3-9.3-8.2-12.6-11.5a57.9,57.9,0,0,1-7.3-8.4c-3.3-4.8-4.9-9.5-4.9-14.1a23.6,23.6,0,0,1,7.6-17.6,26.1,26.1,0,0,1,18.5-7.3,26.4,26.4,0,0,1,13.8,3.7,28.8,28.8,0,0,1,6.8,4.7,75.5,75.5,0,0,1,7.4,7.5l-13.8,12.2c-4.6-6.6-9.3-9.9-14.2-9.9-2.7,0-4.6.6-5.7,1.7a5.7,5.7,0,0,0-2.2,4.6,8.5,8.5,0,0,0,1.3,4.4c.9,1,2.4,2.5,4.6,4.5l8.7,7.8c4.2,3.6,7.4,6.4,9.6,8.5l3.2,2.9c6.6,6.4,9.8,13.8,9.8,22.2s-2.7,14.8-8,20S689.1,626,680.2,626Z" transform="translate(-235.7 -373.1)"/><path class="cls-1" d="M755.9,626c-13.4,0-23.6-7.1-30.6-21.4l15.6-9.5c4.6,8.8,9.7,13.2,15.5,13.2a12.2,12.2,0,0,0,8-2.8,8.7,8.7,0,0,0,3.1-6.3,13,13,0,0,0-2.2-6.8,39,39,0,0,0-4.1-4.1c-1.7-1.7-3.9-3.6-6.6-5.9-5.1-4.3-9.3-8.2-12.6-11.5a57.9,57.9,0,0,1-7.3-8.4c-3.3-4.8-4.9-9.5-4.9-14.1a23.8,23.8,0,0,1,7.5-17.6,27.4,27.4,0,0,1,32.4-3.6,28.8,28.8,0,0,1,6.8,4.7,75.5,75.5,0,0,1,7.4,7.5l-13.8,12.2c-4.6-6.6-9.3-9.9-14.2-9.9-2.7,0-4.6.6-5.7,1.7A5.7,5.7,0,0,0,748,548a8.5,8.5,0,0,0,1.3,4.4c.9,1,2.4,2.5,4.6,4.5l8.7,7.8c4.2,3.6,7.4,6.4,9.6,8.5s2.5,2.3,3.2,2.9c6.5,6.4,9.8,13.8,9.8,22.2s-2.7,14.8-8,20S764.8,626,755.9,626Z" transform="translate(-235.7 -373.1)"/><path class="cls-1" d="M801,523.5h18.7V626H801Z" transform="translate(-235.7 -373.1)"/><path class="cls-1" d="M887.1,626q-21.3,0-35.7-15c-9.5-10.4-14.2-22.4-14.2-36a50.6,50.6,0,0,1,6.7-26A47.6,47.6,0,0,1,862,530.4a48.7,48.7,0,0,1,25.1-6.9c13.3,0,24.9,5,34.7,15A51,51,0,0,1,936.6,575c0,14.5-4.8,26.6-14.4,36.4A47.6,47.6,0,0,1,887.1,626Zm0-17.7a27.5,27.5,0,0,0,11.8-2.5,33.4,33.4,0,0,0,10-7.1q9.3-9.3,9.3-23.7a33.4,33.4,0,0,0-9.3-23.7,29.3,29.3,0,0,0-22.3-9.6q-13.5,0-22.2,9.6c-6,6.2-8.9,14.1-8.9,23.7s3.8,19.5,11.6,26A30.6,30.6,0,0,0,887.1,608.3Z" transform="translate(-235.7 -373.1)"/><path class="cls-1" d="M1033.3,523.5V626H1015l-43.3-67.2V626H953.2V523.5h18.1l42.8,67.7V523.5Z" transform="translate(-235.7 -373.1)"/><path class="cls-1" d="M1079.8,626c-13.4,0-23.6-7.1-30.6-21.4l15.5-9.5q6.9,13.2,15.6,13.2a11.9,11.9,0,0,0,7.9-2.8,8.3,8.3,0,0,0,3.1-6.3,12.2,12.2,0,0,0-2.2-6.8,48.3,48.3,0,0,0-4-4.1c-1.8-1.7-4-3.6-6.7-5.9-5-4.3-9.2-8.2-12.6-11.5a64.9,64.9,0,0,1-7.3-8.4c-3.2-4.8-4.9-9.5-4.9-14.1a23.9,23.9,0,0,1,7.6-17.6,27.3,27.3,0,0,1,32.3-3.6,26.9,26.9,0,0,1,6.8,4.7,75.5,75.5,0,0,1,7.4,7.5l-13.8,12.2q-6.9-9.9-14.1-9.9c-2.7,0-4.6.6-5.8,1.7a5.7,5.7,0,0,0-2.2,4.6,8.5,8.5,0,0,0,1.3,4.4c.9,1,2.5,2.5,4.7,4.5l8.7,7.8c4.2,3.6,7.4,6.4,9.5,8.5l3.3,2.9c6.5,6.4,9.7,13.8,9.7,22.2s-2.6,14.8-8,20S1088.6,626,1079.8,626Z" transform="translate(-235.7 -373.1)"/><path class="cls-1" d="M1166.2,432.5v-3.9h27.5v3.9h-11.5V465h-4.5V432.5Z" transform="translate(-235.7 -373.1)"/><path class="cls-1" d="M1200.5,465V428.6h4.5v16.2h19.5V428.6h4.4V465h-4.4V448.7H1205V465Z" transform="translate(-235.7 -373.1)"/><path class="cls-1" d="M1237.7,465V428.6h12.4a14.3,14.3,0,0,1,7,1.5,8.6,8.6,0,0,1,4.1,3.9,12.1,12.1,0,0,1,1.3,5.8,12,12,0,0,1-1.3,5.7,10,10,0,0,1-4,3.9,16.2,16.2,0,0,1-7,1.4h-10v-4h9.8a10.8,10.8,0,0,0,4.8-.9,5.1,5.1,0,0,0,2.6-2.4,8.4,8.4,0,0,0,.8-3.7,9.3,9.3,0,0,0-.8-3.9,6.6,6.6,0,0,0-2.7-2.5,10.6,10.6,0,0,0-4.7-.9h-7.8V465Zm17.3-16.4,9,16.4h-5.2l-8.8-16.4Z" transform="translate(-235.7 -373.1)"/><path class="cls-1" d="M1300.8,446.8a21.9,21.9,0,0,1-2.1,9.9,15.8,15.8,0,0,1-22.4,6.5,15.1,15.1,0,0,1-5.7-6.5,21.9,21.9,0,0,1-2.1-9.9,21.6,21.6,0,0,1,2.1-9.9,15.1,15.1,0,0,1,5.7-6.5,15.6,15.6,0,0,1,22.4,6.5A21.6,21.6,0,0,1,1300.8,446.8Zm-4.3,0a19,19,0,0,0-1.6-8,12.2,12.2,0,0,0-4.3-4.9,11.4,11.4,0,0,0-12,0,12.2,12.2,0,0,0-4.3,4.9,19,19,0,0,0-1.5,8,19.4,19.4,0,0,0,1.5,8,12.2,12.2,0,0,0,4.3,4.9,11.4,11.4,0,0,0,12,0,12.2,12.2,0,0,0,4.3-4.9A19.3,19.3,0,0,0,1296.5,446.8Z" transform="translate(-235.7 -373.1)"/><path class="cls-1" d="M1332.2,428.6h4.4v24.1a13,13,0,0,1-1.7,6.6,12.3,12.3,0,0,1-5,4.6,17.4,17.4,0,0,1-15,0,12.3,12.3,0,0,1-5-4.6,13,13,0,0,1-1.7-6.6V428.6h4.4v23.7a9.5,9.5,0,0,0,1.2,4.8,8.8,8.8,0,0,0,3.4,3.2,10.5,10.5,0,0,0,5.2,1.2,11.2,11.2,0,0,0,5.3-1.2,9.2,9.2,0,0,0,3.3-3.2,9.5,9.5,0,0,0,1.2-4.8Z" transform="translate(-235.7 -373.1)"/><path class="cls-1" d="M1370.5,440a13.4,13.4,0,0,0-3.8-5.7,8.5,8.5,0,0,0-3-1.5,10.6,10.6,0,0,0-3.7-.6,11.2,11.2,0,0,0-5.9,1.7,12.7,12.7,0,0,0-4.2,4.9,19,19,0,0,0-1.6,8,19.3,19.3,0,0,0,1.6,8,12.2,12.2,0,0,0,4.3,4.9,11.7,11.7,0,0,0,6.1,1.7,11.3,11.3,0,0,0,5.6-1.4,9,9,0,0,0,3.7-3.8,11.8,11.8,0,0,0,1.4-5.8l1.3.3h-11v-3.9h14v3.9a15.1,15.1,0,0,1-2,7.8,13.7,13.7,0,0,1-5.2,5.2,16.6,16.6,0,0,1-7.8,1.8,16.1,16.1,0,0,1-8.5-2.3,15.8,15.8,0,0,1-5.7-6.5,21.9,21.9,0,0,1-2.1-9.9,23.7,23.7,0,0,1,1.2-7.8,18.8,18.8,0,0,1,3.3-5.9,15.5,15.5,0,0,1,5.1-3.7,15.3,15.3,0,0,1,6.4-1.3,16.3,16.3,0,0,1,5.5.9,17,17,0,0,1,4.4,2.4,15.1,15.1,0,0,1,3.3,3.8,14.6,14.6,0,0,1,1.9,4.8Z" transform="translate(-235.7 -373.1)"/><path class="cls-1" d="M1382.8,465V428.6h4.5v16.2h19.5V428.6h4.4V465h-4.4V448.7h-19.5V465Z" transform="translate(-235.7 -373.1)"/><path class="cls-1" d="M1184,545.5h-17.3V497.1h17.4a26.1,26.1,0,0,1,12.6,2.9,19.3,19.3,0,0,1,8.2,8.3,27.4,27.4,0,0,1,2.9,13,28,28,0,0,1-2.9,13,19.3,19.3,0,0,1-8.2,8.3A26.5,26.5,0,0,1,1184,545.5Zm-7-8.8h6.5a16.3,16.3,0,0,0,7.7-1.6,10,10,0,0,0,4.7-5,25,25,0,0,0,0-17.6,9.6,9.6,0,0,0-4.7-5,15.8,15.8,0,0,0-7.6-1.6H1177Z" transform="translate(-235.7 -373.1)"/><path class="cls-1" d="M1215.4,545.5V497.1h32.8v8.4h-22.5v11.6h20.8v8.4h-20.8v11.6h22.6v8.4Z" transform="translate(-235.7 -373.1)"/><path class="cls-1" d="M1282.8,511a5.7,5.7,0,0,0-2.5-4.4,9.3,9.3,0,0,0-5.8-1.6,11.1,11.1,0,0,0-4.3.7,6.5,6.5,0,0,0-2.6,1.9,4.7,4.7,0,0,0-.9,2.8,3.6,3.6,0,0,0,.5,2.3,5.2,5.2,0,0,0,1.7,1.6,8.3,8.3,0,0,0,2.5,1.2,13.2,13.2,0,0,0,3,.9l4.3,1a40.9,40.9,0,0,1,5.9,1.9,19,19,0,0,1,4.6,2.9,13.1,13.1,0,0,1,3,4.1,14.3,14.3,0,0,1-1.1,13.1,15.1,15.1,0,0,1-6.5,5,25.9,25.9,0,0,1-10.2,1.8,26.6,26.6,0,0,1-10.2-1.8,15.2,15.2,0,0,1-6.8-5.3,15.5,15.5,0,0,1-2.6-8.8h10a7.7,7.7,0,0,0,1.4,4.1,8.3,8.3,0,0,0,3.3,2.4,14.2,14.2,0,0,0,4.8.8,12.7,12.7,0,0,0,4.6-.7,7.8,7.8,0,0,0,3-2.2,4.7,4.7,0,0,0,1-3,4.5,4.5,0,0,0-.9-2.8,8.6,8.6,0,0,0-2.8-1.9,34.5,34.5,0,0,0-4.5-1.4l-5.3-1.3a23,23,0,0,1-9.8-4.7,10.9,10.9,0,0,1-3.5-8.5,12.8,12.8,0,0,1,2.4-7.7,15.2,15.2,0,0,1,6.5-5.1,24,24,0,0,1,9.5-1.9,23,23,0,0,1,9.5,1.9,14.6,14.6,0,0,1,6.3,5.1,14,14,0,0,1,2.4,7.6Z" transform="translate(-235.7 -373.1)"/><path class="cls-1" d="M1310.5,497.1v48.4h-10.3V497.1Z" transform="translate(-235.7 -373.1)"/><path class="cls-1" d="M1351.3,512.7a13.8,13.8,0,0,0-1.4-3,9.7,9.7,0,0,0-2.2-2.3,10.3,10.3,0,0,0-3-1.4,13.6,13.6,0,0,0-3.6-.5,12.1,12.1,0,0,0-6.6,1.8,13.3,13.3,0,0,0-4.4,5.4,21.7,21.7,0,0,0-1.5,8.6,22.4,22.4,0,0,0,1.5,8.6,13.1,13.1,0,0,0,4.4,5.4,12.2,12.2,0,0,0,6.7,1.8,14,14,0,0,0,6-1.2,9.9,9.9,0,0,0,3.8-3.5,11.6,11.6,0,0,0,1.3-5.4l2.1.3h-12.6v-7.7h20.4v6.1a20.7,20.7,0,0,1-2.7,10.9,18.3,18.3,0,0,1-7.5,7.1,24,24,0,0,1-10.9,2.5,22.8,22.8,0,0,1-12-3.1,20.8,20.8,0,0,1-8.1-8.5,31.8,31.8,0,0,1-1.1-23.8,22.2,22.2,0,0,1,4.8-7.8,21.3,21.3,0,0,1,7.3-4.9,23.5,23.5,0,0,1,8.9-1.7,23.9,23.9,0,0,1,7.7,1.2,21.2,21.2,0,0,1,6.3,3.4,18.9,18.9,0,0,1,4.6,5.2,18.5,18.5,0,0,1,2.2,6.5Z" transform="translate(-235.7 -373.1)"/><path class="cls-1" d="M1410.6,497.1v48.4h-8.9L1380.6,515h-.4v30.5h-10.3V497.1h9l21.1,30.4h.4V497.1Z" transform="translate(-235.7 -373.1)"/><path class="cls-1" d="M1174.4,626a10.4,10.4,0,0,1-4.7-1,7.8,7.8,0,0,1-3.4-2.8,8.6,8.6,0,0,1-1.3-4.6,7.4,7.4,0,0,1,1-3.8,6.2,6.2,0,0,1,2.5-2.3,11.4,11.4,0,0,1,3.4-1.2l3.8-.7,4.1-.5a4.9,4.9,0,0,0,2.2-.6,1.4,1.4,0,0,0,.8-1.4h0a5.3,5.3,0,0,0-1.5-4.1,5.6,5.6,0,0,0-4.3-1.5,8.5,8.5,0,0,0-4.8,1.3,8.8,8.8,0,0,0-2.4,2.8l-4-1.4a10.5,10.5,0,0,1,2.9-3.9,11.8,11.8,0,0,1,3.9-1.9,15.2,15.2,0,0,1,4.2-.6l3.1.3a11.3,11.3,0,0,1,3.3,1.3,6.9,6.9,0,0,1,2.7,2.9,10.9,10.9,0,0,1,1.1,5.2v18h-4.2v-3.7h-.3a5.4,5.4,0,0,1-1.4,1.9,9,9,0,0,1-2.6,1.7A10.4,10.4,0,0,1,1174.4,626Zm.6-3.8a9.4,9.4,0,0,0,4.3-.9,7.2,7.2,0,0,0,2.6-2.6,6.2,6.2,0,0,0,.9-3.2v-3.8a2.3,2.3,0,0,1-1.2.5l-2.1.5-2.3.3-1.7.2-3.1.7a5.9,5.9,0,0,0-2.3,1.4,3.4,3.4,0,0,0-.8,2.5,3.6,3.6,0,0,0,1.6,3.3A6.8,6.8,0,0,0,1175,622.2Z" transform="translate(-235.7 -373.1)"/><path class="cls-1" d="M1198.9,609v16.4h-4.2V598.1h4.1v4.2h.3a8.4,8.4,0,0,1,2.9-3.3,9.9,9.9,0,0,1,5.1-1.3,9.6,9.6,0,0,1,4.9,1.2,6.7,6.7,0,0,1,3.2,3.4,12,12,0,0,1,1.2,5.7v17.4h-4.2V608.3a7.2,7.2,0,0,0-1.7-5,5.9,5.9,0,0,0-4.6-1.8,7.4,7.4,0,0,0-3.6.9,6,6,0,0,0-2.5,2.5A8.6,8.6,0,0,0,1198.9,609Z" transform="translate(-235.7 -373.1)"/><path class="cls-1" d="M1234.5,625.9a11.4,11.4,0,0,1-6.1-1.7,12.4,12.4,0,0,1-4.1-4.9,19.5,19.5,0,0,1,0-15,11.4,11.4,0,0,1,4.1-4.8,10.8,10.8,0,0,1,6.2-1.8,8.4,8.4,0,0,1,4.2.9,9.8,9.8,0,0,1,2.4,2l1.3,1.8h.3V589h4.3v36.4H1243v-4.2h-.5l-1.3,1.8a6.3,6.3,0,0,1-2.5,2A8.4,8.4,0,0,1,1234.5,625.9Zm.6-3.7a6.6,6.6,0,0,0,4.2-1.4,7.7,7.7,0,0,0,2.7-3.6,15.5,15.5,0,0,0,.9-5.5,14.4,14.4,0,0,0-.9-5.3,7.7,7.7,0,0,0-2.6-3.6,6.9,6.9,0,0,0-4.3-1.3,6.7,6.7,0,0,0-4.5,1.4,8.2,8.2,0,0,0-2.7,3.6,14.6,14.6,0,0,0-.8,5.2,14.7,14.7,0,0,0,.9,5.3,8.6,8.6,0,0,0,2.6,3.8A7.3,7.3,0,0,0,1235.1,622.2Z" transform="translate(-235.7 -373.1)"/><path class="cls-1" d="M1272.7,585.4V577h40v8.4h-14.9v40h-10.2v-40Z" transform="translate(-235.7 -373.1)"/><path class="cls-1" d="M1319.3,625.4V577h32.8v8.4h-22.5v11.5h20.8v8.5h-20.8v11.5h22.6v8.5Z" transform="translate(-235.7 -373.1)"/><path class="cls-1" d="M1403.2,593.9h-10.4a13.7,13.7,0,0,0-1.1-3.6,11.8,11.8,0,0,0-2.3-2.7,10.9,10.9,0,0,0-3.2-1.7,12.3,12.3,0,0,0-3.9-.6,11.6,11.6,0,0,0-6.5,1.9,11.4,11.4,0,0,0-4.4,5.4,21.7,21.7,0,0,0-1.5,8.6,22.6,22.6,0,0,0,1.5,8.7,12.2,12.2,0,0,0,4.4,5.3,11.5,11.5,0,0,0,6.5,1.8,12.1,12.1,0,0,0,3.8-.6,9.6,9.6,0,0,0,3.2-1.6,8.8,8.8,0,0,0,2.2-2.5,8.2,8.2,0,0,0,1.3-3.5h10.4a17,17,0,0,1-2,6.4,18.7,18.7,0,0,1-4.3,5.5,19.4,19.4,0,0,1-6.4,3.8,24.7,24.7,0,0,1-8.4,1.4,23.5,23.5,0,0,1-11.6-2.9,20.8,20.8,0,0,1-8.1-8.5,31.7,31.7,0,0,1,0-26.9,21.4,21.4,0,0,1,8.1-8.5,23.8,23.8,0,0,1,11.6-2.9,25.6,25.6,0,0,1,7.9,1.2,20.7,20.7,0,0,1,6.4,3.4,18.8,18.8,0,0,1,4.6,5.5A21.9,21.9,0,0,1,1403.2,593.9Z" transform="translate(-235.7 -373.1)"/><path class="cls-1" d="M1410.6,625.4V577h10.3v19.9h20.9V577h10.3v48.4h-10.3v-20h-20.9v20Z" transform="translate(-235.7 -373.1)"/><path class="cls-1" d="M1501.3,577v48.4h-8.9l-21.2-30.5h-.3v30.5h-10.3V577h9l21,30.4h.4V577Z" transform="translate(-235.7 -373.1)"/><path class="cls-1" d="M1554.5,601.2a27.9,27.9,0,0,1-3,13.4,20.4,20.4,0,0,1-8.2,8.5,24.6,24.6,0,0,1-23.2,0,21,21,0,0,1-8.2-8.5,31.7,31.7,0,0,1,0-26.9,21,21,0,0,1,8.2-8.5,24.6,24.6,0,0,1,23.2,0,21,21,0,0,1,8.2,8.5A28.1,28.1,0,0,1,1554.5,601.2Zm-10.4,0a20.5,20.5,0,0,0-1.6-8.7,11.4,11.4,0,0,0-4.3-5.3,12.1,12.1,0,0,0-13,0,11.4,11.4,0,0,0-4.3,5.3,22.2,22.2,0,0,0-1.6,8.7,21.6,21.6,0,0,0,1.6,8.6,11.6,11.6,0,0,0,21.6,0A20,20,0,0,0,1544.1,601.2Z" transform="translate(-235.7 -373.1)"/><path class="cls-1" d="M1562.1,625.4V577h10.3v39.9h20.9v8.5Z" transform="translate(-235.7 -373.1)"/><path class="cls-1" d="M1642.9,601.2a27.9,27.9,0,0,1-3,13.4,20.4,20.4,0,0,1-8.2,8.5,24.7,24.7,0,0,1-23.2,0,21,21,0,0,1-8.2-8.5,31.7,31.7,0,0,1,0-26.9,21,21,0,0,1,8.2-8.5,24.7,24.7,0,0,1,23.2,0,21,21,0,0,1,8.2,8.5A28.1,28.1,0,0,1,1642.9,601.2Zm-10.4,0a22.2,22.2,0,0,0-1.5-8.7,12.2,12.2,0,0,0-4.4-5.3,11.6,11.6,0,0,0-6.5-1.9,11.8,11.8,0,0,0-6.5,1.9,12,12,0,0,0-4.3,5.3,22.2,22.2,0,0,0-1.5,8.7,21.7,21.7,0,0,0,1.5,8.6,11.5,11.5,0,0,0,4.3,5.3,11.1,11.1,0,0,0,6.5,1.9,10.8,10.8,0,0,0,6.5-1.9,11.7,11.7,0,0,0,4.4-5.3A21.7,21.7,0,0,0,1632.5,601.2Z" transform="translate(-235.7 -373.1)"/><path class="cls-1" d="M1682.8,592.6a10.9,10.9,0,0,0-1.4-3.1,9.2,9.2,0,0,0-2.2-2.2,13.2,13.2,0,0,0-2.9-1.5,14.4,14.4,0,0,0-3.7-.5,11.7,11.7,0,0,0-10.9,7.2,23.9,23.9,0,0,0,0,17.2,11.2,11.2,0,0,0,4.3,5.4,12.3,12.3,0,0,0,6.7,1.9,12.6,12.6,0,0,0,6-1.3,9.2,9.2,0,0,0,3.8-3.5,10.2,10.2,0,0,0,1.3-5.3l2.1.3h-12.5v-7.7h20.3v6.1a21,21,0,0,1-2.7,10.9,17.5,17.5,0,0,1-7.5,7,22.1,22.1,0,0,1-10.8,2.5,23.9,23.9,0,0,1-12.1-3,20.8,20.8,0,0,1-8-8.6,27.4,27.4,0,0,1-2.9-13.2,28.9,28.9,0,0,1,1.7-10.5,21.9,21.9,0,0,1,4.8-7.8,20,20,0,0,1,7.3-4.9,24.7,24.7,0,0,1,16.6-.5,20.7,20.7,0,0,1,6.4,3.4,17.9,17.9,0,0,1,6.8,11.7Z" transform="translate(-235.7 -373.1)"/><path class="cls-1" d="M1698.6,577h11.5l11.1,20.8h.5l11.1-20.8h11.5l-17.7,31.2v17.2h-10.2V608.2Z" transform="translate(-235.7 -373.1)"/></svg>